G04 #@! TF.FileFunction,Legend,Top*
%FSLAX46Y46*%
G04 Gerber Fmt 4.6, Leading zero omitted, Abs format (unit mm)*
G04 Created by KiCad (PCBNEW 4.0.4-stable) date 02/18/17 15:09:56*
%MOMM*%
%LPD*%
G01*
G04 APERTURE LIST*
%ADD10C,0.100000*%
%ADD11C,0.175000*%
%ADD12C,0.150000*%
%ADD13C,0.120000*%
%ADD14C,0.500000*%
%ADD15C,0.110000*%
%ADD16C,0.125000*%
G04 APERTURE END LIST*
D10*
D11*
X142960000Y-104740001D02*
X142926667Y-104840001D01*
X142893333Y-104873334D01*
X142826667Y-104906668D01*
X142726667Y-104906668D01*
X142660000Y-104873334D01*
X142626667Y-104840001D01*
X142593333Y-104773334D01*
X142593333Y-104506668D01*
X143293333Y-104506668D01*
X143293333Y-104740001D01*
X143260000Y-104806668D01*
X143226667Y-104840001D01*
X143160000Y-104873334D01*
X143093333Y-104873334D01*
X143026667Y-104840001D01*
X142993333Y-104806668D01*
X142960000Y-104740001D01*
X142960000Y-104506668D01*
X143293333Y-105340001D02*
X143293333Y-105473334D01*
X143260000Y-105540001D01*
X143193333Y-105606668D01*
X143060000Y-105640001D01*
X142826667Y-105640001D01*
X142693333Y-105606668D01*
X142626667Y-105540001D01*
X142593333Y-105473334D01*
X142593333Y-105340001D01*
X142626667Y-105273334D01*
X142693333Y-105206668D01*
X142826667Y-105173334D01*
X143060000Y-105173334D01*
X143193333Y-105206668D01*
X143260000Y-105273334D01*
X143293333Y-105340001D01*
X143293333Y-106073334D02*
X143293333Y-106206667D01*
X143260000Y-106273334D01*
X143193333Y-106340001D01*
X143060000Y-106373334D01*
X142826667Y-106373334D01*
X142693333Y-106340001D01*
X142626667Y-106273334D01*
X142593333Y-106206667D01*
X142593333Y-106073334D01*
X142626667Y-106006667D01*
X142693333Y-105940001D01*
X142826667Y-105906667D01*
X143060000Y-105906667D01*
X143193333Y-105940001D01*
X143260000Y-106006667D01*
X143293333Y-106073334D01*
X143293333Y-106573334D02*
X143293333Y-106973334D01*
X142593333Y-106773334D02*
X143293333Y-106773334D01*
D10*
X119879048Y-89958571D02*
X119855238Y-89982381D01*
X119783810Y-90006190D01*
X119736191Y-90006190D01*
X119664762Y-89982381D01*
X119617143Y-89934762D01*
X119593334Y-89887143D01*
X119569524Y-89791905D01*
X119569524Y-89720476D01*
X119593334Y-89625238D01*
X119617143Y-89577619D01*
X119664762Y-89530000D01*
X119736191Y-89506190D01*
X119783810Y-89506190D01*
X119855238Y-89530000D01*
X119879048Y-89553810D01*
X120093334Y-90006190D02*
X120093334Y-89506190D01*
X120260000Y-89863333D01*
X120426667Y-89506190D01*
X120426667Y-90006190D01*
X120664763Y-90006190D02*
X120664763Y-89506190D01*
X120783810Y-89506190D01*
X120855239Y-89530000D01*
X120902858Y-89577619D01*
X120926667Y-89625238D01*
X120950477Y-89720476D01*
X120950477Y-89791905D01*
X120926667Y-89887143D01*
X120902858Y-89934762D01*
X120855239Y-89982381D01*
X120783810Y-90006190D01*
X120664763Y-90006190D01*
X162439049Y-89795714D02*
X162820001Y-89795714D01*
X162629525Y-89986190D02*
X162629525Y-89605238D01*
X163010478Y-89486190D02*
X163320001Y-89486190D01*
X163153335Y-89676667D01*
X163224763Y-89676667D01*
X163272382Y-89700476D01*
X163296192Y-89724286D01*
X163320001Y-89771905D01*
X163320001Y-89890952D01*
X163296192Y-89938571D01*
X163272382Y-89962381D01*
X163224763Y-89986190D01*
X163081906Y-89986190D01*
X163034287Y-89962381D01*
X163010478Y-89938571D01*
X163462858Y-89486190D02*
X163629525Y-89986190D01*
X163796191Y-89486190D01*
X163915239Y-89486190D02*
X164224762Y-89486190D01*
X164058096Y-89676667D01*
X164129524Y-89676667D01*
X164177143Y-89700476D01*
X164200953Y-89724286D01*
X164224762Y-89771905D01*
X164224762Y-89890952D01*
X164200953Y-89938571D01*
X164177143Y-89962381D01*
X164129524Y-89986190D01*
X163986667Y-89986190D01*
X163939048Y-89962381D01*
X163915239Y-89938571D01*
X160600953Y-89724286D02*
X160767619Y-89724286D01*
X160839048Y-89986190D02*
X160600953Y-89986190D01*
X160600953Y-89486190D01*
X160839048Y-89486190D01*
X161053334Y-89986190D02*
X161053334Y-89486190D01*
X161339048Y-89986190D01*
X161339048Y-89486190D01*
X157662382Y-89982381D02*
X157733811Y-90006190D01*
X157852858Y-90006190D01*
X157900477Y-89982381D01*
X157924287Y-89958571D01*
X157948096Y-89910952D01*
X157948096Y-89863333D01*
X157924287Y-89815714D01*
X157900477Y-89791905D01*
X157852858Y-89768095D01*
X157757620Y-89744286D01*
X157710001Y-89720476D01*
X157686192Y-89696667D01*
X157662382Y-89649048D01*
X157662382Y-89601429D01*
X157686192Y-89553810D01*
X157710001Y-89530000D01*
X157757620Y-89506190D01*
X157876668Y-89506190D01*
X157948096Y-89530000D01*
X158043334Y-90053810D02*
X158424286Y-90053810D01*
X158471905Y-89506190D02*
X158638572Y-90006190D01*
X158805238Y-89506190D01*
X158971905Y-90006190D02*
X158971905Y-89506190D01*
X159162381Y-89506190D01*
X159210000Y-89530000D01*
X159233809Y-89553810D01*
X159257619Y-89601429D01*
X159257619Y-89672857D01*
X159233809Y-89720476D01*
X159210000Y-89744286D01*
X159162381Y-89768095D01*
X158971905Y-89768095D01*
X155020477Y-89992381D02*
X155091906Y-90016190D01*
X155210953Y-90016190D01*
X155258572Y-89992381D01*
X155282382Y-89968571D01*
X155306191Y-89920952D01*
X155306191Y-89873333D01*
X155282382Y-89825714D01*
X155258572Y-89801905D01*
X155210953Y-89778095D01*
X155115715Y-89754286D01*
X155068096Y-89730476D01*
X155044287Y-89706667D01*
X155020477Y-89659048D01*
X155020477Y-89611429D01*
X155044287Y-89563810D01*
X155068096Y-89540000D01*
X155115715Y-89516190D01*
X155234763Y-89516190D01*
X155306191Y-89540000D01*
X155401429Y-90063810D02*
X155782381Y-90063810D01*
X155830000Y-89516190D02*
X155996667Y-90016190D01*
X156163333Y-89516190D01*
X156330000Y-90016190D02*
X156330000Y-89516190D01*
X156615714Y-90016190D01*
X156615714Y-89516190D01*
X152611906Y-90016190D02*
X152611906Y-89516190D01*
X152945239Y-89516190D02*
X153040477Y-89516190D01*
X153088096Y-89540000D01*
X153135715Y-89587619D01*
X153159524Y-89682857D01*
X153159524Y-89849524D01*
X153135715Y-89944762D01*
X153088096Y-89992381D01*
X153040477Y-90016190D01*
X152945239Y-90016190D01*
X152897620Y-89992381D01*
X152850001Y-89944762D01*
X152826191Y-89849524D01*
X152826191Y-89682857D01*
X152850001Y-89587619D01*
X152897620Y-89540000D01*
X152945239Y-89516190D01*
X153326192Y-89516190D02*
X153635715Y-89516190D01*
X153469049Y-89706667D01*
X153540477Y-89706667D01*
X153588096Y-89730476D01*
X153611906Y-89754286D01*
X153635715Y-89801905D01*
X153635715Y-89920952D01*
X153611906Y-89968571D01*
X153588096Y-89992381D01*
X153540477Y-90016190D01*
X153397620Y-90016190D01*
X153350001Y-89992381D01*
X153326192Y-89968571D01*
X154064286Y-89682857D02*
X154064286Y-90016190D01*
X153945239Y-89492381D02*
X153826191Y-89849524D01*
X154135715Y-89849524D01*
X150051906Y-90016190D02*
X150051906Y-89516190D01*
X150385239Y-89516190D02*
X150480477Y-89516190D01*
X150528096Y-89540000D01*
X150575715Y-89587619D01*
X150599524Y-89682857D01*
X150599524Y-89849524D01*
X150575715Y-89944762D01*
X150528096Y-89992381D01*
X150480477Y-90016190D01*
X150385239Y-90016190D01*
X150337620Y-89992381D01*
X150290001Y-89944762D01*
X150266191Y-89849524D01*
X150266191Y-89682857D01*
X150290001Y-89587619D01*
X150337620Y-89540000D01*
X150385239Y-89516190D01*
X150766192Y-89516190D02*
X151075715Y-89516190D01*
X150909049Y-89706667D01*
X150980477Y-89706667D01*
X151028096Y-89730476D01*
X151051906Y-89754286D01*
X151075715Y-89801905D01*
X151075715Y-89920952D01*
X151051906Y-89968571D01*
X151028096Y-89992381D01*
X150980477Y-90016190D01*
X150837620Y-90016190D01*
X150790001Y-89992381D01*
X150766192Y-89968571D01*
X151528096Y-89516190D02*
X151290001Y-89516190D01*
X151266191Y-89754286D01*
X151290001Y-89730476D01*
X151337620Y-89706667D01*
X151456667Y-89706667D01*
X151504286Y-89730476D01*
X151528096Y-89754286D01*
X151551905Y-89801905D01*
X151551905Y-89920952D01*
X151528096Y-89968571D01*
X151504286Y-89992381D01*
X151456667Y-90016190D01*
X151337620Y-90016190D01*
X151290001Y-89992381D01*
X151266191Y-89968571D01*
X147481906Y-90006190D02*
X147481906Y-89506190D01*
X147815239Y-89506190D02*
X147910477Y-89506190D01*
X147958096Y-89530000D01*
X148005715Y-89577619D01*
X148029524Y-89672857D01*
X148029524Y-89839524D01*
X148005715Y-89934762D01*
X147958096Y-89982381D01*
X147910477Y-90006190D01*
X147815239Y-90006190D01*
X147767620Y-89982381D01*
X147720001Y-89934762D01*
X147696191Y-89839524D01*
X147696191Y-89672857D01*
X147720001Y-89577619D01*
X147767620Y-89530000D01*
X147815239Y-89506190D01*
X148196192Y-89506190D02*
X148505715Y-89506190D01*
X148339049Y-89696667D01*
X148410477Y-89696667D01*
X148458096Y-89720476D01*
X148481906Y-89744286D01*
X148505715Y-89791905D01*
X148505715Y-89910952D01*
X148481906Y-89958571D01*
X148458096Y-89982381D01*
X148410477Y-90006190D01*
X148267620Y-90006190D01*
X148220001Y-89982381D01*
X148196192Y-89958571D01*
X148696191Y-89553810D02*
X148720001Y-89530000D01*
X148767620Y-89506190D01*
X148886667Y-89506190D01*
X148934286Y-89530000D01*
X148958096Y-89553810D01*
X148981905Y-89601429D01*
X148981905Y-89649048D01*
X148958096Y-89720476D01*
X148672382Y-90006190D01*
X148981905Y-90006190D01*
X163109047Y-109990000D02*
X163061428Y-109966190D01*
X162990000Y-109966190D01*
X162918571Y-109990000D01*
X162870952Y-110037619D01*
X162847143Y-110085238D01*
X162823333Y-110180476D01*
X162823333Y-110251905D01*
X162847143Y-110347143D01*
X162870952Y-110394762D01*
X162918571Y-110442381D01*
X162990000Y-110466190D01*
X163037619Y-110466190D01*
X163109047Y-110442381D01*
X163132857Y-110418571D01*
X163132857Y-110251905D01*
X163037619Y-110251905D01*
X163347143Y-110466190D02*
X163347143Y-109966190D01*
X163632857Y-110466190D01*
X163632857Y-109966190D01*
X163870953Y-110466190D02*
X163870953Y-109966190D01*
X163990000Y-109966190D01*
X164061429Y-109990000D01*
X164109048Y-110037619D01*
X164132857Y-110085238D01*
X164156667Y-110180476D01*
X164156667Y-110251905D01*
X164132857Y-110347143D01*
X164109048Y-110394762D01*
X164061429Y-110442381D01*
X163990000Y-110466190D01*
X163870953Y-110466190D01*
X160221906Y-110496190D02*
X160221906Y-109996190D01*
X160555239Y-109996190D02*
X160650477Y-109996190D01*
X160698096Y-110020000D01*
X160745715Y-110067619D01*
X160769524Y-110162857D01*
X160769524Y-110329524D01*
X160745715Y-110424762D01*
X160698096Y-110472381D01*
X160650477Y-110496190D01*
X160555239Y-110496190D01*
X160507620Y-110472381D01*
X160460001Y-110424762D01*
X160436191Y-110329524D01*
X160436191Y-110162857D01*
X160460001Y-110067619D01*
X160507620Y-110020000D01*
X160555239Y-109996190D01*
X160960001Y-110043810D02*
X160983811Y-110020000D01*
X161031430Y-109996190D01*
X161150477Y-109996190D01*
X161198096Y-110020000D01*
X161221906Y-110043810D01*
X161245715Y-110091429D01*
X161245715Y-110139048D01*
X161221906Y-110210476D01*
X160936192Y-110496190D01*
X161245715Y-110496190D01*
X161412382Y-109996190D02*
X161721905Y-109996190D01*
X161555239Y-110186667D01*
X161626667Y-110186667D01*
X161674286Y-110210476D01*
X161698096Y-110234286D01*
X161721905Y-110281905D01*
X161721905Y-110400952D01*
X161698096Y-110448571D01*
X161674286Y-110472381D01*
X161626667Y-110496190D01*
X161483810Y-110496190D01*
X161436191Y-110472381D01*
X161412382Y-110448571D01*
X157631906Y-110476190D02*
X157631906Y-109976190D01*
X157965239Y-109976190D02*
X158060477Y-109976190D01*
X158108096Y-110000000D01*
X158155715Y-110047619D01*
X158179524Y-110142857D01*
X158179524Y-110309524D01*
X158155715Y-110404762D01*
X158108096Y-110452381D01*
X158060477Y-110476190D01*
X157965239Y-110476190D01*
X157917620Y-110452381D01*
X157870001Y-110404762D01*
X157846191Y-110309524D01*
X157846191Y-110142857D01*
X157870001Y-110047619D01*
X157917620Y-110000000D01*
X157965239Y-109976190D01*
X158370001Y-110023810D02*
X158393811Y-110000000D01*
X158441430Y-109976190D01*
X158560477Y-109976190D01*
X158608096Y-110000000D01*
X158631906Y-110023810D01*
X158655715Y-110071429D01*
X158655715Y-110119048D01*
X158631906Y-110190476D01*
X158346192Y-110476190D01*
X158655715Y-110476190D01*
X158846191Y-110023810D02*
X158870001Y-110000000D01*
X158917620Y-109976190D01*
X159036667Y-109976190D01*
X159084286Y-110000000D01*
X159108096Y-110023810D01*
X159131905Y-110071429D01*
X159131905Y-110119048D01*
X159108096Y-110190476D01*
X158822382Y-110476190D01*
X159131905Y-110476190D01*
X155020953Y-110006190D02*
X155306667Y-110006190D01*
X155163810Y-110506190D02*
X155163810Y-110006190D01*
X155425715Y-110006190D02*
X155759048Y-110506190D01*
X155759048Y-110006190D02*
X155425715Y-110506190D01*
X155949524Y-110506190D02*
X155949524Y-110006190D01*
X156068571Y-110006190D01*
X156140000Y-110030000D01*
X156187619Y-110077619D01*
X156211428Y-110125238D01*
X156235238Y-110220476D01*
X156235238Y-110291905D01*
X156211428Y-110387143D01*
X156187619Y-110434762D01*
X156140000Y-110482381D01*
X156068571Y-110506190D01*
X155949524Y-110506190D01*
X156544762Y-110006190D02*
X156592381Y-110006190D01*
X156640000Y-110030000D01*
X156663809Y-110053810D01*
X156687619Y-110101429D01*
X156711428Y-110196667D01*
X156711428Y-110315714D01*
X156687619Y-110410952D01*
X156663809Y-110458571D01*
X156640000Y-110482381D01*
X156592381Y-110506190D01*
X156544762Y-110506190D01*
X156497143Y-110482381D01*
X156473333Y-110458571D01*
X156449524Y-110410952D01*
X156425714Y-110315714D01*
X156425714Y-110196667D01*
X156449524Y-110101429D01*
X156473333Y-110053810D01*
X156497143Y-110030000D01*
X156544762Y-110006190D01*
X152718572Y-110496190D02*
X152551905Y-110258095D01*
X152432858Y-110496190D02*
X152432858Y-109996190D01*
X152623334Y-109996190D01*
X152670953Y-110020000D01*
X152694762Y-110043810D01*
X152718572Y-110091429D01*
X152718572Y-110162857D01*
X152694762Y-110210476D01*
X152670953Y-110234286D01*
X152623334Y-110258095D01*
X152432858Y-110258095D01*
X152885239Y-109996190D02*
X153218572Y-110496190D01*
X153218572Y-109996190D02*
X152885239Y-110496190D01*
X153409048Y-110496190D02*
X153409048Y-109996190D01*
X153528095Y-109996190D01*
X153599524Y-110020000D01*
X153647143Y-110067619D01*
X153670952Y-110115238D01*
X153694762Y-110210476D01*
X153694762Y-110281905D01*
X153670952Y-110377143D01*
X153647143Y-110424762D01*
X153599524Y-110472381D01*
X153528095Y-110496190D01*
X153409048Y-110496190D01*
X154004286Y-109996190D02*
X154051905Y-109996190D01*
X154099524Y-110020000D01*
X154123333Y-110043810D01*
X154147143Y-110091429D01*
X154170952Y-110186667D01*
X154170952Y-110305714D01*
X154147143Y-110400952D01*
X154123333Y-110448571D01*
X154099524Y-110472381D01*
X154051905Y-110496190D01*
X154004286Y-110496190D01*
X153956667Y-110472381D01*
X153932857Y-110448571D01*
X153909048Y-110400952D01*
X153885238Y-110305714D01*
X153885238Y-110186667D01*
X153909048Y-110091429D01*
X153932857Y-110043810D01*
X153956667Y-110020000D01*
X154004286Y-109996190D01*
X150041906Y-110476190D02*
X150041906Y-109976190D01*
X150375239Y-109976190D02*
X150470477Y-109976190D01*
X150518096Y-110000000D01*
X150565715Y-110047619D01*
X150589524Y-110142857D01*
X150589524Y-110309524D01*
X150565715Y-110404762D01*
X150518096Y-110452381D01*
X150470477Y-110476190D01*
X150375239Y-110476190D01*
X150327620Y-110452381D01*
X150280001Y-110404762D01*
X150256191Y-110309524D01*
X150256191Y-110142857D01*
X150280001Y-110047619D01*
X150327620Y-110000000D01*
X150375239Y-109976190D01*
X150780001Y-110023810D02*
X150803811Y-110000000D01*
X150851430Y-109976190D01*
X150970477Y-109976190D01*
X151018096Y-110000000D01*
X151041906Y-110023810D01*
X151065715Y-110071429D01*
X151065715Y-110119048D01*
X151041906Y-110190476D01*
X150756192Y-110476190D01*
X151065715Y-110476190D01*
X151541905Y-110476190D02*
X151256191Y-110476190D01*
X151399048Y-110476190D02*
X151399048Y-109976190D01*
X151351429Y-110047619D01*
X151303810Y-110095238D01*
X151256191Y-110119048D01*
X147909047Y-110010000D02*
X147861428Y-109986190D01*
X147790000Y-109986190D01*
X147718571Y-110010000D01*
X147670952Y-110057619D01*
X147647143Y-110105238D01*
X147623333Y-110200476D01*
X147623333Y-110271905D01*
X147647143Y-110367143D01*
X147670952Y-110414762D01*
X147718571Y-110462381D01*
X147790000Y-110486190D01*
X147837619Y-110486190D01*
X147909047Y-110462381D01*
X147932857Y-110438571D01*
X147932857Y-110271905D01*
X147837619Y-110271905D01*
X148147143Y-110486190D02*
X148147143Y-109986190D01*
X148432857Y-110486190D01*
X148432857Y-109986190D01*
X148670953Y-110486190D02*
X148670953Y-109986190D01*
X148790000Y-109986190D01*
X148861429Y-110010000D01*
X148909048Y-110057619D01*
X148932857Y-110105238D01*
X148956667Y-110200476D01*
X148956667Y-110271905D01*
X148932857Y-110367143D01*
X148909048Y-110414762D01*
X148861429Y-110462381D01*
X148790000Y-110486190D01*
X148670953Y-110486190D01*
X144931906Y-110456190D02*
X144931906Y-109956190D01*
X145265239Y-109956190D02*
X145360477Y-109956190D01*
X145408096Y-109980000D01*
X145455715Y-110027619D01*
X145479524Y-110122857D01*
X145479524Y-110289524D01*
X145455715Y-110384762D01*
X145408096Y-110432381D01*
X145360477Y-110456190D01*
X145265239Y-110456190D01*
X145217620Y-110432381D01*
X145170001Y-110384762D01*
X145146191Y-110289524D01*
X145146191Y-110122857D01*
X145170001Y-110027619D01*
X145217620Y-109980000D01*
X145265239Y-109956190D01*
X145955715Y-110456190D02*
X145670001Y-110456190D01*
X145812858Y-110456190D02*
X145812858Y-109956190D01*
X145765239Y-110027619D01*
X145717620Y-110075238D01*
X145670001Y-110099048D01*
X146193810Y-110456190D02*
X146289048Y-110456190D01*
X146336667Y-110432381D01*
X146360477Y-110408571D01*
X146408096Y-110337143D01*
X146431905Y-110241905D01*
X146431905Y-110051429D01*
X146408096Y-110003810D01*
X146384286Y-109980000D01*
X146336667Y-109956190D01*
X146241429Y-109956190D01*
X146193810Y-109980000D01*
X146170001Y-110003810D01*
X146146191Y-110051429D01*
X146146191Y-110170476D01*
X146170001Y-110218095D01*
X146193810Y-110241905D01*
X146241429Y-110265714D01*
X146336667Y-110265714D01*
X146384286Y-110241905D01*
X146408096Y-110218095D01*
X146431905Y-110170476D01*
X142391906Y-110456190D02*
X142391906Y-109956190D01*
X142725239Y-109956190D02*
X142820477Y-109956190D01*
X142868096Y-109980000D01*
X142915715Y-110027619D01*
X142939524Y-110122857D01*
X142939524Y-110289524D01*
X142915715Y-110384762D01*
X142868096Y-110432381D01*
X142820477Y-110456190D01*
X142725239Y-110456190D01*
X142677620Y-110432381D01*
X142630001Y-110384762D01*
X142606191Y-110289524D01*
X142606191Y-110122857D01*
X142630001Y-110027619D01*
X142677620Y-109980000D01*
X142725239Y-109956190D01*
X143415715Y-110456190D02*
X143130001Y-110456190D01*
X143272858Y-110456190D02*
X143272858Y-109956190D01*
X143225239Y-110027619D01*
X143177620Y-110075238D01*
X143130001Y-110099048D01*
X143701429Y-110170476D02*
X143653810Y-110146667D01*
X143630001Y-110122857D01*
X143606191Y-110075238D01*
X143606191Y-110051429D01*
X143630001Y-110003810D01*
X143653810Y-109980000D01*
X143701429Y-109956190D01*
X143796667Y-109956190D01*
X143844286Y-109980000D01*
X143868096Y-110003810D01*
X143891905Y-110051429D01*
X143891905Y-110075238D01*
X143868096Y-110122857D01*
X143844286Y-110146667D01*
X143796667Y-110170476D01*
X143701429Y-110170476D01*
X143653810Y-110194286D01*
X143630001Y-110218095D01*
X143606191Y-110265714D01*
X143606191Y-110360952D01*
X143630001Y-110408571D01*
X143653810Y-110432381D01*
X143701429Y-110456190D01*
X143796667Y-110456190D01*
X143844286Y-110432381D01*
X143868096Y-110408571D01*
X143891905Y-110360952D01*
X143891905Y-110265714D01*
X143868096Y-110218095D01*
X143844286Y-110194286D01*
X143796667Y-110170476D01*
X140080001Y-110496190D02*
X140080001Y-109996190D01*
X140413334Y-109996190D02*
X140508572Y-109996190D01*
X140556191Y-110020000D01*
X140603810Y-110067619D01*
X140627619Y-110162857D01*
X140627619Y-110329524D01*
X140603810Y-110424762D01*
X140556191Y-110472381D01*
X140508572Y-110496190D01*
X140413334Y-110496190D01*
X140365715Y-110472381D01*
X140318096Y-110424762D01*
X140294286Y-110329524D01*
X140294286Y-110162857D01*
X140318096Y-110067619D01*
X140365715Y-110020000D01*
X140413334Y-109996190D01*
X141080001Y-109996190D02*
X140841906Y-109996190D01*
X140818096Y-110234286D01*
X140841906Y-110210476D01*
X140889525Y-110186667D01*
X141008572Y-110186667D01*
X141056191Y-110210476D01*
X141080001Y-110234286D01*
X141103810Y-110281905D01*
X141103810Y-110400952D01*
X141080001Y-110448571D01*
X141056191Y-110472381D01*
X141008572Y-110496190D01*
X140889525Y-110496190D01*
X140841906Y-110472381D01*
X140818096Y-110448571D01*
X137351906Y-110486190D02*
X137351906Y-109986190D01*
X137685239Y-109986190D02*
X137780477Y-109986190D01*
X137828096Y-110010000D01*
X137875715Y-110057619D01*
X137899524Y-110152857D01*
X137899524Y-110319524D01*
X137875715Y-110414762D01*
X137828096Y-110462381D01*
X137780477Y-110486190D01*
X137685239Y-110486190D01*
X137637620Y-110462381D01*
X137590001Y-110414762D01*
X137566191Y-110319524D01*
X137566191Y-110152857D01*
X137590001Y-110057619D01*
X137637620Y-110010000D01*
X137685239Y-109986190D01*
X138375715Y-110486190D02*
X138090001Y-110486190D01*
X138232858Y-110486190D02*
X138232858Y-109986190D01*
X138185239Y-110057619D01*
X138137620Y-110105238D01*
X138090001Y-110129048D01*
X138542382Y-109986190D02*
X138875715Y-109986190D01*
X138661429Y-110486190D01*
X134881906Y-110496190D02*
X134881906Y-109996190D01*
X135215239Y-109996190D02*
X135310477Y-109996190D01*
X135358096Y-110020000D01*
X135405715Y-110067619D01*
X135429524Y-110162857D01*
X135429524Y-110329524D01*
X135405715Y-110424762D01*
X135358096Y-110472381D01*
X135310477Y-110496190D01*
X135215239Y-110496190D01*
X135167620Y-110472381D01*
X135120001Y-110424762D01*
X135096191Y-110329524D01*
X135096191Y-110162857D01*
X135120001Y-110067619D01*
X135167620Y-110020000D01*
X135215239Y-109996190D01*
X135905715Y-110496190D02*
X135620001Y-110496190D01*
X135762858Y-110496190D02*
X135762858Y-109996190D01*
X135715239Y-110067619D01*
X135667620Y-110115238D01*
X135620001Y-110139048D01*
X136334286Y-109996190D02*
X136239048Y-109996190D01*
X136191429Y-110020000D01*
X136167620Y-110043810D01*
X136120001Y-110115238D01*
X136096191Y-110210476D01*
X136096191Y-110400952D01*
X136120001Y-110448571D01*
X136143810Y-110472381D01*
X136191429Y-110496190D01*
X136286667Y-110496190D01*
X136334286Y-110472381D01*
X136358096Y-110448571D01*
X136381905Y-110400952D01*
X136381905Y-110281905D01*
X136358096Y-110234286D01*
X136334286Y-110210476D01*
X136286667Y-110186667D01*
X136191429Y-110186667D01*
X136143810Y-110210476D01*
X136120001Y-110234286D01*
X136096191Y-110281905D01*
X129950001Y-110466190D02*
X129950001Y-109966190D01*
X130283334Y-109966190D02*
X130378572Y-109966190D01*
X130426191Y-109990000D01*
X130473810Y-110037619D01*
X130497619Y-110132857D01*
X130497619Y-110299524D01*
X130473810Y-110394762D01*
X130426191Y-110442381D01*
X130378572Y-110466190D01*
X130283334Y-110466190D01*
X130235715Y-110442381D01*
X130188096Y-110394762D01*
X130164286Y-110299524D01*
X130164286Y-110132857D01*
X130188096Y-110037619D01*
X130235715Y-109990000D01*
X130283334Y-109966190D01*
X130807144Y-109966190D02*
X130854763Y-109966190D01*
X130902382Y-109990000D01*
X130926191Y-110013810D01*
X130950001Y-110061429D01*
X130973810Y-110156667D01*
X130973810Y-110275714D01*
X130950001Y-110370952D01*
X130926191Y-110418571D01*
X130902382Y-110442381D01*
X130854763Y-110466190D01*
X130807144Y-110466190D01*
X130759525Y-110442381D01*
X130735715Y-110418571D01*
X130711906Y-110370952D01*
X130688096Y-110275714D01*
X130688096Y-110156667D01*
X130711906Y-110061429D01*
X130735715Y-110013810D01*
X130759525Y-109990000D01*
X130807144Y-109966190D01*
X132530001Y-110476190D02*
X132530001Y-109976190D01*
X132863334Y-109976190D02*
X132958572Y-109976190D01*
X133006191Y-110000000D01*
X133053810Y-110047619D01*
X133077619Y-110142857D01*
X133077619Y-110309524D01*
X133053810Y-110404762D01*
X133006191Y-110452381D01*
X132958572Y-110476190D01*
X132863334Y-110476190D01*
X132815715Y-110452381D01*
X132768096Y-110404762D01*
X132744286Y-110309524D01*
X132744286Y-110142857D01*
X132768096Y-110047619D01*
X132815715Y-110000000D01*
X132863334Y-109976190D01*
X133506191Y-110142857D02*
X133506191Y-110476190D01*
X133387144Y-109952381D02*
X133268096Y-110309524D01*
X133577620Y-110309524D01*
X127460001Y-110476190D02*
X127460001Y-109976190D01*
X127793334Y-109976190D02*
X127888572Y-109976190D01*
X127936191Y-110000000D01*
X127983810Y-110047619D01*
X128007619Y-110142857D01*
X128007619Y-110309524D01*
X127983810Y-110404762D01*
X127936191Y-110452381D01*
X127888572Y-110476190D01*
X127793334Y-110476190D01*
X127745715Y-110452381D01*
X127698096Y-110404762D01*
X127674286Y-110309524D01*
X127674286Y-110142857D01*
X127698096Y-110047619D01*
X127745715Y-110000000D01*
X127793334Y-109976190D01*
X128198096Y-110023810D02*
X128221906Y-110000000D01*
X128269525Y-109976190D01*
X128388572Y-109976190D01*
X128436191Y-110000000D01*
X128460001Y-110023810D01*
X128483810Y-110071429D01*
X128483810Y-110119048D01*
X128460001Y-110190476D01*
X128174287Y-110476190D01*
X128483810Y-110476190D01*
X124651906Y-110486190D02*
X124651906Y-109986190D01*
X124985239Y-109986190D02*
X125080477Y-109986190D01*
X125128096Y-110010000D01*
X125175715Y-110057619D01*
X125199524Y-110152857D01*
X125199524Y-110319524D01*
X125175715Y-110414762D01*
X125128096Y-110462381D01*
X125080477Y-110486190D01*
X124985239Y-110486190D01*
X124937620Y-110462381D01*
X124890001Y-110414762D01*
X124866191Y-110319524D01*
X124866191Y-110152857D01*
X124890001Y-110057619D01*
X124937620Y-110010000D01*
X124985239Y-109986190D01*
X125675715Y-110486190D02*
X125390001Y-110486190D01*
X125532858Y-110486190D02*
X125532858Y-109986190D01*
X125485239Y-110057619D01*
X125437620Y-110105238D01*
X125390001Y-110129048D01*
X126128096Y-109986190D02*
X125890001Y-109986190D01*
X125866191Y-110224286D01*
X125890001Y-110200476D01*
X125937620Y-110176667D01*
X126056667Y-110176667D01*
X126104286Y-110200476D01*
X126128096Y-110224286D01*
X126151905Y-110271905D01*
X126151905Y-110390952D01*
X126128096Y-110438571D01*
X126104286Y-110462381D01*
X126056667Y-110486190D01*
X125937620Y-110486190D01*
X125890001Y-110462381D01*
X125866191Y-110438571D01*
X122199048Y-110442381D02*
X122270477Y-110466190D01*
X122389524Y-110466190D01*
X122437143Y-110442381D01*
X122460953Y-110418571D01*
X122484762Y-110370952D01*
X122484762Y-110323333D01*
X122460953Y-110275714D01*
X122437143Y-110251905D01*
X122389524Y-110228095D01*
X122294286Y-110204286D01*
X122246667Y-110180476D01*
X122222858Y-110156667D01*
X122199048Y-110109048D01*
X122199048Y-110061429D01*
X122222858Y-110013810D01*
X122246667Y-109990000D01*
X122294286Y-109966190D01*
X122413334Y-109966190D01*
X122484762Y-109990000D01*
X122699048Y-110466190D02*
X122699048Y-109966190D01*
X122818095Y-109966190D01*
X122889524Y-109990000D01*
X122937143Y-110037619D01*
X122960952Y-110085238D01*
X122984762Y-110180476D01*
X122984762Y-110251905D01*
X122960952Y-110347143D01*
X122937143Y-110394762D01*
X122889524Y-110442381D01*
X122818095Y-110466190D01*
X122699048Y-110466190D01*
X123460952Y-110466190D02*
X123175238Y-110466190D01*
X123318095Y-110466190D02*
X123318095Y-109966190D01*
X123270476Y-110037619D01*
X123222857Y-110085238D01*
X123175238Y-110109048D01*
X119575238Y-110452381D02*
X119646667Y-110476190D01*
X119765714Y-110476190D01*
X119813333Y-110452381D01*
X119837143Y-110428571D01*
X119860952Y-110380952D01*
X119860952Y-110333333D01*
X119837143Y-110285714D01*
X119813333Y-110261905D01*
X119765714Y-110238095D01*
X119670476Y-110214286D01*
X119622857Y-110190476D01*
X119599048Y-110166667D01*
X119575238Y-110119048D01*
X119575238Y-110071429D01*
X119599048Y-110023810D01*
X119622857Y-110000000D01*
X119670476Y-109976190D01*
X119789524Y-109976190D01*
X119860952Y-110000000D01*
X120075238Y-110476190D02*
X120075238Y-109976190D01*
X120194285Y-109976190D01*
X120265714Y-110000000D01*
X120313333Y-110047619D01*
X120337142Y-110095238D01*
X120360952Y-110190476D01*
X120360952Y-110261905D01*
X120337142Y-110357143D01*
X120313333Y-110404762D01*
X120265714Y-110452381D01*
X120194285Y-110476190D01*
X120075238Y-110476190D01*
X120670476Y-109976190D02*
X120765714Y-109976190D01*
X120813333Y-110000000D01*
X120860952Y-110047619D01*
X120884761Y-110142857D01*
X120884761Y-110309524D01*
X120860952Y-110404762D01*
X120813333Y-110452381D01*
X120765714Y-110476190D01*
X120670476Y-110476190D01*
X120622857Y-110452381D01*
X120575238Y-110404762D01*
X120551428Y-110309524D01*
X120551428Y-110142857D01*
X120575238Y-110047619D01*
X120622857Y-110000000D01*
X120670476Y-109976190D01*
X117372381Y-110418571D02*
X117348571Y-110442381D01*
X117277143Y-110466190D01*
X117229524Y-110466190D01*
X117158095Y-110442381D01*
X117110476Y-110394762D01*
X117086667Y-110347143D01*
X117062857Y-110251905D01*
X117062857Y-110180476D01*
X117086667Y-110085238D01*
X117110476Y-110037619D01*
X117158095Y-109990000D01*
X117229524Y-109966190D01*
X117277143Y-109966190D01*
X117348571Y-109990000D01*
X117372381Y-110013810D01*
X117824762Y-110466190D02*
X117586667Y-110466190D01*
X117586667Y-109966190D01*
X117991429Y-110466190D02*
X117991429Y-109966190D01*
X118277143Y-110466190D02*
X118062857Y-110180476D01*
X118277143Y-109966190D02*
X117991429Y-110251905D01*
X114809047Y-110000000D02*
X114761428Y-109976190D01*
X114690000Y-109976190D01*
X114618571Y-110000000D01*
X114570952Y-110047619D01*
X114547143Y-110095238D01*
X114523333Y-110190476D01*
X114523333Y-110261905D01*
X114547143Y-110357143D01*
X114570952Y-110404762D01*
X114618571Y-110452381D01*
X114690000Y-110476190D01*
X114737619Y-110476190D01*
X114809047Y-110452381D01*
X114832857Y-110428571D01*
X114832857Y-110261905D01*
X114737619Y-110261905D01*
X115047143Y-110476190D02*
X115047143Y-109976190D01*
X115332857Y-110476190D01*
X115332857Y-109976190D01*
X115570953Y-110476190D02*
X115570953Y-109976190D01*
X115690000Y-109976190D01*
X115761429Y-110000000D01*
X115809048Y-110047619D01*
X115832857Y-110095238D01*
X115856667Y-110190476D01*
X115856667Y-110261905D01*
X115832857Y-110357143D01*
X115809048Y-110404762D01*
X115761429Y-110452381D01*
X115690000Y-110476190D01*
X115570953Y-110476190D01*
X144891906Y-90016190D02*
X144891906Y-89516190D01*
X145225239Y-89516190D02*
X145320477Y-89516190D01*
X145368096Y-89540000D01*
X145415715Y-89587619D01*
X145439524Y-89682857D01*
X145439524Y-89849524D01*
X145415715Y-89944762D01*
X145368096Y-89992381D01*
X145320477Y-90016190D01*
X145225239Y-90016190D01*
X145177620Y-89992381D01*
X145130001Y-89944762D01*
X145106191Y-89849524D01*
X145106191Y-89682857D01*
X145130001Y-89587619D01*
X145177620Y-89540000D01*
X145225239Y-89516190D01*
X145606192Y-89516190D02*
X145915715Y-89516190D01*
X145749049Y-89706667D01*
X145820477Y-89706667D01*
X145868096Y-89730476D01*
X145891906Y-89754286D01*
X145915715Y-89801905D01*
X145915715Y-89920952D01*
X145891906Y-89968571D01*
X145868096Y-89992381D01*
X145820477Y-90016190D01*
X145677620Y-90016190D01*
X145630001Y-89992381D01*
X145606192Y-89968571D01*
X146082382Y-89516190D02*
X146391905Y-89516190D01*
X146225239Y-89706667D01*
X146296667Y-89706667D01*
X146344286Y-89730476D01*
X146368096Y-89754286D01*
X146391905Y-89801905D01*
X146391905Y-89920952D01*
X146368096Y-89968571D01*
X146344286Y-89992381D01*
X146296667Y-90016190D01*
X146153810Y-90016190D01*
X146106191Y-89992381D01*
X146082382Y-89968571D01*
X142411906Y-90016190D02*
X142411906Y-89516190D01*
X142745239Y-89516190D02*
X142840477Y-89516190D01*
X142888096Y-89540000D01*
X142935715Y-89587619D01*
X142959524Y-89682857D01*
X142959524Y-89849524D01*
X142935715Y-89944762D01*
X142888096Y-89992381D01*
X142840477Y-90016190D01*
X142745239Y-90016190D01*
X142697620Y-89992381D01*
X142650001Y-89944762D01*
X142626191Y-89849524D01*
X142626191Y-89682857D01*
X142650001Y-89587619D01*
X142697620Y-89540000D01*
X142745239Y-89516190D01*
X143150001Y-89563810D02*
X143173811Y-89540000D01*
X143221430Y-89516190D01*
X143340477Y-89516190D01*
X143388096Y-89540000D01*
X143411906Y-89563810D01*
X143435715Y-89611429D01*
X143435715Y-89659048D01*
X143411906Y-89730476D01*
X143126192Y-90016190D01*
X143435715Y-90016190D01*
X143888096Y-89516190D02*
X143650001Y-89516190D01*
X143626191Y-89754286D01*
X143650001Y-89730476D01*
X143697620Y-89706667D01*
X143816667Y-89706667D01*
X143864286Y-89730476D01*
X143888096Y-89754286D01*
X143911905Y-89801905D01*
X143911905Y-89920952D01*
X143888096Y-89968571D01*
X143864286Y-89992381D01*
X143816667Y-90016190D01*
X143697620Y-90016190D01*
X143650001Y-89992381D01*
X143626191Y-89968571D01*
X139941906Y-90006190D02*
X139941906Y-89506190D01*
X140275239Y-89506190D02*
X140370477Y-89506190D01*
X140418096Y-89530000D01*
X140465715Y-89577619D01*
X140489524Y-89672857D01*
X140489524Y-89839524D01*
X140465715Y-89934762D01*
X140418096Y-89982381D01*
X140370477Y-90006190D01*
X140275239Y-90006190D01*
X140227620Y-89982381D01*
X140180001Y-89934762D01*
X140156191Y-89839524D01*
X140156191Y-89672857D01*
X140180001Y-89577619D01*
X140227620Y-89530000D01*
X140275239Y-89506190D01*
X140680001Y-89553810D02*
X140703811Y-89530000D01*
X140751430Y-89506190D01*
X140870477Y-89506190D01*
X140918096Y-89530000D01*
X140941906Y-89553810D01*
X140965715Y-89601429D01*
X140965715Y-89649048D01*
X140941906Y-89720476D01*
X140656192Y-90006190D01*
X140965715Y-90006190D01*
X141394286Y-89506190D02*
X141299048Y-89506190D01*
X141251429Y-89530000D01*
X141227620Y-89553810D01*
X141180001Y-89625238D01*
X141156191Y-89720476D01*
X141156191Y-89910952D01*
X141180001Y-89958571D01*
X141203810Y-89982381D01*
X141251429Y-90006190D01*
X141346667Y-90006190D01*
X141394286Y-89982381D01*
X141418096Y-89958571D01*
X141441905Y-89910952D01*
X141441905Y-89791905D01*
X141418096Y-89744286D01*
X141394286Y-89720476D01*
X141346667Y-89696667D01*
X141251429Y-89696667D01*
X141203810Y-89720476D01*
X141180001Y-89744286D01*
X141156191Y-89791905D01*
X137441906Y-90006190D02*
X137441906Y-89506190D01*
X137775239Y-89506190D02*
X137870477Y-89506190D01*
X137918096Y-89530000D01*
X137965715Y-89577619D01*
X137989524Y-89672857D01*
X137989524Y-89839524D01*
X137965715Y-89934762D01*
X137918096Y-89982381D01*
X137870477Y-90006190D01*
X137775239Y-90006190D01*
X137727620Y-89982381D01*
X137680001Y-89934762D01*
X137656191Y-89839524D01*
X137656191Y-89672857D01*
X137680001Y-89577619D01*
X137727620Y-89530000D01*
X137775239Y-89506190D01*
X138180001Y-89553810D02*
X138203811Y-89530000D01*
X138251430Y-89506190D01*
X138370477Y-89506190D01*
X138418096Y-89530000D01*
X138441906Y-89553810D01*
X138465715Y-89601429D01*
X138465715Y-89649048D01*
X138441906Y-89720476D01*
X138156192Y-90006190D01*
X138465715Y-90006190D01*
X138632382Y-89506190D02*
X138965715Y-89506190D01*
X138751429Y-90006190D01*
X134831906Y-89996190D02*
X134831906Y-89496190D01*
X135165239Y-89496190D02*
X135260477Y-89496190D01*
X135308096Y-89520000D01*
X135355715Y-89567619D01*
X135379524Y-89662857D01*
X135379524Y-89829524D01*
X135355715Y-89924762D01*
X135308096Y-89972381D01*
X135260477Y-89996190D01*
X135165239Y-89996190D01*
X135117620Y-89972381D01*
X135070001Y-89924762D01*
X135046191Y-89829524D01*
X135046191Y-89662857D01*
X135070001Y-89567619D01*
X135117620Y-89520000D01*
X135165239Y-89496190D01*
X135855715Y-89996190D02*
X135570001Y-89996190D01*
X135712858Y-89996190D02*
X135712858Y-89496190D01*
X135665239Y-89567619D01*
X135617620Y-89615238D01*
X135570001Y-89639048D01*
X136284286Y-89662857D02*
X136284286Y-89996190D01*
X136165239Y-89472381D02*
X136046191Y-89829524D01*
X136355715Y-89829524D01*
X132271906Y-90026190D02*
X132271906Y-89526190D01*
X132605239Y-89526190D02*
X132700477Y-89526190D01*
X132748096Y-89550000D01*
X132795715Y-89597619D01*
X132819524Y-89692857D01*
X132819524Y-89859524D01*
X132795715Y-89954762D01*
X132748096Y-90002381D01*
X132700477Y-90026190D01*
X132605239Y-90026190D01*
X132557620Y-90002381D01*
X132510001Y-89954762D01*
X132486191Y-89859524D01*
X132486191Y-89692857D01*
X132510001Y-89597619D01*
X132557620Y-89550000D01*
X132605239Y-89526190D01*
X133295715Y-90026190D02*
X133010001Y-90026190D01*
X133152858Y-90026190D02*
X133152858Y-89526190D01*
X133105239Y-89597619D01*
X133057620Y-89645238D01*
X133010001Y-89669048D01*
X133486191Y-89573810D02*
X133510001Y-89550000D01*
X133557620Y-89526190D01*
X133676667Y-89526190D01*
X133724286Y-89550000D01*
X133748096Y-89573810D01*
X133771905Y-89621429D01*
X133771905Y-89669048D01*
X133748096Y-89740476D01*
X133462382Y-90026190D01*
X133771905Y-90026190D01*
X130079047Y-89550000D02*
X130031428Y-89526190D01*
X129960000Y-89526190D01*
X129888571Y-89550000D01*
X129840952Y-89597619D01*
X129817143Y-89645238D01*
X129793333Y-89740476D01*
X129793333Y-89811905D01*
X129817143Y-89907143D01*
X129840952Y-89954762D01*
X129888571Y-90002381D01*
X129960000Y-90026190D01*
X130007619Y-90026190D01*
X130079047Y-90002381D01*
X130102857Y-89978571D01*
X130102857Y-89811905D01*
X130007619Y-89811905D01*
X130317143Y-90026190D02*
X130317143Y-89526190D01*
X130602857Y-90026190D01*
X130602857Y-89526190D01*
X130840953Y-90026190D02*
X130840953Y-89526190D01*
X130960000Y-89526190D01*
X131031429Y-89550000D01*
X131079048Y-89597619D01*
X131102857Y-89645238D01*
X131126667Y-89740476D01*
X131126667Y-89811905D01*
X131102857Y-89907143D01*
X131079048Y-89954762D01*
X131031429Y-90002381D01*
X130960000Y-90026190D01*
X130840953Y-90026190D01*
X127141906Y-90006190D02*
X127141906Y-89506190D01*
X127475239Y-89506190D02*
X127570477Y-89506190D01*
X127618096Y-89530000D01*
X127665715Y-89577619D01*
X127689524Y-89672857D01*
X127689524Y-89839524D01*
X127665715Y-89934762D01*
X127618096Y-89982381D01*
X127570477Y-90006190D01*
X127475239Y-90006190D01*
X127427620Y-89982381D01*
X127380001Y-89934762D01*
X127356191Y-89839524D01*
X127356191Y-89672857D01*
X127380001Y-89577619D01*
X127427620Y-89530000D01*
X127475239Y-89506190D01*
X128165715Y-90006190D02*
X127880001Y-90006190D01*
X128022858Y-90006190D02*
X128022858Y-89506190D01*
X127975239Y-89577619D01*
X127927620Y-89625238D01*
X127880001Y-89649048D01*
X128332382Y-89506190D02*
X128641905Y-89506190D01*
X128475239Y-89696667D01*
X128546667Y-89696667D01*
X128594286Y-89720476D01*
X128618096Y-89744286D01*
X128641905Y-89791905D01*
X128641905Y-89910952D01*
X128618096Y-89958571D01*
X128594286Y-89982381D01*
X128546667Y-90006190D01*
X128403810Y-90006190D01*
X128356191Y-89982381D01*
X128332382Y-89958571D01*
X124789048Y-89982381D02*
X124860477Y-90006190D01*
X124979524Y-90006190D01*
X125027143Y-89982381D01*
X125050953Y-89958571D01*
X125074762Y-89910952D01*
X125074762Y-89863333D01*
X125050953Y-89815714D01*
X125027143Y-89791905D01*
X124979524Y-89768095D01*
X124884286Y-89744286D01*
X124836667Y-89720476D01*
X124812858Y-89696667D01*
X124789048Y-89649048D01*
X124789048Y-89601429D01*
X124812858Y-89553810D01*
X124836667Y-89530000D01*
X124884286Y-89506190D01*
X125003334Y-89506190D01*
X125074762Y-89530000D01*
X125289048Y-90006190D02*
X125289048Y-89506190D01*
X125408095Y-89506190D01*
X125479524Y-89530000D01*
X125527143Y-89577619D01*
X125550952Y-89625238D01*
X125574762Y-89720476D01*
X125574762Y-89791905D01*
X125550952Y-89887143D01*
X125527143Y-89934762D01*
X125479524Y-89982381D01*
X125408095Y-90006190D01*
X125289048Y-90006190D01*
X125765238Y-89553810D02*
X125789048Y-89530000D01*
X125836667Y-89506190D01*
X125955714Y-89506190D01*
X126003333Y-89530000D01*
X126027143Y-89553810D01*
X126050952Y-89601429D01*
X126050952Y-89649048D01*
X126027143Y-89720476D01*
X125741429Y-90006190D01*
X126050952Y-90006190D01*
X122219048Y-90012381D02*
X122290477Y-90036190D01*
X122409524Y-90036190D01*
X122457143Y-90012381D01*
X122480953Y-89988571D01*
X122504762Y-89940952D01*
X122504762Y-89893333D01*
X122480953Y-89845714D01*
X122457143Y-89821905D01*
X122409524Y-89798095D01*
X122314286Y-89774286D01*
X122266667Y-89750476D01*
X122242858Y-89726667D01*
X122219048Y-89679048D01*
X122219048Y-89631429D01*
X122242858Y-89583810D01*
X122266667Y-89560000D01*
X122314286Y-89536190D01*
X122433334Y-89536190D01*
X122504762Y-89560000D01*
X122719048Y-90036190D02*
X122719048Y-89536190D01*
X122838095Y-89536190D01*
X122909524Y-89560000D01*
X122957143Y-89607619D01*
X122980952Y-89655238D01*
X123004762Y-89750476D01*
X123004762Y-89821905D01*
X122980952Y-89917143D01*
X122957143Y-89964762D01*
X122909524Y-90012381D01*
X122838095Y-90036190D01*
X122719048Y-90036190D01*
X123171429Y-89536190D02*
X123480952Y-89536190D01*
X123314286Y-89726667D01*
X123385714Y-89726667D01*
X123433333Y-89750476D01*
X123457143Y-89774286D01*
X123480952Y-89821905D01*
X123480952Y-89940952D01*
X123457143Y-89988571D01*
X123433333Y-90012381D01*
X123385714Y-90036190D01*
X123242857Y-90036190D01*
X123195238Y-90012381D01*
X123171429Y-89988571D01*
X117644763Y-89506190D02*
X117406668Y-89506190D01*
X117382858Y-89744286D01*
X117406668Y-89720476D01*
X117454287Y-89696667D01*
X117573334Y-89696667D01*
X117620953Y-89720476D01*
X117644763Y-89744286D01*
X117668572Y-89791905D01*
X117668572Y-89910952D01*
X117644763Y-89958571D01*
X117620953Y-89982381D01*
X117573334Y-90006190D01*
X117454287Y-90006190D01*
X117406668Y-89982381D01*
X117382858Y-89958571D01*
X117811429Y-89506190D02*
X117978096Y-90006190D01*
X118144762Y-89506190D01*
X114849047Y-89520000D02*
X114801428Y-89496190D01*
X114730000Y-89496190D01*
X114658571Y-89520000D01*
X114610952Y-89567619D01*
X114587143Y-89615238D01*
X114563333Y-89710476D01*
X114563333Y-89781905D01*
X114587143Y-89877143D01*
X114610952Y-89924762D01*
X114658571Y-89972381D01*
X114730000Y-89996190D01*
X114777619Y-89996190D01*
X114849047Y-89972381D01*
X114872857Y-89948571D01*
X114872857Y-89781905D01*
X114777619Y-89781905D01*
X115087143Y-89996190D02*
X115087143Y-89496190D01*
X115372857Y-89996190D01*
X115372857Y-89496190D01*
X115610953Y-89996190D02*
X115610953Y-89496190D01*
X115730000Y-89496190D01*
X115801429Y-89520000D01*
X115849048Y-89567619D01*
X115872857Y-89615238D01*
X115896667Y-89710476D01*
X115896667Y-89781905D01*
X115872857Y-89877143D01*
X115849048Y-89924762D01*
X115801429Y-89972381D01*
X115730000Y-89996190D01*
X115610953Y-89996190D01*
X128826190Y-100245237D02*
X129230952Y-100245237D01*
X129278571Y-100221428D01*
X129302381Y-100197618D01*
X129326190Y-100149999D01*
X129326190Y-100054761D01*
X129302381Y-100007142D01*
X129278571Y-99983333D01*
X129230952Y-99959523D01*
X128826190Y-99959523D01*
X129302381Y-99745237D02*
X129326190Y-99673808D01*
X129326190Y-99554761D01*
X129302381Y-99507142D01*
X129278571Y-99483332D01*
X129230952Y-99459523D01*
X129183333Y-99459523D01*
X129135714Y-99483332D01*
X129111905Y-99507142D01*
X129088095Y-99554761D01*
X129064286Y-99649999D01*
X129040476Y-99697618D01*
X129016667Y-99721427D01*
X128969048Y-99745237D01*
X128921429Y-99745237D01*
X128873810Y-99721427D01*
X128850000Y-99697618D01*
X128826190Y-99649999D01*
X128826190Y-99530951D01*
X128850000Y-99459523D01*
X129326190Y-98959523D02*
X129088095Y-99126190D01*
X129326190Y-99245237D02*
X128826190Y-99245237D01*
X128826190Y-99054761D01*
X128850000Y-99007142D01*
X128873810Y-98983333D01*
X128921429Y-98959523D01*
X128992857Y-98959523D01*
X129040476Y-98983333D01*
X129064286Y-99007142D01*
X129088095Y-99054761D01*
X129088095Y-99245237D01*
X129373810Y-98864285D02*
X129373810Y-98483333D01*
X129302381Y-98388095D02*
X129326190Y-98316666D01*
X129326190Y-98197619D01*
X129302381Y-98150000D01*
X129278571Y-98126190D01*
X129230952Y-98102381D01*
X129183333Y-98102381D01*
X129135714Y-98126190D01*
X129111905Y-98150000D01*
X129088095Y-98197619D01*
X129064286Y-98292857D01*
X129040476Y-98340476D01*
X129016667Y-98364285D01*
X128969048Y-98388095D01*
X128921429Y-98388095D01*
X128873810Y-98364285D01*
X128850000Y-98340476D01*
X128826190Y-98292857D01*
X128826190Y-98173809D01*
X128850000Y-98102381D01*
X128826190Y-97935714D02*
X129326190Y-97816667D01*
X128969048Y-97721429D01*
X129326190Y-97626191D01*
X128826190Y-97507143D01*
D11*
X142083333Y-96053334D02*
X142416667Y-95820000D01*
X142083333Y-95653334D02*
X142783333Y-95653334D01*
X142783333Y-95920000D01*
X142750000Y-95986667D01*
X142716667Y-96020000D01*
X142650000Y-96053334D01*
X142550000Y-96053334D01*
X142483333Y-96020000D01*
X142450000Y-95986667D01*
X142416667Y-95920000D01*
X142416667Y-95653334D01*
X142450000Y-96353334D02*
X142450000Y-96586667D01*
X142083333Y-96686667D02*
X142083333Y-96353334D01*
X142783333Y-96353334D01*
X142783333Y-96686667D01*
X142116667Y-96953333D02*
X142083333Y-97053333D01*
X142083333Y-97220000D01*
X142116667Y-97286667D01*
X142150000Y-97320000D01*
X142216667Y-97353333D01*
X142283333Y-97353333D01*
X142350000Y-97320000D01*
X142383333Y-97286667D01*
X142416667Y-97220000D01*
X142450000Y-97086667D01*
X142483333Y-97020000D01*
X142516667Y-96986667D01*
X142583333Y-96953333D01*
X142650000Y-96953333D01*
X142716667Y-96986667D01*
X142750000Y-97020000D01*
X142783333Y-97086667D01*
X142783333Y-97253333D01*
X142750000Y-97353333D01*
X142450000Y-97653334D02*
X142450000Y-97886667D01*
X142083333Y-97986667D02*
X142083333Y-97653334D01*
X142783333Y-97653334D01*
X142783333Y-97986667D01*
X142783333Y-98186667D02*
X142783333Y-98586667D01*
X142083333Y-98386667D02*
X142783333Y-98386667D01*
D12*
X118600000Y-101500000D02*
G75*
G03X118600000Y-101500000I-100000J0D01*
G01*
D13*
X127240000Y-104520000D02*
X127240000Y-105450000D01*
X127240000Y-107680000D02*
X127240000Y-106750000D01*
X127240000Y-107680000D02*
X130400000Y-107680000D01*
X127240000Y-104520000D02*
X128700000Y-104520000D01*
D12*
X133170000Y-98860000D02*
G75*
G03X133170000Y-98860000I-750000J0D01*
G01*
X130770000Y-99960000D02*
X130770000Y-100260000D01*
X130770000Y-100260000D02*
X134070000Y-100260000D01*
X134070000Y-100260000D02*
X134070000Y-99960000D01*
X130770000Y-97760000D02*
X130770000Y-97460000D01*
X130770000Y-97460000D02*
X134070000Y-97460000D01*
X134070000Y-97460000D02*
X134070000Y-97760000D01*
X124465000Y-100375000D02*
X124465000Y-101125000D01*
X119215000Y-105625000D02*
X119215000Y-104875000D01*
X124465000Y-105625000D02*
X124465000Y-104875000D01*
X119215000Y-100375000D02*
X119965000Y-100375000D01*
X119215000Y-105625000D02*
X119965000Y-105625000D01*
X124465000Y-105625000D02*
X123715000Y-105625000D01*
X124465000Y-100375000D02*
X123715000Y-100375000D01*
D13*
X123150000Y-94210000D02*
X123150000Y-95210000D01*
X124850000Y-95210000D02*
X124850000Y-94210000D01*
X114450000Y-106630000D02*
X114450000Y-105630000D01*
X112750000Y-105630000D02*
X112750000Y-106630000D01*
X137630000Y-100180000D02*
X138630000Y-100180000D01*
X138630000Y-98480000D02*
X137630000Y-98480000D01*
X133740000Y-94430000D02*
X133740000Y-95430000D01*
X135440000Y-95430000D02*
X135440000Y-94430000D01*
X122910000Y-93040000D02*
X121510000Y-93040000D01*
X121510000Y-93040000D02*
X121510000Y-95840000D01*
X122910000Y-93040000D02*
X122910000Y-95840000D01*
X125850000Y-95010000D02*
X125850000Y-96410000D01*
X125850000Y-96410000D02*
X128650000Y-96410000D01*
X125850000Y-95010000D02*
X128650000Y-95010000D01*
X124870000Y-97500000D02*
X124870000Y-98900000D01*
X124870000Y-98900000D02*
X127670000Y-98900000D01*
X124870000Y-97500000D02*
X127670000Y-97500000D01*
X142000000Y-94600000D02*
X142000000Y-93200000D01*
X142000000Y-93200000D02*
X139200000Y-93200000D01*
X142000000Y-94600000D02*
X139200000Y-94600000D01*
X131710000Y-100720000D02*
X131710000Y-102120000D01*
X131710000Y-102120000D02*
X134510000Y-102120000D01*
X131710000Y-100720000D02*
X134510000Y-100720000D01*
X134230000Y-107660000D02*
X134230000Y-106730000D01*
X134230000Y-104500000D02*
X134230000Y-105430000D01*
X134230000Y-104500000D02*
X131070000Y-104500000D01*
X134230000Y-107660000D02*
X132770000Y-107660000D01*
D12*
X131280000Y-104305000D02*
X130080000Y-104305000D01*
X130080000Y-102555000D02*
X131280000Y-102555000D01*
X130010000Y-107895000D02*
X131210000Y-107895000D01*
X131210000Y-109645000D02*
X130010000Y-109645000D01*
X114530000Y-99295000D02*
X115730000Y-99295000D01*
X115730000Y-101045000D02*
X114530000Y-101045000D01*
X124090000Y-92425000D02*
X122890000Y-92425000D01*
X122890000Y-90675000D02*
X124090000Y-90675000D01*
X114530000Y-101235000D02*
X115730000Y-101235000D01*
X115730000Y-102985000D02*
X114530000Y-102985000D01*
X139800000Y-91325000D02*
X141000000Y-91325000D01*
X141000000Y-93075000D02*
X139800000Y-93075000D01*
X128000000Y-94915000D02*
X126800000Y-94915000D01*
X126800000Y-93165000D02*
X128000000Y-93165000D01*
X129755000Y-95370000D02*
X129755000Y-94170000D01*
X131505000Y-94170000D02*
X131505000Y-95370000D01*
X128610000Y-100545000D02*
X129810000Y-100545000D01*
X129810000Y-102295000D02*
X128610000Y-102295000D01*
X137600000Y-100245000D02*
X138800000Y-100245000D01*
X138800000Y-101995000D02*
X137600000Y-101995000D01*
X140005000Y-109060000D02*
X138805000Y-109060000D01*
X138805000Y-107310000D02*
X140005000Y-107310000D01*
X131765000Y-95440000D02*
X131765000Y-94240000D01*
X133515000Y-94240000D02*
X133515000Y-95440000D01*
D13*
X113570000Y-96580000D02*
X114830000Y-96580000D01*
X120390000Y-96580000D02*
X119130000Y-96580000D01*
X113570000Y-92820000D02*
X113570000Y-96580000D01*
X120390000Y-90570000D02*
X120390000Y-96580000D01*
X139045000Y-104015000D02*
X140045000Y-104015000D01*
X140045000Y-102315000D02*
X139045000Y-102315000D01*
D12*
X139830000Y-96970000D02*
G75*
G03X139830000Y-96970000I-750000J0D01*
G01*
X137430000Y-98070000D02*
X137430000Y-98370000D01*
X137430000Y-98370000D02*
X140730000Y-98370000D01*
X140730000Y-98370000D02*
X140730000Y-98070000D01*
X137430000Y-95870000D02*
X137430000Y-95570000D01*
X137430000Y-95570000D02*
X140730000Y-95570000D01*
X140730000Y-95570000D02*
X140730000Y-95870000D01*
X140297000Y-105659000D02*
G75*
G03X140297000Y-105659000I-750000J0D01*
G01*
X137897000Y-106759000D02*
X137897000Y-107059000D01*
X137897000Y-107059000D02*
X141197000Y-107059000D01*
X141197000Y-107059000D02*
X141197000Y-106759000D01*
X137897000Y-104559000D02*
X137897000Y-104259000D01*
X137897000Y-104259000D02*
X141197000Y-104259000D01*
X141197000Y-104259000D02*
X141197000Y-104559000D01*
D14*
X165127981Y-90094000D02*
G75*
G03X165127981Y-90094000I-283981J0D01*
G01*
D12*
X164990000Y-109000000D02*
X164990000Y-91000000D01*
X170990000Y-91000000D02*
X145490000Y-91000000D01*
X170990000Y-109000000D02*
X145490000Y-109000000D01*
X145490000Y-109000000D02*
X145490000Y-91000000D01*
X170990000Y-109000000D02*
X170990000Y-91000000D01*
X126184762Y-107977619D02*
X126089524Y-107930000D01*
X125994286Y-107834762D01*
X125851429Y-107691905D01*
X125756190Y-107644286D01*
X125660952Y-107644286D01*
X125708571Y-107882381D02*
X125613333Y-107834762D01*
X125518095Y-107739524D01*
X125470476Y-107549048D01*
X125470476Y-107215714D01*
X125518095Y-107025238D01*
X125613333Y-106930000D01*
X125708571Y-106882381D01*
X125899048Y-106882381D01*
X125994286Y-106930000D01*
X126089524Y-107025238D01*
X126137143Y-107215714D01*
X126137143Y-107549048D01*
X126089524Y-107739524D01*
X125994286Y-107834762D01*
X125899048Y-107882381D01*
X125708571Y-107882381D01*
X127089524Y-107882381D02*
X126518095Y-107882381D01*
X126803809Y-107882381D02*
X126803809Y-106882381D01*
X126708571Y-107025238D01*
X126613333Y-107120476D01*
X126518095Y-107168095D01*
D15*
X132702381Y-99566666D02*
X132726190Y-99495237D01*
X132726190Y-99376190D01*
X132702381Y-99328571D01*
X132678571Y-99304761D01*
X132630952Y-99280952D01*
X132583333Y-99280952D01*
X132535714Y-99304761D01*
X132511905Y-99328571D01*
X132488095Y-99376190D01*
X132464286Y-99471428D01*
X132440476Y-99519047D01*
X132416667Y-99542856D01*
X132369048Y-99566666D01*
X132321429Y-99566666D01*
X132273810Y-99542856D01*
X132250000Y-99519047D01*
X132226190Y-99471428D01*
X132226190Y-99352380D01*
X132250000Y-99280952D01*
X132226190Y-99114285D02*
X132726190Y-98995238D01*
X132369048Y-98900000D01*
X132726190Y-98804762D01*
X132226190Y-98685714D01*
X132226190Y-98542856D02*
X132226190Y-98233333D01*
X132416667Y-98399999D01*
X132416667Y-98328571D01*
X132440476Y-98280952D01*
X132464286Y-98257142D01*
X132511905Y-98233333D01*
X132630952Y-98233333D01*
X132678571Y-98257142D01*
X132702381Y-98280952D01*
X132726190Y-98328571D01*
X132726190Y-98471428D01*
X132702381Y-98519047D01*
X132678571Y-98542856D01*
D10*
X121319048Y-99326190D02*
X121319048Y-99730952D01*
X121342857Y-99778571D01*
X121366667Y-99802381D01*
X121414286Y-99826190D01*
X121509524Y-99826190D01*
X121557143Y-99802381D01*
X121580952Y-99778571D01*
X121604762Y-99730952D01*
X121604762Y-99326190D01*
X121819048Y-99373810D02*
X121842858Y-99350000D01*
X121890477Y-99326190D01*
X122009524Y-99326190D01*
X122057143Y-99350000D01*
X122080953Y-99373810D01*
X122104762Y-99421429D01*
X122104762Y-99469048D01*
X122080953Y-99540476D01*
X121795239Y-99826190D01*
X122104762Y-99826190D01*
X123816667Y-97478571D02*
X123792857Y-97502381D01*
X123721429Y-97526190D01*
X123673810Y-97526190D01*
X123602381Y-97502381D01*
X123554762Y-97454762D01*
X123530953Y-97407143D01*
X123507143Y-97311905D01*
X123507143Y-97240476D01*
X123530953Y-97145238D01*
X123554762Y-97097619D01*
X123602381Y-97050000D01*
X123673810Y-97026190D01*
X123721429Y-97026190D01*
X123792857Y-97050000D01*
X123816667Y-97073810D01*
X124245238Y-97192857D02*
X124245238Y-97526190D01*
X124126191Y-97002381D02*
X124007143Y-97359524D01*
X124316667Y-97359524D01*
D12*
X115450000Y-106016666D02*
X115483333Y-106050000D01*
X115516667Y-106150000D01*
X115516667Y-106216666D01*
X115483333Y-106316666D01*
X115416667Y-106383333D01*
X115350000Y-106416666D01*
X115216667Y-106450000D01*
X115116667Y-106450000D01*
X114983333Y-106416666D01*
X114916667Y-106383333D01*
X114850000Y-106316666D01*
X114816667Y-106216666D01*
X114816667Y-106150000D01*
X114850000Y-106050000D01*
X114883333Y-106016666D01*
X114816667Y-105416666D02*
X114816667Y-105550000D01*
X114850000Y-105616666D01*
X114883333Y-105650000D01*
X114983333Y-105716666D01*
X115116667Y-105750000D01*
X115383333Y-105750000D01*
X115450000Y-105716666D01*
X115483333Y-105683333D01*
X115516667Y-105616666D01*
X115516667Y-105483333D01*
X115483333Y-105416666D01*
X115450000Y-105383333D01*
X115383333Y-105350000D01*
X115216667Y-105350000D01*
X115150000Y-105383333D01*
X115116667Y-105416666D01*
X115083333Y-105483333D01*
X115083333Y-105616666D01*
X115116667Y-105683333D01*
X115150000Y-105716666D01*
X115216667Y-105750000D01*
D10*
X140736667Y-99478571D02*
X140712857Y-99502381D01*
X140641429Y-99526190D01*
X140593810Y-99526190D01*
X140522381Y-99502381D01*
X140474762Y-99454762D01*
X140450953Y-99407143D01*
X140427143Y-99311905D01*
X140427143Y-99240476D01*
X140450953Y-99145238D01*
X140474762Y-99097619D01*
X140522381Y-99050000D01*
X140593810Y-99026190D01*
X140641429Y-99026190D01*
X140712857Y-99050000D01*
X140736667Y-99073810D01*
X141022381Y-99240476D02*
X140974762Y-99216667D01*
X140950953Y-99192857D01*
X140927143Y-99145238D01*
X140927143Y-99121429D01*
X140950953Y-99073810D01*
X140974762Y-99050000D01*
X141022381Y-99026190D01*
X141117619Y-99026190D01*
X141165238Y-99050000D01*
X141189048Y-99073810D01*
X141212857Y-99121429D01*
X141212857Y-99145238D01*
X141189048Y-99192857D01*
X141165238Y-99216667D01*
X141117619Y-99240476D01*
X141022381Y-99240476D01*
X140974762Y-99264286D01*
X140950953Y-99288095D01*
X140927143Y-99335714D01*
X140927143Y-99430952D01*
X140950953Y-99478571D01*
X140974762Y-99502381D01*
X141022381Y-99526190D01*
X141117619Y-99526190D01*
X141165238Y-99502381D01*
X141189048Y-99478571D01*
X141212857Y-99430952D01*
X141212857Y-99335714D01*
X141189048Y-99288095D01*
X141165238Y-99264286D01*
X141117619Y-99240476D01*
X136078571Y-94621428D02*
X136102381Y-94645238D01*
X136126190Y-94716666D01*
X136126190Y-94764285D01*
X136102381Y-94835714D01*
X136054762Y-94883333D01*
X136007143Y-94907142D01*
X135911905Y-94930952D01*
X135840476Y-94930952D01*
X135745238Y-94907142D01*
X135697619Y-94883333D01*
X135650000Y-94835714D01*
X135626190Y-94764285D01*
X135626190Y-94716666D01*
X135650000Y-94645238D01*
X135673810Y-94621428D01*
X136126190Y-94145238D02*
X136126190Y-94430952D01*
X136126190Y-94288095D02*
X135626190Y-94288095D01*
X135697619Y-94335714D01*
X135745238Y-94383333D01*
X135769048Y-94430952D01*
X135626190Y-93835714D02*
X135626190Y-93788095D01*
X135650000Y-93740476D01*
X135673810Y-93716667D01*
X135721429Y-93692857D01*
X135816667Y-93669048D01*
X135935714Y-93669048D01*
X136030952Y-93692857D01*
X136078571Y-93716667D01*
X136102381Y-93740476D01*
X136126190Y-93788095D01*
X136126190Y-93835714D01*
X136102381Y-93883333D01*
X136078571Y-93907143D01*
X136030952Y-93930952D01*
X135935714Y-93954762D01*
X135816667Y-93954762D01*
X135721429Y-93930952D01*
X135673810Y-93907143D01*
X135650000Y-93883333D01*
X135626190Y-93835714D01*
X121226190Y-96169047D02*
X120726190Y-96169047D01*
X120726190Y-96050000D01*
X120750000Y-95978571D01*
X120797619Y-95930952D01*
X120845238Y-95907143D01*
X120940476Y-95883333D01*
X121011905Y-95883333D01*
X121107143Y-95907143D01*
X121154762Y-95930952D01*
X121202381Y-95978571D01*
X121226190Y-96050000D01*
X121226190Y-96169047D01*
X121226190Y-95407143D02*
X121226190Y-95692857D01*
X121226190Y-95550000D02*
X120726190Y-95550000D01*
X120797619Y-95597619D01*
X120845238Y-95645238D01*
X120869048Y-95692857D01*
D12*
X120286667Y-97972381D02*
X120286667Y-96972381D01*
X120667620Y-96972381D01*
X120762858Y-97020000D01*
X120810477Y-97067619D01*
X120858096Y-97162857D01*
X120858096Y-97305714D01*
X120810477Y-97400952D01*
X120762858Y-97448571D01*
X120667620Y-97496190D01*
X120286667Y-97496190D01*
X121191429Y-96972381D02*
X121429524Y-97972381D01*
X121620001Y-97258095D01*
X121810477Y-97972381D01*
X122048572Y-96972381D01*
X123000953Y-97972381D02*
X122667619Y-97496190D01*
X122429524Y-97972381D02*
X122429524Y-96972381D01*
X122810477Y-96972381D01*
X122905715Y-97020000D01*
X122953334Y-97067619D01*
X123000953Y-97162857D01*
X123000953Y-97305714D01*
X122953334Y-97400952D01*
X122905715Y-97448571D01*
X122810477Y-97496190D01*
X122429524Y-97496190D01*
D10*
X130186190Y-96089047D02*
X129686190Y-96089047D01*
X129686190Y-95970000D01*
X129710000Y-95898571D01*
X129757619Y-95850952D01*
X129805238Y-95827143D01*
X129900476Y-95803333D01*
X129971905Y-95803333D01*
X130067143Y-95827143D01*
X130114762Y-95850952D01*
X130162381Y-95898571D01*
X130186190Y-95970000D01*
X130186190Y-96089047D01*
X129733810Y-95612857D02*
X129710000Y-95589047D01*
X129686190Y-95541428D01*
X129686190Y-95422381D01*
X129710000Y-95374762D01*
X129733810Y-95350952D01*
X129781429Y-95327143D01*
X129829048Y-95327143D01*
X129900476Y-95350952D01*
X130186190Y-95636666D01*
X130186190Y-95327143D01*
D16*
X126707620Y-97086190D02*
X126540953Y-96848095D01*
X126421906Y-97086190D02*
X126421906Y-96586190D01*
X126612382Y-96586190D01*
X126660001Y-96610000D01*
X126683810Y-96633810D01*
X126707620Y-96681429D01*
X126707620Y-96752857D01*
X126683810Y-96800476D01*
X126660001Y-96824286D01*
X126612382Y-96848095D01*
X126421906Y-96848095D01*
X126874287Y-96586190D02*
X127207620Y-97086190D01*
X127207620Y-96586190D02*
X126874287Y-97086190D01*
X127279048Y-97133810D02*
X127660000Y-97133810D01*
X128017143Y-97086190D02*
X127779048Y-97086190D01*
X127779048Y-96586190D01*
X128183810Y-96824286D02*
X128350476Y-96824286D01*
X128421905Y-97086190D02*
X128183810Y-97086190D01*
X128183810Y-96586190D01*
X128421905Y-96586190D01*
X128636191Y-97086190D02*
X128636191Y-96586190D01*
X128755238Y-96586190D01*
X128826667Y-96610000D01*
X128874286Y-96657619D01*
X128898095Y-96705238D01*
X128921905Y-96800476D01*
X128921905Y-96871905D01*
X128898095Y-96967143D01*
X128874286Y-97014762D01*
X128826667Y-97062381D01*
X128755238Y-97086190D01*
X128636191Y-97086190D01*
D10*
X124426190Y-98569047D02*
X123926190Y-98569047D01*
X123926190Y-98450000D01*
X123950000Y-98378571D01*
X123997619Y-98330952D01*
X124045238Y-98307143D01*
X124140476Y-98283333D01*
X124211905Y-98283333D01*
X124307143Y-98307143D01*
X124354762Y-98330952D01*
X124402381Y-98378571D01*
X124426190Y-98450000D01*
X124426190Y-98569047D01*
X123926190Y-98116666D02*
X123926190Y-97807143D01*
X124116667Y-97973809D01*
X124116667Y-97902381D01*
X124140476Y-97854762D01*
X124164286Y-97830952D01*
X124211905Y-97807143D01*
X124330952Y-97807143D01*
X124378571Y-97830952D01*
X124402381Y-97854762D01*
X124426190Y-97902381D01*
X124426190Y-98045238D01*
X124402381Y-98092857D01*
X124378571Y-98116666D01*
D16*
X125410001Y-99126190D02*
X125695715Y-99126190D01*
X125552858Y-99626190D02*
X125552858Y-99126190D01*
X125814763Y-99126190D02*
X126148096Y-99626190D01*
X126148096Y-99126190D02*
X125814763Y-99626190D01*
X126219524Y-99673810D02*
X126600476Y-99673810D01*
X126957619Y-99626190D02*
X126719524Y-99626190D01*
X126719524Y-99126190D01*
X127124286Y-99364286D02*
X127290952Y-99364286D01*
X127362381Y-99626190D02*
X127124286Y-99626190D01*
X127124286Y-99126190D01*
X127362381Y-99126190D01*
X127576667Y-99626190D02*
X127576667Y-99126190D01*
X127695714Y-99126190D01*
X127767143Y-99150000D01*
X127814762Y-99197619D01*
X127838571Y-99245238D01*
X127862381Y-99340476D01*
X127862381Y-99411905D01*
X127838571Y-99507143D01*
X127814762Y-99554762D01*
X127767143Y-99602381D01*
X127695714Y-99626190D01*
X127576667Y-99626190D01*
D10*
X142370953Y-94226190D02*
X142370953Y-93726190D01*
X142490000Y-93726190D01*
X142561429Y-93750000D01*
X142609048Y-93797619D01*
X142632857Y-93845238D01*
X142656667Y-93940476D01*
X142656667Y-94011905D01*
X142632857Y-94107143D01*
X142609048Y-94154762D01*
X142561429Y-94202381D01*
X142490000Y-94226190D01*
X142370953Y-94226190D01*
X143085238Y-93892857D02*
X143085238Y-94226190D01*
X142966191Y-93702381D02*
X142847143Y-94059524D01*
X143156667Y-94059524D01*
D12*
X137510000Y-94936665D02*
X137543333Y-94969999D01*
X137576667Y-95069999D01*
X137576667Y-95136665D01*
X137543333Y-95236665D01*
X137476667Y-95303332D01*
X137410000Y-95336665D01*
X137276667Y-95369999D01*
X137176667Y-95369999D01*
X137043333Y-95336665D01*
X136976667Y-95303332D01*
X136910000Y-95236665D01*
X136876667Y-95136665D01*
X136876667Y-95069999D01*
X136910000Y-94969999D01*
X136943333Y-94936665D01*
X136876667Y-94503332D02*
X136876667Y-94369999D01*
X136910000Y-94303332D01*
X136976667Y-94236665D01*
X137110000Y-94203332D01*
X137343333Y-94203332D01*
X137476667Y-94236665D01*
X137543333Y-94303332D01*
X137576667Y-94369999D01*
X137576667Y-94503332D01*
X137543333Y-94569999D01*
X137476667Y-94636665D01*
X137343333Y-94669999D01*
X137110000Y-94669999D01*
X136976667Y-94636665D01*
X136910000Y-94569999D01*
X136876667Y-94503332D01*
X137576667Y-93903332D02*
X136876667Y-93903332D01*
X137576667Y-93503332D01*
X136876667Y-93503332D01*
X137576667Y-93169999D02*
X136876667Y-93169999D01*
X137576667Y-92769999D01*
X136876667Y-92769999D01*
X137210000Y-92436666D02*
X137210000Y-92203333D01*
X137576667Y-92103333D02*
X137576667Y-92436666D01*
X136876667Y-92436666D01*
X136876667Y-92103333D01*
X137510000Y-91403333D02*
X137543333Y-91436667D01*
X137576667Y-91536667D01*
X137576667Y-91603333D01*
X137543333Y-91703333D01*
X137476667Y-91770000D01*
X137410000Y-91803333D01*
X137276667Y-91836667D01*
X137176667Y-91836667D01*
X137043333Y-91803333D01*
X136976667Y-91770000D01*
X136910000Y-91703333D01*
X136876667Y-91603333D01*
X136876667Y-91536667D01*
X136910000Y-91436667D01*
X136943333Y-91403333D01*
X136876667Y-91203333D02*
X136876667Y-90803333D01*
X137576667Y-91003333D02*
X136876667Y-91003333D01*
D10*
X133230953Y-102826190D02*
X133230953Y-102326190D01*
X133350000Y-102326190D01*
X133421429Y-102350000D01*
X133469048Y-102397619D01*
X133492857Y-102445238D01*
X133516667Y-102540476D01*
X133516667Y-102611905D01*
X133492857Y-102707143D01*
X133469048Y-102754762D01*
X133421429Y-102802381D01*
X133350000Y-102826190D01*
X133230953Y-102826190D01*
X133969048Y-102326190D02*
X133730953Y-102326190D01*
X133707143Y-102564286D01*
X133730953Y-102540476D01*
X133778572Y-102516667D01*
X133897619Y-102516667D01*
X133945238Y-102540476D01*
X133969048Y-102564286D01*
X133992857Y-102611905D01*
X133992857Y-102730952D01*
X133969048Y-102778571D01*
X133945238Y-102802381D01*
X133897619Y-102826190D01*
X133778572Y-102826190D01*
X133730953Y-102802381D01*
X133707143Y-102778571D01*
D16*
X134042858Y-103006190D02*
X134042858Y-103410952D01*
X134066667Y-103458571D01*
X134090477Y-103482381D01*
X134138096Y-103506190D01*
X134233334Y-103506190D01*
X134280953Y-103482381D01*
X134304762Y-103458571D01*
X134328572Y-103410952D01*
X134328572Y-103006190D01*
X134542858Y-103482381D02*
X134614287Y-103506190D01*
X134733334Y-103506190D01*
X134780953Y-103482381D01*
X134804763Y-103458571D01*
X134828572Y-103410952D01*
X134828572Y-103363333D01*
X134804763Y-103315714D01*
X134780953Y-103291905D01*
X134733334Y-103268095D01*
X134638096Y-103244286D01*
X134590477Y-103220476D01*
X134566668Y-103196667D01*
X134542858Y-103149048D01*
X134542858Y-103101429D01*
X134566668Y-103053810D01*
X134590477Y-103030000D01*
X134638096Y-103006190D01*
X134757144Y-103006190D01*
X134828572Y-103030000D01*
X135042858Y-103244286D02*
X135209524Y-103244286D01*
X135280953Y-103506190D02*
X135042858Y-103506190D01*
X135042858Y-103006190D01*
X135280953Y-103006190D01*
X135780953Y-103506190D02*
X135614286Y-103268095D01*
X135495239Y-103506190D02*
X135495239Y-103006190D01*
X135685715Y-103006190D01*
X135733334Y-103030000D01*
X135757143Y-103053810D01*
X135780953Y-103101429D01*
X135780953Y-103172857D01*
X135757143Y-103220476D01*
X135733334Y-103244286D01*
X135685715Y-103268095D01*
X135495239Y-103268095D01*
D10*
X134852381Y-105273810D02*
X134804762Y-105250000D01*
X134757143Y-105202381D01*
X134685714Y-105130952D01*
X134638095Y-105107143D01*
X134590476Y-105107143D01*
X134614286Y-105226190D02*
X134566667Y-105202381D01*
X134519048Y-105154762D01*
X134495238Y-105059524D01*
X134495238Y-104892857D01*
X134519048Y-104797619D01*
X134566667Y-104750000D01*
X134614286Y-104726190D01*
X134709524Y-104726190D01*
X134757143Y-104750000D01*
X134804762Y-104797619D01*
X134828571Y-104892857D01*
X134828571Y-105059524D01*
X134804762Y-105154762D01*
X134757143Y-105202381D01*
X134709524Y-105226190D01*
X134614286Y-105226190D01*
X135019048Y-104773810D02*
X135042858Y-104750000D01*
X135090477Y-104726190D01*
X135209524Y-104726190D01*
X135257143Y-104750000D01*
X135280953Y-104773810D01*
X135304762Y-104821429D01*
X135304762Y-104869048D01*
X135280953Y-104940476D01*
X134995239Y-105226190D01*
X135304762Y-105226190D01*
X128026190Y-103483333D02*
X127788095Y-103650000D01*
X128026190Y-103769047D02*
X127526190Y-103769047D01*
X127526190Y-103578571D01*
X127550000Y-103530952D01*
X127573810Y-103507143D01*
X127621429Y-103483333D01*
X127692857Y-103483333D01*
X127740476Y-103507143D01*
X127764286Y-103530952D01*
X127788095Y-103578571D01*
X127788095Y-103769047D01*
X128026190Y-103007143D02*
X128026190Y-103292857D01*
X128026190Y-103150000D02*
X127526190Y-103150000D01*
X127597619Y-103197619D01*
X127645238Y-103245238D01*
X127669048Y-103292857D01*
X132626190Y-108683333D02*
X132388095Y-108850000D01*
X132626190Y-108969047D02*
X132126190Y-108969047D01*
X132126190Y-108778571D01*
X132150000Y-108730952D01*
X132173810Y-108707143D01*
X132221429Y-108683333D01*
X132292857Y-108683333D01*
X132340476Y-108707143D01*
X132364286Y-108730952D01*
X132388095Y-108778571D01*
X132388095Y-108969047D01*
X132173810Y-108492857D02*
X132150000Y-108469047D01*
X132126190Y-108421428D01*
X132126190Y-108302381D01*
X132150000Y-108254762D01*
X132173810Y-108230952D01*
X132221429Y-108207143D01*
X132269048Y-108207143D01*
X132340476Y-108230952D01*
X132626190Y-108516666D01*
X132626190Y-108207143D01*
D12*
X111983334Y-100716667D02*
X111750000Y-100383333D01*
X111583334Y-100716667D02*
X111583334Y-100016667D01*
X111850000Y-100016667D01*
X111916667Y-100050000D01*
X111950000Y-100083333D01*
X111983334Y-100150000D01*
X111983334Y-100250000D01*
X111950000Y-100316667D01*
X111916667Y-100350000D01*
X111850000Y-100383333D01*
X111583334Y-100383333D01*
X112216667Y-100016667D02*
X112650000Y-100016667D01*
X112416667Y-100283333D01*
X112516667Y-100283333D01*
X112583334Y-100316667D01*
X112616667Y-100350000D01*
X112650000Y-100416667D01*
X112650000Y-100583333D01*
X112616667Y-100650000D01*
X112583334Y-100683333D01*
X112516667Y-100716667D01*
X112316667Y-100716667D01*
X112250000Y-100683333D01*
X112216667Y-100650000D01*
D10*
X126396667Y-91746666D02*
X126063333Y-91980000D01*
X126396667Y-92146666D02*
X125696667Y-92146666D01*
X125696667Y-91880000D01*
X125730000Y-91813333D01*
X125763333Y-91780000D01*
X125830000Y-91746666D01*
X125930000Y-91746666D01*
X125996667Y-91780000D01*
X126030000Y-91813333D01*
X126063333Y-91880000D01*
X126063333Y-92146666D01*
X125930000Y-91146666D02*
X126396667Y-91146666D01*
X125663333Y-91313333D02*
X126163333Y-91480000D01*
X126163333Y-91046666D01*
D12*
X111983334Y-102616667D02*
X111750000Y-102283333D01*
X111583334Y-102616667D02*
X111583334Y-101916667D01*
X111850000Y-101916667D01*
X111916667Y-101950000D01*
X111950000Y-101983333D01*
X111983334Y-102050000D01*
X111983334Y-102150000D01*
X111950000Y-102216667D01*
X111916667Y-102250000D01*
X111850000Y-102283333D01*
X111583334Y-102283333D01*
X112616667Y-101916667D02*
X112283334Y-101916667D01*
X112250000Y-102250000D01*
X112283334Y-102216667D01*
X112350000Y-102183333D01*
X112516667Y-102183333D01*
X112583334Y-102216667D01*
X112616667Y-102250000D01*
X112650000Y-102316667D01*
X112650000Y-102483333D01*
X112616667Y-102550000D01*
X112583334Y-102583333D01*
X112516667Y-102616667D01*
X112350000Y-102616667D01*
X112283334Y-102583333D01*
X112250000Y-102550000D01*
D16*
X143096667Y-92436190D02*
X142930000Y-92198095D01*
X142810953Y-92436190D02*
X142810953Y-91936190D01*
X143001429Y-91936190D01*
X143049048Y-91960000D01*
X143072857Y-91983810D01*
X143096667Y-92031429D01*
X143096667Y-92102857D01*
X143072857Y-92150476D01*
X143049048Y-92174286D01*
X143001429Y-92198095D01*
X142810953Y-92198095D01*
X143263334Y-91936190D02*
X143596667Y-91936190D01*
X143382381Y-92436190D01*
D10*
X127346667Y-92926190D02*
X127180000Y-92688095D01*
X127060953Y-92926190D02*
X127060953Y-92426190D01*
X127251429Y-92426190D01*
X127299048Y-92450000D01*
X127322857Y-92473810D01*
X127346667Y-92521429D01*
X127346667Y-92592857D01*
X127322857Y-92640476D01*
X127299048Y-92664286D01*
X127251429Y-92688095D01*
X127060953Y-92688095D01*
X127632381Y-92640476D02*
X127584762Y-92616667D01*
X127560953Y-92592857D01*
X127537143Y-92545238D01*
X127537143Y-92521429D01*
X127560953Y-92473810D01*
X127584762Y-92450000D01*
X127632381Y-92426190D01*
X127727619Y-92426190D01*
X127775238Y-92450000D01*
X127799048Y-92473810D01*
X127822857Y-92521429D01*
X127822857Y-92545238D01*
X127799048Y-92592857D01*
X127775238Y-92616667D01*
X127727619Y-92640476D01*
X127632381Y-92640476D01*
X127584762Y-92664286D01*
X127560953Y-92688095D01*
X127537143Y-92735714D01*
X127537143Y-92830952D01*
X127560953Y-92878571D01*
X127584762Y-92902381D01*
X127632381Y-92926190D01*
X127727619Y-92926190D01*
X127775238Y-92902381D01*
X127799048Y-92878571D01*
X127822857Y-92830952D01*
X127822857Y-92735714D01*
X127799048Y-92688095D01*
X127775238Y-92664286D01*
X127727619Y-92640476D01*
D12*
X130183334Y-92316667D02*
X129950000Y-91983333D01*
X129783334Y-92316667D02*
X129783334Y-91616667D01*
X130050000Y-91616667D01*
X130116667Y-91650000D01*
X130150000Y-91683333D01*
X130183334Y-91750000D01*
X130183334Y-91850000D01*
X130150000Y-91916667D01*
X130116667Y-91950000D01*
X130050000Y-91983333D01*
X129783334Y-91983333D01*
X130516667Y-92316667D02*
X130650000Y-92316667D01*
X130716667Y-92283333D01*
X130750000Y-92250000D01*
X130816667Y-92150000D01*
X130850000Y-92016667D01*
X130850000Y-91750000D01*
X130816667Y-91683333D01*
X130783334Y-91650000D01*
X130716667Y-91616667D01*
X130583334Y-91616667D01*
X130516667Y-91650000D01*
X130483334Y-91683333D01*
X130450000Y-91750000D01*
X130450000Y-91916667D01*
X130483334Y-91983333D01*
X130516667Y-92016667D01*
X130583334Y-92050000D01*
X130716667Y-92050000D01*
X130783334Y-92016667D01*
X130816667Y-91983333D01*
X130850000Y-91916667D01*
D10*
X126816190Y-101741428D02*
X126578095Y-101908095D01*
X126816190Y-102027142D02*
X126316190Y-102027142D01*
X126316190Y-101836666D01*
X126340000Y-101789047D01*
X126363810Y-101765238D01*
X126411429Y-101741428D01*
X126482857Y-101741428D01*
X126530476Y-101765238D01*
X126554286Y-101789047D01*
X126578095Y-101836666D01*
X126578095Y-102027142D01*
X126816190Y-101265238D02*
X126816190Y-101550952D01*
X126816190Y-101408095D02*
X126316190Y-101408095D01*
X126387619Y-101455714D01*
X126435238Y-101503333D01*
X126459048Y-101550952D01*
X126816190Y-100789048D02*
X126816190Y-101074762D01*
X126816190Y-100931905D02*
X126316190Y-100931905D01*
X126387619Y-100979524D01*
X126435238Y-101027143D01*
X126459048Y-101074762D01*
X140978572Y-101226190D02*
X140811905Y-100988095D01*
X140692858Y-101226190D02*
X140692858Y-100726190D01*
X140883334Y-100726190D01*
X140930953Y-100750000D01*
X140954762Y-100773810D01*
X140978572Y-100821429D01*
X140978572Y-100892857D01*
X140954762Y-100940476D01*
X140930953Y-100964286D01*
X140883334Y-100988095D01*
X140692858Y-100988095D01*
X141454762Y-101226190D02*
X141169048Y-101226190D01*
X141311905Y-101226190D02*
X141311905Y-100726190D01*
X141264286Y-100797619D01*
X141216667Y-100845238D01*
X141169048Y-100869048D01*
X141645238Y-100773810D02*
X141669048Y-100750000D01*
X141716667Y-100726190D01*
X141835714Y-100726190D01*
X141883333Y-100750000D01*
X141907143Y-100773810D01*
X141930952Y-100821429D01*
X141930952Y-100869048D01*
X141907143Y-100940476D01*
X141621429Y-101226190D01*
X141930952Y-101226190D01*
X142078572Y-108226190D02*
X141911905Y-107988095D01*
X141792858Y-108226190D02*
X141792858Y-107726190D01*
X141983334Y-107726190D01*
X142030953Y-107750000D01*
X142054762Y-107773810D01*
X142078572Y-107821429D01*
X142078572Y-107892857D01*
X142054762Y-107940476D01*
X142030953Y-107964286D01*
X141983334Y-107988095D01*
X141792858Y-107988095D01*
X142554762Y-108226190D02*
X142269048Y-108226190D01*
X142411905Y-108226190D02*
X142411905Y-107726190D01*
X142364286Y-107797619D01*
X142316667Y-107845238D01*
X142269048Y-107869048D01*
X142721429Y-107726190D02*
X143030952Y-107726190D01*
X142864286Y-107916667D01*
X142935714Y-107916667D01*
X142983333Y-107940476D01*
X143007143Y-107964286D01*
X143030952Y-108011905D01*
X143030952Y-108130952D01*
X143007143Y-108178571D01*
X142983333Y-108202381D01*
X142935714Y-108226190D01*
X142792857Y-108226190D01*
X142745238Y-108202381D01*
X142721429Y-108178571D01*
D12*
X132250000Y-92416667D02*
X132016666Y-92083333D01*
X131850000Y-92416667D02*
X131850000Y-91716667D01*
X132116666Y-91716667D01*
X132183333Y-91750000D01*
X132216666Y-91783333D01*
X132250000Y-91850000D01*
X132250000Y-91950000D01*
X132216666Y-92016667D01*
X132183333Y-92050000D01*
X132116666Y-92083333D01*
X131850000Y-92083333D01*
X132916666Y-92416667D02*
X132516666Y-92416667D01*
X132716666Y-92416667D02*
X132716666Y-91716667D01*
X132650000Y-91816667D01*
X132583333Y-91883333D01*
X132516666Y-91916667D01*
X133516667Y-91950000D02*
X133516667Y-92416667D01*
X133350000Y-91683333D02*
X133183333Y-92183333D01*
X133616667Y-92183333D01*
D10*
X112726190Y-95880952D02*
X113130952Y-95880952D01*
X113178571Y-95857143D01*
X113202381Y-95833333D01*
X113226190Y-95785714D01*
X113226190Y-95690476D01*
X113202381Y-95642857D01*
X113178571Y-95619048D01*
X113130952Y-95595238D01*
X112726190Y-95595238D01*
X113226190Y-95095238D02*
X113226190Y-95380952D01*
X113226190Y-95238095D02*
X112726190Y-95238095D01*
X112797619Y-95285714D01*
X112845238Y-95333333D01*
X112869048Y-95380952D01*
X142378571Y-103421428D02*
X142402381Y-103445238D01*
X142426190Y-103516666D01*
X142426190Y-103564285D01*
X142402381Y-103635714D01*
X142354762Y-103683333D01*
X142307143Y-103707142D01*
X142211905Y-103730952D01*
X142140476Y-103730952D01*
X142045238Y-103707142D01*
X141997619Y-103683333D01*
X141950000Y-103635714D01*
X141926190Y-103564285D01*
X141926190Y-103516666D01*
X141950000Y-103445238D01*
X141973810Y-103421428D01*
X142426190Y-102945238D02*
X142426190Y-103230952D01*
X142426190Y-103088095D02*
X141926190Y-103088095D01*
X141997619Y-103135714D01*
X142045238Y-103183333D01*
X142069048Y-103230952D01*
X142092857Y-102516667D02*
X142426190Y-102516667D01*
X141902381Y-102635714D02*
X142259524Y-102754762D01*
X142259524Y-102445238D01*
D15*
X138473334Y-95352381D02*
X138544763Y-95376190D01*
X138663810Y-95376190D01*
X138711429Y-95352381D01*
X138735239Y-95328571D01*
X138759048Y-95280952D01*
X138759048Y-95233333D01*
X138735239Y-95185714D01*
X138711429Y-95161905D01*
X138663810Y-95138095D01*
X138568572Y-95114286D01*
X138520953Y-95090476D01*
X138497144Y-95066667D01*
X138473334Y-95019048D01*
X138473334Y-94971429D01*
X138497144Y-94923810D01*
X138520953Y-94900000D01*
X138568572Y-94876190D01*
X138687620Y-94876190D01*
X138759048Y-94900000D01*
X138925715Y-94876190D02*
X139044762Y-95376190D01*
X139140000Y-95019048D01*
X139235238Y-95376190D01*
X139354286Y-94876190D01*
X139806667Y-95376190D02*
X139520953Y-95376190D01*
X139663810Y-95376190D02*
X139663810Y-94876190D01*
X139616191Y-94947619D01*
X139568572Y-94995238D01*
X139520953Y-95019048D01*
X139802381Y-106266666D02*
X139826190Y-106195237D01*
X139826190Y-106076190D01*
X139802381Y-106028571D01*
X139778571Y-106004761D01*
X139730952Y-105980952D01*
X139683333Y-105980952D01*
X139635714Y-106004761D01*
X139611905Y-106028571D01*
X139588095Y-106076190D01*
X139564286Y-106171428D01*
X139540476Y-106219047D01*
X139516667Y-106242856D01*
X139469048Y-106266666D01*
X139421429Y-106266666D01*
X139373810Y-106242856D01*
X139350000Y-106219047D01*
X139326190Y-106171428D01*
X139326190Y-106052380D01*
X139350000Y-105980952D01*
X139326190Y-105814285D02*
X139826190Y-105695238D01*
X139469048Y-105600000D01*
X139826190Y-105504762D01*
X139326190Y-105385714D01*
X139373810Y-105219047D02*
X139350000Y-105195237D01*
X139326190Y-105147618D01*
X139326190Y-105028571D01*
X139350000Y-104980952D01*
X139373810Y-104957142D01*
X139421429Y-104933333D01*
X139469048Y-104933333D01*
X139540476Y-104957142D01*
X139826190Y-105242856D01*
X139826190Y-104933333D01*
D12*
X151332381Y-102191905D02*
X152141905Y-102191905D01*
X152237143Y-102144286D01*
X152284762Y-102096667D01*
X152332381Y-102001429D01*
X152332381Y-101810952D01*
X152284762Y-101715714D01*
X152237143Y-101668095D01*
X152141905Y-101620476D01*
X151332381Y-101620476D01*
X151332381Y-101239524D02*
X151332381Y-100620476D01*
X151713333Y-100953810D01*
X151713333Y-100810952D01*
X151760952Y-100715714D01*
X151808571Y-100668095D01*
X151903810Y-100620476D01*
X152141905Y-100620476D01*
X152237143Y-100668095D01*
X152284762Y-100715714D01*
X152332381Y-100810952D01*
X152332381Y-101096667D01*
X152284762Y-101191905D01*
X152237143Y-101239524D01*
X149728570Y-105828571D02*
X150061904Y-105828571D01*
X150204761Y-106352381D02*
X149728570Y-106352381D01*
X149728570Y-105352381D01*
X150204761Y-105352381D01*
X150585713Y-106304762D02*
X150680951Y-106352381D01*
X150871427Y-106352381D01*
X150966666Y-106304762D01*
X151014285Y-106209524D01*
X151014285Y-106161905D01*
X150966666Y-106066667D01*
X150871427Y-106019048D01*
X150728570Y-106019048D01*
X150633332Y-105971429D01*
X150585713Y-105876190D01*
X150585713Y-105828571D01*
X150633332Y-105733333D01*
X150728570Y-105685714D01*
X150871427Y-105685714D01*
X150966666Y-105733333D01*
X151442856Y-105685714D02*
X151442856Y-106685714D01*
X151442856Y-105733333D02*
X151538094Y-105685714D01*
X151728571Y-105685714D01*
X151823809Y-105733333D01*
X151871428Y-105780952D01*
X151919047Y-105876190D01*
X151919047Y-106161905D01*
X151871428Y-106257143D01*
X151823809Y-106304762D01*
X151728571Y-106352381D01*
X151538094Y-106352381D01*
X151442856Y-106304762D01*
X152347618Y-106352381D02*
X152347618Y-105685714D01*
X152347618Y-105876190D02*
X152395237Y-105780952D01*
X152442856Y-105733333D01*
X152538094Y-105685714D01*
X152633333Y-105685714D01*
X153347619Y-106304762D02*
X153252381Y-106352381D01*
X153061904Y-106352381D01*
X152966666Y-106304762D01*
X152919047Y-106209524D01*
X152919047Y-105828571D01*
X152966666Y-105733333D01*
X153061904Y-105685714D01*
X153252381Y-105685714D01*
X153347619Y-105733333D01*
X153395238Y-105828571D01*
X153395238Y-105923810D01*
X152919047Y-106019048D01*
X153776190Y-106304762D02*
X153871428Y-106352381D01*
X154061904Y-106352381D01*
X154157143Y-106304762D01*
X154204762Y-106209524D01*
X154204762Y-106161905D01*
X154157143Y-106066667D01*
X154061904Y-106019048D01*
X153919047Y-106019048D01*
X153823809Y-105971429D01*
X153776190Y-105876190D01*
X153776190Y-105828571D01*
X153823809Y-105733333D01*
X153919047Y-105685714D01*
X154061904Y-105685714D01*
X154157143Y-105733333D01*
X154585714Y-106304762D02*
X154680952Y-106352381D01*
X154871428Y-106352381D01*
X154966667Y-106304762D01*
X155014286Y-106209524D01*
X155014286Y-106161905D01*
X154966667Y-106066667D01*
X154871428Y-106019048D01*
X154728571Y-106019048D01*
X154633333Y-105971429D01*
X154585714Y-105876190D01*
X154585714Y-105828571D01*
X154633333Y-105733333D01*
X154728571Y-105685714D01*
X154871428Y-105685714D01*
X154966667Y-105733333D01*
X155442857Y-106352381D02*
X155442857Y-105685714D01*
X155442857Y-105352381D02*
X155395238Y-105400000D01*
X155442857Y-105447619D01*
X155490476Y-105400000D01*
X155442857Y-105352381D01*
X155442857Y-105447619D01*
X155776190Y-105685714D02*
X156157142Y-105685714D01*
X155919047Y-106352381D02*
X155919047Y-105495238D01*
X155966666Y-105400000D01*
X156061904Y-105352381D01*
X156157142Y-105352381D01*
X157204762Y-106304762D02*
X157347619Y-106352381D01*
X157585715Y-106352381D01*
X157680953Y-106304762D01*
X157728572Y-106257143D01*
X157776191Y-106161905D01*
X157776191Y-106066667D01*
X157728572Y-105971429D01*
X157680953Y-105923810D01*
X157585715Y-105876190D01*
X157395238Y-105828571D01*
X157300000Y-105780952D01*
X157252381Y-105733333D01*
X157204762Y-105638095D01*
X157204762Y-105542857D01*
X157252381Y-105447619D01*
X157300000Y-105400000D01*
X157395238Y-105352381D01*
X157633334Y-105352381D01*
X157776191Y-105400000D01*
X158109524Y-105685714D02*
X158347619Y-106352381D01*
X158585715Y-105685714D02*
X158347619Y-106352381D01*
X158252381Y-106590476D01*
X158204762Y-106638095D01*
X158109524Y-106685714D01*
X158919048Y-106304762D02*
X159014286Y-106352381D01*
X159204762Y-106352381D01*
X159300001Y-106304762D01*
X159347620Y-106209524D01*
X159347620Y-106161905D01*
X159300001Y-106066667D01*
X159204762Y-106019048D01*
X159061905Y-106019048D01*
X158966667Y-105971429D01*
X158919048Y-105876190D01*
X158919048Y-105828571D01*
X158966667Y-105733333D01*
X159061905Y-105685714D01*
X159204762Y-105685714D01*
X159300001Y-105733333D01*
X159633334Y-105685714D02*
X160014286Y-105685714D01*
X159776191Y-105352381D02*
X159776191Y-106209524D01*
X159823810Y-106304762D01*
X159919048Y-106352381D01*
X160014286Y-106352381D01*
X160728573Y-106304762D02*
X160633335Y-106352381D01*
X160442858Y-106352381D01*
X160347620Y-106304762D01*
X160300001Y-106209524D01*
X160300001Y-105828571D01*
X160347620Y-105733333D01*
X160442858Y-105685714D01*
X160633335Y-105685714D01*
X160728573Y-105733333D01*
X160776192Y-105828571D01*
X160776192Y-105923810D01*
X160300001Y-106019048D01*
X161204763Y-106352381D02*
X161204763Y-105685714D01*
X161204763Y-105780952D02*
X161252382Y-105733333D01*
X161347620Y-105685714D01*
X161490478Y-105685714D01*
X161585716Y-105733333D01*
X161633335Y-105828571D01*
X161633335Y-106352381D01*
X161633335Y-105828571D02*
X161680954Y-105733333D01*
X161776192Y-105685714D01*
X161919049Y-105685714D01*
X162014287Y-105733333D01*
X162061906Y-105828571D01*
X162061906Y-106352381D01*
X162490477Y-106304762D02*
X162585715Y-106352381D01*
X162776191Y-106352381D01*
X162871430Y-106304762D01*
X162919049Y-106209524D01*
X162919049Y-106161905D01*
X162871430Y-106066667D01*
X162776191Y-106019048D01*
X162633334Y-106019048D01*
X162538096Y-105971429D01*
X162490477Y-105876190D01*
X162490477Y-105828571D01*
X162538096Y-105733333D01*
X162633334Y-105685714D01*
X162776191Y-105685714D01*
X162871430Y-105733333D01*
X151547619Y-104428571D02*
X151880953Y-104428571D01*
X152023810Y-104952381D02*
X151547619Y-104952381D01*
X151547619Y-103952381D01*
X152023810Y-103952381D01*
X152404762Y-104904762D02*
X152547619Y-104952381D01*
X152785715Y-104952381D01*
X152880953Y-104904762D01*
X152928572Y-104857143D01*
X152976191Y-104761905D01*
X152976191Y-104666667D01*
X152928572Y-104571429D01*
X152880953Y-104523810D01*
X152785715Y-104476190D01*
X152595238Y-104428571D01*
X152500000Y-104380952D01*
X152452381Y-104333333D01*
X152404762Y-104238095D01*
X152404762Y-104142857D01*
X152452381Y-104047619D01*
X152500000Y-104000000D01*
X152595238Y-103952381D01*
X152833334Y-103952381D01*
X152976191Y-104000000D01*
X153404762Y-104952381D02*
X153404762Y-103952381D01*
X153785715Y-103952381D01*
X153880953Y-104000000D01*
X153928572Y-104047619D01*
X153976191Y-104142857D01*
X153976191Y-104285714D01*
X153928572Y-104380952D01*
X153880953Y-104428571D01*
X153785715Y-104476190D01*
X153404762Y-104476190D01*
X154309524Y-103952381D02*
X154928572Y-103952381D01*
X154595238Y-104333333D01*
X154738096Y-104333333D01*
X154833334Y-104380952D01*
X154880953Y-104428571D01*
X154928572Y-104523810D01*
X154928572Y-104761905D01*
X154880953Y-104857143D01*
X154833334Y-104904762D01*
X154738096Y-104952381D01*
X154452381Y-104952381D01*
X154357143Y-104904762D01*
X154309524Y-104857143D01*
X155309524Y-104047619D02*
X155357143Y-104000000D01*
X155452381Y-103952381D01*
X155690477Y-103952381D01*
X155785715Y-104000000D01*
X155833334Y-104047619D01*
X155880953Y-104142857D01*
X155880953Y-104238095D01*
X155833334Y-104380952D01*
X155261905Y-104952381D01*
X155880953Y-104952381D01*
X156309524Y-104571429D02*
X157071429Y-104571429D01*
X157452381Y-103952381D02*
X157690476Y-104952381D01*
X157880953Y-104238095D01*
X158071429Y-104952381D01*
X158309524Y-103952381D01*
X159261905Y-104952381D02*
X158928571Y-104476190D01*
X158690476Y-104952381D02*
X158690476Y-103952381D01*
X159071429Y-103952381D01*
X159166667Y-104000000D01*
X159214286Y-104047619D01*
X159261905Y-104142857D01*
X159261905Y-104285714D01*
X159214286Y-104380952D01*
X159166667Y-104428571D01*
X159071429Y-104476190D01*
X158690476Y-104476190D01*
X159880952Y-103952381D02*
X160071429Y-103952381D01*
X160166667Y-104000000D01*
X160261905Y-104095238D01*
X160309524Y-104285714D01*
X160309524Y-104619048D01*
X160261905Y-104809524D01*
X160166667Y-104904762D01*
X160071429Y-104952381D01*
X159880952Y-104952381D01*
X159785714Y-104904762D01*
X159690476Y-104809524D01*
X159642857Y-104619048D01*
X159642857Y-104285714D01*
X159690476Y-104095238D01*
X159785714Y-104000000D01*
X159880952Y-103952381D01*
X160928571Y-103952381D02*
X161119048Y-103952381D01*
X161214286Y-104000000D01*
X161309524Y-104095238D01*
X161357143Y-104285714D01*
X161357143Y-104619048D01*
X161309524Y-104809524D01*
X161214286Y-104904762D01*
X161119048Y-104952381D01*
X160928571Y-104952381D01*
X160833333Y-104904762D01*
X160738095Y-104809524D01*
X160690476Y-104619048D01*
X160690476Y-104285714D01*
X160738095Y-104095238D01*
X160833333Y-104000000D01*
X160928571Y-103952381D01*
X161785714Y-104952381D02*
X161785714Y-103952381D01*
X162119048Y-104666667D01*
X162452381Y-103952381D01*
X162452381Y-104952381D01*
M02*
