G04 #@! TF.FileFunction,Other,Fab,Top*
%FSLAX46Y46*%
G04 Gerber Fmt 4.6, Leading zero omitted, Abs format (unit mm)*
G04 Created by KiCad (PCBNEW 4.0.4-stable) date 02/22/17 16:36:32*
%MOMM*%
%LPD*%
G01*
G04 APERTURE LIST*
%ADD10C,0.100000*%
%ADD11C,0.150000*%
%ADD12C,0.125000*%
%ADD13C,0.090000*%
G04 APERTURE END LIST*
D10*
X128700000Y-107050000D02*
X128700000Y-104600000D01*
X128150000Y-107620000D02*
X127300000Y-107620000D01*
X128700000Y-107050000D02*
X128150000Y-107620000D01*
X127300000Y-107620000D02*
X127300000Y-104580000D01*
X128700000Y-104580000D02*
X127300000Y-104580000D01*
D11*
X130920000Y-97610000D02*
X133920000Y-97610000D01*
X133920000Y-97610000D02*
X133920000Y-100110000D01*
X133920000Y-100110000D02*
X130920000Y-100110000D01*
X130920000Y-100110000D02*
X130920000Y-97610000D01*
X120340000Y-100500000D02*
X124340000Y-100500000D01*
X124340000Y-100500000D02*
X124340000Y-105500000D01*
X124340000Y-105500000D02*
X119340000Y-105500000D01*
X119340000Y-105500000D02*
X119340000Y-101500000D01*
X119340000Y-101500000D02*
X120340000Y-100500000D01*
D10*
X124625000Y-95710000D02*
X123375000Y-95710000D01*
X124625000Y-93710000D02*
X124625000Y-95710000D01*
X123375000Y-93710000D02*
X124625000Y-93710000D01*
X123375000Y-95710000D02*
X123375000Y-93710000D01*
X112975000Y-105130000D02*
X114225000Y-105130000D01*
X112975000Y-107130000D02*
X112975000Y-105130000D01*
X114225000Y-107130000D02*
X112975000Y-107130000D01*
X114225000Y-105130000D02*
X114225000Y-107130000D01*
X139130000Y-98705000D02*
X139130000Y-99955000D01*
X137130000Y-98705000D02*
X139130000Y-98705000D01*
X137130000Y-99955000D02*
X137130000Y-98705000D01*
X139130000Y-99955000D02*
X137130000Y-99955000D01*
X135215000Y-95930000D02*
X133965000Y-95930000D01*
X135215000Y-93930000D02*
X135215000Y-95930000D01*
X133965000Y-93930000D02*
X135215000Y-93930000D01*
X133965000Y-95930000D02*
X133965000Y-93930000D01*
X122610000Y-94440000D02*
X121810000Y-94440000D01*
X122210000Y-94440000D02*
X122610000Y-95040000D01*
X121810000Y-95040000D02*
X122210000Y-94440000D01*
X122610000Y-95040000D02*
X121810000Y-95040000D01*
X121610000Y-95840000D02*
X121610000Y-93840000D01*
X122810000Y-95840000D02*
X121610000Y-95840000D01*
X122810000Y-93840000D02*
X122810000Y-95840000D01*
X121610000Y-93840000D02*
X122810000Y-93840000D01*
X127250000Y-95310000D02*
X127250000Y-96110000D01*
X127250000Y-95710000D02*
X127850000Y-95310000D01*
X127850000Y-96110000D02*
X127250000Y-95710000D01*
X127850000Y-95310000D02*
X127850000Y-96110000D01*
X128650000Y-96310000D02*
X126650000Y-96310000D01*
X128650000Y-95110000D02*
X128650000Y-96310000D01*
X126650000Y-95110000D02*
X128650000Y-95110000D01*
X126650000Y-96310000D02*
X126650000Y-95110000D01*
X126270000Y-97800000D02*
X126270000Y-98600000D01*
X126270000Y-98200000D02*
X126870000Y-97800000D01*
X126870000Y-98600000D02*
X126270000Y-98200000D01*
X126870000Y-97800000D02*
X126870000Y-98600000D01*
X127670000Y-98800000D02*
X125670000Y-98800000D01*
X127670000Y-97600000D02*
X127670000Y-98800000D01*
X125670000Y-97600000D02*
X127670000Y-97600000D01*
X125670000Y-98800000D02*
X125670000Y-97600000D01*
X140600000Y-94300000D02*
X140600000Y-93500000D01*
X140600000Y-93900000D02*
X140000000Y-94300000D01*
X140000000Y-93500000D02*
X140600000Y-93900000D01*
X140000000Y-94300000D02*
X140000000Y-93500000D01*
X139200000Y-93300000D02*
X141200000Y-93300000D01*
X139200000Y-94500000D02*
X139200000Y-93300000D01*
X141200000Y-94500000D02*
X139200000Y-94500000D01*
X141200000Y-93300000D02*
X141200000Y-94500000D01*
X133110000Y-101020000D02*
X133110000Y-101820000D01*
X133110000Y-101420000D02*
X133710000Y-101020000D01*
X133710000Y-101820000D02*
X133110000Y-101420000D01*
X133710000Y-101020000D02*
X133710000Y-101820000D01*
X134510000Y-102020000D02*
X132510000Y-102020000D01*
X134510000Y-100820000D02*
X134510000Y-102020000D01*
X132510000Y-100820000D02*
X134510000Y-100820000D01*
X132510000Y-102020000D02*
X132510000Y-100820000D01*
X132770000Y-105130000D02*
X132770000Y-107580000D01*
X133320000Y-104560000D02*
X134170000Y-104560000D01*
X132770000Y-105130000D02*
X133320000Y-104560000D01*
X134170000Y-104560000D02*
X134170000Y-107600000D01*
X132770000Y-107600000D02*
X134170000Y-107600000D01*
X129590000Y-109345000D02*
X129590000Y-108095000D01*
X131590000Y-109345000D02*
X129590000Y-109345000D01*
X131590000Y-108095000D02*
X131590000Y-109345000D01*
X129590000Y-108095000D02*
X131590000Y-108095000D01*
X131530000Y-102825000D02*
X131530000Y-104075000D01*
X129530000Y-102825000D02*
X131530000Y-102825000D01*
X129530000Y-104075000D02*
X129530000Y-102825000D01*
X131530000Y-104075000D02*
X129530000Y-104075000D01*
X116130000Y-99545000D02*
X116130000Y-100795000D01*
X114130000Y-99545000D02*
X116130000Y-99545000D01*
X114130000Y-100795000D02*
X114130000Y-99545000D01*
X116130000Y-100795000D02*
X114130000Y-100795000D01*
X122490000Y-92175000D02*
X122490000Y-90925000D01*
X124490000Y-92175000D02*
X122490000Y-92175000D01*
X124490000Y-90925000D02*
X124490000Y-92175000D01*
X122490000Y-90925000D02*
X124490000Y-90925000D01*
X116130000Y-101485000D02*
X116130000Y-102735000D01*
X114130000Y-101485000D02*
X116130000Y-101485000D01*
X114130000Y-102735000D02*
X114130000Y-101485000D01*
X116130000Y-102735000D02*
X114130000Y-102735000D01*
X141400000Y-91575000D02*
X141400000Y-92825000D01*
X139400000Y-91575000D02*
X141400000Y-91575000D01*
X139400000Y-92825000D02*
X139400000Y-91575000D01*
X141400000Y-92825000D02*
X139400000Y-92825000D01*
X126400000Y-94665000D02*
X126400000Y-93415000D01*
X128400000Y-94665000D02*
X126400000Y-94665000D01*
X128400000Y-93415000D02*
X128400000Y-94665000D01*
X126400000Y-93415000D02*
X128400000Y-93415000D01*
X130005000Y-93770000D02*
X131255000Y-93770000D01*
X130005000Y-95770000D02*
X130005000Y-93770000D01*
X131255000Y-95770000D02*
X130005000Y-95770000D01*
X131255000Y-93770000D02*
X131255000Y-95770000D01*
X130210000Y-100795000D02*
X130210000Y-102045000D01*
X128210000Y-100795000D02*
X130210000Y-100795000D01*
X128210000Y-102045000D02*
X128210000Y-100795000D01*
X130210000Y-102045000D02*
X128210000Y-102045000D01*
X139200000Y-100495000D02*
X139200000Y-101745000D01*
X137200000Y-100495000D02*
X139200000Y-100495000D01*
X137200000Y-101745000D02*
X137200000Y-100495000D01*
X139200000Y-101745000D02*
X137200000Y-101745000D01*
X138405000Y-108810000D02*
X138405000Y-107560000D01*
X140405000Y-108810000D02*
X138405000Y-108810000D01*
X140405000Y-107560000D02*
X140405000Y-108810000D01*
X138405000Y-107560000D02*
X140405000Y-107560000D01*
X132015000Y-93840000D02*
X133265000Y-93840000D01*
X132015000Y-95840000D02*
X132015000Y-93840000D01*
X133265000Y-95840000D02*
X132015000Y-95840000D01*
X133265000Y-93840000D02*
X133265000Y-95840000D01*
X119280000Y-92820000D02*
X120330000Y-93870000D01*
X119280000Y-92820000D02*
X113630000Y-92820000D01*
X120330000Y-93870000D02*
X120330000Y-96520000D01*
X113630000Y-92820000D02*
X113630000Y-96520000D01*
X120330000Y-96520000D02*
X113630000Y-96520000D01*
X140545000Y-102540000D02*
X140545000Y-103790000D01*
X138545000Y-102540000D02*
X140545000Y-102540000D01*
X138545000Y-103790000D02*
X138545000Y-102540000D01*
X140545000Y-103790000D02*
X138545000Y-103790000D01*
D11*
X137580000Y-95720000D02*
X140580000Y-95720000D01*
X140580000Y-95720000D02*
X140580000Y-98220000D01*
X140580000Y-98220000D02*
X137580000Y-98220000D01*
X137580000Y-98220000D02*
X137580000Y-95720000D01*
X138047000Y-104409000D02*
X141047000Y-104409000D01*
X141047000Y-104409000D02*
X141047000Y-106909000D01*
X141047000Y-106909000D02*
X138047000Y-106909000D01*
X138047000Y-106909000D02*
X138047000Y-104409000D01*
D12*
X128146190Y-108215237D02*
X127646190Y-108215237D01*
X128003333Y-108048571D01*
X127646190Y-107881904D01*
X128146190Y-107881904D01*
X128146190Y-107643808D02*
X127646190Y-107643808D01*
X128003333Y-107477142D01*
X127646190Y-107310475D01*
X128146190Y-107310475D01*
X127884286Y-106905713D02*
X127908095Y-106834284D01*
X127931905Y-106810475D01*
X127979524Y-106786665D01*
X128050952Y-106786665D01*
X128098571Y-106810475D01*
X128122381Y-106834284D01*
X128146190Y-106881903D01*
X128146190Y-107072379D01*
X127646190Y-107072379D01*
X127646190Y-106905713D01*
X127670000Y-106858094D01*
X127693810Y-106834284D01*
X127741429Y-106810475D01*
X127789048Y-106810475D01*
X127836667Y-106834284D01*
X127860476Y-106858094D01*
X127884286Y-106905713D01*
X127884286Y-107072379D01*
X127646190Y-106643808D02*
X127646190Y-106358094D01*
X128146190Y-106500951D02*
X127646190Y-106500951D01*
X127646190Y-106239046D02*
X127646190Y-105929523D01*
X127836667Y-106096189D01*
X127836667Y-106024761D01*
X127860476Y-105977142D01*
X127884286Y-105953332D01*
X127931905Y-105929523D01*
X128050952Y-105929523D01*
X128098571Y-105953332D01*
X128122381Y-105977142D01*
X128146190Y-106024761D01*
X128146190Y-106167618D01*
X128122381Y-106215237D01*
X128098571Y-106239046D01*
X128146190Y-105691428D02*
X128146190Y-105596190D01*
X128122381Y-105548571D01*
X128098571Y-105524761D01*
X128027143Y-105477142D01*
X127931905Y-105453333D01*
X127741429Y-105453333D01*
X127693810Y-105477142D01*
X127670000Y-105500952D01*
X127646190Y-105548571D01*
X127646190Y-105643809D01*
X127670000Y-105691428D01*
X127693810Y-105715237D01*
X127741429Y-105739047D01*
X127860476Y-105739047D01*
X127908095Y-105715237D01*
X127931905Y-105691428D01*
X127955714Y-105643809D01*
X127955714Y-105548571D01*
X127931905Y-105500952D01*
X127908095Y-105477142D01*
X127860476Y-105453333D01*
X127646190Y-105143809D02*
X127646190Y-105096190D01*
X127670000Y-105048571D01*
X127693810Y-105024762D01*
X127741429Y-105000952D01*
X127836667Y-104977143D01*
X127955714Y-104977143D01*
X128050952Y-105000952D01*
X128098571Y-105024762D01*
X128122381Y-105048571D01*
X128146190Y-105096190D01*
X128146190Y-105143809D01*
X128122381Y-105191428D01*
X128098571Y-105215238D01*
X128050952Y-105239047D01*
X127955714Y-105262857D01*
X127836667Y-105262857D01*
X127741429Y-105239047D01*
X127693810Y-105215238D01*
X127670000Y-105191428D01*
X127646190Y-105143809D01*
X127812857Y-104548572D02*
X128146190Y-104548572D01*
X127622381Y-104667619D02*
X127979524Y-104786667D01*
X127979524Y-104477143D01*
D13*
X130858572Y-98576190D02*
X130858572Y-98980952D01*
X130882381Y-99028571D01*
X130906191Y-99052381D01*
X130953810Y-99076190D01*
X131049048Y-99076190D01*
X131096667Y-99052381D01*
X131120476Y-99028571D01*
X131144286Y-98980952D01*
X131144286Y-98576190D01*
X131358572Y-99052381D02*
X131430001Y-99076190D01*
X131549048Y-99076190D01*
X131596667Y-99052381D01*
X131620477Y-99028571D01*
X131644286Y-98980952D01*
X131644286Y-98933333D01*
X131620477Y-98885714D01*
X131596667Y-98861905D01*
X131549048Y-98838095D01*
X131453810Y-98814286D01*
X131406191Y-98790476D01*
X131382382Y-98766667D01*
X131358572Y-98719048D01*
X131358572Y-98671429D01*
X131382382Y-98623810D01*
X131406191Y-98600000D01*
X131453810Y-98576190D01*
X131572858Y-98576190D01*
X131644286Y-98600000D01*
X131858572Y-98814286D02*
X132025238Y-98814286D01*
X132096667Y-99076190D02*
X131858572Y-99076190D01*
X131858572Y-98576190D01*
X132096667Y-98576190D01*
X132596667Y-99076190D02*
X132430000Y-98838095D01*
X132310953Y-99076190D02*
X132310953Y-98576190D01*
X132501429Y-98576190D01*
X132549048Y-98600000D01*
X132572857Y-98623810D01*
X132596667Y-98671429D01*
X132596667Y-98742857D01*
X132572857Y-98790476D01*
X132549048Y-98814286D01*
X132501429Y-98838095D01*
X132310953Y-98838095D01*
X132691905Y-99123810D02*
X133072857Y-99123810D01*
X133168095Y-99052381D02*
X133239524Y-99076190D01*
X133358571Y-99076190D01*
X133406190Y-99052381D01*
X133430000Y-99028571D01*
X133453809Y-98980952D01*
X133453809Y-98933333D01*
X133430000Y-98885714D01*
X133406190Y-98861905D01*
X133358571Y-98838095D01*
X133263333Y-98814286D01*
X133215714Y-98790476D01*
X133191905Y-98766667D01*
X133168095Y-98719048D01*
X133168095Y-98671429D01*
X133191905Y-98623810D01*
X133215714Y-98600000D01*
X133263333Y-98576190D01*
X133382381Y-98576190D01*
X133453809Y-98600000D01*
X133620476Y-98576190D02*
X133739523Y-99076190D01*
X133834761Y-98719048D01*
X133929999Y-99076190D01*
X134049047Y-98576190D01*
D11*
X119744762Y-107232143D02*
X119697143Y-107279762D01*
X119554286Y-107327381D01*
X119459048Y-107327381D01*
X119316190Y-107279762D01*
X119220952Y-107184524D01*
X119173333Y-107089286D01*
X119125714Y-106898810D01*
X119125714Y-106755952D01*
X119173333Y-106565476D01*
X119220952Y-106470238D01*
X119316190Y-106375000D01*
X119459048Y-106327381D01*
X119554286Y-106327381D01*
X119697143Y-106375000D01*
X119744762Y-106422619D01*
X120173333Y-107327381D02*
X120173333Y-106327381D01*
X120554286Y-106327381D01*
X120649524Y-106375000D01*
X120697143Y-106422619D01*
X120744762Y-106517857D01*
X120744762Y-106660714D01*
X120697143Y-106755952D01*
X120649524Y-106803571D01*
X120554286Y-106851190D01*
X120173333Y-106851190D01*
X121125714Y-106422619D02*
X121173333Y-106375000D01*
X121268571Y-106327381D01*
X121506667Y-106327381D01*
X121601905Y-106375000D01*
X121649524Y-106422619D01*
X121697143Y-106517857D01*
X121697143Y-106613095D01*
X121649524Y-106755952D01*
X121078095Y-107327381D01*
X121697143Y-107327381D01*
X122649524Y-107327381D02*
X122078095Y-107327381D01*
X122363809Y-107327381D02*
X122363809Y-106327381D01*
X122268571Y-106470238D01*
X122173333Y-106565476D01*
X122078095Y-106613095D01*
X123268571Y-106327381D02*
X123363810Y-106327381D01*
X123459048Y-106375000D01*
X123506667Y-106422619D01*
X123554286Y-106517857D01*
X123601905Y-106708333D01*
X123601905Y-106946429D01*
X123554286Y-107136905D01*
X123506667Y-107232143D01*
X123459048Y-107279762D01*
X123363810Y-107327381D01*
X123268571Y-107327381D01*
X123173333Y-107279762D01*
X123125714Y-107232143D01*
X123078095Y-107136905D01*
X123030476Y-106946429D01*
X123030476Y-106708333D01*
X123078095Y-106517857D01*
X123125714Y-106422619D01*
X123173333Y-106375000D01*
X123268571Y-106327381D01*
X123982857Y-106422619D02*
X124030476Y-106375000D01*
X124125714Y-106327381D01*
X124363810Y-106327381D01*
X124459048Y-106375000D01*
X124506667Y-106422619D01*
X124554286Y-106517857D01*
X124554286Y-106613095D01*
X124506667Y-106755952D01*
X123935238Y-107327381D01*
X124554286Y-107327381D01*
X126616667Y-92510000D02*
X126616667Y-92910000D01*
X126616667Y-92710000D02*
X125916667Y-92710000D01*
X126016667Y-92776666D01*
X126083333Y-92843333D01*
X126116667Y-92910000D01*
X125916667Y-92076666D02*
X125916667Y-92009999D01*
X125950000Y-91943333D01*
X125983333Y-91909999D01*
X126050000Y-91876666D01*
X126183333Y-91843333D01*
X126350000Y-91843333D01*
X126483333Y-91876666D01*
X126550000Y-91909999D01*
X126583333Y-91943333D01*
X126616667Y-92009999D01*
X126616667Y-92076666D01*
X126583333Y-92143333D01*
X126550000Y-92176666D01*
X126483333Y-92209999D01*
X126350000Y-92243333D01*
X126183333Y-92243333D01*
X126050000Y-92209999D01*
X125983333Y-92176666D01*
X125950000Y-92143333D01*
X125916667Y-92076666D01*
X126150000Y-91243332D02*
X126616667Y-91243332D01*
X126150000Y-91543332D02*
X126516667Y-91543332D01*
X126583333Y-91509999D01*
X126616667Y-91443332D01*
X126616667Y-91343332D01*
X126583333Y-91276666D01*
X126550000Y-91243332D01*
X126250000Y-90676666D02*
X126250000Y-90909999D01*
X126616667Y-90909999D02*
X125916667Y-90909999D01*
X125916667Y-90576666D01*
X112532381Y-105185238D02*
X112532381Y-105756667D01*
X112532381Y-105470953D02*
X111532381Y-105470953D01*
X111675238Y-105566191D01*
X111770476Y-105661429D01*
X111818095Y-105756667D01*
X111865714Y-104328095D02*
X112532381Y-104328095D01*
X111865714Y-104756667D02*
X112389524Y-104756667D01*
X112484762Y-104709048D01*
X112532381Y-104613810D01*
X112532381Y-104470952D01*
X112484762Y-104375714D01*
X112437143Y-104328095D01*
X112008571Y-103518571D02*
X112008571Y-103851905D01*
X112532381Y-103851905D02*
X111532381Y-103851905D01*
X111532381Y-103375714D01*
D12*
X141192381Y-98866190D02*
X140906667Y-98866190D01*
X141049524Y-98866190D02*
X141049524Y-98366190D01*
X141001905Y-98437619D01*
X140954286Y-98485238D01*
X140906667Y-98509048D01*
X141406667Y-98532857D02*
X141406667Y-98866190D01*
X141406667Y-98580476D02*
X141430476Y-98556667D01*
X141478095Y-98532857D01*
X141549524Y-98532857D01*
X141597143Y-98556667D01*
X141620952Y-98604286D01*
X141620952Y-98866190D01*
X142025714Y-98604286D02*
X141859048Y-98604286D01*
X141859048Y-98866190D02*
X141859048Y-98366190D01*
X142097143Y-98366190D01*
D11*
X135012381Y-91925238D02*
X135012381Y-92496667D01*
X135012381Y-92210953D02*
X134012381Y-92210953D01*
X134155238Y-92306191D01*
X134250476Y-92401429D01*
X134298095Y-92496667D01*
X134345714Y-91496667D02*
X135012381Y-91496667D01*
X134440952Y-91496667D02*
X134393333Y-91449048D01*
X134345714Y-91353810D01*
X134345714Y-91210952D01*
X134393333Y-91115714D01*
X134488571Y-91068095D01*
X135012381Y-91068095D01*
X134488571Y-90258571D02*
X134488571Y-90591905D01*
X135012381Y-90591905D02*
X134012381Y-90591905D01*
X134012381Y-90115714D01*
D12*
X133786190Y-108235237D02*
X133286190Y-108235237D01*
X133643333Y-108068571D01*
X133286190Y-107901904D01*
X133786190Y-107901904D01*
X133786190Y-107663808D02*
X133286190Y-107663808D01*
X133643333Y-107497142D01*
X133286190Y-107330475D01*
X133786190Y-107330475D01*
X133524286Y-106925713D02*
X133548095Y-106854284D01*
X133571905Y-106830475D01*
X133619524Y-106806665D01*
X133690952Y-106806665D01*
X133738571Y-106830475D01*
X133762381Y-106854284D01*
X133786190Y-106901903D01*
X133786190Y-107092379D01*
X133286190Y-107092379D01*
X133286190Y-106925713D01*
X133310000Y-106878094D01*
X133333810Y-106854284D01*
X133381429Y-106830475D01*
X133429048Y-106830475D01*
X133476667Y-106854284D01*
X133500476Y-106878094D01*
X133524286Y-106925713D01*
X133524286Y-107092379D01*
X133286190Y-106663808D02*
X133286190Y-106378094D01*
X133786190Y-106520951D02*
X133286190Y-106520951D01*
X133286190Y-106259046D02*
X133286190Y-105949523D01*
X133476667Y-106116189D01*
X133476667Y-106044761D01*
X133500476Y-105997142D01*
X133524286Y-105973332D01*
X133571905Y-105949523D01*
X133690952Y-105949523D01*
X133738571Y-105973332D01*
X133762381Y-105997142D01*
X133786190Y-106044761D01*
X133786190Y-106187618D01*
X133762381Y-106235237D01*
X133738571Y-106259046D01*
X133786190Y-105711428D02*
X133786190Y-105616190D01*
X133762381Y-105568571D01*
X133738571Y-105544761D01*
X133667143Y-105497142D01*
X133571905Y-105473333D01*
X133381429Y-105473333D01*
X133333810Y-105497142D01*
X133310000Y-105520952D01*
X133286190Y-105568571D01*
X133286190Y-105663809D01*
X133310000Y-105711428D01*
X133333810Y-105735237D01*
X133381429Y-105759047D01*
X133500476Y-105759047D01*
X133548095Y-105735237D01*
X133571905Y-105711428D01*
X133595714Y-105663809D01*
X133595714Y-105568571D01*
X133571905Y-105520952D01*
X133548095Y-105497142D01*
X133500476Y-105473333D01*
X133286190Y-105163809D02*
X133286190Y-105116190D01*
X133310000Y-105068571D01*
X133333810Y-105044762D01*
X133381429Y-105020952D01*
X133476667Y-104997143D01*
X133595714Y-104997143D01*
X133690952Y-105020952D01*
X133738571Y-105044762D01*
X133762381Y-105068571D01*
X133786190Y-105116190D01*
X133786190Y-105163809D01*
X133762381Y-105211428D01*
X133738571Y-105235238D01*
X133690952Y-105259047D01*
X133595714Y-105282857D01*
X133476667Y-105282857D01*
X133381429Y-105259047D01*
X133333810Y-105235238D01*
X133310000Y-105211428D01*
X133286190Y-105163809D01*
X133452857Y-104568572D02*
X133786190Y-104568572D01*
X133262381Y-104687619D02*
X133619524Y-104806667D01*
X133619524Y-104497143D01*
D11*
X126466666Y-108676667D02*
X126066666Y-108676667D01*
X126266666Y-108676667D02*
X126266666Y-107976667D01*
X126200000Y-108076667D01*
X126133333Y-108143333D01*
X126066666Y-108176667D01*
X126733333Y-108043333D02*
X126766667Y-108010000D01*
X126833333Y-107976667D01*
X127000000Y-107976667D01*
X127066667Y-108010000D01*
X127100000Y-108043333D01*
X127133333Y-108110000D01*
X127133333Y-108176667D01*
X127100000Y-108276667D01*
X126700000Y-108676667D01*
X127133333Y-108676667D01*
X127433334Y-108676667D02*
X127433334Y-107976667D01*
X127833334Y-108676667D02*
X127533334Y-108276667D01*
X127833334Y-107976667D02*
X127433334Y-108376667D01*
D12*
X128764762Y-104916190D02*
X128479048Y-104916190D01*
X128621905Y-104916190D02*
X128621905Y-104416190D01*
X128574286Y-104487619D01*
X128526667Y-104535238D01*
X128479048Y-104559048D01*
X128955238Y-104463810D02*
X128979048Y-104440000D01*
X129026667Y-104416190D01*
X129145714Y-104416190D01*
X129193333Y-104440000D01*
X129217143Y-104463810D01*
X129240952Y-104511429D01*
X129240952Y-104559048D01*
X129217143Y-104630476D01*
X128931429Y-104916190D01*
X129240952Y-104916190D01*
X129455238Y-104916190D02*
X129455238Y-104416190D01*
X129740952Y-104916190D02*
X129526666Y-104630476D01*
X129740952Y-104416190D02*
X129455238Y-104701905D01*
D11*
X114110000Y-98333333D02*
X114143334Y-98300000D01*
X114210000Y-98266667D01*
X114376667Y-98266667D01*
X114443334Y-98300000D01*
X114476667Y-98333333D01*
X114510000Y-98400000D01*
X114510000Y-98466667D01*
X114476667Y-98566667D01*
X114076667Y-98966667D01*
X114510000Y-98966667D01*
X114743334Y-98266667D02*
X115210001Y-98266667D01*
X114910001Y-98966667D01*
X115476668Y-98600000D02*
X115710001Y-98600000D01*
X115810001Y-98966667D02*
X115476668Y-98966667D01*
X115476668Y-98266667D01*
X115810001Y-98266667D01*
X121500000Y-90596667D02*
X121100000Y-90596667D01*
X121300000Y-90596667D02*
X121300000Y-89896667D01*
X121233334Y-89996667D01*
X121166667Y-90063333D01*
X121100000Y-90096667D01*
X121800001Y-90596667D02*
X121800001Y-89896667D01*
X122200001Y-90596667D02*
X121900001Y-90196667D01*
X122200001Y-89896667D02*
X121800001Y-90296667D01*
X114940000Y-103463333D02*
X114973334Y-103430000D01*
X115040000Y-103396667D01*
X115206667Y-103396667D01*
X115273334Y-103430000D01*
X115306667Y-103463333D01*
X115340000Y-103530000D01*
X115340000Y-103596667D01*
X115306667Y-103696667D01*
X114906667Y-104096667D01*
X115340000Y-104096667D01*
X115573334Y-103396667D02*
X116040001Y-103396667D01*
X115740001Y-104096667D01*
X116306668Y-103730000D02*
X116540001Y-103730000D01*
X116640001Y-104096667D02*
X116306668Y-104096667D01*
X116306668Y-103396667D01*
X116640001Y-103396667D01*
D12*
X143052858Y-91422857D02*
X143052858Y-91756190D01*
X142933811Y-91232381D02*
X142814763Y-91589524D01*
X143124287Y-91589524D01*
X143267144Y-91256190D02*
X143600477Y-91256190D01*
X143386191Y-91756190D01*
X143886191Y-91256190D02*
X143933810Y-91256190D01*
X143981429Y-91280000D01*
X144005238Y-91303810D01*
X144029048Y-91351429D01*
X144052857Y-91446667D01*
X144052857Y-91565714D01*
X144029048Y-91660952D01*
X144005238Y-91708571D01*
X143981429Y-91732381D01*
X143933810Y-91756190D01*
X143886191Y-91756190D01*
X143838572Y-91732381D01*
X143814762Y-91708571D01*
X143790953Y-91660952D01*
X143767143Y-91565714D01*
X143767143Y-91446667D01*
X143790953Y-91351429D01*
X143814762Y-91303810D01*
X143838572Y-91280000D01*
X143886191Y-91256190D01*
X144267143Y-91494286D02*
X144433809Y-91494286D01*
X144505238Y-91756190D02*
X144267143Y-91756190D01*
X144267143Y-91256190D01*
X144505238Y-91256190D01*
D11*
X127340000Y-92926667D02*
X126940000Y-92926667D01*
X127140000Y-92926667D02*
X127140000Y-92226667D01*
X127073334Y-92326667D01*
X127006667Y-92393333D01*
X126940000Y-92426667D01*
X127640001Y-92926667D02*
X127640001Y-92226667D01*
X128040001Y-92926667D02*
X127740001Y-92526667D01*
X128040001Y-92226667D02*
X127640001Y-92626667D01*
X130676667Y-91930000D02*
X130676667Y-92330000D01*
X130676667Y-92130000D02*
X129976667Y-92130000D01*
X130076667Y-92196666D01*
X130143333Y-92263333D01*
X130176667Y-92330000D01*
X130676667Y-91629999D02*
X129976667Y-91629999D01*
X130676667Y-91229999D02*
X130276667Y-91529999D01*
X129976667Y-91229999D02*
X130376667Y-91629999D01*
D12*
X127272858Y-100192857D02*
X127272858Y-100526190D01*
X127153811Y-100002381D02*
X127034763Y-100359524D01*
X127344287Y-100359524D01*
X127487144Y-100026190D02*
X127820477Y-100026190D01*
X127606191Y-100526190D01*
X128106191Y-100026190D02*
X128153810Y-100026190D01*
X128201429Y-100050000D01*
X128225238Y-100073810D01*
X128249048Y-100121429D01*
X128272857Y-100216667D01*
X128272857Y-100335714D01*
X128249048Y-100430952D01*
X128225238Y-100478571D01*
X128201429Y-100502381D01*
X128153810Y-100526190D01*
X128106191Y-100526190D01*
X128058572Y-100502381D01*
X128034762Y-100478571D01*
X128010953Y-100430952D01*
X127987143Y-100335714D01*
X127987143Y-100216667D01*
X128010953Y-100121429D01*
X128034762Y-100073810D01*
X128058572Y-100050000D01*
X128106191Y-100026190D01*
X128487143Y-100264286D02*
X128653809Y-100264286D01*
X128725238Y-100526190D02*
X128487143Y-100526190D01*
X128487143Y-100026190D01*
X128725238Y-100026190D01*
X140932858Y-100182857D02*
X140932858Y-100516190D01*
X140813811Y-99992381D02*
X140694763Y-100349524D01*
X141004287Y-100349524D01*
X141147144Y-100016190D02*
X141480477Y-100016190D01*
X141266191Y-100516190D01*
X141766191Y-100016190D02*
X141813810Y-100016190D01*
X141861429Y-100040000D01*
X141885238Y-100063810D01*
X141909048Y-100111429D01*
X141932857Y-100206667D01*
X141932857Y-100325714D01*
X141909048Y-100420952D01*
X141885238Y-100468571D01*
X141861429Y-100492381D01*
X141813810Y-100516190D01*
X141766191Y-100516190D01*
X141718572Y-100492381D01*
X141694762Y-100468571D01*
X141670953Y-100420952D01*
X141647143Y-100325714D01*
X141647143Y-100206667D01*
X141670953Y-100111429D01*
X141694762Y-100063810D01*
X141718572Y-100040000D01*
X141766191Y-100016190D01*
X142147143Y-100254286D02*
X142313809Y-100254286D01*
X142385238Y-100516190D02*
X142147143Y-100516190D01*
X142147143Y-100016190D01*
X142385238Y-100016190D01*
X142112858Y-108772857D02*
X142112858Y-109106190D01*
X141993811Y-108582381D02*
X141874763Y-108939524D01*
X142184287Y-108939524D01*
X142327144Y-108606190D02*
X142660477Y-108606190D01*
X142446191Y-109106190D01*
X142946191Y-108606190D02*
X142993810Y-108606190D01*
X143041429Y-108630000D01*
X143065238Y-108653810D01*
X143089048Y-108701429D01*
X143112857Y-108796667D01*
X143112857Y-108915714D01*
X143089048Y-109010952D01*
X143065238Y-109058571D01*
X143041429Y-109082381D01*
X142993810Y-109106190D01*
X142946191Y-109106190D01*
X142898572Y-109082381D01*
X142874762Y-109058571D01*
X142850953Y-109010952D01*
X142827143Y-108915714D01*
X142827143Y-108796667D01*
X142850953Y-108701429D01*
X142874762Y-108653810D01*
X142898572Y-108630000D01*
X142946191Y-108606190D01*
X143327143Y-108844286D02*
X143493809Y-108844286D01*
X143565238Y-109106190D02*
X143327143Y-109106190D01*
X143327143Y-108606190D01*
X143565238Y-108606190D01*
D11*
X132470000Y-92070000D02*
X132936667Y-92070000D01*
X132203333Y-92236667D02*
X132703333Y-92403334D01*
X132703333Y-91970000D01*
X132236667Y-91770000D02*
X132236667Y-91303333D01*
X132936667Y-91603333D01*
X132236667Y-90903333D02*
X132236667Y-90836666D01*
X132270000Y-90770000D01*
X132303333Y-90736666D01*
X132370000Y-90703333D01*
X132503333Y-90670000D01*
X132670000Y-90670000D01*
X132803333Y-90703333D01*
X132870000Y-90736666D01*
X132903333Y-90770000D01*
X132936667Y-90836666D01*
X132936667Y-90903333D01*
X132903333Y-90970000D01*
X132870000Y-91003333D01*
X132803333Y-91036666D01*
X132670000Y-91070000D01*
X132503333Y-91070000D01*
X132370000Y-91036666D01*
X132303333Y-91003333D01*
X132270000Y-90970000D01*
X132236667Y-90903333D01*
X132570000Y-90369999D02*
X132570000Y-90136666D01*
X132936667Y-90036666D02*
X132936667Y-90369999D01*
X132236667Y-90369999D01*
X132236667Y-90036666D01*
X112966667Y-97093335D02*
X112966667Y-96760001D01*
X113166667Y-97160001D02*
X112466667Y-96926668D01*
X113166667Y-96693335D01*
X113166667Y-96460001D02*
X112466667Y-96460001D01*
X112966667Y-96226668D01*
X112466667Y-95993335D01*
X113166667Y-95993335D01*
X113133333Y-95693335D02*
X113166667Y-95593335D01*
X113166667Y-95426668D01*
X113133333Y-95360001D01*
X113100000Y-95326668D01*
X113033333Y-95293335D01*
X112966667Y-95293335D01*
X112900000Y-95326668D01*
X112866667Y-95360001D01*
X112833333Y-95426668D01*
X112800000Y-95560001D01*
X112766667Y-95626668D01*
X112733333Y-95660001D01*
X112666667Y-95693335D01*
X112600000Y-95693335D01*
X112533333Y-95660001D01*
X112500000Y-95626668D01*
X112466667Y-95560001D01*
X112466667Y-95393335D01*
X112500000Y-95293335D01*
X113166667Y-94626668D02*
X113166667Y-95026668D01*
X113166667Y-94826668D02*
X112466667Y-94826668D01*
X112566667Y-94893334D01*
X112633333Y-94960001D01*
X112666667Y-95026668D01*
X113166667Y-93960001D02*
X113166667Y-94360001D01*
X113166667Y-94160001D02*
X112466667Y-94160001D01*
X112566667Y-94226667D01*
X112633333Y-94293334D01*
X112666667Y-94360001D01*
X113166667Y-93293334D02*
X113166667Y-93693334D01*
X113166667Y-93493334D02*
X112466667Y-93493334D01*
X112566667Y-93560000D01*
X112633333Y-93626667D01*
X112666667Y-93693334D01*
X112466667Y-93060000D02*
X112466667Y-92593333D01*
X113166667Y-92893333D01*
X112900000Y-92326666D02*
X112900000Y-91793333D01*
X112466667Y-91526666D02*
X112466667Y-91093333D01*
X112733333Y-91326666D01*
X112733333Y-91226666D01*
X112766667Y-91159999D01*
X112800000Y-91126666D01*
X112866667Y-91093333D01*
X113033333Y-91093333D01*
X113100000Y-91126666D01*
X113133333Y-91159999D01*
X113166667Y-91226666D01*
X113166667Y-91426666D01*
X113133333Y-91493333D01*
X113100000Y-91526666D01*
X112466667Y-90893332D02*
X113166667Y-90659999D01*
X112466667Y-90426666D01*
X112466667Y-90259999D02*
X112466667Y-89826666D01*
X112733333Y-90059999D01*
X112733333Y-89959999D01*
X112766667Y-89893332D01*
X112800000Y-89859999D01*
X112866667Y-89826666D01*
X113033333Y-89826666D01*
X113100000Y-89859999D01*
X113133333Y-89893332D01*
X113166667Y-89959999D01*
X113166667Y-90159999D01*
X113133333Y-90226666D01*
X113100000Y-90259999D01*
D12*
X141042381Y-102206190D02*
X140756667Y-102206190D01*
X140899524Y-102206190D02*
X140899524Y-101706190D01*
X140851905Y-101777619D01*
X140804286Y-101825238D01*
X140756667Y-101849048D01*
X141256667Y-101872857D02*
X141256667Y-102206190D01*
X141256667Y-101920476D02*
X141280476Y-101896667D01*
X141328095Y-101872857D01*
X141399524Y-101872857D01*
X141447143Y-101896667D01*
X141470952Y-101944286D01*
X141470952Y-102206190D01*
X141875714Y-101944286D02*
X141709048Y-101944286D01*
X141709048Y-102206190D02*
X141709048Y-101706190D01*
X141947143Y-101706190D01*
D13*
X138393810Y-97246190D02*
X138227143Y-97008095D01*
X138108096Y-97246190D02*
X138108096Y-96746190D01*
X138298572Y-96746190D01*
X138346191Y-96770000D01*
X138370000Y-96793810D01*
X138393810Y-96841429D01*
X138393810Y-96912857D01*
X138370000Y-96960476D01*
X138346191Y-96984286D01*
X138298572Y-97008095D01*
X138108096Y-97008095D01*
X138608096Y-96984286D02*
X138774762Y-96984286D01*
X138846191Y-97246190D02*
X138608096Y-97246190D01*
X138608096Y-96746190D01*
X138846191Y-96746190D01*
X139036667Y-97222381D02*
X139108096Y-97246190D01*
X139227143Y-97246190D01*
X139274762Y-97222381D01*
X139298572Y-97198571D01*
X139322381Y-97150952D01*
X139322381Y-97103333D01*
X139298572Y-97055714D01*
X139274762Y-97031905D01*
X139227143Y-97008095D01*
X139131905Y-96984286D01*
X139084286Y-96960476D01*
X139060477Y-96936667D01*
X139036667Y-96889048D01*
X139036667Y-96841429D01*
X139060477Y-96793810D01*
X139084286Y-96770000D01*
X139131905Y-96746190D01*
X139250953Y-96746190D01*
X139322381Y-96770000D01*
X139536667Y-96984286D02*
X139703333Y-96984286D01*
X139774762Y-97246190D02*
X139536667Y-97246190D01*
X139536667Y-96746190D01*
X139774762Y-96746190D01*
X139917619Y-96746190D02*
X140203333Y-96746190D01*
X140060476Y-97246190D02*
X140060476Y-96746190D01*
X135491428Y-107224286D02*
X135562857Y-107248095D01*
X135586666Y-107271905D01*
X135610476Y-107319524D01*
X135610476Y-107390952D01*
X135586666Y-107438571D01*
X135562857Y-107462381D01*
X135515238Y-107486190D01*
X135324762Y-107486190D01*
X135324762Y-106986190D01*
X135491428Y-106986190D01*
X135539047Y-107010000D01*
X135562857Y-107033810D01*
X135586666Y-107081429D01*
X135586666Y-107129048D01*
X135562857Y-107176667D01*
X135539047Y-107200476D01*
X135491428Y-107224286D01*
X135324762Y-107224286D01*
X135920000Y-106986190D02*
X136015238Y-106986190D01*
X136062857Y-107010000D01*
X136110476Y-107057619D01*
X136134285Y-107152857D01*
X136134285Y-107319524D01*
X136110476Y-107414762D01*
X136062857Y-107462381D01*
X136015238Y-107486190D01*
X135920000Y-107486190D01*
X135872381Y-107462381D01*
X135824762Y-107414762D01*
X135800952Y-107319524D01*
X135800952Y-107152857D01*
X135824762Y-107057619D01*
X135872381Y-107010000D01*
X135920000Y-106986190D01*
X136443810Y-106986190D02*
X136539048Y-106986190D01*
X136586667Y-107010000D01*
X136634286Y-107057619D01*
X136658095Y-107152857D01*
X136658095Y-107319524D01*
X136634286Y-107414762D01*
X136586667Y-107462381D01*
X136539048Y-107486190D01*
X136443810Y-107486190D01*
X136396191Y-107462381D01*
X136348572Y-107414762D01*
X136324762Y-107319524D01*
X136324762Y-107152857D01*
X136348572Y-107057619D01*
X136396191Y-107010000D01*
X136443810Y-106986190D01*
X136800953Y-106986190D02*
X137086667Y-106986190D01*
X136943810Y-107486190D02*
X136943810Y-106986190D01*
D11*
X172068571Y-110877144D02*
X172068571Y-110543810D01*
X172592381Y-110400953D02*
X172592381Y-110877144D01*
X171592381Y-110877144D01*
X171592381Y-110400953D01*
X172544762Y-110020001D02*
X172592381Y-109877144D01*
X172592381Y-109639048D01*
X172544762Y-109543810D01*
X172497143Y-109496191D01*
X172401905Y-109448572D01*
X172306667Y-109448572D01*
X172211429Y-109496191D01*
X172163810Y-109543810D01*
X172116190Y-109639048D01*
X172068571Y-109829525D01*
X172020952Y-109924763D01*
X171973333Y-109972382D01*
X171878095Y-110020001D01*
X171782857Y-110020001D01*
X171687619Y-109972382D01*
X171640000Y-109924763D01*
X171592381Y-109829525D01*
X171592381Y-109591429D01*
X171640000Y-109448572D01*
X172592381Y-109020001D02*
X171592381Y-109020001D01*
X171592381Y-108639048D01*
X171640000Y-108543810D01*
X171687619Y-108496191D01*
X171782857Y-108448572D01*
X171925714Y-108448572D01*
X172020952Y-108496191D01*
X172068571Y-108543810D01*
X172116190Y-108639048D01*
X172116190Y-109020001D01*
X172211429Y-108020001D02*
X172211429Y-107258096D01*
X171592381Y-106877144D02*
X171592381Y-106258096D01*
X171973333Y-106591430D01*
X171973333Y-106448572D01*
X172020952Y-106353334D01*
X172068571Y-106305715D01*
X172163810Y-106258096D01*
X172401905Y-106258096D01*
X172497143Y-106305715D01*
X172544762Y-106353334D01*
X172592381Y-106448572D01*
X172592381Y-106734287D01*
X172544762Y-106829525D01*
X172497143Y-106877144D01*
X171687619Y-105877144D02*
X171640000Y-105829525D01*
X171592381Y-105734287D01*
X171592381Y-105496191D01*
X171640000Y-105400953D01*
X171687619Y-105353334D01*
X171782857Y-105305715D01*
X171878095Y-105305715D01*
X172020952Y-105353334D01*
X172592381Y-105924763D01*
X172592381Y-105305715D01*
X172687619Y-105115239D02*
X172687619Y-104353334D01*
X171592381Y-104210477D02*
X172592381Y-103972382D01*
X171878095Y-103781905D01*
X172592381Y-103591429D01*
X171592381Y-103353334D01*
X172592381Y-102400953D02*
X172116190Y-102734287D01*
X172592381Y-102972382D02*
X171592381Y-102972382D01*
X171592381Y-102591429D01*
X171640000Y-102496191D01*
X171687619Y-102448572D01*
X171782857Y-102400953D01*
X171925714Y-102400953D01*
X172020952Y-102448572D01*
X172068571Y-102496191D01*
X172116190Y-102591429D01*
X172116190Y-102972382D01*
X171592381Y-101781906D02*
X171592381Y-101591429D01*
X171640000Y-101496191D01*
X171735238Y-101400953D01*
X171925714Y-101353334D01*
X172259048Y-101353334D01*
X172449524Y-101400953D01*
X172544762Y-101496191D01*
X172592381Y-101591429D01*
X172592381Y-101781906D01*
X172544762Y-101877144D01*
X172449524Y-101972382D01*
X172259048Y-102020001D01*
X171925714Y-102020001D01*
X171735238Y-101972382D01*
X171640000Y-101877144D01*
X171592381Y-101781906D01*
X171592381Y-100734287D02*
X171592381Y-100543810D01*
X171640000Y-100448572D01*
X171735238Y-100353334D01*
X171925714Y-100305715D01*
X172259048Y-100305715D01*
X172449524Y-100353334D01*
X172544762Y-100448572D01*
X172592381Y-100543810D01*
X172592381Y-100734287D01*
X172544762Y-100829525D01*
X172449524Y-100924763D01*
X172259048Y-100972382D01*
X171925714Y-100972382D01*
X171735238Y-100924763D01*
X171640000Y-100829525D01*
X171592381Y-100734287D01*
X172592381Y-99877144D02*
X171592381Y-99877144D01*
X172306667Y-99543810D01*
X171592381Y-99210477D01*
X172592381Y-99210477D01*
X171592381Y-98829525D02*
X171592381Y-98210477D01*
X171973333Y-98543811D01*
X171973333Y-98400953D01*
X172020952Y-98305715D01*
X172068571Y-98258096D01*
X172163810Y-98210477D01*
X172401905Y-98210477D01*
X172497143Y-98258096D01*
X172544762Y-98305715D01*
X172592381Y-98400953D01*
X172592381Y-98686668D01*
X172544762Y-98781906D01*
X172497143Y-98829525D01*
X171687619Y-97829525D02*
X171640000Y-97781906D01*
X171592381Y-97686668D01*
X171592381Y-97448572D01*
X171640000Y-97353334D01*
X171687619Y-97305715D01*
X171782857Y-97258096D01*
X171878095Y-97258096D01*
X172020952Y-97305715D01*
X172592381Y-97877144D01*
X172592381Y-97258096D01*
X172687619Y-97067620D02*
X172687619Y-96305715D01*
X172592381Y-95496191D02*
X172116190Y-95829525D01*
X172592381Y-96067620D02*
X171592381Y-96067620D01*
X171592381Y-95686667D01*
X171640000Y-95591429D01*
X171687619Y-95543810D01*
X171782857Y-95496191D01*
X171925714Y-95496191D01*
X172020952Y-95543810D01*
X172068571Y-95591429D01*
X172116190Y-95686667D01*
X172116190Y-96067620D01*
X172544762Y-94686667D02*
X172592381Y-94781905D01*
X172592381Y-94972382D01*
X172544762Y-95067620D01*
X172449524Y-95115239D01*
X172068571Y-95115239D01*
X171973333Y-95067620D01*
X171925714Y-94972382D01*
X171925714Y-94781905D01*
X171973333Y-94686667D01*
X172068571Y-94639048D01*
X172163810Y-94639048D01*
X172259048Y-95115239D01*
X172544762Y-93781905D02*
X172592381Y-93877143D01*
X172592381Y-94067620D01*
X172544762Y-94162858D01*
X172497143Y-94210477D01*
X172401905Y-94258096D01*
X172116190Y-94258096D01*
X172020952Y-94210477D01*
X171973333Y-94162858D01*
X171925714Y-94067620D01*
X171925714Y-93877143D01*
X171973333Y-93781905D01*
X171925714Y-93496191D02*
X171925714Y-93115239D01*
X171592381Y-93353334D02*
X172449524Y-93353334D01*
X172544762Y-93305715D01*
X172592381Y-93210477D01*
X172592381Y-93115239D01*
X172592381Y-92353333D02*
X172068571Y-92353333D01*
X171973333Y-92400952D01*
X171925714Y-92496190D01*
X171925714Y-92686667D01*
X171973333Y-92781905D01*
X172544762Y-92353333D02*
X172592381Y-92448571D01*
X172592381Y-92686667D01*
X172544762Y-92781905D01*
X172449524Y-92829524D01*
X172354286Y-92829524D01*
X172259048Y-92781905D01*
X172211429Y-92686667D01*
X172211429Y-92448571D01*
X172163810Y-92353333D01*
X171925714Y-91877143D02*
X172592381Y-91877143D01*
X172020952Y-91877143D02*
X171973333Y-91829524D01*
X171925714Y-91734286D01*
X171925714Y-91591428D01*
X171973333Y-91496190D01*
X172068571Y-91448571D01*
X172592381Y-91448571D01*
X171925714Y-90543809D02*
X172735238Y-90543809D01*
X172830476Y-90591428D01*
X172878095Y-90639047D01*
X172925714Y-90734286D01*
X172925714Y-90877143D01*
X172878095Y-90972381D01*
X172544762Y-90543809D02*
X172592381Y-90639047D01*
X172592381Y-90829524D01*
X172544762Y-90924762D01*
X172497143Y-90972381D01*
X172401905Y-91020000D01*
X172116190Y-91020000D01*
X172020952Y-90972381D01*
X171973333Y-90924762D01*
X171925714Y-90829524D01*
X171925714Y-90639047D01*
X171973333Y-90543809D01*
X172592381Y-89924762D02*
X172544762Y-90020000D01*
X172449524Y-90067619D01*
X171592381Y-90067619D01*
X172544762Y-89162856D02*
X172592381Y-89258094D01*
X172592381Y-89448571D01*
X172544762Y-89543809D01*
X172449524Y-89591428D01*
X172068571Y-89591428D01*
X171973333Y-89543809D01*
X171925714Y-89448571D01*
X171925714Y-89258094D01*
X171973333Y-89162856D01*
X172068571Y-89115237D01*
X172163810Y-89115237D01*
X172259048Y-89591428D01*
X58113809Y-85598571D02*
X57780475Y-85598571D01*
X57780475Y-86122381D02*
X57780475Y-85122381D01*
X58256666Y-85122381D01*
X59066190Y-86122381D02*
X59066190Y-85598571D01*
X59018571Y-85503333D01*
X58923333Y-85455714D01*
X58732856Y-85455714D01*
X58637618Y-85503333D01*
X59066190Y-86074762D02*
X58970952Y-86122381D01*
X58732856Y-86122381D01*
X58637618Y-86074762D01*
X58589999Y-85979524D01*
X58589999Y-85884286D01*
X58637618Y-85789048D01*
X58732856Y-85741429D01*
X58970952Y-85741429D01*
X59066190Y-85693810D01*
X59542380Y-86122381D02*
X59542380Y-85122381D01*
X59542380Y-85503333D02*
X59637618Y-85455714D01*
X59828095Y-85455714D01*
X59923333Y-85503333D01*
X59970952Y-85550952D01*
X60018571Y-85646190D01*
X60018571Y-85931905D01*
X59970952Y-86027143D01*
X59923333Y-86074762D01*
X59828095Y-86122381D01*
X59637618Y-86122381D01*
X59542380Y-86074762D01*
X61209047Y-86122381D02*
X61209047Y-85122381D01*
X61447142Y-85122381D01*
X61590000Y-85170000D01*
X61685238Y-85265238D01*
X61732857Y-85360476D01*
X61780476Y-85550952D01*
X61780476Y-85693810D01*
X61732857Y-85884286D01*
X61685238Y-85979524D01*
X61590000Y-86074762D01*
X61447142Y-86122381D01*
X61209047Y-86122381D01*
X62590000Y-86074762D02*
X62494762Y-86122381D01*
X62304285Y-86122381D01*
X62209047Y-86074762D01*
X62161428Y-85979524D01*
X62161428Y-85598571D01*
X62209047Y-85503333D01*
X62304285Y-85455714D01*
X62494762Y-85455714D01*
X62590000Y-85503333D01*
X62637619Y-85598571D01*
X62637619Y-85693810D01*
X62161428Y-85789048D01*
X62923333Y-85455714D02*
X63304285Y-85455714D01*
X63066190Y-85122381D02*
X63066190Y-85979524D01*
X63113809Y-86074762D01*
X63209047Y-86122381D01*
X63304285Y-86122381D01*
X64066191Y-86122381D02*
X64066191Y-85598571D01*
X64018572Y-85503333D01*
X63923334Y-85455714D01*
X63732857Y-85455714D01*
X63637619Y-85503333D01*
X64066191Y-86074762D02*
X63970953Y-86122381D01*
X63732857Y-86122381D01*
X63637619Y-86074762D01*
X63590000Y-85979524D01*
X63590000Y-85884286D01*
X63637619Y-85789048D01*
X63732857Y-85741429D01*
X63970953Y-85741429D01*
X64066191Y-85693810D01*
X64542381Y-86122381D02*
X64542381Y-85455714D01*
X64542381Y-85122381D02*
X64494762Y-85170000D01*
X64542381Y-85217619D01*
X64590000Y-85170000D01*
X64542381Y-85122381D01*
X64542381Y-85217619D01*
X65161428Y-86122381D02*
X65066190Y-86074762D01*
X65018571Y-85979524D01*
X65018571Y-85122381D01*
X65494762Y-86074762D02*
X65590000Y-86122381D01*
X65780476Y-86122381D01*
X65875715Y-86074762D01*
X65923334Y-85979524D01*
X65923334Y-85931905D01*
X65875715Y-85836667D01*
X65780476Y-85789048D01*
X65637619Y-85789048D01*
X65542381Y-85741429D01*
X65494762Y-85646190D01*
X65494762Y-85598571D01*
X65542381Y-85503333D01*
X65637619Y-85455714D01*
X65780476Y-85455714D01*
X65875715Y-85503333D01*
X66970953Y-85455714D02*
X67351905Y-85455714D01*
X67113810Y-85122381D02*
X67113810Y-85979524D01*
X67161429Y-86074762D01*
X67256667Y-86122381D01*
X67351905Y-86122381D01*
X68113811Y-86122381D02*
X68113811Y-85598571D01*
X68066192Y-85503333D01*
X67970954Y-85455714D01*
X67780477Y-85455714D01*
X67685239Y-85503333D01*
X68113811Y-86074762D02*
X68018573Y-86122381D01*
X67780477Y-86122381D01*
X67685239Y-86074762D01*
X67637620Y-85979524D01*
X67637620Y-85884286D01*
X67685239Y-85789048D01*
X67780477Y-85741429D01*
X68018573Y-85741429D01*
X68113811Y-85693810D01*
X68590001Y-86122381D02*
X68590001Y-85122381D01*
X68590001Y-85503333D02*
X68685239Y-85455714D01*
X68875716Y-85455714D01*
X68970954Y-85503333D01*
X69018573Y-85550952D01*
X69066192Y-85646190D01*
X69066192Y-85931905D01*
X69018573Y-86027143D01*
X68970954Y-86074762D01*
X68875716Y-86122381D01*
X68685239Y-86122381D01*
X68590001Y-86074762D01*
X69637620Y-86122381D02*
X69542382Y-86074762D01*
X69494763Y-85979524D01*
X69494763Y-85122381D01*
X70399526Y-86074762D02*
X70304288Y-86122381D01*
X70113811Y-86122381D01*
X70018573Y-86074762D01*
X69970954Y-85979524D01*
X69970954Y-85598571D01*
X70018573Y-85503333D01*
X70113811Y-85455714D01*
X70304288Y-85455714D01*
X70399526Y-85503333D01*
X70447145Y-85598571D01*
X70447145Y-85693810D01*
X69970954Y-85789048D01*
M02*
