G04 #@! TF.FileFunction,Other,Fab,Bot*
%FSLAX46Y46*%
G04 Gerber Fmt 4.6, Leading zero omitted, Abs format (unit mm)*
G04 Created by KiCad (PCBNEW 4.0.4-stable) date 02/22/17 16:36:32*
%MOMM*%
%LPD*%
G01*
G04 APERTURE LIST*
%ADD10C,0.100000*%
%ADD11C,0.125000*%
%ADD12C,0.150000*%
G04 APERTURE END LIST*
D10*
X117390000Y-92315000D02*
X117390000Y-91065000D01*
X115390000Y-92315000D02*
X117390000Y-92315000D01*
X115390000Y-91065000D02*
X115390000Y-92315000D01*
X117390000Y-91065000D02*
X115390000Y-91065000D01*
X119100000Y-106235000D02*
X119100000Y-107485000D01*
X121100000Y-106235000D02*
X119100000Y-106235000D01*
X121100000Y-107485000D02*
X121100000Y-106235000D01*
X119100000Y-107485000D02*
X121100000Y-107485000D01*
X114100000Y-99545000D02*
X114100000Y-100795000D01*
X116100000Y-99545000D02*
X114100000Y-99545000D01*
X116100000Y-100795000D02*
X116100000Y-99545000D01*
X114100000Y-100795000D02*
X116100000Y-100795000D01*
X114120000Y-101485000D02*
X114120000Y-102735000D01*
X116120000Y-101485000D02*
X114120000Y-101485000D01*
X116120000Y-102735000D02*
X116120000Y-101485000D01*
X114120000Y-102735000D02*
X116120000Y-102735000D01*
X158560000Y-95795000D02*
X158560000Y-94545000D01*
X156560000Y-95795000D02*
X158560000Y-95795000D01*
X156560000Y-94545000D02*
X156560000Y-95795000D01*
X158560000Y-94545000D02*
X156560000Y-94545000D01*
X127045000Y-101620000D02*
X128295000Y-101620000D01*
X127045000Y-99620000D02*
X127045000Y-101620000D01*
X128295000Y-99620000D02*
X127045000Y-99620000D01*
X128295000Y-101620000D02*
X128295000Y-99620000D01*
X128295000Y-94880000D02*
X127045000Y-94880000D01*
X128295000Y-96880000D02*
X128295000Y-94880000D01*
X127045000Y-96880000D02*
X128295000Y-96880000D01*
X127045000Y-94880000D02*
X127045000Y-96880000D01*
X161120000Y-94555000D02*
X161120000Y-95805000D01*
X163120000Y-94555000D02*
X161120000Y-94555000D01*
X163120000Y-95805000D02*
X163120000Y-94555000D01*
X161120000Y-95805000D02*
X163120000Y-95805000D01*
X164760000Y-89840000D02*
X113960000Y-89840000D01*
X113960000Y-89840000D02*
X113960000Y-87300000D01*
X113960000Y-87300000D02*
X164760000Y-87300000D01*
X164760000Y-87300000D02*
X164760000Y-89840000D01*
X164760000Y-112700000D02*
X113960000Y-112700000D01*
X113960000Y-112700000D02*
X113960000Y-110160000D01*
X113960000Y-110160000D02*
X164760000Y-110160000D01*
X164760000Y-110160000D02*
X164760000Y-112700000D01*
X161950000Y-93955000D02*
X161950000Y-92705000D01*
X159950000Y-93955000D02*
X161950000Y-93955000D01*
X159950000Y-92705000D02*
X159950000Y-93955000D01*
X161950000Y-92705000D02*
X159950000Y-92705000D01*
X148580000Y-105095000D02*
X148580000Y-106345000D01*
X150580000Y-105095000D02*
X148580000Y-105095000D01*
X150580000Y-106345000D02*
X150580000Y-105095000D01*
X148580000Y-106345000D02*
X150580000Y-106345000D01*
X153780000Y-96095000D02*
X153780000Y-94845000D01*
X151780000Y-96095000D02*
X153780000Y-96095000D01*
X151780000Y-94845000D02*
X151780000Y-96095000D01*
X153780000Y-94845000D02*
X151780000Y-94845000D01*
X150650000Y-94305000D02*
X150650000Y-93055000D01*
X148650000Y-94305000D02*
X150650000Y-94305000D01*
X148650000Y-93055000D02*
X148650000Y-94305000D01*
X150650000Y-93055000D02*
X148650000Y-93055000D01*
X161720000Y-97750000D02*
X160120000Y-97750000D01*
X161720000Y-100950000D02*
X161720000Y-97750000D01*
X160120000Y-100950000D02*
X161720000Y-100950000D01*
X160120000Y-97750000D02*
X160120000Y-100950000D01*
X132430000Y-101240000D02*
X132430000Y-95440000D01*
X132430000Y-95440000D02*
X132330000Y-95340000D01*
X132330000Y-95340000D02*
X129030000Y-95340000D01*
X129030000Y-95340000D02*
X128930000Y-95440000D01*
X128930000Y-95440000D02*
X128930000Y-101240000D01*
X128930000Y-101240000D02*
X129030000Y-101340000D01*
X129030000Y-101340000D02*
X132330000Y-101340000D01*
X132330000Y-101340000D02*
X132430000Y-101240000D01*
X129930000Y-101340000D02*
X128930000Y-100340000D01*
D11*
X118715714Y-93146190D02*
X119001428Y-93146190D01*
X118858571Y-93146190D02*
X118858571Y-92646190D01*
X118906190Y-92717619D01*
X118953809Y-92765238D01*
X119001428Y-92789048D01*
X118406190Y-92646190D02*
X118358571Y-92646190D01*
X118310952Y-92670000D01*
X118287143Y-92693810D01*
X118263333Y-92741429D01*
X118239524Y-92836667D01*
X118239524Y-92955714D01*
X118263333Y-93050952D01*
X118287143Y-93098571D01*
X118310952Y-93122381D01*
X118358571Y-93146190D01*
X118406190Y-93146190D01*
X118453809Y-93122381D01*
X118477619Y-93098571D01*
X118501428Y-93050952D01*
X118525238Y-92955714D01*
X118525238Y-92836667D01*
X118501428Y-92741429D01*
X118477619Y-92693810D01*
X118453809Y-92670000D01*
X118406190Y-92646190D01*
X117810953Y-92812857D02*
X117810953Y-93146190D01*
X118025238Y-92812857D02*
X118025238Y-93074762D01*
X118001429Y-93122381D01*
X117953810Y-93146190D01*
X117882381Y-93146190D01*
X117834762Y-93122381D01*
X117810953Y-93098571D01*
X117406191Y-92884286D02*
X117572857Y-92884286D01*
X117572857Y-93146190D02*
X117572857Y-92646190D01*
X117334762Y-92646190D01*
X119841427Y-105246190D02*
X119793808Y-105246190D01*
X119746189Y-105270000D01*
X119722380Y-105293810D01*
X119698570Y-105341429D01*
X119674761Y-105436667D01*
X119674761Y-105555714D01*
X119698570Y-105650952D01*
X119722380Y-105698571D01*
X119746189Y-105722381D01*
X119793808Y-105746190D01*
X119841427Y-105746190D01*
X119889046Y-105722381D01*
X119912856Y-105698571D01*
X119936665Y-105650952D01*
X119960475Y-105555714D01*
X119960475Y-105436667D01*
X119936665Y-105341429D01*
X119912856Y-105293810D01*
X119889046Y-105270000D01*
X119841427Y-105246190D01*
X119460475Y-105698571D02*
X119436666Y-105722381D01*
X119460475Y-105746190D01*
X119484285Y-105722381D01*
X119460475Y-105698571D01*
X119460475Y-105746190D01*
X118960476Y-105746190D02*
X119246190Y-105746190D01*
X119103333Y-105746190D02*
X119103333Y-105246190D01*
X119150952Y-105317619D01*
X119198571Y-105365238D01*
X119246190Y-105389048D01*
X118531905Y-105412857D02*
X118531905Y-105746190D01*
X118746190Y-105412857D02*
X118746190Y-105674762D01*
X118722381Y-105722381D01*
X118674762Y-105746190D01*
X118603333Y-105746190D01*
X118555714Y-105722381D01*
X118531905Y-105698571D01*
X118127143Y-105484286D02*
X118293809Y-105484286D01*
X118293809Y-105746190D02*
X118293809Y-105246190D01*
X118055714Y-105246190D01*
X113803333Y-98792857D02*
X113803333Y-99126190D01*
X113922380Y-98602381D02*
X114041428Y-98959524D01*
X113731904Y-98959524D01*
X113589047Y-98626190D02*
X113255714Y-98626190D01*
X113470000Y-99126190D01*
X113065238Y-98792857D02*
X113065238Y-99292857D01*
X113065238Y-98816667D02*
X113017619Y-98792857D01*
X112922381Y-98792857D01*
X112874762Y-98816667D01*
X112850953Y-98840476D01*
X112827143Y-98888095D01*
X112827143Y-99030952D01*
X112850953Y-99078571D01*
X112874762Y-99102381D01*
X112922381Y-99126190D01*
X113017619Y-99126190D01*
X113065238Y-99102381D01*
X112446191Y-98864286D02*
X112612857Y-98864286D01*
X112612857Y-99126190D02*
X112612857Y-98626190D01*
X112374762Y-98626190D01*
X113623333Y-103362857D02*
X113623333Y-103696190D01*
X113742380Y-103172381D02*
X113861428Y-103529524D01*
X113551904Y-103529524D01*
X113409047Y-103196190D02*
X113075714Y-103196190D01*
X113290000Y-103696190D01*
X112885238Y-103362857D02*
X112885238Y-103862857D01*
X112885238Y-103386667D02*
X112837619Y-103362857D01*
X112742381Y-103362857D01*
X112694762Y-103386667D01*
X112670953Y-103410476D01*
X112647143Y-103458095D01*
X112647143Y-103600952D01*
X112670953Y-103648571D01*
X112694762Y-103672381D01*
X112742381Y-103696190D01*
X112837619Y-103696190D01*
X112885238Y-103672381D01*
X112266191Y-103434286D02*
X112432857Y-103434286D01*
X112432857Y-103696190D02*
X112432857Y-103196190D01*
X112194762Y-103196190D01*
D12*
X157936667Y-96946667D02*
X158336667Y-96946667D01*
X158136667Y-96946667D02*
X158136667Y-96246667D01*
X158203333Y-96346667D01*
X158270000Y-96413333D01*
X158336667Y-96446667D01*
X157636666Y-96480000D02*
X157636666Y-96946667D01*
X157636666Y-96546667D02*
X157603333Y-96513333D01*
X157536666Y-96480000D01*
X157436666Y-96480000D01*
X157370000Y-96513333D01*
X157336666Y-96580000D01*
X157336666Y-96946667D01*
X156770000Y-96580000D02*
X157003333Y-96580000D01*
X157003333Y-96946667D02*
X157003333Y-96246667D01*
X156670000Y-96246667D01*
D11*
X126323810Y-101968572D02*
X126300000Y-101992382D01*
X126276190Y-102040001D01*
X126276190Y-102159048D01*
X126300000Y-102206667D01*
X126323810Y-102230477D01*
X126371429Y-102254286D01*
X126419048Y-102254286D01*
X126490476Y-102230477D01*
X126776190Y-101944763D01*
X126776190Y-102254286D01*
X126276190Y-102420953D02*
X126276190Y-102754286D01*
X126776190Y-102540000D01*
X126442857Y-102944762D02*
X126942857Y-102944762D01*
X126466667Y-102944762D02*
X126442857Y-102992381D01*
X126442857Y-103087619D01*
X126466667Y-103135238D01*
X126490476Y-103159047D01*
X126538095Y-103182857D01*
X126680952Y-103182857D01*
X126728571Y-103159047D01*
X126752381Y-103135238D01*
X126776190Y-103087619D01*
X126776190Y-102992381D01*
X126752381Y-102944762D01*
X126514286Y-103563809D02*
X126514286Y-103397143D01*
X126776190Y-103397143D02*
X126276190Y-103397143D01*
X126276190Y-103635238D01*
X126263810Y-92818572D02*
X126240000Y-92842382D01*
X126216190Y-92890001D01*
X126216190Y-93009048D01*
X126240000Y-93056667D01*
X126263810Y-93080477D01*
X126311429Y-93104286D01*
X126359048Y-93104286D01*
X126430476Y-93080477D01*
X126716190Y-92794763D01*
X126716190Y-93104286D01*
X126216190Y-93270953D02*
X126216190Y-93604286D01*
X126716190Y-93390000D01*
X126382857Y-93794762D02*
X126882857Y-93794762D01*
X126406667Y-93794762D02*
X126382857Y-93842381D01*
X126382857Y-93937619D01*
X126406667Y-93985238D01*
X126430476Y-94009047D01*
X126478095Y-94032857D01*
X126620952Y-94032857D01*
X126668571Y-94009047D01*
X126692381Y-93985238D01*
X126716190Y-93937619D01*
X126716190Y-93842381D01*
X126692381Y-93794762D01*
X126454286Y-94413809D02*
X126454286Y-94247143D01*
X126716190Y-94247143D02*
X126216190Y-94247143D01*
X126216190Y-94485238D01*
X166107619Y-95336190D02*
X166393333Y-95336190D01*
X166250476Y-95336190D02*
X166250476Y-94836190D01*
X166298095Y-94907619D01*
X166345714Y-94955238D01*
X166393333Y-94979048D01*
X165679048Y-95002857D02*
X165679048Y-95336190D01*
X165893333Y-95002857D02*
X165893333Y-95264762D01*
X165869524Y-95312381D01*
X165821905Y-95336190D01*
X165750476Y-95336190D01*
X165702857Y-95312381D01*
X165679048Y-95288571D01*
X165274286Y-95074286D02*
X165440952Y-95074286D01*
X165440952Y-95336190D02*
X165440952Y-94836190D01*
X165202857Y-94836190D01*
D12*
X166252381Y-87901905D02*
X165252381Y-87901905D01*
X165252381Y-88282858D01*
X165300000Y-88378096D01*
X165347619Y-88425715D01*
X165442857Y-88473334D01*
X165585714Y-88473334D01*
X165680952Y-88425715D01*
X165728571Y-88378096D01*
X165776190Y-88282858D01*
X165776190Y-87901905D01*
X165585714Y-89330477D02*
X166252381Y-89330477D01*
X165204762Y-89092381D02*
X165919048Y-88854286D01*
X165919048Y-89473334D01*
X143393809Y-86557143D02*
X143441428Y-86604762D01*
X143584285Y-86652381D01*
X143679523Y-86652381D01*
X143822381Y-86604762D01*
X143917619Y-86509524D01*
X143965238Y-86414286D01*
X144012857Y-86223810D01*
X144012857Y-86080952D01*
X143965238Y-85890476D01*
X143917619Y-85795238D01*
X143822381Y-85700000D01*
X143679523Y-85652381D01*
X143584285Y-85652381D01*
X143441428Y-85700000D01*
X143393809Y-85747619D01*
X142774762Y-85652381D02*
X142584285Y-85652381D01*
X142489047Y-85700000D01*
X142393809Y-85795238D01*
X142346190Y-85985714D01*
X142346190Y-86319048D01*
X142393809Y-86509524D01*
X142489047Y-86604762D01*
X142584285Y-86652381D01*
X142774762Y-86652381D01*
X142870000Y-86604762D01*
X142965238Y-86509524D01*
X143012857Y-86319048D01*
X143012857Y-85985714D01*
X142965238Y-85795238D01*
X142870000Y-85700000D01*
X142774762Y-85652381D01*
X141917619Y-86652381D02*
X141917619Y-85652381D01*
X141346190Y-86652381D01*
X141346190Y-85652381D01*
X140870000Y-86652381D02*
X140870000Y-85652381D01*
X140298571Y-86652381D01*
X140298571Y-85652381D01*
X140060476Y-86747619D02*
X139298571Y-86747619D01*
X138870000Y-85652381D02*
X138774761Y-85652381D01*
X138679523Y-85700000D01*
X138631904Y-85747619D01*
X138584285Y-85842857D01*
X138536666Y-86033333D01*
X138536666Y-86271429D01*
X138584285Y-86461905D01*
X138631904Y-86557143D01*
X138679523Y-86604762D01*
X138774761Y-86652381D01*
X138870000Y-86652381D01*
X138965238Y-86604762D01*
X139012857Y-86557143D01*
X139060476Y-86461905D01*
X139108095Y-86271429D01*
X139108095Y-86033333D01*
X139060476Y-85842857D01*
X139012857Y-85747619D01*
X138965238Y-85700000D01*
X138870000Y-85652381D01*
X137584285Y-86652381D02*
X138155714Y-86652381D01*
X137870000Y-86652381D02*
X137870000Y-85652381D01*
X137965238Y-85795238D01*
X138060476Y-85890476D01*
X138155714Y-85938095D01*
X137250952Y-85652381D02*
X136584285Y-86652381D01*
X136584285Y-85652381D02*
X137250952Y-86652381D01*
X136250952Y-85747619D02*
X136203333Y-85700000D01*
X136108095Y-85652381D01*
X135869999Y-85652381D01*
X135774761Y-85700000D01*
X135727142Y-85747619D01*
X135679523Y-85842857D01*
X135679523Y-85938095D01*
X135727142Y-86080952D01*
X136298571Y-86652381D01*
X135679523Y-86652381D01*
X135060476Y-85652381D02*
X134965237Y-85652381D01*
X134869999Y-85700000D01*
X134822380Y-85747619D01*
X134774761Y-85842857D01*
X134727142Y-86033333D01*
X134727142Y-86271429D01*
X134774761Y-86461905D01*
X134822380Y-86557143D01*
X134869999Y-86604762D01*
X134965237Y-86652381D01*
X135060476Y-86652381D01*
X135155714Y-86604762D01*
X135203333Y-86557143D01*
X135250952Y-86461905D01*
X135298571Y-86271429D01*
X135298571Y-86033333D01*
X135250952Y-85842857D01*
X135203333Y-85747619D01*
X135155714Y-85700000D01*
X135060476Y-85652381D01*
X166352381Y-110621905D02*
X165352381Y-110621905D01*
X165352381Y-111002858D01*
X165400000Y-111098096D01*
X165447619Y-111145715D01*
X165542857Y-111193334D01*
X165685714Y-111193334D01*
X165780952Y-111145715D01*
X165828571Y-111098096D01*
X165876190Y-111002858D01*
X165876190Y-110621905D01*
X165352381Y-112098096D02*
X165352381Y-111621905D01*
X165828571Y-111574286D01*
X165780952Y-111621905D01*
X165733333Y-111717143D01*
X165733333Y-111955239D01*
X165780952Y-112050477D01*
X165828571Y-112098096D01*
X165923810Y-112145715D01*
X166161905Y-112145715D01*
X166257143Y-112098096D01*
X166304762Y-112050477D01*
X166352381Y-111955239D01*
X166352381Y-111717143D01*
X166304762Y-111621905D01*
X166257143Y-111574286D01*
X143423809Y-114047143D02*
X143471428Y-114094762D01*
X143614285Y-114142381D01*
X143709523Y-114142381D01*
X143852381Y-114094762D01*
X143947619Y-113999524D01*
X143995238Y-113904286D01*
X144042857Y-113713810D01*
X144042857Y-113570952D01*
X143995238Y-113380476D01*
X143947619Y-113285238D01*
X143852381Y-113190000D01*
X143709523Y-113142381D01*
X143614285Y-113142381D01*
X143471428Y-113190000D01*
X143423809Y-113237619D01*
X142804762Y-113142381D02*
X142614285Y-113142381D01*
X142519047Y-113190000D01*
X142423809Y-113285238D01*
X142376190Y-113475714D01*
X142376190Y-113809048D01*
X142423809Y-113999524D01*
X142519047Y-114094762D01*
X142614285Y-114142381D01*
X142804762Y-114142381D01*
X142900000Y-114094762D01*
X142995238Y-113999524D01*
X143042857Y-113809048D01*
X143042857Y-113475714D01*
X142995238Y-113285238D01*
X142900000Y-113190000D01*
X142804762Y-113142381D01*
X141947619Y-114142381D02*
X141947619Y-113142381D01*
X141376190Y-114142381D01*
X141376190Y-113142381D01*
X140900000Y-114142381D02*
X140900000Y-113142381D01*
X140328571Y-114142381D01*
X140328571Y-113142381D01*
X140090476Y-114237619D02*
X139328571Y-114237619D01*
X138900000Y-113142381D02*
X138804761Y-113142381D01*
X138709523Y-113190000D01*
X138661904Y-113237619D01*
X138614285Y-113332857D01*
X138566666Y-113523333D01*
X138566666Y-113761429D01*
X138614285Y-113951905D01*
X138661904Y-114047143D01*
X138709523Y-114094762D01*
X138804761Y-114142381D01*
X138900000Y-114142381D01*
X138995238Y-114094762D01*
X139042857Y-114047143D01*
X139090476Y-113951905D01*
X139138095Y-113761429D01*
X139138095Y-113523333D01*
X139090476Y-113332857D01*
X139042857Y-113237619D01*
X138995238Y-113190000D01*
X138900000Y-113142381D01*
X137614285Y-114142381D02*
X138185714Y-114142381D01*
X137900000Y-114142381D02*
X137900000Y-113142381D01*
X137995238Y-113285238D01*
X138090476Y-113380476D01*
X138185714Y-113428095D01*
X137280952Y-113142381D02*
X136614285Y-114142381D01*
X136614285Y-113142381D02*
X137280952Y-114142381D01*
X136280952Y-113237619D02*
X136233333Y-113190000D01*
X136138095Y-113142381D01*
X135899999Y-113142381D01*
X135804761Y-113190000D01*
X135757142Y-113237619D01*
X135709523Y-113332857D01*
X135709523Y-113428095D01*
X135757142Y-113570952D01*
X136328571Y-114142381D01*
X135709523Y-114142381D01*
X135090476Y-113142381D02*
X134995237Y-113142381D01*
X134899999Y-113190000D01*
X134852380Y-113237619D01*
X134804761Y-113332857D01*
X134757142Y-113523333D01*
X134757142Y-113761429D01*
X134804761Y-113951905D01*
X134852380Y-114047143D01*
X134899999Y-114094762D01*
X134995237Y-114142381D01*
X135090476Y-114142381D01*
X135185714Y-114094762D01*
X135233333Y-114047143D01*
X135280952Y-113951905D01*
X135328571Y-113761429D01*
X135328571Y-113523333D01*
X135280952Y-113332857D01*
X135233333Y-113237619D01*
X135185714Y-113190000D01*
X135090476Y-113142381D01*
D11*
X161335238Y-92256190D02*
X161620952Y-92256190D01*
X161478095Y-92256190D02*
X161478095Y-91756190D01*
X161525714Y-91827619D01*
X161573333Y-91875238D01*
X161620952Y-91899048D01*
X161144762Y-91803810D02*
X161120952Y-91780000D01*
X161073333Y-91756190D01*
X160954286Y-91756190D01*
X160906667Y-91780000D01*
X160882857Y-91803810D01*
X160859048Y-91851429D01*
X160859048Y-91899048D01*
X160882857Y-91970476D01*
X161168571Y-92256190D01*
X160859048Y-92256190D01*
X160644762Y-92256190D02*
X160644762Y-91756190D01*
X160359048Y-92256190D02*
X160573334Y-91970476D01*
X160359048Y-91756190D02*
X160644762Y-92041905D01*
D12*
X149861904Y-103532381D02*
X150338095Y-103532381D01*
X150385714Y-104008571D01*
X150338095Y-103960952D01*
X150242857Y-103913333D01*
X150004761Y-103913333D01*
X149909523Y-103960952D01*
X149861904Y-104008571D01*
X149814285Y-104103810D01*
X149814285Y-104341905D01*
X149861904Y-104437143D01*
X149909523Y-104484762D01*
X150004761Y-104532381D01*
X150242857Y-104532381D01*
X150338095Y-104484762D01*
X150385714Y-104437143D01*
X149385714Y-104532381D02*
X149385714Y-103532381D01*
X148814285Y-104532381D02*
X149242857Y-103960952D01*
X148814285Y-103532381D02*
X149385714Y-104103810D01*
X153270000Y-96592381D02*
X153174761Y-96592381D01*
X153079523Y-96640000D01*
X153031904Y-96687619D01*
X152984285Y-96782857D01*
X152936666Y-96973333D01*
X152936666Y-97211429D01*
X152984285Y-97401905D01*
X153031904Y-97497143D01*
X153079523Y-97544762D01*
X153174761Y-97592381D01*
X153270000Y-97592381D01*
X153365238Y-97544762D01*
X153412857Y-97497143D01*
X153460476Y-97401905D01*
X153508095Y-97211429D01*
X153508095Y-96973333D01*
X153460476Y-96782857D01*
X153412857Y-96687619D01*
X153365238Y-96640000D01*
X153270000Y-96592381D01*
X152508095Y-97068571D02*
X152174761Y-97068571D01*
X152031904Y-97592381D02*
X152508095Y-97592381D01*
X152508095Y-96592381D01*
X152031904Y-96592381D01*
D11*
X149099999Y-94786190D02*
X149052380Y-94786190D01*
X149004761Y-94810000D01*
X148980952Y-94833810D01*
X148957142Y-94881429D01*
X148933333Y-94976667D01*
X148933333Y-95095714D01*
X148957142Y-95190952D01*
X148980952Y-95238571D01*
X149004761Y-95262381D01*
X149052380Y-95286190D01*
X149099999Y-95286190D01*
X149147618Y-95262381D01*
X149171428Y-95238571D01*
X149195237Y-95190952D01*
X149219047Y-95095714D01*
X149219047Y-94976667D01*
X149195237Y-94881429D01*
X149171428Y-94833810D01*
X149147618Y-94810000D01*
X149099999Y-94786190D01*
X148719047Y-95024286D02*
X148552381Y-95024286D01*
X148480952Y-95286190D02*
X148719047Y-95286190D01*
X148719047Y-94786190D01*
X148480952Y-94786190D01*
D12*
X159632381Y-97862381D02*
X159632381Y-97290952D01*
X159632381Y-97576666D02*
X158632381Y-97576666D01*
X158775238Y-97481428D01*
X158870476Y-97386190D01*
X158918095Y-97290952D01*
X158632381Y-98481428D02*
X158632381Y-98576667D01*
X158680000Y-98671905D01*
X158727619Y-98719524D01*
X158822857Y-98767143D01*
X159013333Y-98814762D01*
X159251429Y-98814762D01*
X159441905Y-98767143D01*
X159537143Y-98719524D01*
X159584762Y-98671905D01*
X159632381Y-98576667D01*
X159632381Y-98481428D01*
X159584762Y-98386190D01*
X159537143Y-98338571D01*
X159441905Y-98290952D01*
X159251429Y-98243333D01*
X159013333Y-98243333D01*
X158822857Y-98290952D01*
X158727619Y-98338571D01*
X158680000Y-98386190D01*
X158632381Y-98481428D01*
X158632381Y-99433809D02*
X158632381Y-99529048D01*
X158680000Y-99624286D01*
X158727619Y-99671905D01*
X158822857Y-99719524D01*
X159013333Y-99767143D01*
X159251429Y-99767143D01*
X159441905Y-99719524D01*
X159537143Y-99671905D01*
X159584762Y-99624286D01*
X159632381Y-99529048D01*
X159632381Y-99433809D01*
X159584762Y-99338571D01*
X159537143Y-99290952D01*
X159441905Y-99243333D01*
X159251429Y-99195714D01*
X159013333Y-99195714D01*
X158822857Y-99243333D01*
X158727619Y-99290952D01*
X158680000Y-99338571D01*
X158632381Y-99433809D01*
X158965714Y-100624286D02*
X159632381Y-100624286D01*
X158965714Y-100195714D02*
X159489524Y-100195714D01*
X159584762Y-100243333D01*
X159632381Y-100338571D01*
X159632381Y-100481429D01*
X159584762Y-100576667D01*
X159537143Y-100624286D01*
X159108571Y-101433810D02*
X159108571Y-101100476D01*
X159632381Y-101100476D02*
X158632381Y-101100476D01*
X158632381Y-101576667D01*
X135227143Y-97684285D02*
X135274762Y-97636666D01*
X135322381Y-97493809D01*
X135322381Y-97398571D01*
X135274762Y-97255713D01*
X135179524Y-97160475D01*
X135084286Y-97112856D01*
X134893810Y-97065237D01*
X134750952Y-97065237D01*
X134560476Y-97112856D01*
X134465238Y-97160475D01*
X134370000Y-97255713D01*
X134322381Y-97398571D01*
X134322381Y-97493809D01*
X134370000Y-97636666D01*
X134417619Y-97684285D01*
X135322381Y-98112856D02*
X134655714Y-98112856D01*
X134846190Y-98112856D02*
X134750952Y-98160475D01*
X134703333Y-98208094D01*
X134655714Y-98303332D01*
X134655714Y-98398571D01*
X134655714Y-98636666D02*
X135322381Y-98874761D01*
X134655714Y-99112857D02*
X135322381Y-98874761D01*
X135560476Y-98779523D01*
X135608095Y-98731904D01*
X135655714Y-98636666D01*
X135274762Y-99446190D02*
X135322381Y-99541428D01*
X135322381Y-99731904D01*
X135274762Y-99827143D01*
X135179524Y-99874762D01*
X135131905Y-99874762D01*
X135036667Y-99827143D01*
X134989048Y-99731904D01*
X134989048Y-99589047D01*
X134941429Y-99493809D01*
X134846190Y-99446190D01*
X134798571Y-99446190D01*
X134703333Y-99493809D01*
X134655714Y-99589047D01*
X134655714Y-99731904D01*
X134703333Y-99827143D01*
X134655714Y-100160476D02*
X134655714Y-100541428D01*
X134322381Y-100303333D02*
X135179524Y-100303333D01*
X135274762Y-100350952D01*
X135322381Y-100446190D01*
X135322381Y-100541428D01*
X135322381Y-101303334D02*
X134798571Y-101303334D01*
X134703333Y-101255715D01*
X134655714Y-101160477D01*
X134655714Y-100970000D01*
X134703333Y-100874762D01*
X135274762Y-101303334D02*
X135322381Y-101208096D01*
X135322381Y-100970000D01*
X135274762Y-100874762D01*
X135179524Y-100827143D01*
X135084286Y-100827143D01*
X134989048Y-100874762D01*
X134941429Y-100970000D01*
X134941429Y-101208096D01*
X134893810Y-101303334D01*
X135322381Y-101922381D02*
X135274762Y-101827143D01*
X135179524Y-101779524D01*
X134322381Y-101779524D01*
M02*
