G04 #@! TF.FileFunction,Copper,L2,Inr,Mixed*
%FSLAX46Y46*%
G04 Gerber Fmt 4.6, Leading zero omitted, Abs format (unit mm)*
G04 Created by KiCad (PCBNEW 4.0.4-stable) date 02/18/17 15:09:55*
%MOMM*%
%LPD*%
G01*
G04 APERTURE LIST*
%ADD10C,0.100000*%
%ADD11C,0.500000*%
%ADD12R,1.700000X1.700000*%
%ADD13O,1.700000X1.700000*%
%ADD14C,0.600000*%
%ADD15C,0.254000*%
G04 APERTURE END LIST*
D10*
D11*
X149650000Y-95300000D03*
X116400000Y-103700000D03*
X110300000Y-97000000D03*
X108700000Y-97000000D03*
X108700000Y-95700000D03*
X137005000Y-103165000D03*
X123680000Y-106860000D03*
X155400000Y-104900000D03*
X157400000Y-104900000D03*
X159400000Y-104900000D03*
X161400000Y-104900000D03*
X163400000Y-106900000D03*
X163400000Y-104900000D03*
X163400000Y-102900000D03*
X163400000Y-100900000D03*
X163400000Y-98900000D03*
X163400000Y-96900000D03*
X151100000Y-99600000D03*
X115300000Y-107600000D03*
X114800000Y-109100000D03*
X119400000Y-94700000D03*
X157900000Y-101600000D03*
X155900000Y-101600000D03*
X153900000Y-101600000D03*
X157900000Y-99600000D03*
X155900000Y-99600000D03*
X153900000Y-99600000D03*
X157900000Y-97600000D03*
X155900000Y-97600000D03*
X153900000Y-97600000D03*
X128200000Y-92000000D03*
X121840000Y-103000000D03*
X122840000Y-103000000D03*
X121840000Y-104000000D03*
X122840000Y-104000000D03*
X122840000Y-102000000D03*
X121840000Y-102000000D03*
X120840000Y-102000000D03*
X120840000Y-103000000D03*
X120840000Y-104000000D03*
D12*
X163490000Y-88570000D03*
D13*
X160950000Y-88570000D03*
X158410000Y-88570000D03*
X155870000Y-88570000D03*
X153330000Y-88570000D03*
X150790000Y-88570000D03*
X148250000Y-88570000D03*
X145710000Y-88570000D03*
X143170000Y-88570000D03*
X140630000Y-88570000D03*
X138090000Y-88570000D03*
X135550000Y-88570000D03*
X133010000Y-88570000D03*
X130470000Y-88570000D03*
X127930000Y-88570000D03*
X125390000Y-88570000D03*
X122850000Y-88570000D03*
X120310000Y-88570000D03*
X117770000Y-88570000D03*
X115230000Y-88570000D03*
D12*
X163490000Y-111430000D03*
D13*
X160950000Y-111430000D03*
X158410000Y-111430000D03*
X155870000Y-111430000D03*
X153330000Y-111430000D03*
X150790000Y-111430000D03*
X148250000Y-111430000D03*
X145710000Y-111430000D03*
X143170000Y-111430000D03*
X140630000Y-111430000D03*
X138090000Y-111430000D03*
X135550000Y-111430000D03*
X133010000Y-111430000D03*
X130470000Y-111430000D03*
X127930000Y-111430000D03*
X125390000Y-111430000D03*
X122850000Y-111430000D03*
X120310000Y-111430000D03*
X117770000Y-111430000D03*
X115230000Y-111430000D03*
D11*
X110300000Y-95700000D03*
D14*
X111290000Y-103810000D03*
X111740000Y-98980000D03*
X135720000Y-97490000D03*
X117620000Y-104070000D03*
X126610000Y-92650000D03*
X129360000Y-92650000D03*
X137400000Y-94300000D03*
X116980000Y-93220000D03*
X157600000Y-93900000D03*
X141260000Y-101110000D03*
X136010000Y-104800000D03*
X148300000Y-95300000D03*
X133200000Y-94740002D03*
X136500000Y-95100000D03*
X158330000Y-107540000D03*
X126050000Y-96960000D03*
X126241384Y-99403063D03*
X135600001Y-100299999D03*
X155880000Y-92350000D03*
X148270000Y-92443053D03*
X147000000Y-95550000D03*
X143480000Y-104490000D03*
X146800000Y-93400000D03*
X154610000Y-92360000D03*
X153330000Y-92370000D03*
X152060000Y-92380000D03*
X150790000Y-92380000D03*
X149520000Y-92370000D03*
X143627010Y-96772990D03*
X143480000Y-98080000D03*
X143480000Y-99380000D03*
X157105655Y-107540000D03*
X154570000Y-107540000D03*
X153330000Y-107540000D03*
X152060000Y-107540000D03*
X150810000Y-107540000D03*
X149530000Y-107540000D03*
X143480000Y-105846040D03*
X143480000Y-103240000D03*
X143480000Y-101922067D03*
X143480000Y-100640000D03*
X127210000Y-104260000D03*
X120360000Y-99430000D03*
X133591636Y-103548364D03*
X122487000Y-98802990D03*
X113780000Y-98830000D03*
X113780000Y-103280000D03*
X134640000Y-102545311D03*
X150700000Y-97100000D03*
X150700000Y-97100000D03*
D15*
X128048981Y-97118981D02*
X127890000Y-96960000D01*
X127890000Y-96960000D02*
X126050000Y-96960000D01*
X137190961Y-103827001D02*
X138404963Y-102612999D01*
X148070961Y-102612999D02*
X152702999Y-107245037D01*
X134757001Y-103827001D02*
X137190961Y-103827001D01*
X128047962Y-97120000D02*
X128048981Y-97118981D01*
X152702999Y-107245037D02*
X152702999Y-108302999D01*
X138404963Y-102612999D02*
X148070961Y-102612999D01*
X128048981Y-97118981D02*
X134757001Y-103827001D01*
X152702999Y-108302999D02*
X153330000Y-108930000D01*
X153330000Y-108930000D02*
X153330000Y-111430000D01*
X153330000Y-111430000D02*
X153670000Y-111430000D01*
X153670000Y-111430000D02*
X156400000Y-108700000D01*
X156400000Y-108700000D02*
X157300000Y-108700000D01*
X157300000Y-108700000D02*
X158330000Y-107670000D01*
X158330000Y-107670000D02*
X158330000Y-107540000D01*
X143900000Y-91200000D02*
X148160000Y-91200000D01*
X135600001Y-99499999D02*
X143900000Y-91200000D01*
X135600001Y-100299999D02*
X135600001Y-99499999D01*
X148160000Y-91200000D02*
X150790000Y-88570000D01*
X134640000Y-102545311D02*
X134939999Y-102845310D01*
X136357974Y-102845310D02*
X137403284Y-101800000D01*
X137403284Y-101800000D02*
X142400000Y-101800000D01*
X134939999Y-102845310D02*
X136357974Y-102845310D01*
X142400000Y-101800000D02*
X142932999Y-101267001D01*
X142932999Y-101267001D02*
X146532999Y-101267001D01*
X146532999Y-101267001D02*
X150700000Y-97100000D01*
G36*
X113858039Y-87972622D02*
X113745000Y-88540907D01*
X113745000Y-88599093D01*
X113858039Y-89167378D01*
X114179946Y-89649147D01*
X114661715Y-89971054D01*
X115230000Y-90084093D01*
X115798285Y-89971054D01*
X116280054Y-89649147D01*
X116500000Y-89319974D01*
X116719946Y-89649147D01*
X117201715Y-89971054D01*
X117770000Y-90084093D01*
X118338285Y-89971054D01*
X118820054Y-89649147D01*
X119040000Y-89319974D01*
X119259946Y-89649147D01*
X119741715Y-89971054D01*
X120310000Y-90084093D01*
X120878285Y-89971054D01*
X121360054Y-89649147D01*
X121580000Y-89319974D01*
X121799946Y-89649147D01*
X122281715Y-89971054D01*
X122850000Y-90084093D01*
X123418285Y-89971054D01*
X123900054Y-89649147D01*
X124120000Y-89319974D01*
X124339946Y-89649147D01*
X124821715Y-89971054D01*
X125390000Y-90084093D01*
X125958285Y-89971054D01*
X126440054Y-89649147D01*
X126660000Y-89319974D01*
X126879946Y-89649147D01*
X127361715Y-89971054D01*
X127930000Y-90084093D01*
X128498285Y-89971054D01*
X128980054Y-89649147D01*
X129200000Y-89319974D01*
X129419946Y-89649147D01*
X129901715Y-89971054D01*
X130470000Y-90084093D01*
X131038285Y-89971054D01*
X131520054Y-89649147D01*
X131740000Y-89319974D01*
X131959946Y-89649147D01*
X132441715Y-89971054D01*
X133010000Y-90084093D01*
X133578285Y-89971054D01*
X134060054Y-89649147D01*
X134280000Y-89319974D01*
X134499946Y-89649147D01*
X134981715Y-89971054D01*
X135550000Y-90084093D01*
X136118285Y-89971054D01*
X136600054Y-89649147D01*
X136820000Y-89319974D01*
X137039946Y-89649147D01*
X137521715Y-89971054D01*
X138090000Y-90084093D01*
X138658285Y-89971054D01*
X139140054Y-89649147D01*
X139360000Y-89319974D01*
X139579946Y-89649147D01*
X140061715Y-89971054D01*
X140630000Y-90084093D01*
X141198285Y-89971054D01*
X141680054Y-89649147D01*
X141900000Y-89319974D01*
X142119946Y-89649147D01*
X142601715Y-89971054D01*
X143170000Y-90084093D01*
X143738285Y-89971054D01*
X144220054Y-89649147D01*
X144440000Y-89319974D01*
X144659946Y-89649147D01*
X145141715Y-89971054D01*
X145710000Y-90084093D01*
X146278285Y-89971054D01*
X146760054Y-89649147D01*
X146980000Y-89319974D01*
X147199946Y-89649147D01*
X147681715Y-89971054D01*
X148206858Y-90075512D01*
X147844370Y-90438000D01*
X143900000Y-90438000D01*
X143608395Y-90496004D01*
X143361185Y-90661185D01*
X136655108Y-97367262D01*
X136655162Y-97304833D01*
X136513117Y-96961057D01*
X136250327Y-96697808D01*
X135906799Y-96555162D01*
X135534833Y-96554838D01*
X135191057Y-96696883D01*
X134927808Y-96959673D01*
X134785162Y-97303201D01*
X134784838Y-97675167D01*
X134926883Y-98018943D01*
X135189673Y-98282192D01*
X135533201Y-98424838D01*
X135597476Y-98424894D01*
X135061186Y-98961184D01*
X134896005Y-99208394D01*
X134838001Y-99499999D01*
X134838001Y-99739533D01*
X134807809Y-99769672D01*
X134665163Y-100113200D01*
X134664839Y-100485166D01*
X134806884Y-100828942D01*
X135069674Y-101092191D01*
X135413202Y-101234837D01*
X135785168Y-101235161D01*
X136128944Y-101093116D01*
X136392193Y-100830326D01*
X136534839Y-100486798D01*
X136535163Y-100114832D01*
X136397052Y-99780578D01*
X140442463Y-95735167D01*
X146064838Y-95735167D01*
X146206883Y-96078943D01*
X146469673Y-96342192D01*
X146813201Y-96484838D01*
X147185167Y-96485162D01*
X147528943Y-96343117D01*
X147777183Y-96095310D01*
X148113201Y-96234838D01*
X148485167Y-96235162D01*
X148828943Y-96093117D01*
X149010411Y-95911966D01*
X149148033Y-96049829D01*
X149473190Y-96184846D01*
X149825265Y-96185153D01*
X150150657Y-96050704D01*
X150399829Y-95801967D01*
X150534846Y-95476810D01*
X150535153Y-95124735D01*
X150400704Y-94799343D01*
X150151967Y-94550171D01*
X149826810Y-94415154D01*
X149474735Y-94414847D01*
X149149343Y-94549296D01*
X149010300Y-94688096D01*
X148830327Y-94507808D01*
X148486799Y-94365162D01*
X148114833Y-94364838D01*
X147771057Y-94506883D01*
X147522817Y-94754690D01*
X147186799Y-94615162D01*
X146814833Y-94614838D01*
X146471057Y-94756883D01*
X146207808Y-95019673D01*
X146065162Y-95363201D01*
X146064838Y-95735167D01*
X140442463Y-95735167D01*
X144215630Y-91962000D01*
X147457348Y-91962000D01*
X147335162Y-92256254D01*
X147334852Y-92612341D01*
X147330327Y-92607808D01*
X146986799Y-92465162D01*
X146614833Y-92464838D01*
X146271057Y-92606883D01*
X146007808Y-92869673D01*
X145865162Y-93213201D01*
X145864838Y-93585167D01*
X146006883Y-93928943D01*
X146269673Y-94192192D01*
X146613201Y-94334838D01*
X146985167Y-94335162D01*
X147328943Y-94193117D01*
X147437081Y-94085167D01*
X156664838Y-94085167D01*
X156806883Y-94428943D01*
X157069673Y-94692192D01*
X157413201Y-94834838D01*
X157785167Y-94835162D01*
X158128943Y-94693117D01*
X158392192Y-94430327D01*
X158534838Y-94086799D01*
X158535162Y-93714833D01*
X158393117Y-93371057D01*
X158130327Y-93107808D01*
X157786799Y-92965162D01*
X157414833Y-92964838D01*
X157071057Y-93106883D01*
X156807808Y-93369673D01*
X156665162Y-93713201D01*
X156664838Y-94085167D01*
X147437081Y-94085167D01*
X147592192Y-93930327D01*
X147734838Y-93586799D01*
X147735148Y-93230712D01*
X147739673Y-93235245D01*
X148083201Y-93377891D01*
X148455167Y-93378215D01*
X148798943Y-93236170D01*
X148931463Y-93103881D01*
X148989673Y-93162192D01*
X149333201Y-93304838D01*
X149705167Y-93305162D01*
X150048943Y-93163117D01*
X150149954Y-93062282D01*
X150259673Y-93172192D01*
X150603201Y-93314838D01*
X150975167Y-93315162D01*
X151318943Y-93173117D01*
X151424954Y-93067290D01*
X151529673Y-93172192D01*
X151873201Y-93314838D01*
X152245167Y-93315162D01*
X152588943Y-93173117D01*
X152699954Y-93062299D01*
X152799673Y-93162192D01*
X153143201Y-93304838D01*
X153515167Y-93305162D01*
X153858943Y-93163117D01*
X153974963Y-93047299D01*
X154079673Y-93152192D01*
X154423201Y-93294838D01*
X154795167Y-93295162D01*
X155138943Y-93153117D01*
X155249954Y-93042299D01*
X155349673Y-93142192D01*
X155693201Y-93284838D01*
X156065167Y-93285162D01*
X156408943Y-93143117D01*
X156672192Y-92880327D01*
X156814838Y-92536799D01*
X156815162Y-92164833D01*
X156673117Y-91821057D01*
X156410327Y-91557808D01*
X156066799Y-91415162D01*
X155694833Y-91414838D01*
X155351057Y-91556883D01*
X155240046Y-91667701D01*
X155140327Y-91567808D01*
X154796799Y-91425162D01*
X154424833Y-91424838D01*
X154081057Y-91566883D01*
X153965037Y-91682701D01*
X153860327Y-91577808D01*
X153516799Y-91435162D01*
X153144833Y-91434838D01*
X152801057Y-91576883D01*
X152690046Y-91687701D01*
X152590327Y-91587808D01*
X152246799Y-91445162D01*
X151874833Y-91444838D01*
X151531057Y-91586883D01*
X151425046Y-91692710D01*
X151320327Y-91587808D01*
X150976799Y-91445162D01*
X150604833Y-91444838D01*
X150261057Y-91586883D01*
X150160046Y-91687718D01*
X150050327Y-91577808D01*
X149706799Y-91435162D01*
X149334833Y-91434838D01*
X148991057Y-91576883D01*
X148858537Y-91709172D01*
X148800327Y-91650861D01*
X148790747Y-91646883D01*
X150425951Y-90011679D01*
X150790000Y-90084093D01*
X151358285Y-89971054D01*
X151840054Y-89649147D01*
X152060000Y-89319974D01*
X152279946Y-89649147D01*
X152761715Y-89971054D01*
X153330000Y-90084093D01*
X153898285Y-89971054D01*
X154380054Y-89649147D01*
X154600000Y-89319974D01*
X154819946Y-89649147D01*
X155301715Y-89971054D01*
X155870000Y-90084093D01*
X156438285Y-89971054D01*
X156920054Y-89649147D01*
X157140000Y-89319974D01*
X157359946Y-89649147D01*
X157841715Y-89971054D01*
X158410000Y-90084093D01*
X158978285Y-89971054D01*
X159460054Y-89649147D01*
X159680000Y-89319974D01*
X159899946Y-89649147D01*
X160381715Y-89971054D01*
X160950000Y-90084093D01*
X161518285Y-89971054D01*
X162000054Y-89649147D01*
X162029403Y-89605223D01*
X162101673Y-89779698D01*
X162280301Y-89958327D01*
X162513690Y-90055000D01*
X163204250Y-90055000D01*
X163363000Y-89896250D01*
X163363000Y-88697000D01*
X163343000Y-88697000D01*
X163343000Y-88443000D01*
X163363000Y-88443000D01*
X163363000Y-88423000D01*
X163617000Y-88423000D01*
X163617000Y-88443000D01*
X163637000Y-88443000D01*
X163637000Y-88697000D01*
X163617000Y-88697000D01*
X163617000Y-89896250D01*
X163775750Y-90055000D01*
X164290000Y-90055000D01*
X164290000Y-109932560D01*
X162640000Y-109932560D01*
X162404683Y-109976838D01*
X162188559Y-110115910D01*
X162043569Y-110328110D01*
X162029914Y-110395541D01*
X162000054Y-110350853D01*
X161518285Y-110028946D01*
X160950000Y-109915907D01*
X160381715Y-110028946D01*
X159899946Y-110350853D01*
X159680000Y-110680026D01*
X159460054Y-110350853D01*
X158978285Y-110028946D01*
X158410000Y-109915907D01*
X157841715Y-110028946D01*
X157359946Y-110350853D01*
X157140000Y-110680026D01*
X156920054Y-110350853D01*
X156438285Y-110028946D01*
X156196732Y-109980898D01*
X156715630Y-109462000D01*
X157300000Y-109462000D01*
X157591605Y-109403996D01*
X157838815Y-109238815D01*
X158663939Y-108413691D01*
X158858943Y-108333117D01*
X159122192Y-108070327D01*
X159264838Y-107726799D01*
X159265162Y-107354833D01*
X159149648Y-107075265D01*
X162514847Y-107075265D01*
X162649296Y-107400657D01*
X162898033Y-107649829D01*
X163223190Y-107784846D01*
X163575265Y-107785153D01*
X163900657Y-107650704D01*
X164149829Y-107401967D01*
X164284846Y-107076810D01*
X164285153Y-106724735D01*
X164150704Y-106399343D01*
X163901967Y-106150171D01*
X163576810Y-106015154D01*
X163224735Y-106014847D01*
X162899343Y-106149296D01*
X162650171Y-106398033D01*
X162515154Y-106723190D01*
X162514847Y-107075265D01*
X159149648Y-107075265D01*
X159123117Y-107011057D01*
X158860327Y-106747808D01*
X158516799Y-106605162D01*
X158144833Y-106604838D01*
X157801057Y-106746883D01*
X157717913Y-106829882D01*
X157635982Y-106747808D01*
X157292454Y-106605162D01*
X156920488Y-106604838D01*
X156576712Y-106746883D01*
X156313463Y-107009673D01*
X156170817Y-107353201D01*
X156170493Y-107725167D01*
X156269185Y-107964021D01*
X156108395Y-107996004D01*
X155949811Y-108101967D01*
X155861185Y-108161185D01*
X154092000Y-109930370D01*
X154092000Y-108930000D01*
X154033996Y-108638395D01*
X153931603Y-108485153D01*
X153868815Y-108391184D01*
X153824839Y-108347208D01*
X153858943Y-108333117D01*
X153949928Y-108242290D01*
X154039673Y-108332192D01*
X154383201Y-108474838D01*
X154755167Y-108475162D01*
X155098943Y-108333117D01*
X155362192Y-108070327D01*
X155504838Y-107726799D01*
X155505162Y-107354833D01*
X155363117Y-107011057D01*
X155100327Y-106747808D01*
X154756799Y-106605162D01*
X154384833Y-106604838D01*
X154041057Y-106746883D01*
X153950072Y-106837710D01*
X153860327Y-106747808D01*
X153516799Y-106605162D01*
X153144833Y-106604838D01*
X153141717Y-106606125D01*
X151610857Y-105075265D01*
X154514847Y-105075265D01*
X154649296Y-105400657D01*
X154898033Y-105649829D01*
X155223190Y-105784846D01*
X155575265Y-105785153D01*
X155900657Y-105650704D01*
X156149829Y-105401967D01*
X156284846Y-105076810D01*
X156284847Y-105075265D01*
X156514847Y-105075265D01*
X156649296Y-105400657D01*
X156898033Y-105649829D01*
X157223190Y-105784846D01*
X157575265Y-105785153D01*
X157900657Y-105650704D01*
X158149829Y-105401967D01*
X158284846Y-105076810D01*
X158284847Y-105075265D01*
X158514847Y-105075265D01*
X158649296Y-105400657D01*
X158898033Y-105649829D01*
X159223190Y-105784846D01*
X159575265Y-105785153D01*
X159900657Y-105650704D01*
X160149829Y-105401967D01*
X160284846Y-105076810D01*
X160284847Y-105075265D01*
X160514847Y-105075265D01*
X160649296Y-105400657D01*
X160898033Y-105649829D01*
X161223190Y-105784846D01*
X161575265Y-105785153D01*
X161900657Y-105650704D01*
X162149829Y-105401967D01*
X162284846Y-105076810D01*
X162284847Y-105075265D01*
X162514847Y-105075265D01*
X162649296Y-105400657D01*
X162898033Y-105649829D01*
X163223190Y-105784846D01*
X163575265Y-105785153D01*
X163900657Y-105650704D01*
X164149829Y-105401967D01*
X164284846Y-105076810D01*
X164285153Y-104724735D01*
X164150704Y-104399343D01*
X163901967Y-104150171D01*
X163576810Y-104015154D01*
X163224735Y-104014847D01*
X162899343Y-104149296D01*
X162650171Y-104398033D01*
X162515154Y-104723190D01*
X162514847Y-105075265D01*
X162284847Y-105075265D01*
X162285153Y-104724735D01*
X162150704Y-104399343D01*
X161901967Y-104150171D01*
X161576810Y-104015154D01*
X161224735Y-104014847D01*
X160899343Y-104149296D01*
X160650171Y-104398033D01*
X160515154Y-104723190D01*
X160514847Y-105075265D01*
X160284847Y-105075265D01*
X160285153Y-104724735D01*
X160150704Y-104399343D01*
X159901967Y-104150171D01*
X159576810Y-104015154D01*
X159224735Y-104014847D01*
X158899343Y-104149296D01*
X158650171Y-104398033D01*
X158515154Y-104723190D01*
X158514847Y-105075265D01*
X158284847Y-105075265D01*
X158285153Y-104724735D01*
X158150704Y-104399343D01*
X157901967Y-104150171D01*
X157576810Y-104015154D01*
X157224735Y-104014847D01*
X156899343Y-104149296D01*
X156650171Y-104398033D01*
X156515154Y-104723190D01*
X156514847Y-105075265D01*
X156284847Y-105075265D01*
X156285153Y-104724735D01*
X156150704Y-104399343D01*
X155901967Y-104150171D01*
X155576810Y-104015154D01*
X155224735Y-104014847D01*
X154899343Y-104149296D01*
X154650171Y-104398033D01*
X154515154Y-104723190D01*
X154514847Y-105075265D01*
X151610857Y-105075265D01*
X149610857Y-103075265D01*
X162514847Y-103075265D01*
X162649296Y-103400657D01*
X162898033Y-103649829D01*
X163223190Y-103784846D01*
X163575265Y-103785153D01*
X163900657Y-103650704D01*
X164149829Y-103401967D01*
X164284846Y-103076810D01*
X164285153Y-102724735D01*
X164150704Y-102399343D01*
X163901967Y-102150171D01*
X163576810Y-102015154D01*
X163224735Y-102014847D01*
X162899343Y-102149296D01*
X162650171Y-102398033D01*
X162515154Y-102723190D01*
X162514847Y-103075265D01*
X149610857Y-103075265D01*
X148609776Y-102074184D01*
X148362566Y-101909003D01*
X148070961Y-101850999D01*
X147004193Y-101850999D01*
X147071814Y-101805816D01*
X147102365Y-101775265D01*
X153014847Y-101775265D01*
X153149296Y-102100657D01*
X153398033Y-102349829D01*
X153723190Y-102484846D01*
X154075265Y-102485153D01*
X154400657Y-102350704D01*
X154649829Y-102101967D01*
X154784846Y-101776810D01*
X154784847Y-101775265D01*
X155014847Y-101775265D01*
X155149296Y-102100657D01*
X155398033Y-102349829D01*
X155723190Y-102484846D01*
X156075265Y-102485153D01*
X156400657Y-102350704D01*
X156649829Y-102101967D01*
X156784846Y-101776810D01*
X156784847Y-101775265D01*
X157014847Y-101775265D01*
X157149296Y-102100657D01*
X157398033Y-102349829D01*
X157723190Y-102484846D01*
X158075265Y-102485153D01*
X158400657Y-102350704D01*
X158649829Y-102101967D01*
X158784846Y-101776810D01*
X158785153Y-101424735D01*
X158650704Y-101099343D01*
X158626669Y-101075265D01*
X162514847Y-101075265D01*
X162649296Y-101400657D01*
X162898033Y-101649829D01*
X163223190Y-101784846D01*
X163575265Y-101785153D01*
X163900657Y-101650704D01*
X164149829Y-101401967D01*
X164284846Y-101076810D01*
X164285153Y-100724735D01*
X164150704Y-100399343D01*
X163901967Y-100150171D01*
X163576810Y-100015154D01*
X163224735Y-100014847D01*
X162899343Y-100149296D01*
X162650171Y-100398033D01*
X162515154Y-100723190D01*
X162514847Y-101075265D01*
X158626669Y-101075265D01*
X158401967Y-100850171D01*
X158076810Y-100715154D01*
X157724735Y-100714847D01*
X157399343Y-100849296D01*
X157150171Y-101098033D01*
X157015154Y-101423190D01*
X157014847Y-101775265D01*
X156784847Y-101775265D01*
X156785153Y-101424735D01*
X156650704Y-101099343D01*
X156401967Y-100850171D01*
X156076810Y-100715154D01*
X155724735Y-100714847D01*
X155399343Y-100849296D01*
X155150171Y-101098033D01*
X155015154Y-101423190D01*
X155014847Y-101775265D01*
X154784847Y-101775265D01*
X154785153Y-101424735D01*
X154650704Y-101099343D01*
X154401967Y-100850171D01*
X154076810Y-100715154D01*
X153724735Y-100714847D01*
X153399343Y-100849296D01*
X153150171Y-101098033D01*
X153015154Y-101423190D01*
X153014847Y-101775265D01*
X147102365Y-101775265D01*
X149102365Y-99775265D01*
X150214847Y-99775265D01*
X150349296Y-100100657D01*
X150598033Y-100349829D01*
X150923190Y-100484846D01*
X151275265Y-100485153D01*
X151600657Y-100350704D01*
X151849829Y-100101967D01*
X151984846Y-99776810D01*
X151984847Y-99775265D01*
X153014847Y-99775265D01*
X153149296Y-100100657D01*
X153398033Y-100349829D01*
X153723190Y-100484846D01*
X154075265Y-100485153D01*
X154400657Y-100350704D01*
X154649829Y-100101967D01*
X154784846Y-99776810D01*
X154784847Y-99775265D01*
X155014847Y-99775265D01*
X155149296Y-100100657D01*
X155398033Y-100349829D01*
X155723190Y-100484846D01*
X156075265Y-100485153D01*
X156400657Y-100350704D01*
X156649829Y-100101967D01*
X156784846Y-99776810D01*
X156784847Y-99775265D01*
X157014847Y-99775265D01*
X157149296Y-100100657D01*
X157398033Y-100349829D01*
X157723190Y-100484846D01*
X158075265Y-100485153D01*
X158400657Y-100350704D01*
X158649829Y-100101967D01*
X158784846Y-99776810D01*
X158785153Y-99424735D01*
X158650704Y-99099343D01*
X158626669Y-99075265D01*
X162514847Y-99075265D01*
X162649296Y-99400657D01*
X162898033Y-99649829D01*
X163223190Y-99784846D01*
X163575265Y-99785153D01*
X163900657Y-99650704D01*
X164149829Y-99401967D01*
X164284846Y-99076810D01*
X164285153Y-98724735D01*
X164150704Y-98399343D01*
X163901967Y-98150171D01*
X163576810Y-98015154D01*
X163224735Y-98014847D01*
X162899343Y-98149296D01*
X162650171Y-98398033D01*
X162515154Y-98723190D01*
X162514847Y-99075265D01*
X158626669Y-99075265D01*
X158401967Y-98850171D01*
X158076810Y-98715154D01*
X157724735Y-98714847D01*
X157399343Y-98849296D01*
X157150171Y-99098033D01*
X157015154Y-99423190D01*
X157014847Y-99775265D01*
X156784847Y-99775265D01*
X156785153Y-99424735D01*
X156650704Y-99099343D01*
X156401967Y-98850171D01*
X156076810Y-98715154D01*
X155724735Y-98714847D01*
X155399343Y-98849296D01*
X155150171Y-99098033D01*
X155015154Y-99423190D01*
X155014847Y-99775265D01*
X154784847Y-99775265D01*
X154785153Y-99424735D01*
X154650704Y-99099343D01*
X154401967Y-98850171D01*
X154076810Y-98715154D01*
X153724735Y-98714847D01*
X153399343Y-98849296D01*
X153150171Y-99098033D01*
X153015154Y-99423190D01*
X153014847Y-99775265D01*
X151984847Y-99775265D01*
X151985153Y-99424735D01*
X151850704Y-99099343D01*
X151601967Y-98850171D01*
X151276810Y-98715154D01*
X150924735Y-98714847D01*
X150599343Y-98849296D01*
X150350171Y-99098033D01*
X150215154Y-99423190D01*
X150214847Y-99775265D01*
X149102365Y-99775265D01*
X150842506Y-98035125D01*
X150885167Y-98035162D01*
X151228943Y-97893117D01*
X151347000Y-97775265D01*
X153014847Y-97775265D01*
X153149296Y-98100657D01*
X153398033Y-98349829D01*
X153723190Y-98484846D01*
X154075265Y-98485153D01*
X154400657Y-98350704D01*
X154649829Y-98101967D01*
X154784846Y-97776810D01*
X154784847Y-97775265D01*
X155014847Y-97775265D01*
X155149296Y-98100657D01*
X155398033Y-98349829D01*
X155723190Y-98484846D01*
X156075265Y-98485153D01*
X156400657Y-98350704D01*
X156649829Y-98101967D01*
X156784846Y-97776810D01*
X156784847Y-97775265D01*
X157014847Y-97775265D01*
X157149296Y-98100657D01*
X157398033Y-98349829D01*
X157723190Y-98484846D01*
X158075265Y-98485153D01*
X158400657Y-98350704D01*
X158649829Y-98101967D01*
X158784846Y-97776810D01*
X158785153Y-97424735D01*
X158650704Y-97099343D01*
X158626669Y-97075265D01*
X162514847Y-97075265D01*
X162649296Y-97400657D01*
X162898033Y-97649829D01*
X163223190Y-97784846D01*
X163575265Y-97785153D01*
X163900657Y-97650704D01*
X164149829Y-97401967D01*
X164284846Y-97076810D01*
X164285153Y-96724735D01*
X164150704Y-96399343D01*
X163901967Y-96150171D01*
X163576810Y-96015154D01*
X163224735Y-96014847D01*
X162899343Y-96149296D01*
X162650171Y-96398033D01*
X162515154Y-96723190D01*
X162514847Y-97075265D01*
X158626669Y-97075265D01*
X158401967Y-96850171D01*
X158076810Y-96715154D01*
X157724735Y-96714847D01*
X157399343Y-96849296D01*
X157150171Y-97098033D01*
X157015154Y-97423190D01*
X157014847Y-97775265D01*
X156784847Y-97775265D01*
X156785153Y-97424735D01*
X156650704Y-97099343D01*
X156401967Y-96850171D01*
X156076810Y-96715154D01*
X155724735Y-96714847D01*
X155399343Y-96849296D01*
X155150171Y-97098033D01*
X155015154Y-97423190D01*
X155014847Y-97775265D01*
X154784847Y-97775265D01*
X154785153Y-97424735D01*
X154650704Y-97099343D01*
X154401967Y-96850171D01*
X154076810Y-96715154D01*
X153724735Y-96714847D01*
X153399343Y-96849296D01*
X153150171Y-97098033D01*
X153015154Y-97423190D01*
X153014847Y-97775265D01*
X151347000Y-97775265D01*
X151492192Y-97630327D01*
X151634838Y-97286799D01*
X151635162Y-96914833D01*
X151493117Y-96571057D01*
X151230327Y-96307808D01*
X150886799Y-96165162D01*
X150514833Y-96164838D01*
X150171057Y-96306883D01*
X149907808Y-96569673D01*
X149765162Y-96913201D01*
X149765124Y-96957245D01*
X146217369Y-100505001D01*
X144415118Y-100505001D01*
X144415162Y-100454833D01*
X144273117Y-100111057D01*
X144172290Y-100010054D01*
X144272192Y-99910327D01*
X144414838Y-99566799D01*
X144415162Y-99194833D01*
X144273117Y-98851057D01*
X144152290Y-98730019D01*
X144272192Y-98610327D01*
X144414838Y-98266799D01*
X144415162Y-97894833D01*
X144273117Y-97551057D01*
X144222162Y-97500013D01*
X144419202Y-97303317D01*
X144561848Y-96959789D01*
X144562172Y-96587823D01*
X144420127Y-96244047D01*
X144157337Y-95980798D01*
X143813809Y-95838152D01*
X143441843Y-95837828D01*
X143098067Y-95979873D01*
X142834818Y-96242663D01*
X142692172Y-96586191D01*
X142691848Y-96958157D01*
X142833893Y-97301933D01*
X142884848Y-97352977D01*
X142687808Y-97549673D01*
X142545162Y-97893201D01*
X142544838Y-98265167D01*
X142686883Y-98608943D01*
X142807710Y-98729981D01*
X142687808Y-98849673D01*
X142545162Y-99193201D01*
X142544838Y-99565167D01*
X142686883Y-99908943D01*
X142787710Y-100009946D01*
X142687808Y-100109673D01*
X142545162Y-100453201D01*
X142545010Y-100627407D01*
X142394183Y-100728186D01*
X142195160Y-100927209D01*
X142195162Y-100924833D01*
X142053117Y-100581057D01*
X141790327Y-100317808D01*
X141446799Y-100175162D01*
X141074833Y-100174838D01*
X140731057Y-100316883D01*
X140467808Y-100579673D01*
X140325162Y-100923201D01*
X140325062Y-101038000D01*
X137403284Y-101038000D01*
X137111680Y-101096003D01*
X136864469Y-101261184D01*
X136042344Y-102083310D01*
X135460777Y-102083310D01*
X135433117Y-102016368D01*
X135170327Y-101753119D01*
X134826799Y-101610473D01*
X134454833Y-101610149D01*
X134111057Y-101752194D01*
X133935287Y-101927657D01*
X128428815Y-96421185D01*
X128391129Y-96396004D01*
X128181605Y-96256004D01*
X127890000Y-96198000D01*
X126610466Y-96198000D01*
X126580327Y-96167808D01*
X126236799Y-96025162D01*
X125864833Y-96024838D01*
X125521057Y-96166883D01*
X125257808Y-96429673D01*
X125115162Y-96773201D01*
X125114838Y-97145167D01*
X125256883Y-97488943D01*
X125519673Y-97752192D01*
X125863201Y-97894838D01*
X126235167Y-97895162D01*
X126578943Y-97753117D01*
X126610114Y-97722000D01*
X127574370Y-97722000D01*
X132834956Y-102982586D01*
X132799444Y-103018037D01*
X132656798Y-103361565D01*
X132656474Y-103733531D01*
X132798519Y-104077307D01*
X133061309Y-104340556D01*
X133404837Y-104483202D01*
X133776803Y-104483526D01*
X134120579Y-104341481D01*
X134157247Y-104304877D01*
X134218186Y-104365816D01*
X134465396Y-104530997D01*
X134757001Y-104589001D01*
X135085211Y-104589001D01*
X135075162Y-104613201D01*
X135074838Y-104985167D01*
X135216883Y-105328943D01*
X135479673Y-105592192D01*
X135823201Y-105734838D01*
X136195167Y-105735162D01*
X136538943Y-105593117D01*
X136802192Y-105330327D01*
X136944838Y-104986799D01*
X136945162Y-104614833D01*
X136934488Y-104589001D01*
X137190961Y-104589001D01*
X137482566Y-104530997D01*
X137729776Y-104365816D01*
X138720593Y-103374999D01*
X142544882Y-103374999D01*
X142544838Y-103425167D01*
X142686883Y-103768943D01*
X142782710Y-103864937D01*
X142687808Y-103959673D01*
X142545162Y-104303201D01*
X142544838Y-104675167D01*
X142686883Y-105018943D01*
X142835729Y-105168049D01*
X142687808Y-105315713D01*
X142545162Y-105659241D01*
X142544838Y-106031207D01*
X142686883Y-106374983D01*
X142949673Y-106638232D01*
X143293201Y-106780878D01*
X143665167Y-106781202D01*
X144008943Y-106639157D01*
X144272192Y-106376367D01*
X144414838Y-106032839D01*
X144415162Y-105660873D01*
X144273117Y-105317097D01*
X144124271Y-105167991D01*
X144272192Y-105020327D01*
X144414838Y-104676799D01*
X144415162Y-104304833D01*
X144273117Y-103961057D01*
X144177290Y-103865063D01*
X144272192Y-103770327D01*
X144414838Y-103426799D01*
X144414883Y-103374999D01*
X147755331Y-103374999D01*
X150985484Y-106605152D01*
X150624833Y-106604838D01*
X150281057Y-106746883D01*
X150170037Y-106857710D01*
X150060327Y-106747808D01*
X149716799Y-106605162D01*
X149344833Y-106604838D01*
X149001057Y-106746883D01*
X148737808Y-107009673D01*
X148595162Y-107353201D01*
X148594838Y-107725167D01*
X148736883Y-108068943D01*
X148999673Y-108332192D01*
X149343201Y-108474838D01*
X149715167Y-108475162D01*
X150058943Y-108333117D01*
X150169963Y-108222290D01*
X150279673Y-108332192D01*
X150623201Y-108474838D01*
X150995167Y-108475162D01*
X151338943Y-108333117D01*
X151434937Y-108237290D01*
X151529673Y-108332192D01*
X151873201Y-108474838D01*
X151975198Y-108474927D01*
X151999003Y-108594604D01*
X152069427Y-108700000D01*
X152164184Y-108841814D01*
X152568000Y-109245631D01*
X152568000Y-110158382D01*
X152279946Y-110350853D01*
X152060000Y-110680026D01*
X151840054Y-110350853D01*
X151358285Y-110028946D01*
X150790000Y-109915907D01*
X150221715Y-110028946D01*
X149739946Y-110350853D01*
X149520000Y-110680026D01*
X149300054Y-110350853D01*
X148818285Y-110028946D01*
X148250000Y-109915907D01*
X147681715Y-110028946D01*
X147199946Y-110350853D01*
X146980000Y-110680026D01*
X146760054Y-110350853D01*
X146278285Y-110028946D01*
X145710000Y-109915907D01*
X145141715Y-110028946D01*
X144659946Y-110350853D01*
X144440000Y-110680026D01*
X144220054Y-110350853D01*
X143738285Y-110028946D01*
X143170000Y-109915907D01*
X142601715Y-110028946D01*
X142119946Y-110350853D01*
X141900000Y-110680026D01*
X141680054Y-110350853D01*
X141198285Y-110028946D01*
X140630000Y-109915907D01*
X140061715Y-110028946D01*
X139579946Y-110350853D01*
X139360000Y-110680026D01*
X139140054Y-110350853D01*
X138658285Y-110028946D01*
X138090000Y-109915907D01*
X137521715Y-110028946D01*
X137039946Y-110350853D01*
X136820000Y-110680026D01*
X136600054Y-110350853D01*
X136118285Y-110028946D01*
X135550000Y-109915907D01*
X134981715Y-110028946D01*
X134499946Y-110350853D01*
X134280000Y-110680026D01*
X134060054Y-110350853D01*
X133578285Y-110028946D01*
X133010000Y-109915907D01*
X132441715Y-110028946D01*
X131959946Y-110350853D01*
X131740000Y-110680026D01*
X131520054Y-110350853D01*
X131038285Y-110028946D01*
X130470000Y-109915907D01*
X129901715Y-110028946D01*
X129419946Y-110350853D01*
X129200000Y-110680026D01*
X128980054Y-110350853D01*
X128498285Y-110028946D01*
X127930000Y-109915907D01*
X127361715Y-110028946D01*
X126879946Y-110350853D01*
X126660000Y-110680026D01*
X126440054Y-110350853D01*
X125958285Y-110028946D01*
X125390000Y-109915907D01*
X124821715Y-110028946D01*
X124339946Y-110350853D01*
X124120000Y-110680026D01*
X123900054Y-110350853D01*
X123418285Y-110028946D01*
X122850000Y-109915907D01*
X122281715Y-110028946D01*
X121799946Y-110350853D01*
X121580000Y-110680026D01*
X121360054Y-110350853D01*
X120878285Y-110028946D01*
X120310000Y-109915907D01*
X119741715Y-110028946D01*
X119259946Y-110350853D01*
X119040000Y-110680026D01*
X118820054Y-110350853D01*
X118338285Y-110028946D01*
X117770000Y-109915907D01*
X117201715Y-110028946D01*
X116719946Y-110350853D01*
X116500000Y-110680026D01*
X116280054Y-110350853D01*
X115798285Y-110028946D01*
X115230000Y-109915907D01*
X115061956Y-109949333D01*
X115300657Y-109850704D01*
X115549829Y-109601967D01*
X115684846Y-109276810D01*
X115685153Y-108924735D01*
X115550704Y-108599343D01*
X115436680Y-108485119D01*
X115475265Y-108485153D01*
X115800657Y-108350704D01*
X116049829Y-108101967D01*
X116184846Y-107776810D01*
X116185153Y-107424735D01*
X116050704Y-107099343D01*
X115986738Y-107035265D01*
X122794847Y-107035265D01*
X122929296Y-107360657D01*
X123178033Y-107609829D01*
X123503190Y-107744846D01*
X123855265Y-107745153D01*
X124180657Y-107610704D01*
X124429829Y-107361967D01*
X124564846Y-107036810D01*
X124565153Y-106684735D01*
X124430704Y-106359343D01*
X124181967Y-106110171D01*
X123856810Y-105975154D01*
X123504735Y-105974847D01*
X123179343Y-106109296D01*
X122930171Y-106358033D01*
X122795154Y-106683190D01*
X122794847Y-107035265D01*
X115986738Y-107035265D01*
X115801967Y-106850171D01*
X115476810Y-106715154D01*
X115124735Y-106714847D01*
X114799343Y-106849296D01*
X114550171Y-107098033D01*
X114415154Y-107423190D01*
X114414847Y-107775265D01*
X114549296Y-108100657D01*
X114663320Y-108214881D01*
X114624735Y-108214847D01*
X114299343Y-108349296D01*
X114050171Y-108598033D01*
X113915154Y-108923190D01*
X113914847Y-109275265D01*
X114049296Y-109600657D01*
X114298033Y-109849829D01*
X114623190Y-109984846D01*
X114882285Y-109985072D01*
X114661715Y-110028946D01*
X114179946Y-110350853D01*
X113858039Y-110832622D01*
X113745000Y-111400907D01*
X113745000Y-111459093D01*
X113858039Y-112027378D01*
X113980063Y-112210000D01*
X112710000Y-112210000D01*
X112710000Y-106048000D01*
X112655954Y-105776295D01*
X112502046Y-105545954D01*
X112271705Y-105392046D01*
X112129921Y-105363843D01*
X112130363Y-104224320D01*
X112224838Y-103996799D01*
X112225162Y-103624833D01*
X112159190Y-103465167D01*
X112844838Y-103465167D01*
X112986883Y-103808943D01*
X113249673Y-104072192D01*
X113593201Y-104214838D01*
X113965167Y-104215162D01*
X114308943Y-104073117D01*
X114507140Y-103875265D01*
X115514847Y-103875265D01*
X115649296Y-104200657D01*
X115898033Y-104449829D01*
X116223190Y-104584846D01*
X116575265Y-104585153D01*
X116785323Y-104498359D01*
X116826883Y-104598943D01*
X117089673Y-104862192D01*
X117433201Y-105004838D01*
X117805167Y-105005162D01*
X118148943Y-104863117D01*
X118412192Y-104600327D01*
X118554838Y-104256799D01*
X118555162Y-103884833D01*
X118413117Y-103541057D01*
X118150327Y-103277808D01*
X117806799Y-103135162D01*
X117434833Y-103134838D01*
X117169372Y-103244524D01*
X117150704Y-103199343D01*
X116901967Y-102950171D01*
X116576810Y-102815154D01*
X116224735Y-102814847D01*
X115899343Y-102949296D01*
X115650171Y-103198033D01*
X115515154Y-103523190D01*
X115514847Y-103875265D01*
X114507140Y-103875265D01*
X114572192Y-103810327D01*
X114714838Y-103466799D01*
X114715162Y-103094833D01*
X114573117Y-102751057D01*
X114310327Y-102487808D01*
X113966799Y-102345162D01*
X113594833Y-102344838D01*
X113251057Y-102486883D01*
X112987808Y-102749673D01*
X112845162Y-103093201D01*
X112844838Y-103465167D01*
X112159190Y-103465167D01*
X112130684Y-103396177D01*
X112131157Y-102175265D01*
X119954847Y-102175265D01*
X120089189Y-102500398D01*
X119955154Y-102823190D01*
X119954847Y-103175265D01*
X120089189Y-103500398D01*
X119955154Y-103823190D01*
X119954847Y-104175265D01*
X120089296Y-104500657D01*
X120338033Y-104749829D01*
X120663190Y-104884846D01*
X121015265Y-104885153D01*
X121340398Y-104750811D01*
X121663190Y-104884846D01*
X122015265Y-104885153D01*
X122340398Y-104750811D01*
X122663190Y-104884846D01*
X123015265Y-104885153D01*
X123340657Y-104750704D01*
X123589829Y-104501967D01*
X123613414Y-104445167D01*
X126274838Y-104445167D01*
X126416883Y-104788943D01*
X126679673Y-105052192D01*
X127023201Y-105194838D01*
X127395167Y-105195162D01*
X127738943Y-105053117D01*
X128002192Y-104790327D01*
X128144838Y-104446799D01*
X128145162Y-104074833D01*
X128003117Y-103731057D01*
X127740327Y-103467808D01*
X127396799Y-103325162D01*
X127024833Y-103324838D01*
X126681057Y-103466883D01*
X126417808Y-103729673D01*
X126275162Y-104073201D01*
X126274838Y-104445167D01*
X123613414Y-104445167D01*
X123724846Y-104176810D01*
X123725153Y-103824735D01*
X123590811Y-103499602D01*
X123724846Y-103176810D01*
X123725153Y-102824735D01*
X123590811Y-102499602D01*
X123724846Y-102176810D01*
X123725153Y-101824735D01*
X123590704Y-101499343D01*
X123341967Y-101250171D01*
X123016810Y-101115154D01*
X122664735Y-101114847D01*
X122339602Y-101249189D01*
X122016810Y-101115154D01*
X121664735Y-101114847D01*
X121339602Y-101249189D01*
X121016810Y-101115154D01*
X120664735Y-101114847D01*
X120339343Y-101249296D01*
X120090171Y-101498033D01*
X119955154Y-101823190D01*
X119954847Y-102175265D01*
X112131157Y-102175265D01*
X112132066Y-99829673D01*
X112268943Y-99773117D01*
X112532192Y-99510327D01*
X112674838Y-99166799D01*
X112674970Y-99015167D01*
X112844838Y-99015167D01*
X112986883Y-99358943D01*
X113249673Y-99622192D01*
X113593201Y-99764838D01*
X113965167Y-99765162D01*
X114308943Y-99623117D01*
X114316906Y-99615167D01*
X119424838Y-99615167D01*
X119566883Y-99958943D01*
X119829673Y-100222192D01*
X120173201Y-100364838D01*
X120545167Y-100365162D01*
X120888943Y-100223117D01*
X121152192Y-99960327D01*
X121294838Y-99616799D01*
X121295162Y-99244833D01*
X121189106Y-98988157D01*
X121551838Y-98988157D01*
X121693883Y-99331933D01*
X121956673Y-99595182D01*
X122300201Y-99737828D01*
X122672167Y-99738152D01*
X123015943Y-99596107D01*
X123023833Y-99588230D01*
X125306222Y-99588230D01*
X125448267Y-99932006D01*
X125711057Y-100195255D01*
X126054585Y-100337901D01*
X126426551Y-100338225D01*
X126770327Y-100196180D01*
X127033576Y-99933390D01*
X127176222Y-99589862D01*
X127176546Y-99217896D01*
X127034501Y-98874120D01*
X126771711Y-98610871D01*
X126428183Y-98468225D01*
X126056217Y-98467901D01*
X125712441Y-98609946D01*
X125449192Y-98872736D01*
X125306546Y-99216264D01*
X125306222Y-99588230D01*
X123023833Y-99588230D01*
X123279192Y-99333317D01*
X123421838Y-98989789D01*
X123422162Y-98617823D01*
X123280117Y-98274047D01*
X123017327Y-98010798D01*
X122673799Y-97868152D01*
X122301833Y-97867828D01*
X121958057Y-98009873D01*
X121694808Y-98272663D01*
X121552162Y-98616191D01*
X121551838Y-98988157D01*
X121189106Y-98988157D01*
X121153117Y-98901057D01*
X120890327Y-98637808D01*
X120546799Y-98495162D01*
X120174833Y-98494838D01*
X119831057Y-98636883D01*
X119567808Y-98899673D01*
X119425162Y-99243201D01*
X119424838Y-99615167D01*
X114316906Y-99615167D01*
X114572192Y-99360327D01*
X114714838Y-99016799D01*
X114715162Y-98644833D01*
X114573117Y-98301057D01*
X114310327Y-98037808D01*
X113966799Y-97895162D01*
X113594833Y-97894838D01*
X113251057Y-98036883D01*
X112987808Y-98299673D01*
X112845162Y-98643201D01*
X112844838Y-99015167D01*
X112674970Y-99015167D01*
X112675162Y-98794833D01*
X112533117Y-98451057D01*
X112270327Y-98187808D01*
X112132725Y-98130670D01*
X112133986Y-94875265D01*
X118514847Y-94875265D01*
X118649296Y-95200657D01*
X118898033Y-95449829D01*
X119223190Y-95584846D01*
X119575265Y-95585153D01*
X119900657Y-95450704D01*
X120149829Y-95201967D01*
X120264765Y-94925169D01*
X132264838Y-94925169D01*
X132406883Y-95268945D01*
X132669673Y-95532194D01*
X133013201Y-95674840D01*
X133385167Y-95675164D01*
X133728943Y-95533119D01*
X133977328Y-95285167D01*
X135564838Y-95285167D01*
X135706883Y-95628943D01*
X135969673Y-95892192D01*
X136313201Y-96034838D01*
X136685167Y-96035162D01*
X137028943Y-95893117D01*
X137292192Y-95630327D01*
X137434838Y-95286799D01*
X137435162Y-94914833D01*
X137293117Y-94571057D01*
X137030327Y-94307808D01*
X136686799Y-94165162D01*
X136314833Y-94164838D01*
X135971057Y-94306883D01*
X135707808Y-94569673D01*
X135565162Y-94913201D01*
X135564838Y-95285167D01*
X133977328Y-95285167D01*
X133992192Y-95270329D01*
X134134838Y-94926801D01*
X134135162Y-94554835D01*
X133993117Y-94211059D01*
X133730327Y-93947810D01*
X133386799Y-93805164D01*
X133014833Y-93804840D01*
X132671057Y-93946885D01*
X132407808Y-94209675D01*
X132265162Y-94553203D01*
X132264838Y-94925169D01*
X120264765Y-94925169D01*
X120284846Y-94876810D01*
X120285153Y-94524735D01*
X120150704Y-94199343D01*
X119901967Y-93950171D01*
X119576810Y-93815154D01*
X119224735Y-93814847D01*
X118899343Y-93949296D01*
X118650171Y-94198033D01*
X118515154Y-94523190D01*
X118514847Y-94875265D01*
X112133986Y-94875265D01*
X112134084Y-94623329D01*
X112271705Y-94595954D01*
X112502046Y-94442046D01*
X112655954Y-94211705D01*
X112710000Y-93940000D01*
X112710000Y-92175265D01*
X127314847Y-92175265D01*
X127449296Y-92500657D01*
X127698033Y-92749829D01*
X128023190Y-92884846D01*
X128375265Y-92885153D01*
X128700657Y-92750704D01*
X128949829Y-92501967D01*
X129084846Y-92176810D01*
X129085153Y-91824735D01*
X128950704Y-91499343D01*
X128701967Y-91250171D01*
X128376810Y-91115154D01*
X128024735Y-91114847D01*
X127699343Y-91249296D01*
X127450171Y-91498033D01*
X127315154Y-91823190D01*
X127314847Y-92175265D01*
X112710000Y-92175265D01*
X112710000Y-87790000D01*
X113980063Y-87790000D01*
X113858039Y-87972622D01*
X113858039Y-87972622D01*
G37*
X113858039Y-87972622D02*
X113745000Y-88540907D01*
X113745000Y-88599093D01*
X113858039Y-89167378D01*
X114179946Y-89649147D01*
X114661715Y-89971054D01*
X115230000Y-90084093D01*
X115798285Y-89971054D01*
X116280054Y-89649147D01*
X116500000Y-89319974D01*
X116719946Y-89649147D01*
X117201715Y-89971054D01*
X117770000Y-90084093D01*
X118338285Y-89971054D01*
X118820054Y-89649147D01*
X119040000Y-89319974D01*
X119259946Y-89649147D01*
X119741715Y-89971054D01*
X120310000Y-90084093D01*
X120878285Y-89971054D01*
X121360054Y-89649147D01*
X121580000Y-89319974D01*
X121799946Y-89649147D01*
X122281715Y-89971054D01*
X122850000Y-90084093D01*
X123418285Y-89971054D01*
X123900054Y-89649147D01*
X124120000Y-89319974D01*
X124339946Y-89649147D01*
X124821715Y-89971054D01*
X125390000Y-90084093D01*
X125958285Y-89971054D01*
X126440054Y-89649147D01*
X126660000Y-89319974D01*
X126879946Y-89649147D01*
X127361715Y-89971054D01*
X127930000Y-90084093D01*
X128498285Y-89971054D01*
X128980054Y-89649147D01*
X129200000Y-89319974D01*
X129419946Y-89649147D01*
X129901715Y-89971054D01*
X130470000Y-90084093D01*
X131038285Y-89971054D01*
X131520054Y-89649147D01*
X131740000Y-89319974D01*
X131959946Y-89649147D01*
X132441715Y-89971054D01*
X133010000Y-90084093D01*
X133578285Y-89971054D01*
X134060054Y-89649147D01*
X134280000Y-89319974D01*
X134499946Y-89649147D01*
X134981715Y-89971054D01*
X135550000Y-90084093D01*
X136118285Y-89971054D01*
X136600054Y-89649147D01*
X136820000Y-89319974D01*
X137039946Y-89649147D01*
X137521715Y-89971054D01*
X138090000Y-90084093D01*
X138658285Y-89971054D01*
X139140054Y-89649147D01*
X139360000Y-89319974D01*
X139579946Y-89649147D01*
X140061715Y-89971054D01*
X140630000Y-90084093D01*
X141198285Y-89971054D01*
X141680054Y-89649147D01*
X141900000Y-89319974D01*
X142119946Y-89649147D01*
X142601715Y-89971054D01*
X143170000Y-90084093D01*
X143738285Y-89971054D01*
X144220054Y-89649147D01*
X144440000Y-89319974D01*
X144659946Y-89649147D01*
X145141715Y-89971054D01*
X145710000Y-90084093D01*
X146278285Y-89971054D01*
X146760054Y-89649147D01*
X146980000Y-89319974D01*
X147199946Y-89649147D01*
X147681715Y-89971054D01*
X148206858Y-90075512D01*
X147844370Y-90438000D01*
X143900000Y-90438000D01*
X143608395Y-90496004D01*
X143361185Y-90661185D01*
X136655108Y-97367262D01*
X136655162Y-97304833D01*
X136513117Y-96961057D01*
X136250327Y-96697808D01*
X135906799Y-96555162D01*
X135534833Y-96554838D01*
X135191057Y-96696883D01*
X134927808Y-96959673D01*
X134785162Y-97303201D01*
X134784838Y-97675167D01*
X134926883Y-98018943D01*
X135189673Y-98282192D01*
X135533201Y-98424838D01*
X135597476Y-98424894D01*
X135061186Y-98961184D01*
X134896005Y-99208394D01*
X134838001Y-99499999D01*
X134838001Y-99739533D01*
X134807809Y-99769672D01*
X134665163Y-100113200D01*
X134664839Y-100485166D01*
X134806884Y-100828942D01*
X135069674Y-101092191D01*
X135413202Y-101234837D01*
X135785168Y-101235161D01*
X136128944Y-101093116D01*
X136392193Y-100830326D01*
X136534839Y-100486798D01*
X136535163Y-100114832D01*
X136397052Y-99780578D01*
X140442463Y-95735167D01*
X146064838Y-95735167D01*
X146206883Y-96078943D01*
X146469673Y-96342192D01*
X146813201Y-96484838D01*
X147185167Y-96485162D01*
X147528943Y-96343117D01*
X147777183Y-96095310D01*
X148113201Y-96234838D01*
X148485167Y-96235162D01*
X148828943Y-96093117D01*
X149010411Y-95911966D01*
X149148033Y-96049829D01*
X149473190Y-96184846D01*
X149825265Y-96185153D01*
X150150657Y-96050704D01*
X150399829Y-95801967D01*
X150534846Y-95476810D01*
X150535153Y-95124735D01*
X150400704Y-94799343D01*
X150151967Y-94550171D01*
X149826810Y-94415154D01*
X149474735Y-94414847D01*
X149149343Y-94549296D01*
X149010300Y-94688096D01*
X148830327Y-94507808D01*
X148486799Y-94365162D01*
X148114833Y-94364838D01*
X147771057Y-94506883D01*
X147522817Y-94754690D01*
X147186799Y-94615162D01*
X146814833Y-94614838D01*
X146471057Y-94756883D01*
X146207808Y-95019673D01*
X146065162Y-95363201D01*
X146064838Y-95735167D01*
X140442463Y-95735167D01*
X144215630Y-91962000D01*
X147457348Y-91962000D01*
X147335162Y-92256254D01*
X147334852Y-92612341D01*
X147330327Y-92607808D01*
X146986799Y-92465162D01*
X146614833Y-92464838D01*
X146271057Y-92606883D01*
X146007808Y-92869673D01*
X145865162Y-93213201D01*
X145864838Y-93585167D01*
X146006883Y-93928943D01*
X146269673Y-94192192D01*
X146613201Y-94334838D01*
X146985167Y-94335162D01*
X147328943Y-94193117D01*
X147437081Y-94085167D01*
X156664838Y-94085167D01*
X156806883Y-94428943D01*
X157069673Y-94692192D01*
X157413201Y-94834838D01*
X157785167Y-94835162D01*
X158128943Y-94693117D01*
X158392192Y-94430327D01*
X158534838Y-94086799D01*
X158535162Y-93714833D01*
X158393117Y-93371057D01*
X158130327Y-93107808D01*
X157786799Y-92965162D01*
X157414833Y-92964838D01*
X157071057Y-93106883D01*
X156807808Y-93369673D01*
X156665162Y-93713201D01*
X156664838Y-94085167D01*
X147437081Y-94085167D01*
X147592192Y-93930327D01*
X147734838Y-93586799D01*
X147735148Y-93230712D01*
X147739673Y-93235245D01*
X148083201Y-93377891D01*
X148455167Y-93378215D01*
X148798943Y-93236170D01*
X148931463Y-93103881D01*
X148989673Y-93162192D01*
X149333201Y-93304838D01*
X149705167Y-93305162D01*
X150048943Y-93163117D01*
X150149954Y-93062282D01*
X150259673Y-93172192D01*
X150603201Y-93314838D01*
X150975167Y-93315162D01*
X151318943Y-93173117D01*
X151424954Y-93067290D01*
X151529673Y-93172192D01*
X151873201Y-93314838D01*
X152245167Y-93315162D01*
X152588943Y-93173117D01*
X152699954Y-93062299D01*
X152799673Y-93162192D01*
X153143201Y-93304838D01*
X153515167Y-93305162D01*
X153858943Y-93163117D01*
X153974963Y-93047299D01*
X154079673Y-93152192D01*
X154423201Y-93294838D01*
X154795167Y-93295162D01*
X155138943Y-93153117D01*
X155249954Y-93042299D01*
X155349673Y-93142192D01*
X155693201Y-93284838D01*
X156065167Y-93285162D01*
X156408943Y-93143117D01*
X156672192Y-92880327D01*
X156814838Y-92536799D01*
X156815162Y-92164833D01*
X156673117Y-91821057D01*
X156410327Y-91557808D01*
X156066799Y-91415162D01*
X155694833Y-91414838D01*
X155351057Y-91556883D01*
X155240046Y-91667701D01*
X155140327Y-91567808D01*
X154796799Y-91425162D01*
X154424833Y-91424838D01*
X154081057Y-91566883D01*
X153965037Y-91682701D01*
X153860327Y-91577808D01*
X153516799Y-91435162D01*
X153144833Y-91434838D01*
X152801057Y-91576883D01*
X152690046Y-91687701D01*
X152590327Y-91587808D01*
X152246799Y-91445162D01*
X151874833Y-91444838D01*
X151531057Y-91586883D01*
X151425046Y-91692710D01*
X151320327Y-91587808D01*
X150976799Y-91445162D01*
X150604833Y-91444838D01*
X150261057Y-91586883D01*
X150160046Y-91687718D01*
X150050327Y-91577808D01*
X149706799Y-91435162D01*
X149334833Y-91434838D01*
X148991057Y-91576883D01*
X148858537Y-91709172D01*
X148800327Y-91650861D01*
X148790747Y-91646883D01*
X150425951Y-90011679D01*
X150790000Y-90084093D01*
X151358285Y-89971054D01*
X151840054Y-89649147D01*
X152060000Y-89319974D01*
X152279946Y-89649147D01*
X152761715Y-89971054D01*
X153330000Y-90084093D01*
X153898285Y-89971054D01*
X154380054Y-89649147D01*
X154600000Y-89319974D01*
X154819946Y-89649147D01*
X155301715Y-89971054D01*
X155870000Y-90084093D01*
X156438285Y-89971054D01*
X156920054Y-89649147D01*
X157140000Y-89319974D01*
X157359946Y-89649147D01*
X157841715Y-89971054D01*
X158410000Y-90084093D01*
X158978285Y-89971054D01*
X159460054Y-89649147D01*
X159680000Y-89319974D01*
X159899946Y-89649147D01*
X160381715Y-89971054D01*
X160950000Y-90084093D01*
X161518285Y-89971054D01*
X162000054Y-89649147D01*
X162029403Y-89605223D01*
X162101673Y-89779698D01*
X162280301Y-89958327D01*
X162513690Y-90055000D01*
X163204250Y-90055000D01*
X163363000Y-89896250D01*
X163363000Y-88697000D01*
X163343000Y-88697000D01*
X163343000Y-88443000D01*
X163363000Y-88443000D01*
X163363000Y-88423000D01*
X163617000Y-88423000D01*
X163617000Y-88443000D01*
X163637000Y-88443000D01*
X163637000Y-88697000D01*
X163617000Y-88697000D01*
X163617000Y-89896250D01*
X163775750Y-90055000D01*
X164290000Y-90055000D01*
X164290000Y-109932560D01*
X162640000Y-109932560D01*
X162404683Y-109976838D01*
X162188559Y-110115910D01*
X162043569Y-110328110D01*
X162029914Y-110395541D01*
X162000054Y-110350853D01*
X161518285Y-110028946D01*
X160950000Y-109915907D01*
X160381715Y-110028946D01*
X159899946Y-110350853D01*
X159680000Y-110680026D01*
X159460054Y-110350853D01*
X158978285Y-110028946D01*
X158410000Y-109915907D01*
X157841715Y-110028946D01*
X157359946Y-110350853D01*
X157140000Y-110680026D01*
X156920054Y-110350853D01*
X156438285Y-110028946D01*
X156196732Y-109980898D01*
X156715630Y-109462000D01*
X157300000Y-109462000D01*
X157591605Y-109403996D01*
X157838815Y-109238815D01*
X158663939Y-108413691D01*
X158858943Y-108333117D01*
X159122192Y-108070327D01*
X159264838Y-107726799D01*
X159265162Y-107354833D01*
X159149648Y-107075265D01*
X162514847Y-107075265D01*
X162649296Y-107400657D01*
X162898033Y-107649829D01*
X163223190Y-107784846D01*
X163575265Y-107785153D01*
X163900657Y-107650704D01*
X164149829Y-107401967D01*
X164284846Y-107076810D01*
X164285153Y-106724735D01*
X164150704Y-106399343D01*
X163901967Y-106150171D01*
X163576810Y-106015154D01*
X163224735Y-106014847D01*
X162899343Y-106149296D01*
X162650171Y-106398033D01*
X162515154Y-106723190D01*
X162514847Y-107075265D01*
X159149648Y-107075265D01*
X159123117Y-107011057D01*
X158860327Y-106747808D01*
X158516799Y-106605162D01*
X158144833Y-106604838D01*
X157801057Y-106746883D01*
X157717913Y-106829882D01*
X157635982Y-106747808D01*
X157292454Y-106605162D01*
X156920488Y-106604838D01*
X156576712Y-106746883D01*
X156313463Y-107009673D01*
X156170817Y-107353201D01*
X156170493Y-107725167D01*
X156269185Y-107964021D01*
X156108395Y-107996004D01*
X155949811Y-108101967D01*
X155861185Y-108161185D01*
X154092000Y-109930370D01*
X154092000Y-108930000D01*
X154033996Y-108638395D01*
X153931603Y-108485153D01*
X153868815Y-108391184D01*
X153824839Y-108347208D01*
X153858943Y-108333117D01*
X153949928Y-108242290D01*
X154039673Y-108332192D01*
X154383201Y-108474838D01*
X154755167Y-108475162D01*
X155098943Y-108333117D01*
X155362192Y-108070327D01*
X155504838Y-107726799D01*
X155505162Y-107354833D01*
X155363117Y-107011057D01*
X155100327Y-106747808D01*
X154756799Y-106605162D01*
X154384833Y-106604838D01*
X154041057Y-106746883D01*
X153950072Y-106837710D01*
X153860327Y-106747808D01*
X153516799Y-106605162D01*
X153144833Y-106604838D01*
X153141717Y-106606125D01*
X151610857Y-105075265D01*
X154514847Y-105075265D01*
X154649296Y-105400657D01*
X154898033Y-105649829D01*
X155223190Y-105784846D01*
X155575265Y-105785153D01*
X155900657Y-105650704D01*
X156149829Y-105401967D01*
X156284846Y-105076810D01*
X156284847Y-105075265D01*
X156514847Y-105075265D01*
X156649296Y-105400657D01*
X156898033Y-105649829D01*
X157223190Y-105784846D01*
X157575265Y-105785153D01*
X157900657Y-105650704D01*
X158149829Y-105401967D01*
X158284846Y-105076810D01*
X158284847Y-105075265D01*
X158514847Y-105075265D01*
X158649296Y-105400657D01*
X158898033Y-105649829D01*
X159223190Y-105784846D01*
X159575265Y-105785153D01*
X159900657Y-105650704D01*
X160149829Y-105401967D01*
X160284846Y-105076810D01*
X160284847Y-105075265D01*
X160514847Y-105075265D01*
X160649296Y-105400657D01*
X160898033Y-105649829D01*
X161223190Y-105784846D01*
X161575265Y-105785153D01*
X161900657Y-105650704D01*
X162149829Y-105401967D01*
X162284846Y-105076810D01*
X162284847Y-105075265D01*
X162514847Y-105075265D01*
X162649296Y-105400657D01*
X162898033Y-105649829D01*
X163223190Y-105784846D01*
X163575265Y-105785153D01*
X163900657Y-105650704D01*
X164149829Y-105401967D01*
X164284846Y-105076810D01*
X164285153Y-104724735D01*
X164150704Y-104399343D01*
X163901967Y-104150171D01*
X163576810Y-104015154D01*
X163224735Y-104014847D01*
X162899343Y-104149296D01*
X162650171Y-104398033D01*
X162515154Y-104723190D01*
X162514847Y-105075265D01*
X162284847Y-105075265D01*
X162285153Y-104724735D01*
X162150704Y-104399343D01*
X161901967Y-104150171D01*
X161576810Y-104015154D01*
X161224735Y-104014847D01*
X160899343Y-104149296D01*
X160650171Y-104398033D01*
X160515154Y-104723190D01*
X160514847Y-105075265D01*
X160284847Y-105075265D01*
X160285153Y-104724735D01*
X160150704Y-104399343D01*
X159901967Y-104150171D01*
X159576810Y-104015154D01*
X159224735Y-104014847D01*
X158899343Y-104149296D01*
X158650171Y-104398033D01*
X158515154Y-104723190D01*
X158514847Y-105075265D01*
X158284847Y-105075265D01*
X158285153Y-104724735D01*
X158150704Y-104399343D01*
X157901967Y-104150171D01*
X157576810Y-104015154D01*
X157224735Y-104014847D01*
X156899343Y-104149296D01*
X156650171Y-104398033D01*
X156515154Y-104723190D01*
X156514847Y-105075265D01*
X156284847Y-105075265D01*
X156285153Y-104724735D01*
X156150704Y-104399343D01*
X155901967Y-104150171D01*
X155576810Y-104015154D01*
X155224735Y-104014847D01*
X154899343Y-104149296D01*
X154650171Y-104398033D01*
X154515154Y-104723190D01*
X154514847Y-105075265D01*
X151610857Y-105075265D01*
X149610857Y-103075265D01*
X162514847Y-103075265D01*
X162649296Y-103400657D01*
X162898033Y-103649829D01*
X163223190Y-103784846D01*
X163575265Y-103785153D01*
X163900657Y-103650704D01*
X164149829Y-103401967D01*
X164284846Y-103076810D01*
X164285153Y-102724735D01*
X164150704Y-102399343D01*
X163901967Y-102150171D01*
X163576810Y-102015154D01*
X163224735Y-102014847D01*
X162899343Y-102149296D01*
X162650171Y-102398033D01*
X162515154Y-102723190D01*
X162514847Y-103075265D01*
X149610857Y-103075265D01*
X148609776Y-102074184D01*
X148362566Y-101909003D01*
X148070961Y-101850999D01*
X147004193Y-101850999D01*
X147071814Y-101805816D01*
X147102365Y-101775265D01*
X153014847Y-101775265D01*
X153149296Y-102100657D01*
X153398033Y-102349829D01*
X153723190Y-102484846D01*
X154075265Y-102485153D01*
X154400657Y-102350704D01*
X154649829Y-102101967D01*
X154784846Y-101776810D01*
X154784847Y-101775265D01*
X155014847Y-101775265D01*
X155149296Y-102100657D01*
X155398033Y-102349829D01*
X155723190Y-102484846D01*
X156075265Y-102485153D01*
X156400657Y-102350704D01*
X156649829Y-102101967D01*
X156784846Y-101776810D01*
X156784847Y-101775265D01*
X157014847Y-101775265D01*
X157149296Y-102100657D01*
X157398033Y-102349829D01*
X157723190Y-102484846D01*
X158075265Y-102485153D01*
X158400657Y-102350704D01*
X158649829Y-102101967D01*
X158784846Y-101776810D01*
X158785153Y-101424735D01*
X158650704Y-101099343D01*
X158626669Y-101075265D01*
X162514847Y-101075265D01*
X162649296Y-101400657D01*
X162898033Y-101649829D01*
X163223190Y-101784846D01*
X163575265Y-101785153D01*
X163900657Y-101650704D01*
X164149829Y-101401967D01*
X164284846Y-101076810D01*
X164285153Y-100724735D01*
X164150704Y-100399343D01*
X163901967Y-100150171D01*
X163576810Y-100015154D01*
X163224735Y-100014847D01*
X162899343Y-100149296D01*
X162650171Y-100398033D01*
X162515154Y-100723190D01*
X162514847Y-101075265D01*
X158626669Y-101075265D01*
X158401967Y-100850171D01*
X158076810Y-100715154D01*
X157724735Y-100714847D01*
X157399343Y-100849296D01*
X157150171Y-101098033D01*
X157015154Y-101423190D01*
X157014847Y-101775265D01*
X156784847Y-101775265D01*
X156785153Y-101424735D01*
X156650704Y-101099343D01*
X156401967Y-100850171D01*
X156076810Y-100715154D01*
X155724735Y-100714847D01*
X155399343Y-100849296D01*
X155150171Y-101098033D01*
X155015154Y-101423190D01*
X155014847Y-101775265D01*
X154784847Y-101775265D01*
X154785153Y-101424735D01*
X154650704Y-101099343D01*
X154401967Y-100850171D01*
X154076810Y-100715154D01*
X153724735Y-100714847D01*
X153399343Y-100849296D01*
X153150171Y-101098033D01*
X153015154Y-101423190D01*
X153014847Y-101775265D01*
X147102365Y-101775265D01*
X149102365Y-99775265D01*
X150214847Y-99775265D01*
X150349296Y-100100657D01*
X150598033Y-100349829D01*
X150923190Y-100484846D01*
X151275265Y-100485153D01*
X151600657Y-100350704D01*
X151849829Y-100101967D01*
X151984846Y-99776810D01*
X151984847Y-99775265D01*
X153014847Y-99775265D01*
X153149296Y-100100657D01*
X153398033Y-100349829D01*
X153723190Y-100484846D01*
X154075265Y-100485153D01*
X154400657Y-100350704D01*
X154649829Y-100101967D01*
X154784846Y-99776810D01*
X154784847Y-99775265D01*
X155014847Y-99775265D01*
X155149296Y-100100657D01*
X155398033Y-100349829D01*
X155723190Y-100484846D01*
X156075265Y-100485153D01*
X156400657Y-100350704D01*
X156649829Y-100101967D01*
X156784846Y-99776810D01*
X156784847Y-99775265D01*
X157014847Y-99775265D01*
X157149296Y-100100657D01*
X157398033Y-100349829D01*
X157723190Y-100484846D01*
X158075265Y-100485153D01*
X158400657Y-100350704D01*
X158649829Y-100101967D01*
X158784846Y-99776810D01*
X158785153Y-99424735D01*
X158650704Y-99099343D01*
X158626669Y-99075265D01*
X162514847Y-99075265D01*
X162649296Y-99400657D01*
X162898033Y-99649829D01*
X163223190Y-99784846D01*
X163575265Y-99785153D01*
X163900657Y-99650704D01*
X164149829Y-99401967D01*
X164284846Y-99076810D01*
X164285153Y-98724735D01*
X164150704Y-98399343D01*
X163901967Y-98150171D01*
X163576810Y-98015154D01*
X163224735Y-98014847D01*
X162899343Y-98149296D01*
X162650171Y-98398033D01*
X162515154Y-98723190D01*
X162514847Y-99075265D01*
X158626669Y-99075265D01*
X158401967Y-98850171D01*
X158076810Y-98715154D01*
X157724735Y-98714847D01*
X157399343Y-98849296D01*
X157150171Y-99098033D01*
X157015154Y-99423190D01*
X157014847Y-99775265D01*
X156784847Y-99775265D01*
X156785153Y-99424735D01*
X156650704Y-99099343D01*
X156401967Y-98850171D01*
X156076810Y-98715154D01*
X155724735Y-98714847D01*
X155399343Y-98849296D01*
X155150171Y-99098033D01*
X155015154Y-99423190D01*
X155014847Y-99775265D01*
X154784847Y-99775265D01*
X154785153Y-99424735D01*
X154650704Y-99099343D01*
X154401967Y-98850171D01*
X154076810Y-98715154D01*
X153724735Y-98714847D01*
X153399343Y-98849296D01*
X153150171Y-99098033D01*
X153015154Y-99423190D01*
X153014847Y-99775265D01*
X151984847Y-99775265D01*
X151985153Y-99424735D01*
X151850704Y-99099343D01*
X151601967Y-98850171D01*
X151276810Y-98715154D01*
X150924735Y-98714847D01*
X150599343Y-98849296D01*
X150350171Y-99098033D01*
X150215154Y-99423190D01*
X150214847Y-99775265D01*
X149102365Y-99775265D01*
X150842506Y-98035125D01*
X150885167Y-98035162D01*
X151228943Y-97893117D01*
X151347000Y-97775265D01*
X153014847Y-97775265D01*
X153149296Y-98100657D01*
X153398033Y-98349829D01*
X153723190Y-98484846D01*
X154075265Y-98485153D01*
X154400657Y-98350704D01*
X154649829Y-98101967D01*
X154784846Y-97776810D01*
X154784847Y-97775265D01*
X155014847Y-97775265D01*
X155149296Y-98100657D01*
X155398033Y-98349829D01*
X155723190Y-98484846D01*
X156075265Y-98485153D01*
X156400657Y-98350704D01*
X156649829Y-98101967D01*
X156784846Y-97776810D01*
X156784847Y-97775265D01*
X157014847Y-97775265D01*
X157149296Y-98100657D01*
X157398033Y-98349829D01*
X157723190Y-98484846D01*
X158075265Y-98485153D01*
X158400657Y-98350704D01*
X158649829Y-98101967D01*
X158784846Y-97776810D01*
X158785153Y-97424735D01*
X158650704Y-97099343D01*
X158626669Y-97075265D01*
X162514847Y-97075265D01*
X162649296Y-97400657D01*
X162898033Y-97649829D01*
X163223190Y-97784846D01*
X163575265Y-97785153D01*
X163900657Y-97650704D01*
X164149829Y-97401967D01*
X164284846Y-97076810D01*
X164285153Y-96724735D01*
X164150704Y-96399343D01*
X163901967Y-96150171D01*
X163576810Y-96015154D01*
X163224735Y-96014847D01*
X162899343Y-96149296D01*
X162650171Y-96398033D01*
X162515154Y-96723190D01*
X162514847Y-97075265D01*
X158626669Y-97075265D01*
X158401967Y-96850171D01*
X158076810Y-96715154D01*
X157724735Y-96714847D01*
X157399343Y-96849296D01*
X157150171Y-97098033D01*
X157015154Y-97423190D01*
X157014847Y-97775265D01*
X156784847Y-97775265D01*
X156785153Y-97424735D01*
X156650704Y-97099343D01*
X156401967Y-96850171D01*
X156076810Y-96715154D01*
X155724735Y-96714847D01*
X155399343Y-96849296D01*
X155150171Y-97098033D01*
X155015154Y-97423190D01*
X155014847Y-97775265D01*
X154784847Y-97775265D01*
X154785153Y-97424735D01*
X154650704Y-97099343D01*
X154401967Y-96850171D01*
X154076810Y-96715154D01*
X153724735Y-96714847D01*
X153399343Y-96849296D01*
X153150171Y-97098033D01*
X153015154Y-97423190D01*
X153014847Y-97775265D01*
X151347000Y-97775265D01*
X151492192Y-97630327D01*
X151634838Y-97286799D01*
X151635162Y-96914833D01*
X151493117Y-96571057D01*
X151230327Y-96307808D01*
X150886799Y-96165162D01*
X150514833Y-96164838D01*
X150171057Y-96306883D01*
X149907808Y-96569673D01*
X149765162Y-96913201D01*
X149765124Y-96957245D01*
X146217369Y-100505001D01*
X144415118Y-100505001D01*
X144415162Y-100454833D01*
X144273117Y-100111057D01*
X144172290Y-100010054D01*
X144272192Y-99910327D01*
X144414838Y-99566799D01*
X144415162Y-99194833D01*
X144273117Y-98851057D01*
X144152290Y-98730019D01*
X144272192Y-98610327D01*
X144414838Y-98266799D01*
X144415162Y-97894833D01*
X144273117Y-97551057D01*
X144222162Y-97500013D01*
X144419202Y-97303317D01*
X144561848Y-96959789D01*
X144562172Y-96587823D01*
X144420127Y-96244047D01*
X144157337Y-95980798D01*
X143813809Y-95838152D01*
X143441843Y-95837828D01*
X143098067Y-95979873D01*
X142834818Y-96242663D01*
X142692172Y-96586191D01*
X142691848Y-96958157D01*
X142833893Y-97301933D01*
X142884848Y-97352977D01*
X142687808Y-97549673D01*
X142545162Y-97893201D01*
X142544838Y-98265167D01*
X142686883Y-98608943D01*
X142807710Y-98729981D01*
X142687808Y-98849673D01*
X142545162Y-99193201D01*
X142544838Y-99565167D01*
X142686883Y-99908943D01*
X142787710Y-100009946D01*
X142687808Y-100109673D01*
X142545162Y-100453201D01*
X142545010Y-100627407D01*
X142394183Y-100728186D01*
X142195160Y-100927209D01*
X142195162Y-100924833D01*
X142053117Y-100581057D01*
X141790327Y-100317808D01*
X141446799Y-100175162D01*
X141074833Y-100174838D01*
X140731057Y-100316883D01*
X140467808Y-100579673D01*
X140325162Y-100923201D01*
X140325062Y-101038000D01*
X137403284Y-101038000D01*
X137111680Y-101096003D01*
X136864469Y-101261184D01*
X136042344Y-102083310D01*
X135460777Y-102083310D01*
X135433117Y-102016368D01*
X135170327Y-101753119D01*
X134826799Y-101610473D01*
X134454833Y-101610149D01*
X134111057Y-101752194D01*
X133935287Y-101927657D01*
X128428815Y-96421185D01*
X128391129Y-96396004D01*
X128181605Y-96256004D01*
X127890000Y-96198000D01*
X126610466Y-96198000D01*
X126580327Y-96167808D01*
X126236799Y-96025162D01*
X125864833Y-96024838D01*
X125521057Y-96166883D01*
X125257808Y-96429673D01*
X125115162Y-96773201D01*
X125114838Y-97145167D01*
X125256883Y-97488943D01*
X125519673Y-97752192D01*
X125863201Y-97894838D01*
X126235167Y-97895162D01*
X126578943Y-97753117D01*
X126610114Y-97722000D01*
X127574370Y-97722000D01*
X132834956Y-102982586D01*
X132799444Y-103018037D01*
X132656798Y-103361565D01*
X132656474Y-103733531D01*
X132798519Y-104077307D01*
X133061309Y-104340556D01*
X133404837Y-104483202D01*
X133776803Y-104483526D01*
X134120579Y-104341481D01*
X134157247Y-104304877D01*
X134218186Y-104365816D01*
X134465396Y-104530997D01*
X134757001Y-104589001D01*
X135085211Y-104589001D01*
X135075162Y-104613201D01*
X135074838Y-104985167D01*
X135216883Y-105328943D01*
X135479673Y-105592192D01*
X135823201Y-105734838D01*
X136195167Y-105735162D01*
X136538943Y-105593117D01*
X136802192Y-105330327D01*
X136944838Y-104986799D01*
X136945162Y-104614833D01*
X136934488Y-104589001D01*
X137190961Y-104589001D01*
X137482566Y-104530997D01*
X137729776Y-104365816D01*
X138720593Y-103374999D01*
X142544882Y-103374999D01*
X142544838Y-103425167D01*
X142686883Y-103768943D01*
X142782710Y-103864937D01*
X142687808Y-103959673D01*
X142545162Y-104303201D01*
X142544838Y-104675167D01*
X142686883Y-105018943D01*
X142835729Y-105168049D01*
X142687808Y-105315713D01*
X142545162Y-105659241D01*
X142544838Y-106031207D01*
X142686883Y-106374983D01*
X142949673Y-106638232D01*
X143293201Y-106780878D01*
X143665167Y-106781202D01*
X144008943Y-106639157D01*
X144272192Y-106376367D01*
X144414838Y-106032839D01*
X144415162Y-105660873D01*
X144273117Y-105317097D01*
X144124271Y-105167991D01*
X144272192Y-105020327D01*
X144414838Y-104676799D01*
X144415162Y-104304833D01*
X144273117Y-103961057D01*
X144177290Y-103865063D01*
X144272192Y-103770327D01*
X144414838Y-103426799D01*
X144414883Y-103374999D01*
X147755331Y-103374999D01*
X150985484Y-106605152D01*
X150624833Y-106604838D01*
X150281057Y-106746883D01*
X150170037Y-106857710D01*
X150060327Y-106747808D01*
X149716799Y-106605162D01*
X149344833Y-106604838D01*
X149001057Y-106746883D01*
X148737808Y-107009673D01*
X148595162Y-107353201D01*
X148594838Y-107725167D01*
X148736883Y-108068943D01*
X148999673Y-108332192D01*
X149343201Y-108474838D01*
X149715167Y-108475162D01*
X150058943Y-108333117D01*
X150169963Y-108222290D01*
X150279673Y-108332192D01*
X150623201Y-108474838D01*
X150995167Y-108475162D01*
X151338943Y-108333117D01*
X151434937Y-108237290D01*
X151529673Y-108332192D01*
X151873201Y-108474838D01*
X151975198Y-108474927D01*
X151999003Y-108594604D01*
X152069427Y-108700000D01*
X152164184Y-108841814D01*
X152568000Y-109245631D01*
X152568000Y-110158382D01*
X152279946Y-110350853D01*
X152060000Y-110680026D01*
X151840054Y-110350853D01*
X151358285Y-110028946D01*
X150790000Y-109915907D01*
X150221715Y-110028946D01*
X149739946Y-110350853D01*
X149520000Y-110680026D01*
X149300054Y-110350853D01*
X148818285Y-110028946D01*
X148250000Y-109915907D01*
X147681715Y-110028946D01*
X147199946Y-110350853D01*
X146980000Y-110680026D01*
X146760054Y-110350853D01*
X146278285Y-110028946D01*
X145710000Y-109915907D01*
X145141715Y-110028946D01*
X144659946Y-110350853D01*
X144440000Y-110680026D01*
X144220054Y-110350853D01*
X143738285Y-110028946D01*
X143170000Y-109915907D01*
X142601715Y-110028946D01*
X142119946Y-110350853D01*
X141900000Y-110680026D01*
X141680054Y-110350853D01*
X141198285Y-110028946D01*
X140630000Y-109915907D01*
X140061715Y-110028946D01*
X139579946Y-110350853D01*
X139360000Y-110680026D01*
X139140054Y-110350853D01*
X138658285Y-110028946D01*
X138090000Y-109915907D01*
X137521715Y-110028946D01*
X137039946Y-110350853D01*
X136820000Y-110680026D01*
X136600054Y-110350853D01*
X136118285Y-110028946D01*
X135550000Y-109915907D01*
X134981715Y-110028946D01*
X134499946Y-110350853D01*
X134280000Y-110680026D01*
X134060054Y-110350853D01*
X133578285Y-110028946D01*
X133010000Y-109915907D01*
X132441715Y-110028946D01*
X131959946Y-110350853D01*
X131740000Y-110680026D01*
X131520054Y-110350853D01*
X131038285Y-110028946D01*
X130470000Y-109915907D01*
X129901715Y-110028946D01*
X129419946Y-110350853D01*
X129200000Y-110680026D01*
X128980054Y-110350853D01*
X128498285Y-110028946D01*
X127930000Y-109915907D01*
X127361715Y-110028946D01*
X126879946Y-110350853D01*
X126660000Y-110680026D01*
X126440054Y-110350853D01*
X125958285Y-110028946D01*
X125390000Y-109915907D01*
X124821715Y-110028946D01*
X124339946Y-110350853D01*
X124120000Y-110680026D01*
X123900054Y-110350853D01*
X123418285Y-110028946D01*
X122850000Y-109915907D01*
X122281715Y-110028946D01*
X121799946Y-110350853D01*
X121580000Y-110680026D01*
X121360054Y-110350853D01*
X120878285Y-110028946D01*
X120310000Y-109915907D01*
X119741715Y-110028946D01*
X119259946Y-110350853D01*
X119040000Y-110680026D01*
X118820054Y-110350853D01*
X118338285Y-110028946D01*
X117770000Y-109915907D01*
X117201715Y-110028946D01*
X116719946Y-110350853D01*
X116500000Y-110680026D01*
X116280054Y-110350853D01*
X115798285Y-110028946D01*
X115230000Y-109915907D01*
X115061956Y-109949333D01*
X115300657Y-109850704D01*
X115549829Y-109601967D01*
X115684846Y-109276810D01*
X115685153Y-108924735D01*
X115550704Y-108599343D01*
X115436680Y-108485119D01*
X115475265Y-108485153D01*
X115800657Y-108350704D01*
X116049829Y-108101967D01*
X116184846Y-107776810D01*
X116185153Y-107424735D01*
X116050704Y-107099343D01*
X115986738Y-107035265D01*
X122794847Y-107035265D01*
X122929296Y-107360657D01*
X123178033Y-107609829D01*
X123503190Y-107744846D01*
X123855265Y-107745153D01*
X124180657Y-107610704D01*
X124429829Y-107361967D01*
X124564846Y-107036810D01*
X124565153Y-106684735D01*
X124430704Y-106359343D01*
X124181967Y-106110171D01*
X123856810Y-105975154D01*
X123504735Y-105974847D01*
X123179343Y-106109296D01*
X122930171Y-106358033D01*
X122795154Y-106683190D01*
X122794847Y-107035265D01*
X115986738Y-107035265D01*
X115801967Y-106850171D01*
X115476810Y-106715154D01*
X115124735Y-106714847D01*
X114799343Y-106849296D01*
X114550171Y-107098033D01*
X114415154Y-107423190D01*
X114414847Y-107775265D01*
X114549296Y-108100657D01*
X114663320Y-108214881D01*
X114624735Y-108214847D01*
X114299343Y-108349296D01*
X114050171Y-108598033D01*
X113915154Y-108923190D01*
X113914847Y-109275265D01*
X114049296Y-109600657D01*
X114298033Y-109849829D01*
X114623190Y-109984846D01*
X114882285Y-109985072D01*
X114661715Y-110028946D01*
X114179946Y-110350853D01*
X113858039Y-110832622D01*
X113745000Y-111400907D01*
X113745000Y-111459093D01*
X113858039Y-112027378D01*
X113980063Y-112210000D01*
X112710000Y-112210000D01*
X112710000Y-106048000D01*
X112655954Y-105776295D01*
X112502046Y-105545954D01*
X112271705Y-105392046D01*
X112129921Y-105363843D01*
X112130363Y-104224320D01*
X112224838Y-103996799D01*
X112225162Y-103624833D01*
X112159190Y-103465167D01*
X112844838Y-103465167D01*
X112986883Y-103808943D01*
X113249673Y-104072192D01*
X113593201Y-104214838D01*
X113965167Y-104215162D01*
X114308943Y-104073117D01*
X114507140Y-103875265D01*
X115514847Y-103875265D01*
X115649296Y-104200657D01*
X115898033Y-104449829D01*
X116223190Y-104584846D01*
X116575265Y-104585153D01*
X116785323Y-104498359D01*
X116826883Y-104598943D01*
X117089673Y-104862192D01*
X117433201Y-105004838D01*
X117805167Y-105005162D01*
X118148943Y-104863117D01*
X118412192Y-104600327D01*
X118554838Y-104256799D01*
X118555162Y-103884833D01*
X118413117Y-103541057D01*
X118150327Y-103277808D01*
X117806799Y-103135162D01*
X117434833Y-103134838D01*
X117169372Y-103244524D01*
X117150704Y-103199343D01*
X116901967Y-102950171D01*
X116576810Y-102815154D01*
X116224735Y-102814847D01*
X115899343Y-102949296D01*
X115650171Y-103198033D01*
X115515154Y-103523190D01*
X115514847Y-103875265D01*
X114507140Y-103875265D01*
X114572192Y-103810327D01*
X114714838Y-103466799D01*
X114715162Y-103094833D01*
X114573117Y-102751057D01*
X114310327Y-102487808D01*
X113966799Y-102345162D01*
X113594833Y-102344838D01*
X113251057Y-102486883D01*
X112987808Y-102749673D01*
X112845162Y-103093201D01*
X112844838Y-103465167D01*
X112159190Y-103465167D01*
X112130684Y-103396177D01*
X112131157Y-102175265D01*
X119954847Y-102175265D01*
X120089189Y-102500398D01*
X119955154Y-102823190D01*
X119954847Y-103175265D01*
X120089189Y-103500398D01*
X119955154Y-103823190D01*
X119954847Y-104175265D01*
X120089296Y-104500657D01*
X120338033Y-104749829D01*
X120663190Y-104884846D01*
X121015265Y-104885153D01*
X121340398Y-104750811D01*
X121663190Y-104884846D01*
X122015265Y-104885153D01*
X122340398Y-104750811D01*
X122663190Y-104884846D01*
X123015265Y-104885153D01*
X123340657Y-104750704D01*
X123589829Y-104501967D01*
X123613414Y-104445167D01*
X126274838Y-104445167D01*
X126416883Y-104788943D01*
X126679673Y-105052192D01*
X127023201Y-105194838D01*
X127395167Y-105195162D01*
X127738943Y-105053117D01*
X128002192Y-104790327D01*
X128144838Y-104446799D01*
X128145162Y-104074833D01*
X128003117Y-103731057D01*
X127740327Y-103467808D01*
X127396799Y-103325162D01*
X127024833Y-103324838D01*
X126681057Y-103466883D01*
X126417808Y-103729673D01*
X126275162Y-104073201D01*
X126274838Y-104445167D01*
X123613414Y-104445167D01*
X123724846Y-104176810D01*
X123725153Y-103824735D01*
X123590811Y-103499602D01*
X123724846Y-103176810D01*
X123725153Y-102824735D01*
X123590811Y-102499602D01*
X123724846Y-102176810D01*
X123725153Y-101824735D01*
X123590704Y-101499343D01*
X123341967Y-101250171D01*
X123016810Y-101115154D01*
X122664735Y-101114847D01*
X122339602Y-101249189D01*
X122016810Y-101115154D01*
X121664735Y-101114847D01*
X121339602Y-101249189D01*
X121016810Y-101115154D01*
X120664735Y-101114847D01*
X120339343Y-101249296D01*
X120090171Y-101498033D01*
X119955154Y-101823190D01*
X119954847Y-102175265D01*
X112131157Y-102175265D01*
X112132066Y-99829673D01*
X112268943Y-99773117D01*
X112532192Y-99510327D01*
X112674838Y-99166799D01*
X112674970Y-99015167D01*
X112844838Y-99015167D01*
X112986883Y-99358943D01*
X113249673Y-99622192D01*
X113593201Y-99764838D01*
X113965167Y-99765162D01*
X114308943Y-99623117D01*
X114316906Y-99615167D01*
X119424838Y-99615167D01*
X119566883Y-99958943D01*
X119829673Y-100222192D01*
X120173201Y-100364838D01*
X120545167Y-100365162D01*
X120888943Y-100223117D01*
X121152192Y-99960327D01*
X121294838Y-99616799D01*
X121295162Y-99244833D01*
X121189106Y-98988157D01*
X121551838Y-98988157D01*
X121693883Y-99331933D01*
X121956673Y-99595182D01*
X122300201Y-99737828D01*
X122672167Y-99738152D01*
X123015943Y-99596107D01*
X123023833Y-99588230D01*
X125306222Y-99588230D01*
X125448267Y-99932006D01*
X125711057Y-100195255D01*
X126054585Y-100337901D01*
X126426551Y-100338225D01*
X126770327Y-100196180D01*
X127033576Y-99933390D01*
X127176222Y-99589862D01*
X127176546Y-99217896D01*
X127034501Y-98874120D01*
X126771711Y-98610871D01*
X126428183Y-98468225D01*
X126056217Y-98467901D01*
X125712441Y-98609946D01*
X125449192Y-98872736D01*
X125306546Y-99216264D01*
X125306222Y-99588230D01*
X123023833Y-99588230D01*
X123279192Y-99333317D01*
X123421838Y-98989789D01*
X123422162Y-98617823D01*
X123280117Y-98274047D01*
X123017327Y-98010798D01*
X122673799Y-97868152D01*
X122301833Y-97867828D01*
X121958057Y-98009873D01*
X121694808Y-98272663D01*
X121552162Y-98616191D01*
X121551838Y-98988157D01*
X121189106Y-98988157D01*
X121153117Y-98901057D01*
X120890327Y-98637808D01*
X120546799Y-98495162D01*
X120174833Y-98494838D01*
X119831057Y-98636883D01*
X119567808Y-98899673D01*
X119425162Y-99243201D01*
X119424838Y-99615167D01*
X114316906Y-99615167D01*
X114572192Y-99360327D01*
X114714838Y-99016799D01*
X114715162Y-98644833D01*
X114573117Y-98301057D01*
X114310327Y-98037808D01*
X113966799Y-97895162D01*
X113594833Y-97894838D01*
X113251057Y-98036883D01*
X112987808Y-98299673D01*
X112845162Y-98643201D01*
X112844838Y-99015167D01*
X112674970Y-99015167D01*
X112675162Y-98794833D01*
X112533117Y-98451057D01*
X112270327Y-98187808D01*
X112132725Y-98130670D01*
X112133986Y-94875265D01*
X118514847Y-94875265D01*
X118649296Y-95200657D01*
X118898033Y-95449829D01*
X119223190Y-95584846D01*
X119575265Y-95585153D01*
X119900657Y-95450704D01*
X120149829Y-95201967D01*
X120264765Y-94925169D01*
X132264838Y-94925169D01*
X132406883Y-95268945D01*
X132669673Y-95532194D01*
X133013201Y-95674840D01*
X133385167Y-95675164D01*
X133728943Y-95533119D01*
X133977328Y-95285167D01*
X135564838Y-95285167D01*
X135706883Y-95628943D01*
X135969673Y-95892192D01*
X136313201Y-96034838D01*
X136685167Y-96035162D01*
X137028943Y-95893117D01*
X137292192Y-95630327D01*
X137434838Y-95286799D01*
X137435162Y-94914833D01*
X137293117Y-94571057D01*
X137030327Y-94307808D01*
X136686799Y-94165162D01*
X136314833Y-94164838D01*
X135971057Y-94306883D01*
X135707808Y-94569673D01*
X135565162Y-94913201D01*
X135564838Y-95285167D01*
X133977328Y-95285167D01*
X133992192Y-95270329D01*
X134134838Y-94926801D01*
X134135162Y-94554835D01*
X133993117Y-94211059D01*
X133730327Y-93947810D01*
X133386799Y-93805164D01*
X133014833Y-93804840D01*
X132671057Y-93946885D01*
X132407808Y-94209675D01*
X132265162Y-94553203D01*
X132264838Y-94925169D01*
X120264765Y-94925169D01*
X120284846Y-94876810D01*
X120285153Y-94524735D01*
X120150704Y-94199343D01*
X119901967Y-93950171D01*
X119576810Y-93815154D01*
X119224735Y-93814847D01*
X118899343Y-93949296D01*
X118650171Y-94198033D01*
X118515154Y-94523190D01*
X118514847Y-94875265D01*
X112133986Y-94875265D01*
X112134084Y-94623329D01*
X112271705Y-94595954D01*
X112502046Y-94442046D01*
X112655954Y-94211705D01*
X112710000Y-93940000D01*
X112710000Y-92175265D01*
X127314847Y-92175265D01*
X127449296Y-92500657D01*
X127698033Y-92749829D01*
X128023190Y-92884846D01*
X128375265Y-92885153D01*
X128700657Y-92750704D01*
X128949829Y-92501967D01*
X129084846Y-92176810D01*
X129085153Y-91824735D01*
X128950704Y-91499343D01*
X128701967Y-91250171D01*
X128376810Y-91115154D01*
X128024735Y-91114847D01*
X127699343Y-91249296D01*
X127450171Y-91498033D01*
X127315154Y-91823190D01*
X127314847Y-92175265D01*
X112710000Y-92175265D01*
X112710000Y-87790000D01*
X113980063Y-87790000D01*
X113858039Y-87972622D01*
M02*
