G04 #@! TF.FileFunction,Legend,Bot*
%FSLAX46Y46*%
G04 Gerber Fmt 4.6, Leading zero omitted, Abs format (unit mm)*
G04 Created by KiCad (PCBNEW 4.0.4-stable) date 02/22/17 16:36:32*
%MOMM*%
%LPD*%
G01*
G04 APERTURE LIST*
%ADD10C,0.100000*%
%ADD11C,0.200000*%
%ADD12C,0.300000*%
%ADD13C,0.120000*%
%ADD14C,0.150000*%
G04 APERTURE END LIST*
D10*
X163650000Y-109480953D02*
X163673810Y-109528572D01*
X163673810Y-109600000D01*
X163650000Y-109671429D01*
X163602381Y-109719048D01*
X163554762Y-109742857D01*
X163459524Y-109766667D01*
X163388095Y-109766667D01*
X163292857Y-109742857D01*
X163245238Y-109719048D01*
X163197619Y-109671429D01*
X163173810Y-109600000D01*
X163173810Y-109552381D01*
X163197619Y-109480953D01*
X163221429Y-109457143D01*
X163388095Y-109457143D01*
X163388095Y-109552381D01*
X163173810Y-109242857D02*
X163673810Y-109242857D01*
X163173810Y-108957143D01*
X163673810Y-108957143D01*
X163173810Y-108719047D02*
X163673810Y-108719047D01*
X163673810Y-108600000D01*
X163650000Y-108528571D01*
X163602381Y-108480952D01*
X163554762Y-108457143D01*
X163459524Y-108433333D01*
X163388095Y-108433333D01*
X163292857Y-108457143D01*
X163245238Y-108480952D01*
X163197619Y-108528571D01*
X163173810Y-108600000D01*
X163173810Y-108719047D01*
X160673810Y-109838094D02*
X161173810Y-109838094D01*
X161173810Y-109504761D02*
X161173810Y-109409523D01*
X161150000Y-109361904D01*
X161102381Y-109314285D01*
X161007143Y-109290476D01*
X160840476Y-109290476D01*
X160745238Y-109314285D01*
X160697619Y-109361904D01*
X160673810Y-109409523D01*
X160673810Y-109504761D01*
X160697619Y-109552380D01*
X160745238Y-109599999D01*
X160840476Y-109623809D01*
X161007143Y-109623809D01*
X161102381Y-109599999D01*
X161150000Y-109552380D01*
X161173810Y-109504761D01*
X161126190Y-109099999D02*
X161150000Y-109076189D01*
X161173810Y-109028570D01*
X161173810Y-108909523D01*
X161150000Y-108861904D01*
X161126190Y-108838094D01*
X161078571Y-108814285D01*
X161030952Y-108814285D01*
X160959524Y-108838094D01*
X160673810Y-109123808D01*
X160673810Y-108814285D01*
X161173810Y-108647618D02*
X161173810Y-108338095D01*
X160983333Y-108504761D01*
X160983333Y-108433333D01*
X160959524Y-108385714D01*
X160935714Y-108361904D01*
X160888095Y-108338095D01*
X160769048Y-108338095D01*
X160721429Y-108361904D01*
X160697619Y-108385714D01*
X160673810Y-108433333D01*
X160673810Y-108576190D01*
X160697619Y-108623809D01*
X160721429Y-108647618D01*
X158073810Y-109838094D02*
X158573810Y-109838094D01*
X158573810Y-109504761D02*
X158573810Y-109409523D01*
X158550000Y-109361904D01*
X158502381Y-109314285D01*
X158407143Y-109290476D01*
X158240476Y-109290476D01*
X158145238Y-109314285D01*
X158097619Y-109361904D01*
X158073810Y-109409523D01*
X158073810Y-109504761D01*
X158097619Y-109552380D01*
X158145238Y-109599999D01*
X158240476Y-109623809D01*
X158407143Y-109623809D01*
X158502381Y-109599999D01*
X158550000Y-109552380D01*
X158573810Y-109504761D01*
X158526190Y-109099999D02*
X158550000Y-109076189D01*
X158573810Y-109028570D01*
X158573810Y-108909523D01*
X158550000Y-108861904D01*
X158526190Y-108838094D01*
X158478571Y-108814285D01*
X158430952Y-108814285D01*
X158359524Y-108838094D01*
X158073810Y-109123808D01*
X158073810Y-108814285D01*
X158526190Y-108623809D02*
X158550000Y-108599999D01*
X158573810Y-108552380D01*
X158573810Y-108433333D01*
X158550000Y-108385714D01*
X158526190Y-108361904D01*
X158478571Y-108338095D01*
X158430952Y-108338095D01*
X158359524Y-108361904D01*
X158073810Y-108647618D01*
X158073810Y-108338095D01*
X156173810Y-109869047D02*
X156173810Y-109583333D01*
X155673810Y-109726190D02*
X156173810Y-109726190D01*
X156173810Y-109464285D02*
X155673810Y-109130952D01*
X156173810Y-109130952D02*
X155673810Y-109464285D01*
X155673810Y-108940476D02*
X156173810Y-108940476D01*
X156173810Y-108821429D01*
X156150000Y-108750000D01*
X156102381Y-108702381D01*
X156054762Y-108678572D01*
X155959524Y-108654762D01*
X155888095Y-108654762D01*
X155792857Y-108678572D01*
X155745238Y-108702381D01*
X155697619Y-108750000D01*
X155673810Y-108821429D01*
X155673810Y-108940476D01*
X156173810Y-108345238D02*
X156173810Y-108297619D01*
X156150000Y-108250000D01*
X156126190Y-108226191D01*
X156078571Y-108202381D01*
X155983333Y-108178572D01*
X155864286Y-108178572D01*
X155769048Y-108202381D01*
X155721429Y-108226191D01*
X155697619Y-108250000D01*
X155673810Y-108297619D01*
X155673810Y-108345238D01*
X155697619Y-108392857D01*
X155721429Y-108416667D01*
X155769048Y-108440476D01*
X155864286Y-108464286D01*
X155983333Y-108464286D01*
X156078571Y-108440476D01*
X156126190Y-108416667D01*
X156150000Y-108392857D01*
X156173810Y-108345238D01*
X153073810Y-109471428D02*
X153311905Y-109638095D01*
X153073810Y-109757142D02*
X153573810Y-109757142D01*
X153573810Y-109566666D01*
X153550000Y-109519047D01*
X153526190Y-109495238D01*
X153478571Y-109471428D01*
X153407143Y-109471428D01*
X153359524Y-109495238D01*
X153335714Y-109519047D01*
X153311905Y-109566666D01*
X153311905Y-109757142D01*
X153573810Y-109304761D02*
X153073810Y-108971428D01*
X153573810Y-108971428D02*
X153073810Y-109304761D01*
X153073810Y-108780952D02*
X153573810Y-108780952D01*
X153573810Y-108661905D01*
X153550000Y-108590476D01*
X153502381Y-108542857D01*
X153454762Y-108519048D01*
X153359524Y-108495238D01*
X153288095Y-108495238D01*
X153192857Y-108519048D01*
X153145238Y-108542857D01*
X153097619Y-108590476D01*
X153073810Y-108661905D01*
X153073810Y-108780952D01*
X153573810Y-108185714D02*
X153573810Y-108138095D01*
X153550000Y-108090476D01*
X153526190Y-108066667D01*
X153478571Y-108042857D01*
X153383333Y-108019048D01*
X153264286Y-108019048D01*
X153169048Y-108042857D01*
X153121429Y-108066667D01*
X153097619Y-108090476D01*
X153073810Y-108138095D01*
X153073810Y-108185714D01*
X153097619Y-108233333D01*
X153121429Y-108257143D01*
X153169048Y-108280952D01*
X153264286Y-108304762D01*
X153383333Y-108304762D01*
X153478571Y-108280952D01*
X153526190Y-108257143D01*
X153550000Y-108233333D01*
X153573810Y-108185714D01*
X150573810Y-109738094D02*
X151073810Y-109738094D01*
X151073810Y-109404761D02*
X151073810Y-109309523D01*
X151050000Y-109261904D01*
X151002381Y-109214285D01*
X150907143Y-109190476D01*
X150740476Y-109190476D01*
X150645238Y-109214285D01*
X150597619Y-109261904D01*
X150573810Y-109309523D01*
X150573810Y-109404761D01*
X150597619Y-109452380D01*
X150645238Y-109499999D01*
X150740476Y-109523809D01*
X150907143Y-109523809D01*
X151002381Y-109499999D01*
X151050000Y-109452380D01*
X151073810Y-109404761D01*
X151026190Y-108999999D02*
X151050000Y-108976189D01*
X151073810Y-108928570D01*
X151073810Y-108809523D01*
X151050000Y-108761904D01*
X151026190Y-108738094D01*
X150978571Y-108714285D01*
X150930952Y-108714285D01*
X150859524Y-108738094D01*
X150573810Y-109023808D01*
X150573810Y-108714285D01*
X150573810Y-108238095D02*
X150573810Y-108523809D01*
X150573810Y-108380952D02*
X151073810Y-108380952D01*
X151002381Y-108428571D01*
X150954762Y-108476190D01*
X150930952Y-108523809D01*
X148450000Y-109480953D02*
X148473810Y-109528572D01*
X148473810Y-109600000D01*
X148450000Y-109671429D01*
X148402381Y-109719048D01*
X148354762Y-109742857D01*
X148259524Y-109766667D01*
X148188095Y-109766667D01*
X148092857Y-109742857D01*
X148045238Y-109719048D01*
X147997619Y-109671429D01*
X147973810Y-109600000D01*
X147973810Y-109552381D01*
X147997619Y-109480953D01*
X148021429Y-109457143D01*
X148188095Y-109457143D01*
X148188095Y-109552381D01*
X147973810Y-109242857D02*
X148473810Y-109242857D01*
X147973810Y-108957143D01*
X148473810Y-108957143D01*
X147973810Y-108719047D02*
X148473810Y-108719047D01*
X148473810Y-108600000D01*
X148450000Y-108528571D01*
X148402381Y-108480952D01*
X148354762Y-108457143D01*
X148259524Y-108433333D01*
X148188095Y-108433333D01*
X148092857Y-108457143D01*
X148045238Y-108480952D01*
X147997619Y-108528571D01*
X147973810Y-108600000D01*
X147973810Y-108719047D01*
X145473810Y-109738094D02*
X145973810Y-109738094D01*
X145973810Y-109404761D02*
X145973810Y-109309523D01*
X145950000Y-109261904D01*
X145902381Y-109214285D01*
X145807143Y-109190476D01*
X145640476Y-109190476D01*
X145545238Y-109214285D01*
X145497619Y-109261904D01*
X145473810Y-109309523D01*
X145473810Y-109404761D01*
X145497619Y-109452380D01*
X145545238Y-109499999D01*
X145640476Y-109523809D01*
X145807143Y-109523809D01*
X145902381Y-109499999D01*
X145950000Y-109452380D01*
X145973810Y-109404761D01*
X145473810Y-108714285D02*
X145473810Y-108999999D01*
X145473810Y-108857142D02*
X145973810Y-108857142D01*
X145902381Y-108904761D01*
X145854762Y-108952380D01*
X145830952Y-108999999D01*
X145473810Y-108476190D02*
X145473810Y-108380952D01*
X145497619Y-108333333D01*
X145521429Y-108309523D01*
X145592857Y-108261904D01*
X145688095Y-108238095D01*
X145878571Y-108238095D01*
X145926190Y-108261904D01*
X145950000Y-108285714D01*
X145973810Y-108333333D01*
X145973810Y-108428571D01*
X145950000Y-108476190D01*
X145926190Y-108499999D01*
X145878571Y-108523809D01*
X145759524Y-108523809D01*
X145711905Y-108499999D01*
X145688095Y-108476190D01*
X145664286Y-108428571D01*
X145664286Y-108333333D01*
X145688095Y-108285714D01*
X145711905Y-108261904D01*
X145759524Y-108238095D01*
X142873810Y-109738094D02*
X143373810Y-109738094D01*
X143373810Y-109404761D02*
X143373810Y-109309523D01*
X143350000Y-109261904D01*
X143302381Y-109214285D01*
X143207143Y-109190476D01*
X143040476Y-109190476D01*
X142945238Y-109214285D01*
X142897619Y-109261904D01*
X142873810Y-109309523D01*
X142873810Y-109404761D01*
X142897619Y-109452380D01*
X142945238Y-109499999D01*
X143040476Y-109523809D01*
X143207143Y-109523809D01*
X143302381Y-109499999D01*
X143350000Y-109452380D01*
X143373810Y-109404761D01*
X142873810Y-108714285D02*
X142873810Y-108999999D01*
X142873810Y-108857142D02*
X143373810Y-108857142D01*
X143302381Y-108904761D01*
X143254762Y-108952380D01*
X143230952Y-108999999D01*
X143159524Y-108428571D02*
X143183333Y-108476190D01*
X143207143Y-108499999D01*
X143254762Y-108523809D01*
X143278571Y-108523809D01*
X143326190Y-108499999D01*
X143350000Y-108476190D01*
X143373810Y-108428571D01*
X143373810Y-108333333D01*
X143350000Y-108285714D01*
X143326190Y-108261904D01*
X143278571Y-108238095D01*
X143254762Y-108238095D01*
X143207143Y-108261904D01*
X143183333Y-108285714D01*
X143159524Y-108333333D01*
X143159524Y-108428571D01*
X143135714Y-108476190D01*
X143111905Y-108499999D01*
X143064286Y-108523809D01*
X142969048Y-108523809D01*
X142921429Y-108499999D01*
X142897619Y-108476190D01*
X142873810Y-108428571D01*
X142873810Y-108333333D01*
X142897619Y-108285714D01*
X142921429Y-108261904D01*
X142969048Y-108238095D01*
X143064286Y-108238095D01*
X143111905Y-108261904D01*
X143135714Y-108285714D01*
X143159524Y-108333333D01*
X140373810Y-109699999D02*
X140873810Y-109699999D01*
X140873810Y-109366666D02*
X140873810Y-109271428D01*
X140850000Y-109223809D01*
X140802381Y-109176190D01*
X140707143Y-109152381D01*
X140540476Y-109152381D01*
X140445238Y-109176190D01*
X140397619Y-109223809D01*
X140373810Y-109271428D01*
X140373810Y-109366666D01*
X140397619Y-109414285D01*
X140445238Y-109461904D01*
X140540476Y-109485714D01*
X140707143Y-109485714D01*
X140802381Y-109461904D01*
X140850000Y-109414285D01*
X140873810Y-109366666D01*
X140873810Y-108699999D02*
X140873810Y-108938094D01*
X140635714Y-108961904D01*
X140659524Y-108938094D01*
X140683333Y-108890475D01*
X140683333Y-108771428D01*
X140659524Y-108723809D01*
X140635714Y-108699999D01*
X140588095Y-108676190D01*
X140469048Y-108676190D01*
X140421429Y-108699999D01*
X140397619Y-108723809D01*
X140373810Y-108771428D01*
X140373810Y-108890475D01*
X140397619Y-108938094D01*
X140421429Y-108961904D01*
X137973810Y-109738094D02*
X138473810Y-109738094D01*
X138473810Y-109404761D02*
X138473810Y-109309523D01*
X138450000Y-109261904D01*
X138402381Y-109214285D01*
X138307143Y-109190476D01*
X138140476Y-109190476D01*
X138045238Y-109214285D01*
X137997619Y-109261904D01*
X137973810Y-109309523D01*
X137973810Y-109404761D01*
X137997619Y-109452380D01*
X138045238Y-109499999D01*
X138140476Y-109523809D01*
X138307143Y-109523809D01*
X138402381Y-109499999D01*
X138450000Y-109452380D01*
X138473810Y-109404761D01*
X137973810Y-108714285D02*
X137973810Y-108999999D01*
X137973810Y-108857142D02*
X138473810Y-108857142D01*
X138402381Y-108904761D01*
X138354762Y-108952380D01*
X138330952Y-108999999D01*
X138473810Y-108547618D02*
X138473810Y-108214285D01*
X137973810Y-108428571D01*
X135373810Y-109738094D02*
X135873810Y-109738094D01*
X135873810Y-109404761D02*
X135873810Y-109309523D01*
X135850000Y-109261904D01*
X135802381Y-109214285D01*
X135707143Y-109190476D01*
X135540476Y-109190476D01*
X135445238Y-109214285D01*
X135397619Y-109261904D01*
X135373810Y-109309523D01*
X135373810Y-109404761D01*
X135397619Y-109452380D01*
X135445238Y-109499999D01*
X135540476Y-109523809D01*
X135707143Y-109523809D01*
X135802381Y-109499999D01*
X135850000Y-109452380D01*
X135873810Y-109404761D01*
X135373810Y-108714285D02*
X135373810Y-108999999D01*
X135373810Y-108857142D02*
X135873810Y-108857142D01*
X135802381Y-108904761D01*
X135754762Y-108952380D01*
X135730952Y-108999999D01*
X135873810Y-108285714D02*
X135873810Y-108380952D01*
X135850000Y-108428571D01*
X135826190Y-108452380D01*
X135754762Y-108499999D01*
X135659524Y-108523809D01*
X135469048Y-108523809D01*
X135421429Y-108499999D01*
X135397619Y-108476190D01*
X135373810Y-108428571D01*
X135373810Y-108333333D01*
X135397619Y-108285714D01*
X135421429Y-108261904D01*
X135469048Y-108238095D01*
X135588095Y-108238095D01*
X135635714Y-108261904D01*
X135659524Y-108285714D01*
X135683333Y-108333333D01*
X135683333Y-108428571D01*
X135659524Y-108476190D01*
X135635714Y-108499999D01*
X135588095Y-108523809D01*
X132673810Y-109699999D02*
X133173810Y-109699999D01*
X133173810Y-109366666D02*
X133173810Y-109271428D01*
X133150000Y-109223809D01*
X133102381Y-109176190D01*
X133007143Y-109152381D01*
X132840476Y-109152381D01*
X132745238Y-109176190D01*
X132697619Y-109223809D01*
X132673810Y-109271428D01*
X132673810Y-109366666D01*
X132697619Y-109414285D01*
X132745238Y-109461904D01*
X132840476Y-109485714D01*
X133007143Y-109485714D01*
X133102381Y-109461904D01*
X133150000Y-109414285D01*
X133173810Y-109366666D01*
X133007143Y-108723809D02*
X132673810Y-108723809D01*
X133197619Y-108842856D02*
X132840476Y-108961904D01*
X132840476Y-108652380D01*
X130273810Y-109699999D02*
X130773810Y-109699999D01*
X130773810Y-109366666D02*
X130773810Y-109271428D01*
X130750000Y-109223809D01*
X130702381Y-109176190D01*
X130607143Y-109152381D01*
X130440476Y-109152381D01*
X130345238Y-109176190D01*
X130297619Y-109223809D01*
X130273810Y-109271428D01*
X130273810Y-109366666D01*
X130297619Y-109414285D01*
X130345238Y-109461904D01*
X130440476Y-109485714D01*
X130607143Y-109485714D01*
X130702381Y-109461904D01*
X130750000Y-109414285D01*
X130773810Y-109366666D01*
X130773810Y-108842856D02*
X130773810Y-108795237D01*
X130750000Y-108747618D01*
X130726190Y-108723809D01*
X130678571Y-108699999D01*
X130583333Y-108676190D01*
X130464286Y-108676190D01*
X130369048Y-108699999D01*
X130321429Y-108723809D01*
X130297619Y-108747618D01*
X130273810Y-108795237D01*
X130273810Y-108842856D01*
X130297619Y-108890475D01*
X130321429Y-108914285D01*
X130369048Y-108938094D01*
X130464286Y-108961904D01*
X130583333Y-108961904D01*
X130678571Y-108938094D01*
X130726190Y-108914285D01*
X130750000Y-108890475D01*
X130773810Y-108842856D01*
X127573810Y-109699999D02*
X128073810Y-109699999D01*
X128073810Y-109366666D02*
X128073810Y-109271428D01*
X128050000Y-109223809D01*
X128002381Y-109176190D01*
X127907143Y-109152381D01*
X127740476Y-109152381D01*
X127645238Y-109176190D01*
X127597619Y-109223809D01*
X127573810Y-109271428D01*
X127573810Y-109366666D01*
X127597619Y-109414285D01*
X127645238Y-109461904D01*
X127740476Y-109485714D01*
X127907143Y-109485714D01*
X128002381Y-109461904D01*
X128050000Y-109414285D01*
X128073810Y-109366666D01*
X128026190Y-108961904D02*
X128050000Y-108938094D01*
X128073810Y-108890475D01*
X128073810Y-108771428D01*
X128050000Y-108723809D01*
X128026190Y-108699999D01*
X127978571Y-108676190D01*
X127930952Y-108676190D01*
X127859524Y-108699999D01*
X127573810Y-108985713D01*
X127573810Y-108676190D01*
X124873810Y-109838094D02*
X125373810Y-109838094D01*
X125373810Y-109504761D02*
X125373810Y-109409523D01*
X125350000Y-109361904D01*
X125302381Y-109314285D01*
X125207143Y-109290476D01*
X125040476Y-109290476D01*
X124945238Y-109314285D01*
X124897619Y-109361904D01*
X124873810Y-109409523D01*
X124873810Y-109504761D01*
X124897619Y-109552380D01*
X124945238Y-109599999D01*
X125040476Y-109623809D01*
X125207143Y-109623809D01*
X125302381Y-109599999D01*
X125350000Y-109552380D01*
X125373810Y-109504761D01*
X124873810Y-108814285D02*
X124873810Y-109099999D01*
X124873810Y-108957142D02*
X125373810Y-108957142D01*
X125302381Y-109004761D01*
X125254762Y-109052380D01*
X125230952Y-109099999D01*
X125373810Y-108361904D02*
X125373810Y-108599999D01*
X125135714Y-108623809D01*
X125159524Y-108599999D01*
X125183333Y-108552380D01*
X125183333Y-108433333D01*
X125159524Y-108385714D01*
X125135714Y-108361904D01*
X125088095Y-108338095D01*
X124969048Y-108338095D01*
X124921429Y-108361904D01*
X124897619Y-108385714D01*
X124873810Y-108433333D01*
X124873810Y-108552380D01*
X124897619Y-108599999D01*
X124921429Y-108623809D01*
X122597619Y-109830952D02*
X122573810Y-109759523D01*
X122573810Y-109640476D01*
X122597619Y-109592857D01*
X122621429Y-109569047D01*
X122669048Y-109545238D01*
X122716667Y-109545238D01*
X122764286Y-109569047D01*
X122788095Y-109592857D01*
X122811905Y-109640476D01*
X122835714Y-109735714D01*
X122859524Y-109783333D01*
X122883333Y-109807142D01*
X122930952Y-109830952D01*
X122978571Y-109830952D01*
X123026190Y-109807142D01*
X123050000Y-109783333D01*
X123073810Y-109735714D01*
X123073810Y-109616666D01*
X123050000Y-109545238D01*
X122573810Y-109330952D02*
X123073810Y-109330952D01*
X123073810Y-109211905D01*
X123050000Y-109140476D01*
X123002381Y-109092857D01*
X122954762Y-109069048D01*
X122859524Y-109045238D01*
X122788095Y-109045238D01*
X122692857Y-109069048D01*
X122645238Y-109092857D01*
X122597619Y-109140476D01*
X122573810Y-109211905D01*
X122573810Y-109330952D01*
X122573810Y-108569048D02*
X122573810Y-108854762D01*
X122573810Y-108711905D02*
X123073810Y-108711905D01*
X123002381Y-108759524D01*
X122954762Y-108807143D01*
X122930952Y-108854762D01*
X119997619Y-109754762D02*
X119973810Y-109683333D01*
X119973810Y-109564286D01*
X119997619Y-109516667D01*
X120021429Y-109492857D01*
X120069048Y-109469048D01*
X120116667Y-109469048D01*
X120164286Y-109492857D01*
X120188095Y-109516667D01*
X120211905Y-109564286D01*
X120235714Y-109659524D01*
X120259524Y-109707143D01*
X120283333Y-109730952D01*
X120330952Y-109754762D01*
X120378571Y-109754762D01*
X120426190Y-109730952D01*
X120450000Y-109707143D01*
X120473810Y-109659524D01*
X120473810Y-109540476D01*
X120450000Y-109469048D01*
X119973810Y-109254762D02*
X120473810Y-109254762D01*
X120473810Y-109135715D01*
X120450000Y-109064286D01*
X120402381Y-109016667D01*
X120354762Y-108992858D01*
X120259524Y-108969048D01*
X120188095Y-108969048D01*
X120092857Y-108992858D01*
X120045238Y-109016667D01*
X119997619Y-109064286D01*
X119973810Y-109135715D01*
X119973810Y-109254762D01*
X120473810Y-108659524D02*
X120473810Y-108564286D01*
X120450000Y-108516667D01*
X120402381Y-108469048D01*
X120307143Y-108445239D01*
X120140476Y-108445239D01*
X120045238Y-108469048D01*
X119997619Y-108516667D01*
X119973810Y-108564286D01*
X119973810Y-108659524D01*
X119997619Y-108707143D01*
X120045238Y-108754762D01*
X120140476Y-108778572D01*
X120307143Y-108778572D01*
X120402381Y-108754762D01*
X120450000Y-108707143D01*
X120473810Y-108659524D01*
X117521429Y-109497619D02*
X117497619Y-109521429D01*
X117473810Y-109592857D01*
X117473810Y-109640476D01*
X117497619Y-109711905D01*
X117545238Y-109759524D01*
X117592857Y-109783333D01*
X117688095Y-109807143D01*
X117759524Y-109807143D01*
X117854762Y-109783333D01*
X117902381Y-109759524D01*
X117950000Y-109711905D01*
X117973810Y-109640476D01*
X117973810Y-109592857D01*
X117950000Y-109521429D01*
X117926190Y-109497619D01*
X117473810Y-109045238D02*
X117473810Y-109283333D01*
X117973810Y-109283333D01*
X117473810Y-108878571D02*
X117973810Y-108878571D01*
X117473810Y-108592857D02*
X117759524Y-108807143D01*
X117973810Y-108592857D02*
X117688095Y-108878571D01*
X115450000Y-109480953D02*
X115473810Y-109528572D01*
X115473810Y-109600000D01*
X115450000Y-109671429D01*
X115402381Y-109719048D01*
X115354762Y-109742857D01*
X115259524Y-109766667D01*
X115188095Y-109766667D01*
X115092857Y-109742857D01*
X115045238Y-109719048D01*
X114997619Y-109671429D01*
X114973810Y-109600000D01*
X114973810Y-109552381D01*
X114997619Y-109480953D01*
X115021429Y-109457143D01*
X115188095Y-109457143D01*
X115188095Y-109552381D01*
X114973810Y-109242857D02*
X115473810Y-109242857D01*
X114973810Y-108957143D01*
X115473810Y-108957143D01*
X114973810Y-108719047D02*
X115473810Y-108719047D01*
X115473810Y-108600000D01*
X115450000Y-108528571D01*
X115402381Y-108480952D01*
X115354762Y-108457143D01*
X115259524Y-108433333D01*
X115188095Y-108433333D01*
X115092857Y-108457143D01*
X115045238Y-108480952D01*
X114997619Y-108528571D01*
X114973810Y-108600000D01*
X114973810Y-108719047D01*
X145573810Y-91638094D02*
X146073810Y-91638094D01*
X146073810Y-91304761D02*
X146073810Y-91209523D01*
X146050000Y-91161904D01*
X146002381Y-91114285D01*
X145907143Y-91090476D01*
X145740476Y-91090476D01*
X145645238Y-91114285D01*
X145597619Y-91161904D01*
X145573810Y-91209523D01*
X145573810Y-91304761D01*
X145597619Y-91352380D01*
X145645238Y-91399999D01*
X145740476Y-91423809D01*
X145907143Y-91423809D01*
X146002381Y-91399999D01*
X146050000Y-91352380D01*
X146073810Y-91304761D01*
X146073810Y-90923808D02*
X146073810Y-90614285D01*
X145883333Y-90780951D01*
X145883333Y-90709523D01*
X145859524Y-90661904D01*
X145835714Y-90638094D01*
X145788095Y-90614285D01*
X145669048Y-90614285D01*
X145621429Y-90638094D01*
X145597619Y-90661904D01*
X145573810Y-90709523D01*
X145573810Y-90852380D01*
X145597619Y-90899999D01*
X145621429Y-90923808D01*
X146073810Y-90447618D02*
X146073810Y-90138095D01*
X145883333Y-90304761D01*
X145883333Y-90233333D01*
X145859524Y-90185714D01*
X145835714Y-90161904D01*
X145788095Y-90138095D01*
X145669048Y-90138095D01*
X145621429Y-90161904D01*
X145597619Y-90185714D01*
X145573810Y-90233333D01*
X145573810Y-90376190D01*
X145597619Y-90423809D01*
X145621429Y-90447618D01*
X142873810Y-91638094D02*
X143373810Y-91638094D01*
X143373810Y-91304761D02*
X143373810Y-91209523D01*
X143350000Y-91161904D01*
X143302381Y-91114285D01*
X143207143Y-91090476D01*
X143040476Y-91090476D01*
X142945238Y-91114285D01*
X142897619Y-91161904D01*
X142873810Y-91209523D01*
X142873810Y-91304761D01*
X142897619Y-91352380D01*
X142945238Y-91399999D01*
X143040476Y-91423809D01*
X143207143Y-91423809D01*
X143302381Y-91399999D01*
X143350000Y-91352380D01*
X143373810Y-91304761D01*
X143326190Y-90899999D02*
X143350000Y-90876189D01*
X143373810Y-90828570D01*
X143373810Y-90709523D01*
X143350000Y-90661904D01*
X143326190Y-90638094D01*
X143278571Y-90614285D01*
X143230952Y-90614285D01*
X143159524Y-90638094D01*
X142873810Y-90923808D01*
X142873810Y-90614285D01*
X143373810Y-90161904D02*
X143373810Y-90399999D01*
X143135714Y-90423809D01*
X143159524Y-90399999D01*
X143183333Y-90352380D01*
X143183333Y-90233333D01*
X143159524Y-90185714D01*
X143135714Y-90161904D01*
X143088095Y-90138095D01*
X142969048Y-90138095D01*
X142921429Y-90161904D01*
X142897619Y-90185714D01*
X142873810Y-90233333D01*
X142873810Y-90352380D01*
X142897619Y-90399999D01*
X142921429Y-90423809D01*
X140373810Y-91638094D02*
X140873810Y-91638094D01*
X140873810Y-91304761D02*
X140873810Y-91209523D01*
X140850000Y-91161904D01*
X140802381Y-91114285D01*
X140707143Y-91090476D01*
X140540476Y-91090476D01*
X140445238Y-91114285D01*
X140397619Y-91161904D01*
X140373810Y-91209523D01*
X140373810Y-91304761D01*
X140397619Y-91352380D01*
X140445238Y-91399999D01*
X140540476Y-91423809D01*
X140707143Y-91423809D01*
X140802381Y-91399999D01*
X140850000Y-91352380D01*
X140873810Y-91304761D01*
X140826190Y-90899999D02*
X140850000Y-90876189D01*
X140873810Y-90828570D01*
X140873810Y-90709523D01*
X140850000Y-90661904D01*
X140826190Y-90638094D01*
X140778571Y-90614285D01*
X140730952Y-90614285D01*
X140659524Y-90638094D01*
X140373810Y-90923808D01*
X140373810Y-90614285D01*
X140873810Y-90185714D02*
X140873810Y-90280952D01*
X140850000Y-90328571D01*
X140826190Y-90352380D01*
X140754762Y-90399999D01*
X140659524Y-90423809D01*
X140469048Y-90423809D01*
X140421429Y-90399999D01*
X140397619Y-90376190D01*
X140373810Y-90328571D01*
X140373810Y-90233333D01*
X140397619Y-90185714D01*
X140421429Y-90161904D01*
X140469048Y-90138095D01*
X140588095Y-90138095D01*
X140635714Y-90161904D01*
X140659524Y-90185714D01*
X140683333Y-90233333D01*
X140683333Y-90328571D01*
X140659524Y-90376190D01*
X140635714Y-90399999D01*
X140588095Y-90423809D01*
X137873810Y-91638094D02*
X138373810Y-91638094D01*
X138373810Y-91304761D02*
X138373810Y-91209523D01*
X138350000Y-91161904D01*
X138302381Y-91114285D01*
X138207143Y-91090476D01*
X138040476Y-91090476D01*
X137945238Y-91114285D01*
X137897619Y-91161904D01*
X137873810Y-91209523D01*
X137873810Y-91304761D01*
X137897619Y-91352380D01*
X137945238Y-91399999D01*
X138040476Y-91423809D01*
X138207143Y-91423809D01*
X138302381Y-91399999D01*
X138350000Y-91352380D01*
X138373810Y-91304761D01*
X138326190Y-90899999D02*
X138350000Y-90876189D01*
X138373810Y-90828570D01*
X138373810Y-90709523D01*
X138350000Y-90661904D01*
X138326190Y-90638094D01*
X138278571Y-90614285D01*
X138230952Y-90614285D01*
X138159524Y-90638094D01*
X137873810Y-90923808D01*
X137873810Y-90614285D01*
X138373810Y-90447618D02*
X138373810Y-90114285D01*
X137873810Y-90328571D01*
X135273810Y-91638094D02*
X135773810Y-91638094D01*
X135773810Y-91304761D02*
X135773810Y-91209523D01*
X135750000Y-91161904D01*
X135702381Y-91114285D01*
X135607143Y-91090476D01*
X135440476Y-91090476D01*
X135345238Y-91114285D01*
X135297619Y-91161904D01*
X135273810Y-91209523D01*
X135273810Y-91304761D01*
X135297619Y-91352380D01*
X135345238Y-91399999D01*
X135440476Y-91423809D01*
X135607143Y-91423809D01*
X135702381Y-91399999D01*
X135750000Y-91352380D01*
X135773810Y-91304761D01*
X135273810Y-90614285D02*
X135273810Y-90899999D01*
X135273810Y-90757142D02*
X135773810Y-90757142D01*
X135702381Y-90804761D01*
X135654762Y-90852380D01*
X135630952Y-90899999D01*
X135607143Y-90185714D02*
X135273810Y-90185714D01*
X135797619Y-90304761D02*
X135440476Y-90423809D01*
X135440476Y-90114285D01*
X132773810Y-91638094D02*
X133273810Y-91638094D01*
X133273810Y-91304761D02*
X133273810Y-91209523D01*
X133250000Y-91161904D01*
X133202381Y-91114285D01*
X133107143Y-91090476D01*
X132940476Y-91090476D01*
X132845238Y-91114285D01*
X132797619Y-91161904D01*
X132773810Y-91209523D01*
X132773810Y-91304761D01*
X132797619Y-91352380D01*
X132845238Y-91399999D01*
X132940476Y-91423809D01*
X133107143Y-91423809D01*
X133202381Y-91399999D01*
X133250000Y-91352380D01*
X133273810Y-91304761D01*
X132773810Y-90614285D02*
X132773810Y-90899999D01*
X132773810Y-90757142D02*
X133273810Y-90757142D01*
X133202381Y-90804761D01*
X133154762Y-90852380D01*
X133130952Y-90899999D01*
X133226190Y-90423809D02*
X133250000Y-90399999D01*
X133273810Y-90352380D01*
X133273810Y-90233333D01*
X133250000Y-90185714D01*
X133226190Y-90161904D01*
X133178571Y-90138095D01*
X133130952Y-90138095D01*
X133059524Y-90161904D01*
X132773810Y-90447618D01*
X132773810Y-90138095D01*
X130850000Y-91180953D02*
X130873810Y-91228572D01*
X130873810Y-91300000D01*
X130850000Y-91371429D01*
X130802381Y-91419048D01*
X130754762Y-91442857D01*
X130659524Y-91466667D01*
X130588095Y-91466667D01*
X130492857Y-91442857D01*
X130445238Y-91419048D01*
X130397619Y-91371429D01*
X130373810Y-91300000D01*
X130373810Y-91252381D01*
X130397619Y-91180953D01*
X130421429Y-91157143D01*
X130588095Y-91157143D01*
X130588095Y-91252381D01*
X130373810Y-90942857D02*
X130873810Y-90942857D01*
X130373810Y-90657143D01*
X130873810Y-90657143D01*
X130373810Y-90419047D02*
X130873810Y-90419047D01*
X130873810Y-90300000D01*
X130850000Y-90228571D01*
X130802381Y-90180952D01*
X130754762Y-90157143D01*
X130659524Y-90133333D01*
X130588095Y-90133333D01*
X130492857Y-90157143D01*
X130445238Y-90180952D01*
X130397619Y-90228571D01*
X130373810Y-90300000D01*
X130373810Y-90419047D01*
X127773810Y-91638094D02*
X128273810Y-91638094D01*
X128273810Y-91304761D02*
X128273810Y-91209523D01*
X128250000Y-91161904D01*
X128202381Y-91114285D01*
X128107143Y-91090476D01*
X127940476Y-91090476D01*
X127845238Y-91114285D01*
X127797619Y-91161904D01*
X127773810Y-91209523D01*
X127773810Y-91304761D01*
X127797619Y-91352380D01*
X127845238Y-91399999D01*
X127940476Y-91423809D01*
X128107143Y-91423809D01*
X128202381Y-91399999D01*
X128250000Y-91352380D01*
X128273810Y-91304761D01*
X127773810Y-90614285D02*
X127773810Y-90899999D01*
X127773810Y-90757142D02*
X128273810Y-90757142D01*
X128202381Y-90804761D01*
X128154762Y-90852380D01*
X128130952Y-90899999D01*
X128273810Y-90447618D02*
X128273810Y-90138095D01*
X128083333Y-90304761D01*
X128083333Y-90233333D01*
X128059524Y-90185714D01*
X128035714Y-90161904D01*
X127988095Y-90138095D01*
X127869048Y-90138095D01*
X127821429Y-90161904D01*
X127797619Y-90185714D01*
X127773810Y-90233333D01*
X127773810Y-90376190D01*
X127797619Y-90423809D01*
X127821429Y-90447618D01*
X117905237Y-90176190D02*
X118143332Y-90176190D01*
X118167142Y-90414286D01*
X118143332Y-90390476D01*
X118095713Y-90366667D01*
X117976666Y-90366667D01*
X117929047Y-90390476D01*
X117905237Y-90414286D01*
X117881428Y-90461905D01*
X117881428Y-90580952D01*
X117905237Y-90628571D01*
X117929047Y-90652381D01*
X117976666Y-90676190D01*
X118095713Y-90676190D01*
X118143332Y-90652381D01*
X118167142Y-90628571D01*
X117738571Y-90176190D02*
X117571904Y-90676190D01*
X117405238Y-90176190D01*
X115610953Y-90200000D02*
X115658572Y-90176190D01*
X115730000Y-90176190D01*
X115801429Y-90200000D01*
X115849048Y-90247619D01*
X115872857Y-90295238D01*
X115896667Y-90390476D01*
X115896667Y-90461905D01*
X115872857Y-90557143D01*
X115849048Y-90604762D01*
X115801429Y-90652381D01*
X115730000Y-90676190D01*
X115682381Y-90676190D01*
X115610953Y-90652381D01*
X115587143Y-90628571D01*
X115587143Y-90461905D01*
X115682381Y-90461905D01*
X115372857Y-90676190D02*
X115372857Y-90176190D01*
X115087143Y-90676190D01*
X115087143Y-90176190D01*
X114849047Y-90676190D02*
X114849047Y-90176190D01*
X114730000Y-90176190D01*
X114658571Y-90200000D01*
X114610952Y-90247619D01*
X114587143Y-90295238D01*
X114563333Y-90390476D01*
X114563333Y-90461905D01*
X114587143Y-90557143D01*
X114610952Y-90604762D01*
X114658571Y-90652381D01*
X114730000Y-90676190D01*
X114849047Y-90676190D01*
X163464286Y-91980951D02*
X163464286Y-91599999D01*
X163273810Y-91790475D02*
X163654762Y-91790475D01*
X163773810Y-91409522D02*
X163773810Y-91099999D01*
X163583333Y-91266665D01*
X163583333Y-91195237D01*
X163559524Y-91147618D01*
X163535714Y-91123808D01*
X163488095Y-91099999D01*
X163369048Y-91099999D01*
X163321429Y-91123808D01*
X163297619Y-91147618D01*
X163273810Y-91195237D01*
X163273810Y-91338094D01*
X163297619Y-91385713D01*
X163321429Y-91409522D01*
X163773810Y-90957142D02*
X163273810Y-90790475D01*
X163773810Y-90623809D01*
X163773810Y-90504761D02*
X163773810Y-90195238D01*
X163583333Y-90361904D01*
X163583333Y-90290476D01*
X163559524Y-90242857D01*
X163535714Y-90219047D01*
X163488095Y-90195238D01*
X163369048Y-90195238D01*
X163321429Y-90219047D01*
X163297619Y-90242857D01*
X163273810Y-90290476D01*
X163273810Y-90433333D01*
X163297619Y-90480952D01*
X163321429Y-90504761D01*
X161035714Y-90969047D02*
X161035714Y-90802381D01*
X160773810Y-90730952D02*
X160773810Y-90969047D01*
X161273810Y-90969047D01*
X161273810Y-90730952D01*
X160773810Y-90516666D02*
X161273810Y-90516666D01*
X160773810Y-90230952D01*
X161273810Y-90230952D01*
X158197619Y-91797618D02*
X158173810Y-91726189D01*
X158173810Y-91607142D01*
X158197619Y-91559523D01*
X158221429Y-91535713D01*
X158269048Y-91511904D01*
X158316667Y-91511904D01*
X158364286Y-91535713D01*
X158388095Y-91559523D01*
X158411905Y-91607142D01*
X158435714Y-91702380D01*
X158459524Y-91749999D01*
X158483333Y-91773808D01*
X158530952Y-91797618D01*
X158578571Y-91797618D01*
X158626190Y-91773808D01*
X158650000Y-91749999D01*
X158673810Y-91702380D01*
X158673810Y-91583332D01*
X158650000Y-91511904D01*
X158126190Y-91416666D02*
X158126190Y-91035714D01*
X158673810Y-90988095D02*
X158173810Y-90821428D01*
X158673810Y-90654762D01*
X158173810Y-90488095D02*
X158673810Y-90488095D01*
X158673810Y-90297619D01*
X158650000Y-90250000D01*
X158626190Y-90226191D01*
X158578571Y-90202381D01*
X158507143Y-90202381D01*
X158459524Y-90226191D01*
X158435714Y-90250000D01*
X158411905Y-90297619D01*
X158411905Y-90488095D01*
X155597619Y-91809523D02*
X155573810Y-91738094D01*
X155573810Y-91619047D01*
X155597619Y-91571428D01*
X155621429Y-91547618D01*
X155669048Y-91523809D01*
X155716667Y-91523809D01*
X155764286Y-91547618D01*
X155788095Y-91571428D01*
X155811905Y-91619047D01*
X155835714Y-91714285D01*
X155859524Y-91761904D01*
X155883333Y-91785713D01*
X155930952Y-91809523D01*
X155978571Y-91809523D01*
X156026190Y-91785713D01*
X156050000Y-91761904D01*
X156073810Y-91714285D01*
X156073810Y-91595237D01*
X156050000Y-91523809D01*
X155526190Y-91428571D02*
X155526190Y-91047619D01*
X156073810Y-91000000D02*
X155573810Y-90833333D01*
X156073810Y-90666667D01*
X155573810Y-90500000D02*
X156073810Y-90500000D01*
X155573810Y-90214286D01*
X156073810Y-90214286D01*
X153073810Y-91638094D02*
X153573810Y-91638094D01*
X153573810Y-91304761D02*
X153573810Y-91209523D01*
X153550000Y-91161904D01*
X153502381Y-91114285D01*
X153407143Y-91090476D01*
X153240476Y-91090476D01*
X153145238Y-91114285D01*
X153097619Y-91161904D01*
X153073810Y-91209523D01*
X153073810Y-91304761D01*
X153097619Y-91352380D01*
X153145238Y-91399999D01*
X153240476Y-91423809D01*
X153407143Y-91423809D01*
X153502381Y-91399999D01*
X153550000Y-91352380D01*
X153573810Y-91304761D01*
X153573810Y-90923808D02*
X153573810Y-90614285D01*
X153383333Y-90780951D01*
X153383333Y-90709523D01*
X153359524Y-90661904D01*
X153335714Y-90638094D01*
X153288095Y-90614285D01*
X153169048Y-90614285D01*
X153121429Y-90638094D01*
X153097619Y-90661904D01*
X153073810Y-90709523D01*
X153073810Y-90852380D01*
X153097619Y-90899999D01*
X153121429Y-90923808D01*
X153407143Y-90185714D02*
X153073810Y-90185714D01*
X153597619Y-90304761D02*
X153240476Y-90423809D01*
X153240476Y-90114285D01*
X150573810Y-91638094D02*
X151073810Y-91638094D01*
X151073810Y-91304761D02*
X151073810Y-91209523D01*
X151050000Y-91161904D01*
X151002381Y-91114285D01*
X150907143Y-91090476D01*
X150740476Y-91090476D01*
X150645238Y-91114285D01*
X150597619Y-91161904D01*
X150573810Y-91209523D01*
X150573810Y-91304761D01*
X150597619Y-91352380D01*
X150645238Y-91399999D01*
X150740476Y-91423809D01*
X150907143Y-91423809D01*
X151002381Y-91399999D01*
X151050000Y-91352380D01*
X151073810Y-91304761D01*
X151073810Y-90923808D02*
X151073810Y-90614285D01*
X150883333Y-90780951D01*
X150883333Y-90709523D01*
X150859524Y-90661904D01*
X150835714Y-90638094D01*
X150788095Y-90614285D01*
X150669048Y-90614285D01*
X150621429Y-90638094D01*
X150597619Y-90661904D01*
X150573810Y-90709523D01*
X150573810Y-90852380D01*
X150597619Y-90899999D01*
X150621429Y-90923808D01*
X151073810Y-90161904D02*
X151073810Y-90399999D01*
X150835714Y-90423809D01*
X150859524Y-90399999D01*
X150883333Y-90352380D01*
X150883333Y-90233333D01*
X150859524Y-90185714D01*
X150835714Y-90161904D01*
X150788095Y-90138095D01*
X150669048Y-90138095D01*
X150621429Y-90161904D01*
X150597619Y-90185714D01*
X150573810Y-90233333D01*
X150573810Y-90352380D01*
X150597619Y-90399999D01*
X150621429Y-90423809D01*
X148073810Y-91638094D02*
X148573810Y-91638094D01*
X148573810Y-91304761D02*
X148573810Y-91209523D01*
X148550000Y-91161904D01*
X148502381Y-91114285D01*
X148407143Y-91090476D01*
X148240476Y-91090476D01*
X148145238Y-91114285D01*
X148097619Y-91161904D01*
X148073810Y-91209523D01*
X148073810Y-91304761D01*
X148097619Y-91352380D01*
X148145238Y-91399999D01*
X148240476Y-91423809D01*
X148407143Y-91423809D01*
X148502381Y-91399999D01*
X148550000Y-91352380D01*
X148573810Y-91304761D01*
X148573810Y-90923808D02*
X148573810Y-90614285D01*
X148383333Y-90780951D01*
X148383333Y-90709523D01*
X148359524Y-90661904D01*
X148335714Y-90638094D01*
X148288095Y-90614285D01*
X148169048Y-90614285D01*
X148121429Y-90638094D01*
X148097619Y-90661904D01*
X148073810Y-90709523D01*
X148073810Y-90852380D01*
X148097619Y-90899999D01*
X148121429Y-90923808D01*
X148526190Y-90423809D02*
X148550000Y-90399999D01*
X148573810Y-90352380D01*
X148573810Y-90233333D01*
X148550000Y-90185714D01*
X148526190Y-90161904D01*
X148478571Y-90138095D01*
X148430952Y-90138095D01*
X148359524Y-90161904D01*
X148073810Y-90447618D01*
X148073810Y-90138095D01*
X120321429Y-91180952D02*
X120297619Y-91204762D01*
X120273810Y-91276190D01*
X120273810Y-91323809D01*
X120297619Y-91395238D01*
X120345238Y-91442857D01*
X120392857Y-91466666D01*
X120488095Y-91490476D01*
X120559524Y-91490476D01*
X120654762Y-91466666D01*
X120702381Y-91442857D01*
X120750000Y-91395238D01*
X120773810Y-91323809D01*
X120773810Y-91276190D01*
X120750000Y-91204762D01*
X120726190Y-91180952D01*
X120273810Y-90966666D02*
X120773810Y-90966666D01*
X120416667Y-90800000D01*
X120773810Y-90633333D01*
X120273810Y-90633333D01*
X120273810Y-90395237D02*
X120773810Y-90395237D01*
X120773810Y-90276190D01*
X120750000Y-90204761D01*
X120702381Y-90157142D01*
X120654762Y-90133333D01*
X120559524Y-90109523D01*
X120488095Y-90109523D01*
X120392857Y-90133333D01*
X120345238Y-90157142D01*
X120297619Y-90204761D01*
X120273810Y-90276190D01*
X120273810Y-90395237D01*
X122797619Y-91430952D02*
X122773810Y-91359523D01*
X122773810Y-91240476D01*
X122797619Y-91192857D01*
X122821429Y-91169047D01*
X122869048Y-91145238D01*
X122916667Y-91145238D01*
X122964286Y-91169047D01*
X122988095Y-91192857D01*
X123011905Y-91240476D01*
X123035714Y-91335714D01*
X123059524Y-91383333D01*
X123083333Y-91407142D01*
X123130952Y-91430952D01*
X123178571Y-91430952D01*
X123226190Y-91407142D01*
X123250000Y-91383333D01*
X123273810Y-91335714D01*
X123273810Y-91216666D01*
X123250000Y-91145238D01*
X122773810Y-90930952D02*
X123273810Y-90930952D01*
X123273810Y-90811905D01*
X123250000Y-90740476D01*
X123202381Y-90692857D01*
X123154762Y-90669048D01*
X123059524Y-90645238D01*
X122988095Y-90645238D01*
X122892857Y-90669048D01*
X122845238Y-90692857D01*
X122797619Y-90740476D01*
X122773810Y-90811905D01*
X122773810Y-90930952D01*
X123273810Y-90478571D02*
X123273810Y-90169048D01*
X123083333Y-90335714D01*
X123083333Y-90264286D01*
X123059524Y-90216667D01*
X123035714Y-90192857D01*
X122988095Y-90169048D01*
X122869048Y-90169048D01*
X122821429Y-90192857D01*
X122797619Y-90216667D01*
X122773810Y-90264286D01*
X122773810Y-90407143D01*
X122797619Y-90454762D01*
X122821429Y-90478571D01*
X125602381Y-90169048D02*
X125626190Y-90240477D01*
X125626190Y-90359524D01*
X125602381Y-90407143D01*
X125578571Y-90430953D01*
X125530952Y-90454762D01*
X125483333Y-90454762D01*
X125435714Y-90430953D01*
X125411905Y-90407143D01*
X125388095Y-90359524D01*
X125364286Y-90264286D01*
X125340476Y-90216667D01*
X125316667Y-90192858D01*
X125269048Y-90169048D01*
X125221429Y-90169048D01*
X125173810Y-90192858D01*
X125150000Y-90216667D01*
X125126190Y-90264286D01*
X125126190Y-90383334D01*
X125150000Y-90454762D01*
X125626190Y-90669048D02*
X125126190Y-90669048D01*
X125126190Y-90788095D01*
X125150000Y-90859524D01*
X125197619Y-90907143D01*
X125245238Y-90930952D01*
X125340476Y-90954762D01*
X125411905Y-90954762D01*
X125507143Y-90930952D01*
X125554762Y-90907143D01*
X125602381Y-90859524D01*
X125626190Y-90788095D01*
X125626190Y-90669048D01*
X125173810Y-91145238D02*
X125150000Y-91169048D01*
X125126190Y-91216667D01*
X125126190Y-91335714D01*
X125150000Y-91383333D01*
X125173810Y-91407143D01*
X125221429Y-91430952D01*
X125269048Y-91430952D01*
X125340476Y-91407143D01*
X125626190Y-91121429D01*
X125626190Y-91430952D01*
D11*
X140314286Y-106842857D02*
X140314286Y-106461905D01*
X140647619Y-106700000D02*
X139790476Y-106700000D01*
X139695238Y-106652381D01*
X139647619Y-106557143D01*
X139647619Y-106461905D01*
X139647619Y-106128571D02*
X140647619Y-106128571D01*
X139647619Y-105699999D02*
X140171429Y-105699999D01*
X140266667Y-105747618D01*
X140314286Y-105842856D01*
X140314286Y-105985714D01*
X140266667Y-106080952D01*
X140219048Y-106128571D01*
X139647619Y-105223809D02*
X140314286Y-105223809D01*
X140647619Y-105223809D02*
X140600000Y-105271428D01*
X140552381Y-105223809D01*
X140600000Y-105176190D01*
X140647619Y-105223809D01*
X140552381Y-105223809D01*
X140314286Y-104747619D02*
X139647619Y-104747619D01*
X140219048Y-104747619D02*
X140266667Y-104700000D01*
X140314286Y-104604762D01*
X140314286Y-104461904D01*
X140266667Y-104366666D01*
X140171429Y-104319047D01*
X139647619Y-104319047D01*
X140314286Y-103414285D02*
X139504762Y-103414285D01*
X139409524Y-103461904D01*
X139361905Y-103509523D01*
X139314286Y-103604762D01*
X139314286Y-103747619D01*
X139361905Y-103842857D01*
X139695238Y-103414285D02*
X139647619Y-103509523D01*
X139647619Y-103700000D01*
X139695238Y-103795238D01*
X139742857Y-103842857D01*
X139838095Y-103890476D01*
X140123810Y-103890476D01*
X140219048Y-103842857D01*
X140266667Y-103795238D01*
X140314286Y-103700000D01*
X140314286Y-103509523D01*
X140266667Y-103414285D01*
X140314286Y-103080952D02*
X140314286Y-102700000D01*
X140647619Y-102938095D02*
X139790476Y-102938095D01*
X139695238Y-102890476D01*
X139647619Y-102795238D01*
X139647619Y-102700000D01*
X139647619Y-102366666D02*
X140314286Y-102366666D01*
X140123810Y-102366666D02*
X140219048Y-102319047D01*
X140266667Y-102271428D01*
X140314286Y-102176190D01*
X140314286Y-102080951D01*
X139647619Y-101604761D02*
X139695238Y-101699999D01*
X139742857Y-101747618D01*
X139838095Y-101795237D01*
X140123810Y-101795237D01*
X140219048Y-101747618D01*
X140266667Y-101699999D01*
X140314286Y-101604761D01*
X140314286Y-101461903D01*
X140266667Y-101366665D01*
X140219048Y-101319046D01*
X140123810Y-101271427D01*
X139838095Y-101271427D01*
X139742857Y-101319046D01*
X139695238Y-101366665D01*
X139647619Y-101461903D01*
X139647619Y-101604761D01*
X140314286Y-100842856D02*
X139647619Y-100842856D01*
X140219048Y-100842856D02*
X140266667Y-100795237D01*
X140314286Y-100699999D01*
X140314286Y-100557141D01*
X140266667Y-100461903D01*
X140171429Y-100414284D01*
X139647619Y-100414284D01*
X139647619Y-99938094D02*
X140314286Y-99938094D01*
X140647619Y-99938094D02*
X140600000Y-99985713D01*
X140552381Y-99938094D01*
X140600000Y-99890475D01*
X140647619Y-99938094D01*
X140552381Y-99938094D01*
X139695238Y-99033332D02*
X139647619Y-99128570D01*
X139647619Y-99319047D01*
X139695238Y-99414285D01*
X139742857Y-99461904D01*
X139838095Y-99509523D01*
X140123810Y-99509523D01*
X140219048Y-99461904D01*
X140266667Y-99414285D01*
X140314286Y-99319047D01*
X140314286Y-99128570D01*
X140266667Y-99033332D01*
X139695238Y-98652380D02*
X139647619Y-98557142D01*
X139647619Y-98366666D01*
X139695238Y-98271427D01*
X139790476Y-98223808D01*
X139838095Y-98223808D01*
X139933333Y-98271427D01*
X139980952Y-98366666D01*
X139980952Y-98509523D01*
X140028571Y-98604761D01*
X140123810Y-98652380D01*
X140171429Y-98652380D01*
X140266667Y-98604761D01*
X140314286Y-98509523D01*
X140314286Y-98366666D01*
X140266667Y-98271427D01*
X139742857Y-97795237D02*
X139695238Y-97747618D01*
X139647619Y-97795237D01*
X139695238Y-97842856D01*
X139742857Y-97795237D01*
X139647619Y-97795237D01*
X139695238Y-96890475D02*
X139647619Y-96985713D01*
X139647619Y-97176190D01*
X139695238Y-97271428D01*
X139742857Y-97319047D01*
X139838095Y-97366666D01*
X140123810Y-97366666D01*
X140219048Y-97319047D01*
X140266667Y-97271428D01*
X140314286Y-97176190D01*
X140314286Y-96985713D01*
X140266667Y-96890475D01*
X139647619Y-96319047D02*
X139695238Y-96414285D01*
X139742857Y-96461904D01*
X139838095Y-96509523D01*
X140123810Y-96509523D01*
X140219048Y-96461904D01*
X140266667Y-96414285D01*
X140314286Y-96319047D01*
X140314286Y-96176189D01*
X140266667Y-96080951D01*
X140219048Y-96033332D01*
X140123810Y-95985713D01*
X139838095Y-95985713D01*
X139742857Y-96033332D01*
X139695238Y-96080951D01*
X139647619Y-96176189D01*
X139647619Y-96319047D01*
X139647619Y-95557142D02*
X140314286Y-95557142D01*
X140219048Y-95557142D02*
X140266667Y-95509523D01*
X140314286Y-95414285D01*
X140314286Y-95271427D01*
X140266667Y-95176189D01*
X140171429Y-95128570D01*
X139647619Y-95128570D01*
X140171429Y-95128570D02*
X140266667Y-95080951D01*
X140314286Y-94985713D01*
X140314286Y-94842856D01*
X140266667Y-94747618D01*
X140171429Y-94699999D01*
X139647619Y-94699999D01*
D12*
X143021429Y-107064285D02*
X141521429Y-106707142D01*
X142592857Y-106421428D01*
X141521429Y-106135714D01*
X143021429Y-105778571D01*
X141521429Y-105207142D02*
X142521429Y-105207142D01*
X143021429Y-105207142D02*
X142950000Y-105278571D01*
X142878571Y-105207142D01*
X142950000Y-105135714D01*
X143021429Y-105207142D01*
X142878571Y-105207142D01*
X143021429Y-104707142D02*
X143021429Y-103849999D01*
X141521429Y-104278570D02*
X143021429Y-104278570D01*
X141521429Y-103135713D02*
X141592857Y-103278571D01*
X141664286Y-103349999D01*
X141807143Y-103421428D01*
X142235714Y-103421428D01*
X142378571Y-103349999D01*
X142450000Y-103278571D01*
X142521429Y-103135713D01*
X142521429Y-102921428D01*
X142450000Y-102778571D01*
X142378571Y-102707142D01*
X142235714Y-102635713D01*
X141807143Y-102635713D01*
X141664286Y-102707142D01*
X141592857Y-102778571D01*
X141521429Y-102921428D01*
X141521429Y-103135713D01*
X141521429Y-101778570D02*
X141592857Y-101921428D01*
X141664286Y-101992856D01*
X141807143Y-102064285D01*
X142235714Y-102064285D01*
X142378571Y-101992856D01*
X142450000Y-101921428D01*
X142521429Y-101778570D01*
X142521429Y-101564285D01*
X142450000Y-101421428D01*
X142378571Y-101349999D01*
X142235714Y-101278570D01*
X141807143Y-101278570D01*
X141664286Y-101349999D01*
X141592857Y-101421428D01*
X141521429Y-101564285D01*
X141521429Y-101778570D01*
X142521429Y-100849999D02*
X142521429Y-100278570D01*
X143021429Y-100635713D02*
X141735714Y-100635713D01*
X141592857Y-100564285D01*
X141521429Y-100421427D01*
X141521429Y-100278570D01*
X141521429Y-99778570D02*
X143021429Y-99778570D01*
X141521429Y-99135713D02*
X142307143Y-99135713D01*
X142450000Y-99207142D01*
X142521429Y-99349999D01*
X142521429Y-99564284D01*
X142450000Y-99707142D01*
X142378571Y-99778570D01*
X142521429Y-97421427D02*
X141521429Y-97064284D01*
X142521429Y-96707142D01*
X141521429Y-95349999D02*
X141521429Y-96207142D01*
X141521429Y-95778570D02*
X143021429Y-95778570D01*
X142807143Y-95921427D01*
X142664286Y-96064285D01*
X142592857Y-96207142D01*
X141664286Y-94707142D02*
X141592857Y-94635714D01*
X141521429Y-94707142D01*
X141592857Y-94778571D01*
X141664286Y-94707142D01*
X141521429Y-94707142D01*
X143021429Y-93707142D02*
X143021429Y-93564285D01*
X142950000Y-93421428D01*
X142878571Y-93349999D01*
X142735714Y-93278570D01*
X142450000Y-93207142D01*
X142092857Y-93207142D01*
X141807143Y-93278570D01*
X141664286Y-93349999D01*
X141592857Y-93421428D01*
X141521429Y-93564285D01*
X141521429Y-93707142D01*
X141592857Y-93849999D01*
X141664286Y-93921428D01*
X141807143Y-93992856D01*
X142092857Y-94064285D01*
X142450000Y-94064285D01*
X142735714Y-93992856D01*
X142878571Y-93921428D01*
X142950000Y-93849999D01*
X143021429Y-93707142D01*
D13*
X115890000Y-90840000D02*
X116890000Y-90840000D01*
X116890000Y-92540000D02*
X115890000Y-92540000D01*
X120600000Y-107710000D02*
X119600000Y-107710000D01*
X119600000Y-106010000D02*
X120600000Y-106010000D01*
X115600000Y-101020000D02*
X114600000Y-101020000D01*
X114600000Y-99320000D02*
X115600000Y-99320000D01*
X115620000Y-102960000D02*
X114620000Y-102960000D01*
X114620000Y-101260000D02*
X115620000Y-101260000D01*
X157060000Y-94320000D02*
X158060000Y-94320000D01*
X158060000Y-96020000D02*
X157060000Y-96020000D01*
X128520000Y-100120000D02*
X128520000Y-101120000D01*
X126820000Y-101120000D02*
X126820000Y-100120000D01*
X126820000Y-96380000D02*
X126820000Y-95380000D01*
X128520000Y-95380000D02*
X128520000Y-96380000D01*
X162620000Y-96030000D02*
X161620000Y-96030000D01*
X161620000Y-94330000D02*
X162620000Y-94330000D01*
X162220000Y-89960000D02*
X113840000Y-89960000D01*
X113840000Y-89960000D02*
X113840000Y-87180000D01*
X113840000Y-87180000D02*
X162220000Y-87180000D01*
X162220000Y-87180000D02*
X162220000Y-89960000D01*
X163490000Y-89960000D02*
X164880000Y-89960000D01*
X164880000Y-89960000D02*
X164880000Y-88570000D01*
X162220000Y-112820000D02*
X113840000Y-112820000D01*
X113840000Y-112820000D02*
X113840000Y-110040000D01*
X113840000Y-110040000D02*
X162220000Y-110040000D01*
X162220000Y-110040000D02*
X162220000Y-112820000D01*
X163490000Y-112820000D02*
X164880000Y-112820000D01*
X164880000Y-112820000D02*
X164880000Y-111430000D01*
D14*
X160350000Y-94205000D02*
X161550000Y-94205000D01*
X161550000Y-92455000D02*
X160350000Y-92455000D01*
X150180000Y-104845000D02*
X148980000Y-104845000D01*
X148980000Y-106595000D02*
X150180000Y-106595000D01*
X152180000Y-96345000D02*
X153380000Y-96345000D01*
X153380000Y-94595000D02*
X152180000Y-94595000D01*
X149050000Y-94555000D02*
X150250000Y-94555000D01*
X150250000Y-92805000D02*
X149050000Y-92805000D01*
D13*
X159895000Y-100350000D02*
X159895000Y-98350000D01*
X161945000Y-98350000D02*
X161945000Y-100350000D01*
X132630000Y-95140000D02*
X132630000Y-103115000D01*
X132630000Y-103115000D02*
X128730000Y-103115000D01*
X128730000Y-103115000D02*
X128730000Y-95140000D01*
D14*
X116576666Y-93667143D02*
X116624285Y-93714762D01*
X116767142Y-93762381D01*
X116862380Y-93762381D01*
X117005238Y-93714762D01*
X117100476Y-93619524D01*
X117148095Y-93524286D01*
X117195714Y-93333810D01*
X117195714Y-93190952D01*
X117148095Y-93000476D01*
X117100476Y-92905238D01*
X117005238Y-92810000D01*
X116862380Y-92762381D01*
X116767142Y-92762381D01*
X116624285Y-92810000D01*
X116576666Y-92857619D01*
X115624285Y-93762381D02*
X116195714Y-93762381D01*
X115910000Y-93762381D02*
X115910000Y-92762381D01*
X116005238Y-92905238D01*
X116100476Y-93000476D01*
X116195714Y-93048095D01*
X117066666Y-107257143D02*
X117114285Y-107304762D01*
X117257142Y-107352381D01*
X117352380Y-107352381D01*
X117495238Y-107304762D01*
X117590476Y-107209524D01*
X117638095Y-107114286D01*
X117685714Y-106923810D01*
X117685714Y-106780952D01*
X117638095Y-106590476D01*
X117590476Y-106495238D01*
X117495238Y-106400000D01*
X117352380Y-106352381D01*
X117257142Y-106352381D01*
X117114285Y-106400000D01*
X117066666Y-106447619D01*
X116685714Y-106447619D02*
X116638095Y-106400000D01*
X116542857Y-106352381D01*
X116304761Y-106352381D01*
X116209523Y-106400000D01*
X116161904Y-106447619D01*
X116114285Y-106542857D01*
X116114285Y-106638095D01*
X116161904Y-106780952D01*
X116733333Y-107352381D01*
X116114285Y-107352381D01*
X115266666Y-98957143D02*
X115314285Y-99004762D01*
X115457142Y-99052381D01*
X115552380Y-99052381D01*
X115695238Y-99004762D01*
X115790476Y-98909524D01*
X115838095Y-98814286D01*
X115885714Y-98623810D01*
X115885714Y-98480952D01*
X115838095Y-98290476D01*
X115790476Y-98195238D01*
X115695238Y-98100000D01*
X115552380Y-98052381D01*
X115457142Y-98052381D01*
X115314285Y-98100000D01*
X115266666Y-98147619D01*
X114933333Y-98052381D02*
X114314285Y-98052381D01*
X114647619Y-98433333D01*
X114504761Y-98433333D01*
X114409523Y-98480952D01*
X114361904Y-98528571D01*
X114314285Y-98623810D01*
X114314285Y-98861905D01*
X114361904Y-98957143D01*
X114409523Y-99004762D01*
X114504761Y-99052381D01*
X114790476Y-99052381D01*
X114885714Y-99004762D01*
X114933333Y-98957143D01*
X115306666Y-104137143D02*
X115354285Y-104184762D01*
X115497142Y-104232381D01*
X115592380Y-104232381D01*
X115735238Y-104184762D01*
X115830476Y-104089524D01*
X115878095Y-103994286D01*
X115925714Y-103803810D01*
X115925714Y-103660952D01*
X115878095Y-103470476D01*
X115830476Y-103375238D01*
X115735238Y-103280000D01*
X115592380Y-103232381D01*
X115497142Y-103232381D01*
X115354285Y-103280000D01*
X115306666Y-103327619D01*
X114401904Y-103232381D02*
X114878095Y-103232381D01*
X114925714Y-103708571D01*
X114878095Y-103660952D01*
X114782857Y-103613333D01*
X114544761Y-103613333D01*
X114449523Y-103660952D01*
X114401904Y-103708571D01*
X114354285Y-103803810D01*
X114354285Y-104041905D01*
X114401904Y-104137143D01*
X114449523Y-104184762D01*
X114544761Y-104232381D01*
X114782857Y-104232381D01*
X114878095Y-104184762D01*
X114925714Y-104137143D01*
X157546666Y-94047143D02*
X157594285Y-94094762D01*
X157737142Y-94142381D01*
X157832380Y-94142381D01*
X157975238Y-94094762D01*
X158070476Y-93999524D01*
X158118095Y-93904286D01*
X158165714Y-93713810D01*
X158165714Y-93570952D01*
X158118095Y-93380476D01*
X158070476Y-93285238D01*
X157975238Y-93190000D01*
X157832380Y-93142381D01*
X157737142Y-93142381D01*
X157594285Y-93190000D01*
X157546666Y-93237619D01*
X157213333Y-93142381D02*
X156546666Y-93142381D01*
X156975238Y-94142381D01*
X126497143Y-100443334D02*
X126544762Y-100395715D01*
X126592381Y-100252858D01*
X126592381Y-100157620D01*
X126544762Y-100014762D01*
X126449524Y-99919524D01*
X126354286Y-99871905D01*
X126163810Y-99824286D01*
X126020952Y-99824286D01*
X125830476Y-99871905D01*
X125735238Y-99919524D01*
X125640000Y-100014762D01*
X125592381Y-100157620D01*
X125592381Y-100252858D01*
X125640000Y-100395715D01*
X125687619Y-100443334D01*
X126592381Y-100919524D02*
X126592381Y-101110000D01*
X126544762Y-101205239D01*
X126497143Y-101252858D01*
X126354286Y-101348096D01*
X126163810Y-101395715D01*
X125782857Y-101395715D01*
X125687619Y-101348096D01*
X125640000Y-101300477D01*
X125592381Y-101205239D01*
X125592381Y-101014762D01*
X125640000Y-100919524D01*
X125687619Y-100871905D01*
X125782857Y-100824286D01*
X126020952Y-100824286D01*
X126116190Y-100871905D01*
X126163810Y-100919524D01*
X126211429Y-101014762D01*
X126211429Y-101205239D01*
X126163810Y-101300477D01*
X126116190Y-101348096D01*
X126020952Y-101395715D01*
X126357143Y-95387143D02*
X126404762Y-95339524D01*
X126452381Y-95196667D01*
X126452381Y-95101429D01*
X126404762Y-94958571D01*
X126309524Y-94863333D01*
X126214286Y-94815714D01*
X126023810Y-94768095D01*
X125880952Y-94768095D01*
X125690476Y-94815714D01*
X125595238Y-94863333D01*
X125500000Y-94958571D01*
X125452381Y-95101429D01*
X125452381Y-95196667D01*
X125500000Y-95339524D01*
X125547619Y-95387143D01*
X126452381Y-96339524D02*
X126452381Y-95768095D01*
X126452381Y-96053809D02*
X125452381Y-96053809D01*
X125595238Y-95958571D01*
X125690476Y-95863333D01*
X125738095Y-95768095D01*
X126452381Y-97291905D02*
X126452381Y-96720476D01*
X126452381Y-97006190D02*
X125452381Y-97006190D01*
X125595238Y-96910952D01*
X125690476Y-96815714D01*
X125738095Y-96720476D01*
X164052857Y-97177143D02*
X164100476Y-97224762D01*
X164243333Y-97272381D01*
X164338571Y-97272381D01*
X164481429Y-97224762D01*
X164576667Y-97129524D01*
X164624286Y-97034286D01*
X164671905Y-96843810D01*
X164671905Y-96700952D01*
X164624286Y-96510476D01*
X164576667Y-96415238D01*
X164481429Y-96320000D01*
X164338571Y-96272381D01*
X164243333Y-96272381D01*
X164100476Y-96320000D01*
X164052857Y-96367619D01*
X163100476Y-97272381D02*
X163671905Y-97272381D01*
X163386191Y-97272381D02*
X163386191Y-96272381D01*
X163481429Y-96415238D01*
X163576667Y-96510476D01*
X163671905Y-96558095D01*
X162767143Y-96272381D02*
X162148095Y-96272381D01*
X162481429Y-96653333D01*
X162338571Y-96653333D01*
X162243333Y-96700952D01*
X162195714Y-96748571D01*
X162148095Y-96843810D01*
X162148095Y-97081905D01*
X162195714Y-97177143D01*
X162243333Y-97224762D01*
X162338571Y-97272381D01*
X162624286Y-97272381D01*
X162719524Y-97224762D01*
X162767143Y-97177143D01*
X164442381Y-93173334D02*
X163966190Y-92840000D01*
X164442381Y-92601905D02*
X163442381Y-92601905D01*
X163442381Y-92982858D01*
X163490000Y-93078096D01*
X163537619Y-93125715D01*
X163632857Y-93173334D01*
X163775714Y-93173334D01*
X163870952Y-93125715D01*
X163918571Y-93078096D01*
X163966190Y-92982858D01*
X163966190Y-92601905D01*
X163442381Y-94030477D02*
X163442381Y-93840000D01*
X163490000Y-93744762D01*
X163537619Y-93697143D01*
X163680476Y-93601905D01*
X163870952Y-93554286D01*
X164251905Y-93554286D01*
X164347143Y-93601905D01*
X164394762Y-93649524D01*
X164442381Y-93744762D01*
X164442381Y-93935239D01*
X164394762Y-94030477D01*
X164347143Y-94078096D01*
X164251905Y-94125715D01*
X164013810Y-94125715D01*
X163918571Y-94078096D01*
X163870952Y-94030477D01*
X163823333Y-93935239D01*
X163823333Y-93744762D01*
X163870952Y-93649524D01*
X163918571Y-93601905D01*
X164013810Y-93554286D01*
X150142857Y-107752381D02*
X150476191Y-107276190D01*
X150714286Y-107752381D02*
X150714286Y-106752381D01*
X150333333Y-106752381D01*
X150238095Y-106800000D01*
X150190476Y-106847619D01*
X150142857Y-106942857D01*
X150142857Y-107085714D01*
X150190476Y-107180952D01*
X150238095Y-107228571D01*
X150333333Y-107276190D01*
X150714286Y-107276190D01*
X149190476Y-107752381D02*
X149761905Y-107752381D01*
X149476191Y-107752381D02*
X149476191Y-106752381D01*
X149571429Y-106895238D01*
X149666667Y-106990476D01*
X149761905Y-107038095D01*
X148571429Y-106752381D02*
X148476190Y-106752381D01*
X148380952Y-106800000D01*
X148333333Y-106847619D01*
X148285714Y-106942857D01*
X148238095Y-107133333D01*
X148238095Y-107371429D01*
X148285714Y-107561905D01*
X148333333Y-107657143D01*
X148380952Y-107704762D01*
X148476190Y-107752381D01*
X148571429Y-107752381D01*
X148666667Y-107704762D01*
X148714286Y-107657143D01*
X148761905Y-107561905D01*
X148809524Y-107371429D01*
X148809524Y-107133333D01*
X148761905Y-106942857D01*
X148714286Y-106847619D01*
X148666667Y-106800000D01*
X148571429Y-106752381D01*
X154082857Y-94392381D02*
X154416191Y-93916190D01*
X154654286Y-94392381D02*
X154654286Y-93392381D01*
X154273333Y-93392381D01*
X154178095Y-93440000D01*
X154130476Y-93487619D01*
X154082857Y-93582857D01*
X154082857Y-93725714D01*
X154130476Y-93820952D01*
X154178095Y-93868571D01*
X154273333Y-93916190D01*
X154654286Y-93916190D01*
X153130476Y-94392381D02*
X153701905Y-94392381D01*
X153416191Y-94392381D02*
X153416191Y-93392381D01*
X153511429Y-93535238D01*
X153606667Y-93630476D01*
X153701905Y-93678095D01*
X152225714Y-93392381D02*
X152701905Y-93392381D01*
X152749524Y-93868571D01*
X152701905Y-93820952D01*
X152606667Y-93773333D01*
X152368571Y-93773333D01*
X152273333Y-93820952D01*
X152225714Y-93868571D01*
X152178095Y-93963810D01*
X152178095Y-94201905D01*
X152225714Y-94297143D01*
X152273333Y-94344762D01*
X152368571Y-94392381D01*
X152606667Y-94392381D01*
X152701905Y-94344762D01*
X152749524Y-94297143D01*
X147232381Y-93117143D02*
X146756190Y-92783809D01*
X147232381Y-92545714D02*
X146232381Y-92545714D01*
X146232381Y-92926667D01*
X146280000Y-93021905D01*
X146327619Y-93069524D01*
X146422857Y-93117143D01*
X146565714Y-93117143D01*
X146660952Y-93069524D01*
X146708571Y-93021905D01*
X146756190Y-92926667D01*
X146756190Y-92545714D01*
X147232381Y-94069524D02*
X147232381Y-93498095D01*
X147232381Y-93783809D02*
X146232381Y-93783809D01*
X146375238Y-93688571D01*
X146470476Y-93593333D01*
X146518095Y-93498095D01*
X146232381Y-94926667D02*
X146232381Y-94736190D01*
X146280000Y-94640952D01*
X146327619Y-94593333D01*
X146470476Y-94498095D01*
X146660952Y-94450476D01*
X147041905Y-94450476D01*
X147137143Y-94498095D01*
X147184762Y-94545714D01*
X147232381Y-94640952D01*
X147232381Y-94831429D01*
X147184762Y-94926667D01*
X147137143Y-94974286D01*
X147041905Y-95021905D01*
X146803810Y-95021905D01*
X146708571Y-94974286D01*
X146660952Y-94926667D01*
X146613333Y-94831429D01*
X146613333Y-94640952D01*
X146660952Y-94545714D01*
X146708571Y-94498095D01*
X146803810Y-94450476D01*
X163067143Y-98767143D02*
X163114762Y-98719524D01*
X163162381Y-98576667D01*
X163162381Y-98481429D01*
X163114762Y-98338571D01*
X163019524Y-98243333D01*
X162924286Y-98195714D01*
X162733810Y-98148095D01*
X162590952Y-98148095D01*
X162400476Y-98195714D01*
X162305238Y-98243333D01*
X162210000Y-98338571D01*
X162162381Y-98481429D01*
X162162381Y-98576667D01*
X162210000Y-98719524D01*
X162257619Y-98767143D01*
X163162381Y-99719524D02*
X163162381Y-99148095D01*
X163162381Y-99433809D02*
X162162381Y-99433809D01*
X162305238Y-99338571D01*
X162400476Y-99243333D01*
X162448095Y-99148095D01*
X162257619Y-100100476D02*
X162210000Y-100148095D01*
X162162381Y-100243333D01*
X162162381Y-100481429D01*
X162210000Y-100576667D01*
X162257619Y-100624286D01*
X162352857Y-100671905D01*
X162448095Y-100671905D01*
X162590952Y-100624286D01*
X163162381Y-100052857D01*
X163162381Y-100671905D01*
X133606190Y-97863809D02*
X134082381Y-97863809D01*
X133082381Y-97530476D02*
X133606190Y-97863809D01*
X133082381Y-98197143D01*
X134082381Y-99054286D02*
X134082381Y-98482857D01*
X134082381Y-98768571D02*
X133082381Y-98768571D01*
X133225238Y-98673333D01*
X133320476Y-98578095D01*
X133368095Y-98482857D01*
M02*
