M48
;DRILL file {KiCad 4.0.4-stable} date 02/18/17 15:09:58
;FORMAT={-:-/ absolute / metric / decimal}
FMAT,2
METRIC,TZ
T1C0.300
T2C0.400
T3C1.000
%
G90
G05
M71
T1
X108.7Y-95.7
X108.7Y-97.
X110.3Y-95.7
X110.3Y-97.
X114.8Y-109.1
X115.3Y-107.6
X116.4Y-103.7
X119.4Y-94.7
X120.84Y-102.
X120.84Y-103.
X120.84Y-104.
X121.84Y-102.
X121.84Y-103.
X121.84Y-104.
X122.84Y-102.
X122.84Y-103.
X122.84Y-104.
X123.68Y-106.86
X128.2Y-92.
X137.005Y-103.165
X149.65Y-95.3
X151.1Y-99.6
X153.9Y-97.6
X153.9Y-99.6
X153.9Y-101.6
X155.4Y-104.9
X155.9Y-97.6
X155.9Y-99.6
X155.9Y-101.6
X157.4Y-104.9
X157.9Y-97.6
X157.9Y-99.6
X157.9Y-101.6
X159.4Y-104.9
X161.4Y-104.9
X163.4Y-96.9
X163.4Y-98.9
X163.4Y-100.9
X163.4Y-102.9
X163.4Y-104.9
X163.4Y-106.9
T2
X111.29Y-103.81
X111.74Y-98.98
X113.78Y-98.83
X113.78Y-103.28
X116.98Y-93.22
X117.62Y-104.07
X120.36Y-99.43
X122.487Y-98.803
X126.05Y-96.96
X126.241Y-99.403
X126.61Y-92.65
X127.21Y-104.26
X129.36Y-92.65
X133.2Y-94.74
X133.592Y-103.548
X134.64Y-102.545
X135.6Y-100.3
X135.72Y-97.49
X136.01Y-104.8
X136.5Y-95.1
X137.4Y-94.3
X141.26Y-101.11
X143.48Y-98.08
X143.48Y-99.38
X143.48Y-100.64
X143.48Y-101.922
X143.48Y-103.24
X143.48Y-104.49
X143.48Y-105.846
X143.627Y-96.773
X146.8Y-93.4
X147.Y-95.55
X148.27Y-92.443
X148.3Y-95.3
X149.52Y-92.37
X149.53Y-107.54
X150.7Y-97.1
X150.7Y-97.1
X150.79Y-92.38
X150.81Y-107.54
X152.06Y-92.38
X152.06Y-107.54
X153.33Y-92.37
X153.33Y-107.54
X154.57Y-107.54
X154.61Y-92.36
X155.88Y-92.35
X157.106Y-107.54
X157.6Y-93.9
X158.33Y-107.54
T3
X115.23Y-88.57
X115.23Y-111.43
X117.77Y-88.57
X117.77Y-111.43
X120.31Y-88.57
X120.31Y-111.43
X122.85Y-88.57
X122.85Y-111.43
X125.39Y-88.57
X125.39Y-111.43
X127.93Y-88.57
X127.93Y-111.43
X130.47Y-88.57
X130.47Y-111.43
X133.01Y-88.57
X133.01Y-111.43
X135.55Y-88.57
X135.55Y-111.43
X138.09Y-88.57
X138.09Y-111.43
X140.63Y-88.57
X140.63Y-111.43
X143.17Y-88.57
X143.17Y-111.43
X145.71Y-88.57
X145.71Y-111.43
X148.25Y-88.57
X148.25Y-111.43
X150.79Y-88.57
X150.79Y-111.43
X153.33Y-88.57
X153.33Y-111.43
X155.87Y-88.57
X155.87Y-111.43
X158.41Y-88.57
X158.41Y-111.43
X160.95Y-88.57
X160.95Y-111.43
X163.49Y-88.57
X163.49Y-111.43
T0
M30
