G04 #@! TF.FileFunction,Drawing*
%FSLAX46Y46*%
G04 Gerber Fmt 4.6, Leading zero omitted, Abs format (unit mm)*
G04 Created by KiCad (PCBNEW 4.0.4-stable) date 02/18/17 15:09:56*
%MOMM*%
%LPD*%
G01*
G04 APERTURE LIST*
%ADD10C,0.100000*%
%ADD11C,0.150000*%
%ADD12C,0.300000*%
G04 APERTURE END LIST*
D10*
D11*
X76886667Y-90062381D02*
X76696190Y-90062381D01*
X76600952Y-90110000D01*
X76553333Y-90157619D01*
X76458095Y-90300476D01*
X76410476Y-90490952D01*
X76410476Y-90871905D01*
X76458095Y-90967143D01*
X76505714Y-91014762D01*
X76600952Y-91062381D01*
X76791429Y-91062381D01*
X76886667Y-91014762D01*
X76934286Y-90967143D01*
X76981905Y-90871905D01*
X76981905Y-90633810D01*
X76934286Y-90538571D01*
X76886667Y-90490952D01*
X76791429Y-90443333D01*
X76600952Y-90443333D01*
X76505714Y-90490952D01*
X76458095Y-90538571D01*
X76410476Y-90633810D01*
X77315238Y-90062381D02*
X77981905Y-90062381D01*
X77553333Y-91062381D01*
X79029524Y-91062381D02*
X79553334Y-90395714D01*
X79029524Y-90395714D02*
X79553334Y-91062381D01*
X80648572Y-90157619D02*
X80696191Y-90110000D01*
X80791429Y-90062381D01*
X81029525Y-90062381D01*
X81124763Y-90110000D01*
X81172382Y-90157619D01*
X81220001Y-90252857D01*
X81220001Y-90348095D01*
X81172382Y-90490952D01*
X80600953Y-91062381D01*
X81220001Y-91062381D01*
X82124763Y-90062381D02*
X81648572Y-90062381D01*
X81600953Y-90538571D01*
X81648572Y-90490952D01*
X81743810Y-90443333D01*
X81981906Y-90443333D01*
X82077144Y-90490952D01*
X82124763Y-90538571D01*
X82172382Y-90633810D01*
X82172382Y-90871905D01*
X82124763Y-90967143D01*
X82077144Y-91014762D01*
X81981906Y-91062381D01*
X81743810Y-91062381D01*
X81648572Y-91014762D01*
X81600953Y-90967143D01*
X82600953Y-90967143D02*
X82648572Y-91014762D01*
X82600953Y-91062381D01*
X82553334Y-91014762D01*
X82600953Y-90967143D01*
X82600953Y-91062381D01*
X83220000Y-90490952D02*
X83124762Y-90443333D01*
X83077143Y-90395714D01*
X83029524Y-90300476D01*
X83029524Y-90252857D01*
X83077143Y-90157619D01*
X83124762Y-90110000D01*
X83220000Y-90062381D01*
X83410477Y-90062381D01*
X83505715Y-90110000D01*
X83553334Y-90157619D01*
X83600953Y-90252857D01*
X83600953Y-90300476D01*
X83553334Y-90395714D01*
X83505715Y-90443333D01*
X83410477Y-90490952D01*
X83220000Y-90490952D01*
X83124762Y-90538571D01*
X83077143Y-90586190D01*
X83029524Y-90681429D01*
X83029524Y-90871905D01*
X83077143Y-90967143D01*
X83124762Y-91014762D01*
X83220000Y-91062381D01*
X83410477Y-91062381D01*
X83505715Y-91014762D01*
X83553334Y-90967143D01*
X83600953Y-90871905D01*
X83600953Y-90681429D01*
X83553334Y-90586190D01*
X83505715Y-90538571D01*
X83410477Y-90490952D01*
X84791429Y-91062381D02*
X84791429Y-90395714D01*
X84791429Y-90490952D02*
X84839048Y-90443333D01*
X84934286Y-90395714D01*
X85077144Y-90395714D01*
X85172382Y-90443333D01*
X85220001Y-90538571D01*
X85220001Y-91062381D01*
X85220001Y-90538571D02*
X85267620Y-90443333D01*
X85362858Y-90395714D01*
X85505715Y-90395714D01*
X85600953Y-90443333D01*
X85648572Y-90538571D01*
X85648572Y-91062381D01*
X86124762Y-91062381D02*
X86124762Y-90395714D01*
X86124762Y-90490952D02*
X86172381Y-90443333D01*
X86267619Y-90395714D01*
X86410477Y-90395714D01*
X86505715Y-90443333D01*
X86553334Y-90538571D01*
X86553334Y-91062381D01*
X86553334Y-90538571D02*
X86600953Y-90443333D01*
X86696191Y-90395714D01*
X86839048Y-90395714D01*
X86934286Y-90443333D01*
X86981905Y-90538571D01*
X86981905Y-91062381D01*
D12*
X99642858Y-112228571D02*
X98785715Y-112228571D01*
X99214287Y-112228571D02*
X99214287Y-110728571D01*
X99071430Y-110942857D01*
X98928572Y-111085714D01*
X98785715Y-111157143D01*
X100928572Y-111228571D02*
X100928572Y-112228571D01*
X100571429Y-110657143D02*
X100214286Y-111728571D01*
X101142858Y-111728571D01*
X101714286Y-112085714D02*
X101785714Y-112157143D01*
X101714286Y-112228571D01*
X101642857Y-112157143D01*
X101714286Y-112085714D01*
X101714286Y-112228571D01*
X102714286Y-110728571D02*
X102857143Y-110728571D01*
X103000000Y-110800000D01*
X103071429Y-110871429D01*
X103142858Y-111014286D01*
X103214286Y-111300000D01*
X103214286Y-111657143D01*
X103142858Y-111942857D01*
X103071429Y-112085714D01*
X103000000Y-112157143D01*
X102857143Y-112228571D01*
X102714286Y-112228571D01*
X102571429Y-112157143D01*
X102500000Y-112085714D01*
X102428572Y-111942857D01*
X102357143Y-111657143D01*
X102357143Y-111300000D01*
X102428572Y-111014286D01*
X102500000Y-110871429D01*
X102571429Y-110800000D01*
X102714286Y-110728571D01*
X104142857Y-110728571D02*
X104285714Y-110728571D01*
X104428571Y-110800000D01*
X104500000Y-110871429D01*
X104571429Y-111014286D01*
X104642857Y-111300000D01*
X104642857Y-111657143D01*
X104571429Y-111942857D01*
X104500000Y-112085714D01*
X104428571Y-112157143D01*
X104285714Y-112228571D01*
X104142857Y-112228571D01*
X104000000Y-112157143D01*
X103928571Y-112085714D01*
X103857143Y-111942857D01*
X103785714Y-111657143D01*
X103785714Y-111300000D01*
X103857143Y-111014286D01*
X103928571Y-110871429D01*
X104000000Y-110800000D01*
X104142857Y-110728571D01*
X105571428Y-110728571D02*
X105714285Y-110728571D01*
X105857142Y-110800000D01*
X105928571Y-110871429D01*
X106000000Y-111014286D01*
X106071428Y-111300000D01*
X106071428Y-111657143D01*
X106000000Y-111942857D01*
X105928571Y-112085714D01*
X105857142Y-112157143D01*
X105714285Y-112228571D01*
X105571428Y-112228571D01*
X105428571Y-112157143D01*
X105357142Y-112085714D01*
X105285714Y-111942857D01*
X105214285Y-111657143D01*
X105214285Y-111300000D01*
X105285714Y-111014286D01*
X105357142Y-110871429D01*
X105428571Y-110800000D01*
X105571428Y-110728571D01*
X107857142Y-112228571D02*
X107857142Y-111228571D01*
X107857142Y-111371429D02*
X107928570Y-111300000D01*
X108071428Y-111228571D01*
X108285713Y-111228571D01*
X108428570Y-111300000D01*
X108499999Y-111442857D01*
X108499999Y-112228571D01*
X108499999Y-111442857D02*
X108571428Y-111300000D01*
X108714285Y-111228571D01*
X108928570Y-111228571D01*
X109071428Y-111300000D01*
X109142856Y-111442857D01*
X109142856Y-112228571D01*
X109857142Y-112228571D02*
X109857142Y-111228571D01*
X109857142Y-111371429D02*
X109928570Y-111300000D01*
X110071428Y-111228571D01*
X110285713Y-111228571D01*
X110428570Y-111300000D01*
X110499999Y-111442857D01*
X110499999Y-112228571D01*
X110499999Y-111442857D02*
X110571428Y-111300000D01*
X110714285Y-111228571D01*
X110928570Y-111228571D01*
X111071428Y-111300000D01*
X111142856Y-111442857D01*
X111142856Y-112228571D01*
X112000000Y-110200000D02*
X98000000Y-110200000D01*
X112000000Y-106000000D02*
X112000000Y-112900000D01*
X98000000Y-106000000D02*
X98000000Y-112900000D01*
X98000000Y-110200000D02*
X99126504Y-109613579D01*
X98000000Y-110200000D02*
X99126504Y-110786421D01*
X112000000Y-110200000D02*
X110873496Y-109613579D01*
X112000000Y-110200000D02*
X110873496Y-110786421D01*
X180471429Y-106214285D02*
X180400000Y-106142856D01*
X180328571Y-105999999D01*
X180328571Y-105642856D01*
X180400000Y-105499999D01*
X180471429Y-105428570D01*
X180614286Y-105357142D01*
X180757143Y-105357142D01*
X180971429Y-105428570D01*
X181828571Y-106285713D01*
X181828571Y-105357142D01*
X180328571Y-103999999D02*
X180328571Y-104714285D01*
X181042857Y-104785714D01*
X180971429Y-104714285D01*
X180900000Y-104571428D01*
X180900000Y-104214285D01*
X180971429Y-104071428D01*
X181042857Y-103999999D01*
X181185714Y-103928571D01*
X181542857Y-103928571D01*
X181685714Y-103999999D01*
X181757143Y-104071428D01*
X181828571Y-104214285D01*
X181828571Y-104571428D01*
X181757143Y-104714285D01*
X181685714Y-104785714D01*
X181685714Y-103285714D02*
X181757143Y-103214286D01*
X181828571Y-103285714D01*
X181757143Y-103357143D01*
X181685714Y-103285714D01*
X181828571Y-103285714D01*
X180971429Y-102357142D02*
X180900000Y-102500000D01*
X180828571Y-102571428D01*
X180685714Y-102642857D01*
X180614286Y-102642857D01*
X180471429Y-102571428D01*
X180400000Y-102500000D01*
X180328571Y-102357142D01*
X180328571Y-102071428D01*
X180400000Y-101928571D01*
X180471429Y-101857142D01*
X180614286Y-101785714D01*
X180685714Y-101785714D01*
X180828571Y-101857142D01*
X180900000Y-101928571D01*
X180971429Y-102071428D01*
X180971429Y-102357142D01*
X181042857Y-102500000D01*
X181114286Y-102571428D01*
X181257143Y-102642857D01*
X181542857Y-102642857D01*
X181685714Y-102571428D01*
X181757143Y-102500000D01*
X181828571Y-102357142D01*
X181828571Y-102071428D01*
X181757143Y-101928571D01*
X181685714Y-101857142D01*
X181542857Y-101785714D01*
X181257143Y-101785714D01*
X181114286Y-101857142D01*
X181042857Y-101928571D01*
X180971429Y-102071428D01*
X180328571Y-100857143D02*
X180328571Y-100714286D01*
X180400000Y-100571429D01*
X180471429Y-100500000D01*
X180614286Y-100428571D01*
X180900000Y-100357143D01*
X181257143Y-100357143D01*
X181542857Y-100428571D01*
X181685714Y-100500000D01*
X181757143Y-100571429D01*
X181828571Y-100714286D01*
X181828571Y-100857143D01*
X181757143Y-101000000D01*
X181685714Y-101071429D01*
X181542857Y-101142857D01*
X181257143Y-101214286D01*
X180900000Y-101214286D01*
X180614286Y-101142857D01*
X180471429Y-101071429D01*
X180400000Y-101000000D01*
X180328571Y-100857143D01*
X180328571Y-99428572D02*
X180328571Y-99285715D01*
X180400000Y-99142858D01*
X180471429Y-99071429D01*
X180614286Y-99000000D01*
X180900000Y-98928572D01*
X181257143Y-98928572D01*
X181542857Y-99000000D01*
X181685714Y-99071429D01*
X181757143Y-99142858D01*
X181828571Y-99285715D01*
X181828571Y-99428572D01*
X181757143Y-99571429D01*
X181685714Y-99642858D01*
X181542857Y-99714286D01*
X181257143Y-99785715D01*
X180900000Y-99785715D01*
X180614286Y-99714286D01*
X180471429Y-99642858D01*
X180400000Y-99571429D01*
X180328571Y-99428572D01*
X181828571Y-97142858D02*
X180828571Y-97142858D01*
X180971429Y-97142858D02*
X180900000Y-97071430D01*
X180828571Y-96928572D01*
X180828571Y-96714287D01*
X180900000Y-96571430D01*
X181042857Y-96500001D01*
X181828571Y-96500001D01*
X181042857Y-96500001D02*
X180900000Y-96428572D01*
X180828571Y-96285715D01*
X180828571Y-96071430D01*
X180900000Y-95928572D01*
X181042857Y-95857144D01*
X181828571Y-95857144D01*
X181828571Y-95142858D02*
X180828571Y-95142858D01*
X180971429Y-95142858D02*
X180900000Y-95071430D01*
X180828571Y-94928572D01*
X180828571Y-94714287D01*
X180900000Y-94571430D01*
X181042857Y-94500001D01*
X181828571Y-94500001D01*
X181042857Y-94500001D02*
X180900000Y-94428572D01*
X180828571Y-94285715D01*
X180828571Y-94071430D01*
X180900000Y-93928572D01*
X181042857Y-93857144D01*
X181828571Y-93857144D01*
X179800000Y-112900000D02*
X179800000Y-87100000D01*
X165000000Y-112900000D02*
X182500000Y-112900000D01*
X165000000Y-87100000D02*
X182500000Y-87100000D01*
X179800000Y-87100000D02*
X180386421Y-88226504D01*
X179800000Y-87100000D02*
X179213579Y-88226504D01*
X179800000Y-112900000D02*
X180386421Y-111773496D01*
X179800000Y-112900000D02*
X179213579Y-111773496D01*
X133071430Y-120828571D02*
X132357144Y-120828571D01*
X132285715Y-121542857D01*
X132357144Y-121471429D01*
X132500001Y-121400000D01*
X132857144Y-121400000D01*
X133000001Y-121471429D01*
X133071430Y-121542857D01*
X133142858Y-121685714D01*
X133142858Y-122042857D01*
X133071430Y-122185714D01*
X133000001Y-122257143D01*
X132857144Y-122328571D01*
X132500001Y-122328571D01*
X132357144Y-122257143D01*
X132285715Y-122185714D01*
X133642858Y-120828571D02*
X134571429Y-120828571D01*
X134071429Y-121400000D01*
X134285715Y-121400000D01*
X134428572Y-121471429D01*
X134500001Y-121542857D01*
X134571429Y-121685714D01*
X134571429Y-122042857D01*
X134500001Y-122185714D01*
X134428572Y-122257143D01*
X134285715Y-122328571D01*
X133857143Y-122328571D01*
X133714286Y-122257143D01*
X133642858Y-122185714D01*
X135214286Y-122185714D02*
X135285714Y-122257143D01*
X135214286Y-122328571D01*
X135142857Y-122257143D01*
X135214286Y-122185714D01*
X135214286Y-122328571D01*
X136214286Y-120828571D02*
X136357143Y-120828571D01*
X136500000Y-120900000D01*
X136571429Y-120971429D01*
X136642858Y-121114286D01*
X136714286Y-121400000D01*
X136714286Y-121757143D01*
X136642858Y-122042857D01*
X136571429Y-122185714D01*
X136500000Y-122257143D01*
X136357143Y-122328571D01*
X136214286Y-122328571D01*
X136071429Y-122257143D01*
X136000000Y-122185714D01*
X135928572Y-122042857D01*
X135857143Y-121757143D01*
X135857143Y-121400000D01*
X135928572Y-121114286D01*
X136000000Y-120971429D01*
X136071429Y-120900000D01*
X136214286Y-120828571D01*
X137642857Y-120828571D02*
X137785714Y-120828571D01*
X137928571Y-120900000D01*
X138000000Y-120971429D01*
X138071429Y-121114286D01*
X138142857Y-121400000D01*
X138142857Y-121757143D01*
X138071429Y-122042857D01*
X138000000Y-122185714D01*
X137928571Y-122257143D01*
X137785714Y-122328571D01*
X137642857Y-122328571D01*
X137500000Y-122257143D01*
X137428571Y-122185714D01*
X137357143Y-122042857D01*
X137285714Y-121757143D01*
X137285714Y-121400000D01*
X137357143Y-121114286D01*
X137428571Y-120971429D01*
X137500000Y-120900000D01*
X137642857Y-120828571D01*
X139071428Y-120828571D02*
X139214285Y-120828571D01*
X139357142Y-120900000D01*
X139428571Y-120971429D01*
X139500000Y-121114286D01*
X139571428Y-121400000D01*
X139571428Y-121757143D01*
X139500000Y-122042857D01*
X139428571Y-122185714D01*
X139357142Y-122257143D01*
X139214285Y-122328571D01*
X139071428Y-122328571D01*
X138928571Y-122257143D01*
X138857142Y-122185714D01*
X138785714Y-122042857D01*
X138714285Y-121757143D01*
X138714285Y-121400000D01*
X138785714Y-121114286D01*
X138857142Y-120971429D01*
X138928571Y-120900000D01*
X139071428Y-120828571D01*
X141357142Y-122328571D02*
X141357142Y-121328571D01*
X141357142Y-121471429D02*
X141428570Y-121400000D01*
X141571428Y-121328571D01*
X141785713Y-121328571D01*
X141928570Y-121400000D01*
X141999999Y-121542857D01*
X141999999Y-122328571D01*
X141999999Y-121542857D02*
X142071428Y-121400000D01*
X142214285Y-121328571D01*
X142428570Y-121328571D01*
X142571428Y-121400000D01*
X142642856Y-121542857D01*
X142642856Y-122328571D01*
X143357142Y-122328571D02*
X143357142Y-121328571D01*
X143357142Y-121471429D02*
X143428570Y-121400000D01*
X143571428Y-121328571D01*
X143785713Y-121328571D01*
X143928570Y-121400000D01*
X143999999Y-121542857D01*
X143999999Y-122328571D01*
X143999999Y-121542857D02*
X144071428Y-121400000D01*
X144214285Y-121328571D01*
X144428570Y-121328571D01*
X144571428Y-121400000D01*
X144642856Y-121542857D01*
X144642856Y-122328571D01*
X112000000Y-120300000D02*
X165000000Y-120300000D01*
X112000000Y-112900000D02*
X112000000Y-123000000D01*
X165000000Y-112900000D02*
X165000000Y-123000000D01*
X165000000Y-120300000D02*
X163873496Y-120886421D01*
X165000000Y-120300000D02*
X163873496Y-119713579D01*
X112000000Y-120300000D02*
X113126504Y-120886421D01*
X112000000Y-120300000D02*
X113126504Y-119713579D01*
D11*
X98000000Y-106030000D02*
X110000000Y-106030000D01*
X98000000Y-106030000D02*
X98000000Y-93970000D01*
X98000000Y-93970000D02*
X110000000Y-93970000D01*
D10*
X57700000Y-86600000D02*
X57700000Y-129600000D01*
X57700000Y-127600000D02*
X87700000Y-127600000D01*
X87700000Y-86600000D02*
X87700000Y-129600000D01*
X57700000Y-89600000D02*
X87700000Y-89600000D01*
X57700000Y-86600000D02*
X87700000Y-86600000D01*
X57700000Y-91600000D02*
X87700000Y-91600000D01*
X57700000Y-93600000D02*
X87700000Y-93600000D01*
X57700000Y-95600000D02*
X87700000Y-95600000D01*
X57700000Y-99600000D02*
X87700000Y-99600000D01*
X57700000Y-97600000D02*
X87700000Y-97600000D01*
X57700000Y-101600000D02*
X87700000Y-101600000D01*
X57700000Y-103600000D02*
X87700000Y-103600000D01*
X57700000Y-105600000D02*
X87700000Y-105600000D01*
X57700000Y-107600000D02*
X87700000Y-107600000D01*
X57700000Y-109600000D02*
X87700000Y-109600000D01*
X57700000Y-111600000D02*
X87700000Y-111600000D01*
X57700000Y-113600000D02*
X87700000Y-113600000D01*
X57700000Y-115600000D02*
X87700000Y-115600000D01*
X57700000Y-117600000D02*
X87700000Y-117600000D01*
X57700000Y-119600000D02*
X87700000Y-119600000D01*
X57700000Y-121600000D02*
X87700000Y-121600000D01*
X57700000Y-123600000D02*
X87700000Y-123600000D01*
X57700000Y-125600000D02*
X87700000Y-125600000D01*
X75700000Y-129600000D02*
X75700000Y-89600000D01*
X57700000Y-129600000D02*
X87700000Y-129600000D01*
D11*
X58128571Y-91052381D02*
X58128571Y-90052381D01*
X58509524Y-90052381D01*
X58604762Y-90100000D01*
X58652381Y-90147619D01*
X58700000Y-90242857D01*
X58700000Y-90385714D01*
X58652381Y-90480952D01*
X58604762Y-90528571D01*
X58509524Y-90576190D01*
X58128571Y-90576190D01*
X59700000Y-90957143D02*
X59652381Y-91004762D01*
X59509524Y-91052381D01*
X59414286Y-91052381D01*
X59271428Y-91004762D01*
X59176190Y-90909524D01*
X59128571Y-90814286D01*
X59080952Y-90623810D01*
X59080952Y-90480952D01*
X59128571Y-90290476D01*
X59176190Y-90195238D01*
X59271428Y-90100000D01*
X59414286Y-90052381D01*
X59509524Y-90052381D01*
X59652381Y-90100000D01*
X59700000Y-90147619D01*
X60461905Y-90528571D02*
X60604762Y-90576190D01*
X60652381Y-90623810D01*
X60700000Y-90719048D01*
X60700000Y-90861905D01*
X60652381Y-90957143D01*
X60604762Y-91004762D01*
X60509524Y-91052381D01*
X60128571Y-91052381D01*
X60128571Y-90052381D01*
X60461905Y-90052381D01*
X60557143Y-90100000D01*
X60604762Y-90147619D01*
X60652381Y-90242857D01*
X60652381Y-90338095D01*
X60604762Y-90433333D01*
X60557143Y-90480952D01*
X60461905Y-90528571D01*
X60128571Y-90528571D01*
X61842857Y-91004762D02*
X61985714Y-91052381D01*
X62223810Y-91052381D01*
X62319048Y-91004762D01*
X62366667Y-90957143D01*
X62414286Y-90861905D01*
X62414286Y-90766667D01*
X62366667Y-90671429D01*
X62319048Y-90623810D01*
X62223810Y-90576190D01*
X62033333Y-90528571D01*
X61938095Y-90480952D01*
X61890476Y-90433333D01*
X61842857Y-90338095D01*
X61842857Y-90242857D01*
X61890476Y-90147619D01*
X61938095Y-90100000D01*
X62033333Y-90052381D01*
X62271429Y-90052381D01*
X62414286Y-90100000D01*
X62842857Y-91052381D02*
X62842857Y-90385714D01*
X62842857Y-90052381D02*
X62795238Y-90100000D01*
X62842857Y-90147619D01*
X62890476Y-90100000D01*
X62842857Y-90052381D01*
X62842857Y-90147619D01*
X63223809Y-90385714D02*
X63747619Y-90385714D01*
X63223809Y-91052381D01*
X63747619Y-91052381D01*
X64509524Y-91004762D02*
X64414286Y-91052381D01*
X64223809Y-91052381D01*
X64128571Y-91004762D01*
X64080952Y-90909524D01*
X64080952Y-90528571D01*
X64128571Y-90433333D01*
X64223809Y-90385714D01*
X64414286Y-90385714D01*
X64509524Y-90433333D01*
X64557143Y-90528571D01*
X64557143Y-90623810D01*
X64080952Y-90719048D01*
X66033334Y-91433333D02*
X65985714Y-91385714D01*
X65890476Y-91242857D01*
X65842857Y-91147619D01*
X65795238Y-91004762D01*
X65747619Y-90766667D01*
X65747619Y-90576190D01*
X65795238Y-90338095D01*
X65842857Y-90195238D01*
X65890476Y-90100000D01*
X65985714Y-89957143D01*
X66033334Y-89909524D01*
X66414286Y-91052381D02*
X66414286Y-90385714D01*
X66414286Y-90480952D02*
X66461905Y-90433333D01*
X66557143Y-90385714D01*
X66700001Y-90385714D01*
X66795239Y-90433333D01*
X66842858Y-90528571D01*
X66842858Y-91052381D01*
X66842858Y-90528571D02*
X66890477Y-90433333D01*
X66985715Y-90385714D01*
X67128572Y-90385714D01*
X67223810Y-90433333D01*
X67271429Y-90528571D01*
X67271429Y-91052381D01*
X67747619Y-91052381D02*
X67747619Y-90385714D01*
X67747619Y-90480952D02*
X67795238Y-90433333D01*
X67890476Y-90385714D01*
X68033334Y-90385714D01*
X68128572Y-90433333D01*
X68176191Y-90528571D01*
X68176191Y-91052381D01*
X68176191Y-90528571D02*
X68223810Y-90433333D01*
X68319048Y-90385714D01*
X68461905Y-90385714D01*
X68557143Y-90433333D01*
X68604762Y-90528571D01*
X68604762Y-91052381D01*
X68985714Y-91433333D02*
X69033333Y-91385714D01*
X69128571Y-91242857D01*
X69176190Y-91147619D01*
X69223809Y-91004762D01*
X69271428Y-90766667D01*
X69271428Y-90576190D01*
X69223809Y-90338095D01*
X69176190Y-90195238D01*
X69128571Y-90100000D01*
X69033333Y-89957143D01*
X68985714Y-89909524D01*
X58814287Y-88514286D02*
X58414287Y-88514286D01*
X58414287Y-89142857D02*
X58414287Y-87942857D01*
X58985716Y-87942857D01*
X59957144Y-89142857D02*
X59957144Y-88514286D01*
X59900001Y-88400000D01*
X59785715Y-88342857D01*
X59557144Y-88342857D01*
X59442858Y-88400000D01*
X59957144Y-89085714D02*
X59842858Y-89142857D01*
X59557144Y-89142857D01*
X59442858Y-89085714D01*
X59385715Y-88971429D01*
X59385715Y-88857143D01*
X59442858Y-88742857D01*
X59557144Y-88685714D01*
X59842858Y-88685714D01*
X59957144Y-88628571D01*
X60528572Y-89142857D02*
X60528572Y-87942857D01*
X60528572Y-88400000D02*
X60642858Y-88342857D01*
X60871429Y-88342857D01*
X60985715Y-88400000D01*
X61042858Y-88457143D01*
X61100001Y-88571429D01*
X61100001Y-88914286D01*
X61042858Y-89028571D01*
X60985715Y-89085714D01*
X60871429Y-89142857D01*
X60642858Y-89142857D01*
X60528572Y-89085714D01*
X61614286Y-89142857D02*
X61614286Y-88342857D01*
X61614286Y-88571429D02*
X61671429Y-88457143D01*
X61728572Y-88400000D01*
X61842858Y-88342857D01*
X61957143Y-88342857D01*
X62357143Y-89142857D02*
X62357143Y-88342857D01*
X62357143Y-87942857D02*
X62300000Y-88000000D01*
X62357143Y-88057143D01*
X62414286Y-88000000D01*
X62357143Y-87942857D01*
X62357143Y-88057143D01*
X63442858Y-89085714D02*
X63328572Y-89142857D01*
X63100001Y-89142857D01*
X62985715Y-89085714D01*
X62928572Y-89028571D01*
X62871429Y-88914286D01*
X62871429Y-88571429D01*
X62928572Y-88457143D01*
X62985715Y-88400000D01*
X63100001Y-88342857D01*
X63328572Y-88342857D01*
X63442858Y-88400000D01*
X64471429Y-89142857D02*
X64471429Y-88514286D01*
X64414286Y-88400000D01*
X64300000Y-88342857D01*
X64071429Y-88342857D01*
X63957143Y-88400000D01*
X64471429Y-89085714D02*
X64357143Y-89142857D01*
X64071429Y-89142857D01*
X63957143Y-89085714D01*
X63900000Y-88971429D01*
X63900000Y-88857143D01*
X63957143Y-88742857D01*
X64071429Y-88685714D01*
X64357143Y-88685714D01*
X64471429Y-88628571D01*
X64871429Y-88342857D02*
X65328572Y-88342857D01*
X65042857Y-87942857D02*
X65042857Y-88971429D01*
X65100000Y-89085714D01*
X65214286Y-89142857D01*
X65328572Y-89142857D01*
X65728571Y-89142857D02*
X65728571Y-88342857D01*
X65728571Y-87942857D02*
X65671428Y-88000000D01*
X65728571Y-88057143D01*
X65785714Y-88000000D01*
X65728571Y-87942857D01*
X65728571Y-88057143D01*
X66471429Y-89142857D02*
X66357143Y-89085714D01*
X66300000Y-89028571D01*
X66242857Y-88914286D01*
X66242857Y-88571429D01*
X66300000Y-88457143D01*
X66357143Y-88400000D01*
X66471429Y-88342857D01*
X66642857Y-88342857D01*
X66757143Y-88400000D01*
X66814286Y-88457143D01*
X66871429Y-88571429D01*
X66871429Y-88914286D01*
X66814286Y-89028571D01*
X66757143Y-89085714D01*
X66642857Y-89142857D01*
X66471429Y-89142857D01*
X67385714Y-88342857D02*
X67385714Y-89142857D01*
X67385714Y-88457143D02*
X67442857Y-88400000D01*
X67557143Y-88342857D01*
X67728571Y-88342857D01*
X67842857Y-88400000D01*
X67900000Y-88514286D01*
X67900000Y-89142857D01*
X69385714Y-89142857D02*
X69385714Y-87942857D01*
X69671429Y-87942857D01*
X69842857Y-88000000D01*
X69957143Y-88114286D01*
X70014286Y-88228571D01*
X70071429Y-88457143D01*
X70071429Y-88628571D01*
X70014286Y-88857143D01*
X69957143Y-88971429D01*
X69842857Y-89085714D01*
X69671429Y-89142857D01*
X69385714Y-89142857D01*
X71042857Y-89085714D02*
X70928571Y-89142857D01*
X70700000Y-89142857D01*
X70585714Y-89085714D01*
X70528571Y-88971429D01*
X70528571Y-88514286D01*
X70585714Y-88400000D01*
X70700000Y-88342857D01*
X70928571Y-88342857D01*
X71042857Y-88400000D01*
X71100000Y-88514286D01*
X71100000Y-88628571D01*
X70528571Y-88742857D01*
X71442857Y-88342857D02*
X71900000Y-88342857D01*
X71614285Y-87942857D02*
X71614285Y-88971429D01*
X71671428Y-89085714D01*
X71785714Y-89142857D01*
X71900000Y-89142857D01*
X72814285Y-89142857D02*
X72814285Y-88514286D01*
X72757142Y-88400000D01*
X72642856Y-88342857D01*
X72414285Y-88342857D01*
X72299999Y-88400000D01*
X72814285Y-89085714D02*
X72699999Y-89142857D01*
X72414285Y-89142857D01*
X72299999Y-89085714D01*
X72242856Y-88971429D01*
X72242856Y-88857143D01*
X72299999Y-88742857D01*
X72414285Y-88685714D01*
X72699999Y-88685714D01*
X72814285Y-88628571D01*
X73385713Y-89142857D02*
X73385713Y-88342857D01*
X73385713Y-87942857D02*
X73328570Y-88000000D01*
X73385713Y-88057143D01*
X73442856Y-88000000D01*
X73385713Y-87942857D01*
X73385713Y-88057143D01*
X74128571Y-89142857D02*
X74014285Y-89085714D01*
X73957142Y-88971429D01*
X73957142Y-87942857D01*
X74528570Y-89085714D02*
X74642856Y-89142857D01*
X74871428Y-89142857D01*
X74985713Y-89085714D01*
X75042856Y-88971429D01*
X75042856Y-88914286D01*
X74985713Y-88800000D01*
X74871428Y-88742857D01*
X74699999Y-88742857D01*
X74585713Y-88685714D01*
X74528570Y-88571429D01*
X74528570Y-88514286D01*
X74585713Y-88400000D01*
X74699999Y-88342857D01*
X74871428Y-88342857D01*
X74985713Y-88400000D01*
X58380951Y-93052381D02*
X58380951Y-92052381D01*
X58952380Y-93052381D01*
X58952380Y-92052381D01*
X59571427Y-93052381D02*
X59476189Y-93004762D01*
X59428570Y-92957143D01*
X59380951Y-92861905D01*
X59380951Y-92576190D01*
X59428570Y-92480952D01*
X59476189Y-92433333D01*
X59571427Y-92385714D01*
X59714285Y-92385714D01*
X59809523Y-92433333D01*
X59857142Y-92480952D01*
X59904761Y-92576190D01*
X59904761Y-92861905D01*
X59857142Y-92957143D01*
X59809523Y-93004762D01*
X59714285Y-93052381D01*
X59571427Y-93052381D01*
X61238094Y-93052381D02*
X61142856Y-93004762D01*
X61095237Y-92957143D01*
X61047618Y-92861905D01*
X61047618Y-92576190D01*
X61095237Y-92480952D01*
X61142856Y-92433333D01*
X61238094Y-92385714D01*
X61380952Y-92385714D01*
X61476190Y-92433333D01*
X61523809Y-92480952D01*
X61571428Y-92576190D01*
X61571428Y-92861905D01*
X61523809Y-92957143D01*
X61476190Y-93004762D01*
X61380952Y-93052381D01*
X61238094Y-93052381D01*
X61857142Y-92385714D02*
X62238094Y-92385714D01*
X61999999Y-93052381D02*
X61999999Y-92195238D01*
X62047618Y-92100000D01*
X62142856Y-92052381D01*
X62238094Y-92052381D01*
X63809524Y-93052381D02*
X63333333Y-93052381D01*
X63333333Y-92052381D01*
X64571429Y-93052381D02*
X64571429Y-92528571D01*
X64523810Y-92433333D01*
X64428572Y-92385714D01*
X64238095Y-92385714D01*
X64142857Y-92433333D01*
X64571429Y-93004762D02*
X64476191Y-93052381D01*
X64238095Y-93052381D01*
X64142857Y-93004762D01*
X64095238Y-92909524D01*
X64095238Y-92814286D01*
X64142857Y-92719048D01*
X64238095Y-92671429D01*
X64476191Y-92671429D01*
X64571429Y-92623810D01*
X64952381Y-92385714D02*
X65190476Y-93052381D01*
X65428572Y-92385714D02*
X65190476Y-93052381D01*
X65095238Y-93290476D01*
X65047619Y-93338095D01*
X64952381Y-93385714D01*
X66190477Y-93004762D02*
X66095239Y-93052381D01*
X65904762Y-93052381D01*
X65809524Y-93004762D01*
X65761905Y-92909524D01*
X65761905Y-92528571D01*
X65809524Y-92433333D01*
X65904762Y-92385714D01*
X66095239Y-92385714D01*
X66190477Y-92433333D01*
X66238096Y-92528571D01*
X66238096Y-92623810D01*
X65761905Y-92719048D01*
X66666667Y-93052381D02*
X66666667Y-92385714D01*
X66666667Y-92576190D02*
X66714286Y-92480952D01*
X66761905Y-92433333D01*
X66857143Y-92385714D01*
X66952382Y-92385714D01*
X67238096Y-93004762D02*
X67333334Y-93052381D01*
X67523810Y-93052381D01*
X67619049Y-93004762D01*
X67666668Y-92909524D01*
X67666668Y-92861905D01*
X67619049Y-92766667D01*
X67523810Y-92719048D01*
X67380953Y-92719048D01*
X67285715Y-92671429D01*
X67238096Y-92576190D01*
X67238096Y-92528571D01*
X67285715Y-92433333D01*
X67380953Y-92385714D01*
X67523810Y-92385714D01*
X67619049Y-92433333D01*
X58390476Y-95052381D02*
X58390476Y-94052381D01*
X58723810Y-94766667D01*
X59057143Y-94052381D01*
X59057143Y-95052381D01*
X59533333Y-95052381D02*
X59533333Y-94385714D01*
X59533333Y-94052381D02*
X59485714Y-94100000D01*
X59533333Y-94147619D01*
X59580952Y-94100000D01*
X59533333Y-94052381D01*
X59533333Y-94147619D01*
X60009523Y-94385714D02*
X60009523Y-95052381D01*
X60009523Y-94480952D02*
X60057142Y-94433333D01*
X60152380Y-94385714D01*
X60295238Y-94385714D01*
X60390476Y-94433333D01*
X60438095Y-94528571D01*
X60438095Y-95052381D01*
X62152381Y-95052381D02*
X61676190Y-95052381D01*
X61676190Y-94052381D01*
X62485714Y-95052381D02*
X62485714Y-94385714D01*
X62485714Y-94052381D02*
X62438095Y-94100000D01*
X62485714Y-94147619D01*
X62533333Y-94100000D01*
X62485714Y-94052381D01*
X62485714Y-94147619D01*
X62961904Y-94385714D02*
X62961904Y-95052381D01*
X62961904Y-94480952D02*
X63009523Y-94433333D01*
X63104761Y-94385714D01*
X63247619Y-94385714D01*
X63342857Y-94433333D01*
X63390476Y-94528571D01*
X63390476Y-95052381D01*
X64247619Y-95004762D02*
X64152381Y-95052381D01*
X63961904Y-95052381D01*
X63866666Y-95004762D01*
X63819047Y-94909524D01*
X63819047Y-94528571D01*
X63866666Y-94433333D01*
X63961904Y-94385714D01*
X64152381Y-94385714D01*
X64247619Y-94433333D01*
X64295238Y-94528571D01*
X64295238Y-94623810D01*
X63819047Y-94719048D01*
X65390476Y-94052381D02*
X65628571Y-95052381D01*
X65819048Y-94338095D01*
X66009524Y-95052381D01*
X66247619Y-94052381D01*
X66628571Y-95052381D02*
X66628571Y-94385714D01*
X66628571Y-94052381D02*
X66580952Y-94100000D01*
X66628571Y-94147619D01*
X66676190Y-94100000D01*
X66628571Y-94052381D01*
X66628571Y-94147619D01*
X67533333Y-95052381D02*
X67533333Y-94052381D01*
X67533333Y-95004762D02*
X67438095Y-95052381D01*
X67247618Y-95052381D01*
X67152380Y-95004762D01*
X67104761Y-94957143D01*
X67057142Y-94861905D01*
X67057142Y-94576190D01*
X67104761Y-94480952D01*
X67152380Y-94433333D01*
X67247618Y-94385714D01*
X67438095Y-94385714D01*
X67533333Y-94433333D01*
X67866666Y-94385714D02*
X68247618Y-94385714D01*
X68009523Y-94052381D02*
X68009523Y-94909524D01*
X68057142Y-95004762D01*
X68152380Y-95052381D01*
X68247618Y-95052381D01*
X68580952Y-95052381D02*
X68580952Y-94052381D01*
X69009524Y-95052381D02*
X69009524Y-94528571D01*
X68961905Y-94433333D01*
X68866667Y-94385714D01*
X68723809Y-94385714D01*
X68628571Y-94433333D01*
X68580952Y-94480952D01*
X58442857Y-97052381D02*
X58442857Y-96052381D01*
X58776191Y-96766667D01*
X59109524Y-96052381D01*
X59109524Y-97052381D01*
X59585714Y-97052381D02*
X59585714Y-96385714D01*
X59585714Y-96052381D02*
X59538095Y-96100000D01*
X59585714Y-96147619D01*
X59633333Y-96100000D01*
X59585714Y-96052381D01*
X59585714Y-96147619D01*
X60061904Y-96385714D02*
X60061904Y-97052381D01*
X60061904Y-96480952D02*
X60109523Y-96433333D01*
X60204761Y-96385714D01*
X60347619Y-96385714D01*
X60442857Y-96433333D01*
X60490476Y-96528571D01*
X60490476Y-97052381D01*
X61680952Y-97004762D02*
X61823809Y-97052381D01*
X62061905Y-97052381D01*
X62157143Y-97004762D01*
X62204762Y-96957143D01*
X62252381Y-96861905D01*
X62252381Y-96766667D01*
X62204762Y-96671429D01*
X62157143Y-96623810D01*
X62061905Y-96576190D01*
X61871428Y-96528571D01*
X61776190Y-96480952D01*
X61728571Y-96433333D01*
X61680952Y-96338095D01*
X61680952Y-96242857D01*
X61728571Y-96147619D01*
X61776190Y-96100000D01*
X61871428Y-96052381D01*
X62109524Y-96052381D01*
X62252381Y-96100000D01*
X62680952Y-96385714D02*
X62680952Y-97385714D01*
X62680952Y-96433333D02*
X62776190Y-96385714D01*
X62966667Y-96385714D01*
X63061905Y-96433333D01*
X63109524Y-96480952D01*
X63157143Y-96576190D01*
X63157143Y-96861905D01*
X63109524Y-96957143D01*
X63061905Y-97004762D01*
X62966667Y-97052381D01*
X62776190Y-97052381D01*
X62680952Y-97004762D01*
X64014286Y-97052381D02*
X64014286Y-96528571D01*
X63966667Y-96433333D01*
X63871429Y-96385714D01*
X63680952Y-96385714D01*
X63585714Y-96433333D01*
X64014286Y-97004762D02*
X63919048Y-97052381D01*
X63680952Y-97052381D01*
X63585714Y-97004762D01*
X63538095Y-96909524D01*
X63538095Y-96814286D01*
X63585714Y-96719048D01*
X63680952Y-96671429D01*
X63919048Y-96671429D01*
X64014286Y-96623810D01*
X64919048Y-97004762D02*
X64823810Y-97052381D01*
X64633333Y-97052381D01*
X64538095Y-97004762D01*
X64490476Y-96957143D01*
X64442857Y-96861905D01*
X64442857Y-96576190D01*
X64490476Y-96480952D01*
X64538095Y-96433333D01*
X64633333Y-96385714D01*
X64823810Y-96385714D01*
X64919048Y-96433333D01*
X65347619Y-97052381D02*
X65347619Y-96385714D01*
X65347619Y-96052381D02*
X65300000Y-96100000D01*
X65347619Y-96147619D01*
X65395238Y-96100000D01*
X65347619Y-96052381D01*
X65347619Y-96147619D01*
X65823809Y-96385714D02*
X65823809Y-97052381D01*
X65823809Y-96480952D02*
X65871428Y-96433333D01*
X65966666Y-96385714D01*
X66109524Y-96385714D01*
X66204762Y-96433333D01*
X66252381Y-96528571D01*
X66252381Y-97052381D01*
X67157143Y-96385714D02*
X67157143Y-97195238D01*
X67109524Y-97290476D01*
X67061905Y-97338095D01*
X66966666Y-97385714D01*
X66823809Y-97385714D01*
X66728571Y-97338095D01*
X67157143Y-97004762D02*
X67061905Y-97052381D01*
X66871428Y-97052381D01*
X66776190Y-97004762D01*
X66728571Y-96957143D01*
X66680952Y-96861905D01*
X66680952Y-96576190D01*
X66728571Y-96480952D01*
X66776190Y-96433333D01*
X66871428Y-96385714D01*
X67061905Y-96385714D01*
X67157143Y-96433333D01*
X58323808Y-98804762D02*
X58466665Y-98852381D01*
X58704761Y-98852381D01*
X58799999Y-98804762D01*
X58847618Y-98757143D01*
X58895237Y-98661905D01*
X58895237Y-98566667D01*
X58847618Y-98471429D01*
X58799999Y-98423810D01*
X58704761Y-98376190D01*
X58514284Y-98328571D01*
X58419046Y-98280952D01*
X58371427Y-98233333D01*
X58323808Y-98138095D01*
X58323808Y-98042857D01*
X58371427Y-97947619D01*
X58419046Y-97900000D01*
X58514284Y-97852381D01*
X58752380Y-97852381D01*
X58895237Y-97900000D01*
X59466665Y-98852381D02*
X59371427Y-98804762D01*
X59323808Y-98709524D01*
X59323808Y-97852381D01*
X59990475Y-98852381D02*
X59895237Y-98804762D01*
X59847618Y-98757143D01*
X59799999Y-98661905D01*
X59799999Y-98376190D01*
X59847618Y-98280952D01*
X59895237Y-98233333D01*
X59990475Y-98185714D01*
X60133333Y-98185714D01*
X60228571Y-98233333D01*
X60276190Y-98280952D01*
X60323809Y-98376190D01*
X60323809Y-98661905D01*
X60276190Y-98757143D01*
X60228571Y-98804762D01*
X60133333Y-98852381D01*
X59990475Y-98852381D01*
X60609523Y-98185714D02*
X60990475Y-98185714D01*
X60752380Y-97852381D02*
X60752380Y-98709524D01*
X60799999Y-98804762D01*
X60895237Y-98852381D01*
X60990475Y-98852381D01*
X62085714Y-98852381D02*
X62085714Y-97852381D01*
X62466667Y-97852381D01*
X62561905Y-97900000D01*
X62609524Y-97947619D01*
X62657143Y-98042857D01*
X62657143Y-98185714D01*
X62609524Y-98280952D01*
X62561905Y-98328571D01*
X62466667Y-98376190D01*
X62085714Y-98376190D01*
X63085714Y-98852381D02*
X63085714Y-98185714D01*
X63085714Y-98376190D02*
X63133333Y-98280952D01*
X63180952Y-98233333D01*
X63276190Y-98185714D01*
X63371429Y-98185714D01*
X64085715Y-98804762D02*
X63990477Y-98852381D01*
X63800000Y-98852381D01*
X63704762Y-98804762D01*
X63657143Y-98709524D01*
X63657143Y-98328571D01*
X63704762Y-98233333D01*
X63800000Y-98185714D01*
X63990477Y-98185714D01*
X64085715Y-98233333D01*
X64133334Y-98328571D01*
X64133334Y-98423810D01*
X63657143Y-98519048D01*
X64514286Y-98804762D02*
X64609524Y-98852381D01*
X64800000Y-98852381D01*
X64895239Y-98804762D01*
X64942858Y-98709524D01*
X64942858Y-98661905D01*
X64895239Y-98566667D01*
X64800000Y-98519048D01*
X64657143Y-98519048D01*
X64561905Y-98471429D01*
X64514286Y-98376190D01*
X64514286Y-98328571D01*
X64561905Y-98233333D01*
X64657143Y-98185714D01*
X64800000Y-98185714D01*
X64895239Y-98233333D01*
X65752382Y-98804762D02*
X65657144Y-98852381D01*
X65466667Y-98852381D01*
X65371429Y-98804762D01*
X65323810Y-98709524D01*
X65323810Y-98328571D01*
X65371429Y-98233333D01*
X65466667Y-98185714D01*
X65657144Y-98185714D01*
X65752382Y-98233333D01*
X65800001Y-98328571D01*
X65800001Y-98423810D01*
X65323810Y-98519048D01*
X66228572Y-98185714D02*
X66228572Y-98852381D01*
X66228572Y-98280952D02*
X66276191Y-98233333D01*
X66371429Y-98185714D01*
X66514287Y-98185714D01*
X66609525Y-98233333D01*
X66657144Y-98328571D01*
X66657144Y-98852381D01*
X66990477Y-98185714D02*
X67371429Y-98185714D01*
X67133334Y-97852381D02*
X67133334Y-98709524D01*
X67180953Y-98804762D01*
X67276191Y-98852381D01*
X67371429Y-98852381D01*
X58252380Y-101004762D02*
X58395237Y-101052381D01*
X58633333Y-101052381D01*
X58728571Y-101004762D01*
X58776190Y-100957143D01*
X58823809Y-100861905D01*
X58823809Y-100766667D01*
X58776190Y-100671429D01*
X58728571Y-100623810D01*
X58633333Y-100576190D01*
X58442856Y-100528571D01*
X58347618Y-100480952D01*
X58299999Y-100433333D01*
X58252380Y-100338095D01*
X58252380Y-100242857D01*
X58299999Y-100147619D01*
X58347618Y-100100000D01*
X58442856Y-100052381D01*
X58680952Y-100052381D01*
X58823809Y-100100000D01*
X59252380Y-101052381D02*
X59252380Y-100052381D01*
X59585714Y-100766667D01*
X59919047Y-100052381D01*
X59919047Y-101052381D01*
X60395237Y-101052381D02*
X60395237Y-100052381D01*
X60633332Y-100052381D01*
X60776190Y-100100000D01*
X60871428Y-100195238D01*
X60919047Y-100290476D01*
X60966666Y-100480952D01*
X60966666Y-100623810D01*
X60919047Y-100814286D01*
X60871428Y-100909524D01*
X60776190Y-101004762D01*
X60633332Y-101052381D01*
X60395237Y-101052381D01*
X62157142Y-101052381D02*
X62157142Y-100052381D01*
X62538095Y-100052381D01*
X62633333Y-100100000D01*
X62680952Y-100147619D01*
X62728571Y-100242857D01*
X62728571Y-100385714D01*
X62680952Y-100480952D01*
X62633333Y-100528571D01*
X62538095Y-100576190D01*
X62157142Y-100576190D01*
X63157142Y-101052381D02*
X63157142Y-100385714D01*
X63157142Y-100576190D02*
X63204761Y-100480952D01*
X63252380Y-100433333D01*
X63347618Y-100385714D01*
X63442857Y-100385714D01*
X64157143Y-101004762D02*
X64061905Y-101052381D01*
X63871428Y-101052381D01*
X63776190Y-101004762D01*
X63728571Y-100909524D01*
X63728571Y-100528571D01*
X63776190Y-100433333D01*
X63871428Y-100385714D01*
X64061905Y-100385714D01*
X64157143Y-100433333D01*
X64204762Y-100528571D01*
X64204762Y-100623810D01*
X63728571Y-100719048D01*
X64585714Y-101004762D02*
X64680952Y-101052381D01*
X64871428Y-101052381D01*
X64966667Y-101004762D01*
X65014286Y-100909524D01*
X65014286Y-100861905D01*
X64966667Y-100766667D01*
X64871428Y-100719048D01*
X64728571Y-100719048D01*
X64633333Y-100671429D01*
X64585714Y-100576190D01*
X64585714Y-100528571D01*
X64633333Y-100433333D01*
X64728571Y-100385714D01*
X64871428Y-100385714D01*
X64966667Y-100433333D01*
X65823810Y-101004762D02*
X65728572Y-101052381D01*
X65538095Y-101052381D01*
X65442857Y-101004762D01*
X65395238Y-100909524D01*
X65395238Y-100528571D01*
X65442857Y-100433333D01*
X65538095Y-100385714D01*
X65728572Y-100385714D01*
X65823810Y-100433333D01*
X65871429Y-100528571D01*
X65871429Y-100623810D01*
X65395238Y-100719048D01*
X66300000Y-100385714D02*
X66300000Y-101052381D01*
X66300000Y-100480952D02*
X66347619Y-100433333D01*
X66442857Y-100385714D01*
X66585715Y-100385714D01*
X66680953Y-100433333D01*
X66728572Y-100528571D01*
X66728572Y-101052381D01*
X67061905Y-100385714D02*
X67442857Y-100385714D01*
X67204762Y-100052381D02*
X67204762Y-100909524D01*
X67252381Y-101004762D01*
X67347619Y-101052381D01*
X67442857Y-101052381D01*
X58257142Y-103052381D02*
X58257142Y-102052381D01*
X58590476Y-102766667D01*
X58923809Y-102052381D01*
X58923809Y-103052381D01*
X59828571Y-103052381D02*
X59828571Y-102528571D01*
X59780952Y-102433333D01*
X59685714Y-102385714D01*
X59495237Y-102385714D01*
X59399999Y-102433333D01*
X59828571Y-103004762D02*
X59733333Y-103052381D01*
X59495237Y-103052381D01*
X59399999Y-103004762D01*
X59352380Y-102909524D01*
X59352380Y-102814286D01*
X59399999Y-102719048D01*
X59495237Y-102671429D01*
X59733333Y-102671429D01*
X59828571Y-102623810D01*
X60257142Y-103004762D02*
X60352380Y-103052381D01*
X60542856Y-103052381D01*
X60638095Y-103004762D01*
X60685714Y-102909524D01*
X60685714Y-102861905D01*
X60638095Y-102766667D01*
X60542856Y-102719048D01*
X60399999Y-102719048D01*
X60304761Y-102671429D01*
X60257142Y-102576190D01*
X60257142Y-102528571D01*
X60304761Y-102433333D01*
X60399999Y-102385714D01*
X60542856Y-102385714D01*
X60638095Y-102433333D01*
X61114285Y-103052381D02*
X61114285Y-102052381D01*
X61209523Y-102671429D02*
X61495238Y-103052381D01*
X61495238Y-102385714D02*
X61114285Y-102766667D01*
X63257143Y-102957143D02*
X63209524Y-103004762D01*
X63066667Y-103052381D01*
X62971429Y-103052381D01*
X62828571Y-103004762D01*
X62733333Y-102909524D01*
X62685714Y-102814286D01*
X62638095Y-102623810D01*
X62638095Y-102480952D01*
X62685714Y-102290476D01*
X62733333Y-102195238D01*
X62828571Y-102100000D01*
X62971429Y-102052381D01*
X63066667Y-102052381D01*
X63209524Y-102100000D01*
X63257143Y-102147619D01*
X63828571Y-103052381D02*
X63733333Y-103004762D01*
X63685714Y-102957143D01*
X63638095Y-102861905D01*
X63638095Y-102576190D01*
X63685714Y-102480952D01*
X63733333Y-102433333D01*
X63828571Y-102385714D01*
X63971429Y-102385714D01*
X64066667Y-102433333D01*
X64114286Y-102480952D01*
X64161905Y-102576190D01*
X64161905Y-102861905D01*
X64114286Y-102957143D01*
X64066667Y-103004762D01*
X63971429Y-103052381D01*
X63828571Y-103052381D01*
X64495238Y-102385714D02*
X64733333Y-103052381D01*
X64971429Y-102385714D01*
X65733334Y-103004762D02*
X65638096Y-103052381D01*
X65447619Y-103052381D01*
X65352381Y-103004762D01*
X65304762Y-102909524D01*
X65304762Y-102528571D01*
X65352381Y-102433333D01*
X65447619Y-102385714D01*
X65638096Y-102385714D01*
X65733334Y-102433333D01*
X65780953Y-102528571D01*
X65780953Y-102623810D01*
X65304762Y-102719048D01*
X66209524Y-103052381D02*
X66209524Y-102385714D01*
X66209524Y-102576190D02*
X66257143Y-102480952D01*
X66304762Y-102433333D01*
X66400000Y-102385714D01*
X66495239Y-102385714D01*
X66828572Y-103052381D02*
X66828572Y-102385714D01*
X66828572Y-102052381D02*
X66780953Y-102100000D01*
X66828572Y-102147619D01*
X66876191Y-102100000D01*
X66828572Y-102052381D01*
X66828572Y-102147619D01*
X67304762Y-102385714D02*
X67304762Y-103052381D01*
X67304762Y-102480952D02*
X67352381Y-102433333D01*
X67447619Y-102385714D01*
X67590477Y-102385714D01*
X67685715Y-102433333D01*
X67733334Y-102528571D01*
X67733334Y-103052381D01*
X68638096Y-102385714D02*
X68638096Y-103195238D01*
X68590477Y-103290476D01*
X68542858Y-103338095D01*
X68447619Y-103385714D01*
X68304762Y-103385714D01*
X68209524Y-103338095D01*
X68638096Y-103004762D02*
X68542858Y-103052381D01*
X68352381Y-103052381D01*
X68257143Y-103004762D01*
X68209524Y-102957143D01*
X68161905Y-102861905D01*
X68161905Y-102576190D01*
X68209524Y-102480952D01*
X68257143Y-102433333D01*
X68352381Y-102385714D01*
X68542858Y-102385714D01*
X68638096Y-102433333D01*
X69733334Y-102052381D02*
X70066667Y-103052381D01*
X70400001Y-102052381D01*
X70733334Y-103052381D02*
X70733334Y-102052381D01*
X71161905Y-102766667D02*
X71638096Y-102766667D01*
X71066667Y-103052381D02*
X71400000Y-102052381D01*
X71733334Y-103052381D01*
X72019048Y-103004762D02*
X72161905Y-103052381D01*
X72400001Y-103052381D01*
X72495239Y-103004762D01*
X72542858Y-102957143D01*
X72590477Y-102861905D01*
X72590477Y-102766667D01*
X72542858Y-102671429D01*
X72495239Y-102623810D01*
X72400001Y-102576190D01*
X72209524Y-102528571D01*
X72114286Y-102480952D01*
X72066667Y-102433333D01*
X72019048Y-102338095D01*
X72019048Y-102242857D01*
X72066667Y-102147619D01*
X72114286Y-102100000D01*
X72209524Y-102052381D01*
X72447620Y-102052381D01*
X72590477Y-102100000D01*
X58180951Y-104052381D02*
X58180951Y-104861905D01*
X58228570Y-104957143D01*
X58276189Y-105004762D01*
X58371427Y-105052381D01*
X58561904Y-105052381D01*
X58657142Y-105004762D01*
X58704761Y-104957143D01*
X58752380Y-104861905D01*
X58752380Y-104052381D01*
X59228570Y-104385714D02*
X59228570Y-105052381D01*
X59228570Y-104480952D02*
X59276189Y-104433333D01*
X59371427Y-104385714D01*
X59514285Y-104385714D01*
X59609523Y-104433333D01*
X59657142Y-104528571D01*
X59657142Y-105052381D01*
X59990475Y-104385714D02*
X60371427Y-104385714D01*
X60133332Y-104052381D02*
X60133332Y-104909524D01*
X60180951Y-105004762D01*
X60276189Y-105052381D01*
X60371427Y-105052381D01*
X61085714Y-105004762D02*
X60990476Y-105052381D01*
X60799999Y-105052381D01*
X60704761Y-105004762D01*
X60657142Y-104909524D01*
X60657142Y-104528571D01*
X60704761Y-104433333D01*
X60799999Y-104385714D01*
X60990476Y-104385714D01*
X61085714Y-104433333D01*
X61133333Y-104528571D01*
X61133333Y-104623810D01*
X60657142Y-104719048D01*
X61561904Y-105052381D02*
X61561904Y-104385714D01*
X61561904Y-104576190D02*
X61609523Y-104480952D01*
X61657142Y-104433333D01*
X61752380Y-104385714D01*
X61847619Y-104385714D01*
X62180952Y-105052381D02*
X62180952Y-104385714D01*
X62180952Y-104480952D02*
X62228571Y-104433333D01*
X62323809Y-104385714D01*
X62466667Y-104385714D01*
X62561905Y-104433333D01*
X62609524Y-104528571D01*
X62609524Y-105052381D01*
X62609524Y-104528571D02*
X62657143Y-104433333D01*
X62752381Y-104385714D01*
X62895238Y-104385714D01*
X62990476Y-104433333D01*
X63038095Y-104528571D01*
X63038095Y-105052381D01*
X63514285Y-105052381D02*
X63514285Y-104385714D01*
X63514285Y-104052381D02*
X63466666Y-104100000D01*
X63514285Y-104147619D01*
X63561904Y-104100000D01*
X63514285Y-104052381D01*
X63514285Y-104147619D01*
X63990475Y-104385714D02*
X63990475Y-105052381D01*
X63990475Y-104480952D02*
X64038094Y-104433333D01*
X64133332Y-104385714D01*
X64276190Y-104385714D01*
X64371428Y-104433333D01*
X64419047Y-104528571D01*
X64419047Y-105052381D01*
X65323809Y-105052381D02*
X65323809Y-104528571D01*
X65276190Y-104433333D01*
X65180952Y-104385714D01*
X64990475Y-104385714D01*
X64895237Y-104433333D01*
X65323809Y-105004762D02*
X65228571Y-105052381D01*
X64990475Y-105052381D01*
X64895237Y-105004762D01*
X64847618Y-104909524D01*
X64847618Y-104814286D01*
X64895237Y-104719048D01*
X64990475Y-104671429D01*
X65228571Y-104671429D01*
X65323809Y-104623810D01*
X65657142Y-104385714D02*
X66038094Y-104385714D01*
X65799999Y-104052381D02*
X65799999Y-104909524D01*
X65847618Y-105004762D01*
X65942856Y-105052381D01*
X66038094Y-105052381D01*
X66752381Y-105004762D02*
X66657143Y-105052381D01*
X66466666Y-105052381D01*
X66371428Y-105004762D01*
X66323809Y-104909524D01*
X66323809Y-104528571D01*
X66371428Y-104433333D01*
X66466666Y-104385714D01*
X66657143Y-104385714D01*
X66752381Y-104433333D01*
X66800000Y-104528571D01*
X66800000Y-104623810D01*
X66323809Y-104719048D01*
X67657143Y-105052381D02*
X67657143Y-104052381D01*
X67657143Y-105004762D02*
X67561905Y-105052381D01*
X67371428Y-105052381D01*
X67276190Y-105004762D01*
X67228571Y-104957143D01*
X67180952Y-104861905D01*
X67180952Y-104576190D01*
X67228571Y-104480952D01*
X67276190Y-104433333D01*
X67371428Y-104385714D01*
X67561905Y-104385714D01*
X67657143Y-104433333D01*
X68752381Y-104052381D02*
X69323810Y-104052381D01*
X69038095Y-105052381D02*
X69038095Y-104052381D01*
X69657143Y-105052381D02*
X69657143Y-104385714D01*
X69657143Y-104576190D02*
X69704762Y-104480952D01*
X69752381Y-104433333D01*
X69847619Y-104385714D01*
X69942858Y-104385714D01*
X70704763Y-105052381D02*
X70704763Y-104528571D01*
X70657144Y-104433333D01*
X70561906Y-104385714D01*
X70371429Y-104385714D01*
X70276191Y-104433333D01*
X70704763Y-105004762D02*
X70609525Y-105052381D01*
X70371429Y-105052381D01*
X70276191Y-105004762D01*
X70228572Y-104909524D01*
X70228572Y-104814286D01*
X70276191Y-104719048D01*
X70371429Y-104671429D01*
X70609525Y-104671429D01*
X70704763Y-104623810D01*
X71609525Y-105004762D02*
X71514287Y-105052381D01*
X71323810Y-105052381D01*
X71228572Y-105004762D01*
X71180953Y-104957143D01*
X71133334Y-104861905D01*
X71133334Y-104576190D01*
X71180953Y-104480952D01*
X71228572Y-104433333D01*
X71323810Y-104385714D01*
X71514287Y-104385714D01*
X71609525Y-104433333D01*
X72419049Y-105004762D02*
X72323811Y-105052381D01*
X72133334Y-105052381D01*
X72038096Y-105004762D01*
X71990477Y-104909524D01*
X71990477Y-104528571D01*
X72038096Y-104433333D01*
X72133334Y-104385714D01*
X72323811Y-104385714D01*
X72419049Y-104433333D01*
X72466668Y-104528571D01*
X72466668Y-104623810D01*
X71990477Y-104719048D01*
X58133332Y-107052381D02*
X58133332Y-106052381D01*
X58466666Y-106766667D01*
X58799999Y-106052381D01*
X58799999Y-107052381D01*
X59704761Y-107052381D02*
X59704761Y-106528571D01*
X59657142Y-106433333D01*
X59561904Y-106385714D01*
X59371427Y-106385714D01*
X59276189Y-106433333D01*
X59704761Y-107004762D02*
X59609523Y-107052381D01*
X59371427Y-107052381D01*
X59276189Y-107004762D01*
X59228570Y-106909524D01*
X59228570Y-106814286D01*
X59276189Y-106719048D01*
X59371427Y-106671429D01*
X59609523Y-106671429D01*
X59704761Y-106623810D01*
X60133332Y-107004762D02*
X60228570Y-107052381D01*
X60419046Y-107052381D01*
X60514285Y-107004762D01*
X60561904Y-106909524D01*
X60561904Y-106861905D01*
X60514285Y-106766667D01*
X60419046Y-106719048D01*
X60276189Y-106719048D01*
X60180951Y-106671429D01*
X60133332Y-106576190D01*
X60133332Y-106528571D01*
X60180951Y-106433333D01*
X60276189Y-106385714D01*
X60419046Y-106385714D01*
X60514285Y-106433333D01*
X60990475Y-107052381D02*
X60990475Y-106052381D01*
X61085713Y-106671429D02*
X61371428Y-107052381D01*
X61371428Y-106385714D02*
X60990475Y-106766667D01*
X63133333Y-106957143D02*
X63085714Y-107004762D01*
X62942857Y-107052381D01*
X62847619Y-107052381D01*
X62704761Y-107004762D01*
X62609523Y-106909524D01*
X62561904Y-106814286D01*
X62514285Y-106623810D01*
X62514285Y-106480952D01*
X62561904Y-106290476D01*
X62609523Y-106195238D01*
X62704761Y-106100000D01*
X62847619Y-106052381D01*
X62942857Y-106052381D01*
X63085714Y-106100000D01*
X63133333Y-106147619D01*
X63704761Y-107052381D02*
X63609523Y-107004762D01*
X63561904Y-106909524D01*
X63561904Y-106052381D01*
X64466667Y-107004762D02*
X64371429Y-107052381D01*
X64180952Y-107052381D01*
X64085714Y-107004762D01*
X64038095Y-106909524D01*
X64038095Y-106528571D01*
X64085714Y-106433333D01*
X64180952Y-106385714D01*
X64371429Y-106385714D01*
X64466667Y-106433333D01*
X64514286Y-106528571D01*
X64514286Y-106623810D01*
X64038095Y-106719048D01*
X65371429Y-107052381D02*
X65371429Y-106528571D01*
X65323810Y-106433333D01*
X65228572Y-106385714D01*
X65038095Y-106385714D01*
X64942857Y-106433333D01*
X65371429Y-107004762D02*
X65276191Y-107052381D01*
X65038095Y-107052381D01*
X64942857Y-107004762D01*
X64895238Y-106909524D01*
X64895238Y-106814286D01*
X64942857Y-106719048D01*
X65038095Y-106671429D01*
X65276191Y-106671429D01*
X65371429Y-106623810D01*
X65847619Y-107052381D02*
X65847619Y-106385714D01*
X65847619Y-106576190D02*
X65895238Y-106480952D01*
X65942857Y-106433333D01*
X66038095Y-106385714D01*
X66133334Y-106385714D01*
X66847620Y-107004762D02*
X66752382Y-107052381D01*
X66561905Y-107052381D01*
X66466667Y-107004762D01*
X66419048Y-106909524D01*
X66419048Y-106528571D01*
X66466667Y-106433333D01*
X66561905Y-106385714D01*
X66752382Y-106385714D01*
X66847620Y-106433333D01*
X66895239Y-106528571D01*
X66895239Y-106623810D01*
X66419048Y-106719048D01*
X67323810Y-106385714D02*
X67323810Y-107052381D01*
X67323810Y-106480952D02*
X67371429Y-106433333D01*
X67466667Y-106385714D01*
X67609525Y-106385714D01*
X67704763Y-106433333D01*
X67752382Y-106528571D01*
X67752382Y-107052381D01*
X68657144Y-107004762D02*
X68561906Y-107052381D01*
X68371429Y-107052381D01*
X68276191Y-107004762D01*
X68228572Y-106957143D01*
X68180953Y-106861905D01*
X68180953Y-106576190D01*
X68228572Y-106480952D01*
X68276191Y-106433333D01*
X68371429Y-106385714D01*
X68561906Y-106385714D01*
X68657144Y-106433333D01*
X69466668Y-107004762D02*
X69371430Y-107052381D01*
X69180953Y-107052381D01*
X69085715Y-107004762D01*
X69038096Y-106909524D01*
X69038096Y-106528571D01*
X69085715Y-106433333D01*
X69180953Y-106385714D01*
X69371430Y-106385714D01*
X69466668Y-106433333D01*
X69514287Y-106528571D01*
X69514287Y-106623810D01*
X69038096Y-106719048D01*
X58619047Y-109052381D02*
X58142856Y-109052381D01*
X58142856Y-108052381D01*
X59333333Y-109004762D02*
X59238095Y-109052381D01*
X59047618Y-109052381D01*
X58952380Y-109004762D01*
X58904761Y-108909524D01*
X58904761Y-108528571D01*
X58952380Y-108433333D01*
X59047618Y-108385714D01*
X59238095Y-108385714D01*
X59333333Y-108433333D01*
X59380952Y-108528571D01*
X59380952Y-108623810D01*
X58904761Y-108719048D01*
X60238095Y-108385714D02*
X60238095Y-109195238D01*
X60190476Y-109290476D01*
X60142857Y-109338095D01*
X60047618Y-109385714D01*
X59904761Y-109385714D01*
X59809523Y-109338095D01*
X60238095Y-109004762D02*
X60142857Y-109052381D01*
X59952380Y-109052381D01*
X59857142Y-109004762D01*
X59809523Y-108957143D01*
X59761904Y-108861905D01*
X59761904Y-108576190D01*
X59809523Y-108480952D01*
X59857142Y-108433333D01*
X59952380Y-108385714D01*
X60142857Y-108385714D01*
X60238095Y-108433333D01*
X61095238Y-109004762D02*
X61000000Y-109052381D01*
X60809523Y-109052381D01*
X60714285Y-109004762D01*
X60666666Y-108909524D01*
X60666666Y-108528571D01*
X60714285Y-108433333D01*
X60809523Y-108385714D01*
X61000000Y-108385714D01*
X61095238Y-108433333D01*
X61142857Y-108528571D01*
X61142857Y-108623810D01*
X60666666Y-108719048D01*
X61571428Y-108385714D02*
X61571428Y-109052381D01*
X61571428Y-108480952D02*
X61619047Y-108433333D01*
X61714285Y-108385714D01*
X61857143Y-108385714D01*
X61952381Y-108433333D01*
X62000000Y-108528571D01*
X62000000Y-109052381D01*
X62904762Y-109052381D02*
X62904762Y-108052381D01*
X62904762Y-109004762D02*
X62809524Y-109052381D01*
X62619047Y-109052381D01*
X62523809Y-109004762D01*
X62476190Y-108957143D01*
X62428571Y-108861905D01*
X62428571Y-108576190D01*
X62476190Y-108480952D01*
X62523809Y-108433333D01*
X62619047Y-108385714D01*
X62809524Y-108385714D01*
X62904762Y-108433333D01*
X64285714Y-109052381D02*
X64190476Y-109004762D01*
X64142857Y-108957143D01*
X64095238Y-108861905D01*
X64095238Y-108576190D01*
X64142857Y-108480952D01*
X64190476Y-108433333D01*
X64285714Y-108385714D01*
X64428572Y-108385714D01*
X64523810Y-108433333D01*
X64571429Y-108480952D01*
X64619048Y-108576190D01*
X64619048Y-108861905D01*
X64571429Y-108957143D01*
X64523810Y-109004762D01*
X64428572Y-109052381D01*
X64285714Y-109052381D01*
X65047619Y-108385714D02*
X65047619Y-109052381D01*
X65047619Y-108480952D02*
X65095238Y-108433333D01*
X65190476Y-108385714D01*
X65333334Y-108385714D01*
X65428572Y-108433333D01*
X65476191Y-108528571D01*
X65476191Y-109052381D01*
X66714286Y-109052381D02*
X66714286Y-108052381D01*
X67095239Y-108052381D01*
X67190477Y-108100000D01*
X67238096Y-108147619D01*
X67285715Y-108242857D01*
X67285715Y-108385714D01*
X67238096Y-108480952D01*
X67190477Y-108528571D01*
X67095239Y-108576190D01*
X66714286Y-108576190D01*
X68142858Y-109052381D02*
X68142858Y-108528571D01*
X68095239Y-108433333D01*
X68000001Y-108385714D01*
X67809524Y-108385714D01*
X67714286Y-108433333D01*
X68142858Y-109004762D02*
X68047620Y-109052381D01*
X67809524Y-109052381D01*
X67714286Y-109004762D01*
X67666667Y-108909524D01*
X67666667Y-108814286D01*
X67714286Y-108719048D01*
X67809524Y-108671429D01*
X68047620Y-108671429D01*
X68142858Y-108623810D01*
X69047620Y-109052381D02*
X69047620Y-108052381D01*
X69047620Y-109004762D02*
X68952382Y-109052381D01*
X68761905Y-109052381D01*
X68666667Y-109004762D01*
X68619048Y-108957143D01*
X68571429Y-108861905D01*
X68571429Y-108576190D01*
X68619048Y-108480952D01*
X68666667Y-108433333D01*
X68761905Y-108385714D01*
X68952382Y-108385714D01*
X69047620Y-108433333D01*
X69476191Y-109004762D02*
X69571429Y-109052381D01*
X69761905Y-109052381D01*
X69857144Y-109004762D01*
X69904763Y-108909524D01*
X69904763Y-108861905D01*
X69857144Y-108766667D01*
X69761905Y-108719048D01*
X69619048Y-108719048D01*
X69523810Y-108671429D01*
X69476191Y-108576190D01*
X69476191Y-108528571D01*
X69523810Y-108433333D01*
X69619048Y-108385714D01*
X69761905Y-108385714D01*
X69857144Y-108433333D01*
X58428571Y-110528571D02*
X58571428Y-110576190D01*
X58619047Y-110623810D01*
X58666666Y-110719048D01*
X58666666Y-110861905D01*
X58619047Y-110957143D01*
X58571428Y-111004762D01*
X58476190Y-111052381D01*
X58095237Y-111052381D01*
X58095237Y-110052381D01*
X58428571Y-110052381D01*
X58523809Y-110100000D01*
X58571428Y-110147619D01*
X58619047Y-110242857D01*
X58619047Y-110338095D01*
X58571428Y-110433333D01*
X58523809Y-110480952D01*
X58428571Y-110528571D01*
X58095237Y-110528571D01*
X59238094Y-111052381D02*
X59142856Y-111004762D01*
X59095237Y-110957143D01*
X59047618Y-110861905D01*
X59047618Y-110576190D01*
X59095237Y-110480952D01*
X59142856Y-110433333D01*
X59238094Y-110385714D01*
X59380952Y-110385714D01*
X59476190Y-110433333D01*
X59523809Y-110480952D01*
X59571428Y-110576190D01*
X59571428Y-110861905D01*
X59523809Y-110957143D01*
X59476190Y-111004762D01*
X59380952Y-111052381D01*
X59238094Y-111052381D01*
X60428571Y-111052381D02*
X60428571Y-110528571D01*
X60380952Y-110433333D01*
X60285714Y-110385714D01*
X60095237Y-110385714D01*
X59999999Y-110433333D01*
X60428571Y-111004762D02*
X60333333Y-111052381D01*
X60095237Y-111052381D01*
X59999999Y-111004762D01*
X59952380Y-110909524D01*
X59952380Y-110814286D01*
X59999999Y-110719048D01*
X60095237Y-110671429D01*
X60333333Y-110671429D01*
X60428571Y-110623810D01*
X60904761Y-111052381D02*
X60904761Y-110385714D01*
X60904761Y-110576190D02*
X60952380Y-110480952D01*
X60999999Y-110433333D01*
X61095237Y-110385714D01*
X61190476Y-110385714D01*
X61952381Y-111052381D02*
X61952381Y-110052381D01*
X61952381Y-111004762D02*
X61857143Y-111052381D01*
X61666666Y-111052381D01*
X61571428Y-111004762D01*
X61523809Y-110957143D01*
X61476190Y-110861905D01*
X61476190Y-110576190D01*
X61523809Y-110480952D01*
X61571428Y-110433333D01*
X61666666Y-110385714D01*
X61857143Y-110385714D01*
X61952381Y-110433333D01*
X63047619Y-110052381D02*
X63619048Y-110052381D01*
X63333333Y-111052381D02*
X63333333Y-110052381D01*
X63952381Y-111052381D02*
X63952381Y-110052381D01*
X64380953Y-111052381D02*
X64380953Y-110528571D01*
X64333334Y-110433333D01*
X64238096Y-110385714D01*
X64095238Y-110385714D01*
X64000000Y-110433333D01*
X63952381Y-110480952D01*
X64857143Y-111052381D02*
X64857143Y-110385714D01*
X64857143Y-110052381D02*
X64809524Y-110100000D01*
X64857143Y-110147619D01*
X64904762Y-110100000D01*
X64857143Y-110052381D01*
X64857143Y-110147619D01*
X65761905Y-111004762D02*
X65666667Y-111052381D01*
X65476190Y-111052381D01*
X65380952Y-111004762D01*
X65333333Y-110957143D01*
X65285714Y-110861905D01*
X65285714Y-110576190D01*
X65333333Y-110480952D01*
X65380952Y-110433333D01*
X65476190Y-110385714D01*
X65666667Y-110385714D01*
X65761905Y-110433333D01*
X66190476Y-111052381D02*
X66190476Y-110052381D01*
X66285714Y-110671429D02*
X66571429Y-111052381D01*
X66571429Y-110385714D02*
X66190476Y-110766667D01*
X67000000Y-110385714D02*
X67000000Y-111052381D01*
X67000000Y-110480952D02*
X67047619Y-110433333D01*
X67142857Y-110385714D01*
X67285715Y-110385714D01*
X67380953Y-110433333D01*
X67428572Y-110528571D01*
X67428572Y-111052381D01*
X68285715Y-111004762D02*
X68190477Y-111052381D01*
X68000000Y-111052381D01*
X67904762Y-111004762D01*
X67857143Y-110909524D01*
X67857143Y-110528571D01*
X67904762Y-110433333D01*
X68000000Y-110385714D01*
X68190477Y-110385714D01*
X68285715Y-110433333D01*
X68333334Y-110528571D01*
X68333334Y-110623810D01*
X67857143Y-110719048D01*
X68714286Y-111004762D02*
X68809524Y-111052381D01*
X69000000Y-111052381D01*
X69095239Y-111004762D01*
X69142858Y-110909524D01*
X69142858Y-110861905D01*
X69095239Y-110766667D01*
X69000000Y-110719048D01*
X68857143Y-110719048D01*
X68761905Y-110671429D01*
X68714286Y-110576190D01*
X68714286Y-110528571D01*
X68761905Y-110433333D01*
X68857143Y-110385714D01*
X69000000Y-110385714D01*
X69095239Y-110433333D01*
X69523810Y-111004762D02*
X69619048Y-111052381D01*
X69809524Y-111052381D01*
X69904763Y-111004762D01*
X69952382Y-110909524D01*
X69952382Y-110861905D01*
X69904763Y-110766667D01*
X69809524Y-110719048D01*
X69666667Y-110719048D01*
X69571429Y-110671429D01*
X69523810Y-110576190D01*
X69523810Y-110528571D01*
X69571429Y-110433333D01*
X69666667Y-110385714D01*
X69809524Y-110385714D01*
X69904763Y-110433333D01*
X58138095Y-113252381D02*
X58138095Y-112252381D01*
X58471429Y-112966667D01*
X58804762Y-112252381D01*
X58804762Y-113252381D01*
X59709524Y-113252381D02*
X59709524Y-112728571D01*
X59661905Y-112633333D01*
X59566667Y-112585714D01*
X59376190Y-112585714D01*
X59280952Y-112633333D01*
X59709524Y-113204762D02*
X59614286Y-113252381D01*
X59376190Y-113252381D01*
X59280952Y-113204762D01*
X59233333Y-113109524D01*
X59233333Y-113014286D01*
X59280952Y-112919048D01*
X59376190Y-112871429D01*
X59614286Y-112871429D01*
X59709524Y-112823810D01*
X60042857Y-112585714D02*
X60423809Y-112585714D01*
X60185714Y-112252381D02*
X60185714Y-113109524D01*
X60233333Y-113204762D01*
X60328571Y-113252381D01*
X60423809Y-113252381D01*
X61138096Y-113204762D02*
X61042858Y-113252381D01*
X60852381Y-113252381D01*
X60757143Y-113204762D01*
X60709524Y-113109524D01*
X60709524Y-112728571D01*
X60757143Y-112633333D01*
X60852381Y-112585714D01*
X61042858Y-112585714D01*
X61138096Y-112633333D01*
X61185715Y-112728571D01*
X61185715Y-112823810D01*
X60709524Y-112919048D01*
X61614286Y-113252381D02*
X61614286Y-112585714D01*
X61614286Y-112776190D02*
X61661905Y-112680952D01*
X61709524Y-112633333D01*
X61804762Y-112585714D01*
X61900001Y-112585714D01*
X62233334Y-113252381D02*
X62233334Y-112585714D01*
X62233334Y-112252381D02*
X62185715Y-112300000D01*
X62233334Y-112347619D01*
X62280953Y-112300000D01*
X62233334Y-112252381D01*
X62233334Y-112347619D01*
X63138096Y-113252381D02*
X63138096Y-112728571D01*
X63090477Y-112633333D01*
X62995239Y-112585714D01*
X62804762Y-112585714D01*
X62709524Y-112633333D01*
X63138096Y-113204762D02*
X63042858Y-113252381D01*
X62804762Y-113252381D01*
X62709524Y-113204762D01*
X62661905Y-113109524D01*
X62661905Y-113014286D01*
X62709524Y-112919048D01*
X62804762Y-112871429D01*
X63042858Y-112871429D01*
X63138096Y-112823810D01*
X63757143Y-113252381D02*
X63661905Y-113204762D01*
X63614286Y-113109524D01*
X63614286Y-112252381D01*
X58657142Y-115152381D02*
X58180951Y-115152381D01*
X58180951Y-114152381D01*
X59371428Y-115104762D02*
X59276190Y-115152381D01*
X59085713Y-115152381D01*
X58990475Y-115104762D01*
X58942856Y-115009524D01*
X58942856Y-114628571D01*
X58990475Y-114533333D01*
X59085713Y-114485714D01*
X59276190Y-114485714D01*
X59371428Y-114533333D01*
X59419047Y-114628571D01*
X59419047Y-114723810D01*
X58942856Y-114819048D01*
X60276190Y-114485714D02*
X60276190Y-115295238D01*
X60228571Y-115390476D01*
X60180952Y-115438095D01*
X60085713Y-115485714D01*
X59942856Y-115485714D01*
X59847618Y-115438095D01*
X60276190Y-115104762D02*
X60180952Y-115152381D01*
X59990475Y-115152381D01*
X59895237Y-115104762D01*
X59847618Y-115057143D01*
X59799999Y-114961905D01*
X59799999Y-114676190D01*
X59847618Y-114580952D01*
X59895237Y-114533333D01*
X59990475Y-114485714D01*
X60180952Y-114485714D01*
X60276190Y-114533333D01*
X61133333Y-115104762D02*
X61038095Y-115152381D01*
X60847618Y-115152381D01*
X60752380Y-115104762D01*
X60704761Y-115009524D01*
X60704761Y-114628571D01*
X60752380Y-114533333D01*
X60847618Y-114485714D01*
X61038095Y-114485714D01*
X61133333Y-114533333D01*
X61180952Y-114628571D01*
X61180952Y-114723810D01*
X60704761Y-114819048D01*
X61609523Y-114485714D02*
X61609523Y-115152381D01*
X61609523Y-114580952D02*
X61657142Y-114533333D01*
X61752380Y-114485714D01*
X61895238Y-114485714D01*
X61990476Y-114533333D01*
X62038095Y-114628571D01*
X62038095Y-115152381D01*
X62942857Y-115152381D02*
X62942857Y-114152381D01*
X62942857Y-115104762D02*
X62847619Y-115152381D01*
X62657142Y-115152381D01*
X62561904Y-115104762D01*
X62514285Y-115057143D01*
X62466666Y-114961905D01*
X62466666Y-114676190D01*
X62514285Y-114580952D01*
X62561904Y-114533333D01*
X62657142Y-114485714D01*
X62847619Y-114485714D01*
X62942857Y-114533333D01*
X64323809Y-115152381D02*
X64228571Y-115104762D01*
X64180952Y-115057143D01*
X64133333Y-114961905D01*
X64133333Y-114676190D01*
X64180952Y-114580952D01*
X64228571Y-114533333D01*
X64323809Y-114485714D01*
X64466667Y-114485714D01*
X64561905Y-114533333D01*
X64609524Y-114580952D01*
X64657143Y-114676190D01*
X64657143Y-114961905D01*
X64609524Y-115057143D01*
X64561905Y-115104762D01*
X64466667Y-115152381D01*
X64323809Y-115152381D01*
X65085714Y-114485714D02*
X65085714Y-115152381D01*
X65085714Y-114580952D02*
X65133333Y-114533333D01*
X65228571Y-114485714D01*
X65371429Y-114485714D01*
X65466667Y-114533333D01*
X65514286Y-114628571D01*
X65514286Y-115152381D01*
X67085715Y-114628571D02*
X67228572Y-114676190D01*
X67276191Y-114723810D01*
X67323810Y-114819048D01*
X67323810Y-114961905D01*
X67276191Y-115057143D01*
X67228572Y-115104762D01*
X67133334Y-115152381D01*
X66752381Y-115152381D01*
X66752381Y-114152381D01*
X67085715Y-114152381D01*
X67180953Y-114200000D01*
X67228572Y-114247619D01*
X67276191Y-114342857D01*
X67276191Y-114438095D01*
X67228572Y-114533333D01*
X67180953Y-114580952D01*
X67085715Y-114628571D01*
X66752381Y-114628571D01*
X67895238Y-115152381D02*
X67800000Y-115104762D01*
X67752381Y-115057143D01*
X67704762Y-114961905D01*
X67704762Y-114676190D01*
X67752381Y-114580952D01*
X67800000Y-114533333D01*
X67895238Y-114485714D01*
X68038096Y-114485714D01*
X68133334Y-114533333D01*
X68180953Y-114580952D01*
X68228572Y-114676190D01*
X68228572Y-114961905D01*
X68180953Y-115057143D01*
X68133334Y-115104762D01*
X68038096Y-115152381D01*
X67895238Y-115152381D01*
X68514286Y-114485714D02*
X68895238Y-114485714D01*
X68657143Y-114152381D02*
X68657143Y-115009524D01*
X68704762Y-115104762D01*
X68800000Y-115152381D01*
X68895238Y-115152381D01*
X69228572Y-115152381D02*
X69228572Y-114152381D01*
X69657144Y-115152381D02*
X69657144Y-114628571D01*
X69609525Y-114533333D01*
X69514287Y-114485714D01*
X69371429Y-114485714D01*
X69276191Y-114533333D01*
X69228572Y-114580952D01*
X70847620Y-115104762D02*
X70990477Y-115152381D01*
X71228573Y-115152381D01*
X71323811Y-115104762D01*
X71371430Y-115057143D01*
X71419049Y-114961905D01*
X71419049Y-114866667D01*
X71371430Y-114771429D01*
X71323811Y-114723810D01*
X71228573Y-114676190D01*
X71038096Y-114628571D01*
X70942858Y-114580952D01*
X70895239Y-114533333D01*
X70847620Y-114438095D01*
X70847620Y-114342857D01*
X70895239Y-114247619D01*
X70942858Y-114200000D01*
X71038096Y-114152381D01*
X71276192Y-114152381D01*
X71419049Y-114200000D01*
X71847620Y-115152381D02*
X71847620Y-114485714D01*
X71847620Y-114152381D02*
X71800001Y-114200000D01*
X71847620Y-114247619D01*
X71895239Y-114200000D01*
X71847620Y-114152381D01*
X71847620Y-114247619D01*
X72752382Y-115152381D02*
X72752382Y-114152381D01*
X72752382Y-115104762D02*
X72657144Y-115152381D01*
X72466667Y-115152381D01*
X72371429Y-115104762D01*
X72323810Y-115057143D01*
X72276191Y-114961905D01*
X72276191Y-114676190D01*
X72323810Y-114580952D01*
X72371429Y-114533333D01*
X72466667Y-114485714D01*
X72657144Y-114485714D01*
X72752382Y-114533333D01*
X73609525Y-115104762D02*
X73514287Y-115152381D01*
X73323810Y-115152381D01*
X73228572Y-115104762D01*
X73180953Y-115009524D01*
X73180953Y-114628571D01*
X73228572Y-114533333D01*
X73323810Y-114485714D01*
X73514287Y-114485714D01*
X73609525Y-114533333D01*
X73657144Y-114628571D01*
X73657144Y-114723810D01*
X73180953Y-114819048D01*
X74038096Y-115104762D02*
X74133334Y-115152381D01*
X74323810Y-115152381D01*
X74419049Y-115104762D01*
X74466668Y-115009524D01*
X74466668Y-114961905D01*
X74419049Y-114866667D01*
X74323810Y-114819048D01*
X74180953Y-114819048D01*
X74085715Y-114771429D01*
X74038096Y-114676190D01*
X74038096Y-114628571D01*
X74085715Y-114533333D01*
X74180953Y-114485714D01*
X74323810Y-114485714D01*
X74419049Y-114533333D01*
X58166666Y-117152381D02*
X58166666Y-116152381D01*
X58500000Y-116866667D01*
X58833333Y-116152381D01*
X58833333Y-117152381D01*
X59738095Y-117152381D02*
X59738095Y-116628571D01*
X59690476Y-116533333D01*
X59595238Y-116485714D01*
X59404761Y-116485714D01*
X59309523Y-116533333D01*
X59738095Y-117104762D02*
X59642857Y-117152381D01*
X59404761Y-117152381D01*
X59309523Y-117104762D01*
X59261904Y-117009524D01*
X59261904Y-116914286D01*
X59309523Y-116819048D01*
X59404761Y-116771429D01*
X59642857Y-116771429D01*
X59738095Y-116723810D01*
X60166666Y-117104762D02*
X60261904Y-117152381D01*
X60452380Y-117152381D01*
X60547619Y-117104762D01*
X60595238Y-117009524D01*
X60595238Y-116961905D01*
X60547619Y-116866667D01*
X60452380Y-116819048D01*
X60309523Y-116819048D01*
X60214285Y-116771429D01*
X60166666Y-116676190D01*
X60166666Y-116628571D01*
X60214285Y-116533333D01*
X60309523Y-116485714D01*
X60452380Y-116485714D01*
X60547619Y-116533333D01*
X61023809Y-117152381D02*
X61023809Y-116152381D01*
X61119047Y-116771429D02*
X61404762Y-117152381D01*
X61404762Y-116485714D02*
X61023809Y-116866667D01*
X62738095Y-117152381D02*
X62642857Y-117104762D01*
X62595238Y-117057143D01*
X62547619Y-116961905D01*
X62547619Y-116676190D01*
X62595238Y-116580952D01*
X62642857Y-116533333D01*
X62738095Y-116485714D01*
X62880953Y-116485714D01*
X62976191Y-116533333D01*
X63023810Y-116580952D01*
X63071429Y-116676190D01*
X63071429Y-116961905D01*
X63023810Y-117057143D01*
X62976191Y-117104762D01*
X62880953Y-117152381D01*
X62738095Y-117152381D01*
X63500000Y-116485714D02*
X63500000Y-117152381D01*
X63500000Y-116580952D02*
X63547619Y-116533333D01*
X63642857Y-116485714D01*
X63785715Y-116485714D01*
X63880953Y-116533333D01*
X63928572Y-116628571D01*
X63928572Y-117152381D01*
X65500001Y-116628571D02*
X65642858Y-116676190D01*
X65690477Y-116723810D01*
X65738096Y-116819048D01*
X65738096Y-116961905D01*
X65690477Y-117057143D01*
X65642858Y-117104762D01*
X65547620Y-117152381D01*
X65166667Y-117152381D01*
X65166667Y-116152381D01*
X65500001Y-116152381D01*
X65595239Y-116200000D01*
X65642858Y-116247619D01*
X65690477Y-116342857D01*
X65690477Y-116438095D01*
X65642858Y-116533333D01*
X65595239Y-116580952D01*
X65500001Y-116628571D01*
X65166667Y-116628571D01*
X66309524Y-117152381D02*
X66214286Y-117104762D01*
X66166667Y-117057143D01*
X66119048Y-116961905D01*
X66119048Y-116676190D01*
X66166667Y-116580952D01*
X66214286Y-116533333D01*
X66309524Y-116485714D01*
X66452382Y-116485714D01*
X66547620Y-116533333D01*
X66595239Y-116580952D01*
X66642858Y-116676190D01*
X66642858Y-116961905D01*
X66595239Y-117057143D01*
X66547620Y-117104762D01*
X66452382Y-117152381D01*
X66309524Y-117152381D01*
X66928572Y-116485714D02*
X67309524Y-116485714D01*
X67071429Y-116152381D02*
X67071429Y-117009524D01*
X67119048Y-117104762D01*
X67214286Y-117152381D01*
X67309524Y-117152381D01*
X67642858Y-117152381D02*
X67642858Y-116152381D01*
X68071430Y-117152381D02*
X68071430Y-116628571D01*
X68023811Y-116533333D01*
X67928573Y-116485714D01*
X67785715Y-116485714D01*
X67690477Y-116533333D01*
X67642858Y-116580952D01*
X69261906Y-117104762D02*
X69404763Y-117152381D01*
X69642859Y-117152381D01*
X69738097Y-117104762D01*
X69785716Y-117057143D01*
X69833335Y-116961905D01*
X69833335Y-116866667D01*
X69785716Y-116771429D01*
X69738097Y-116723810D01*
X69642859Y-116676190D01*
X69452382Y-116628571D01*
X69357144Y-116580952D01*
X69309525Y-116533333D01*
X69261906Y-116438095D01*
X69261906Y-116342857D01*
X69309525Y-116247619D01*
X69357144Y-116200000D01*
X69452382Y-116152381D01*
X69690478Y-116152381D01*
X69833335Y-116200000D01*
X70261906Y-117152381D02*
X70261906Y-116485714D01*
X70261906Y-116152381D02*
X70214287Y-116200000D01*
X70261906Y-116247619D01*
X70309525Y-116200000D01*
X70261906Y-116152381D01*
X70261906Y-116247619D01*
X71166668Y-117152381D02*
X71166668Y-116152381D01*
X71166668Y-117104762D02*
X71071430Y-117152381D01*
X70880953Y-117152381D01*
X70785715Y-117104762D01*
X70738096Y-117057143D01*
X70690477Y-116961905D01*
X70690477Y-116676190D01*
X70738096Y-116580952D01*
X70785715Y-116533333D01*
X70880953Y-116485714D01*
X71071430Y-116485714D01*
X71166668Y-116533333D01*
X72023811Y-117104762D02*
X71928573Y-117152381D01*
X71738096Y-117152381D01*
X71642858Y-117104762D01*
X71595239Y-117009524D01*
X71595239Y-116628571D01*
X71642858Y-116533333D01*
X71738096Y-116485714D01*
X71928573Y-116485714D01*
X72023811Y-116533333D01*
X72071430Y-116628571D01*
X72071430Y-116723810D01*
X71595239Y-116819048D01*
X72452382Y-117104762D02*
X72547620Y-117152381D01*
X72738096Y-117152381D01*
X72833335Y-117104762D01*
X72880954Y-117009524D01*
X72880954Y-116961905D01*
X72833335Y-116866667D01*
X72738096Y-116819048D01*
X72595239Y-116819048D01*
X72500001Y-116771429D01*
X72452382Y-116676190D01*
X72452382Y-116628571D01*
X72500001Y-116533333D01*
X72595239Y-116485714D01*
X72738096Y-116485714D01*
X72833335Y-116533333D01*
X58166666Y-119052381D02*
X58166666Y-118052381D01*
X58642856Y-119052381D02*
X58642856Y-118385714D01*
X58642856Y-118480952D02*
X58690475Y-118433333D01*
X58785713Y-118385714D01*
X58928571Y-118385714D01*
X59023809Y-118433333D01*
X59071428Y-118528571D01*
X59071428Y-119052381D01*
X59071428Y-118528571D02*
X59119047Y-118433333D01*
X59214285Y-118385714D01*
X59357142Y-118385714D01*
X59452380Y-118433333D01*
X59499999Y-118528571D01*
X59499999Y-119052381D01*
X59976189Y-118385714D02*
X59976189Y-119385714D01*
X59976189Y-118433333D02*
X60071427Y-118385714D01*
X60261904Y-118385714D01*
X60357142Y-118433333D01*
X60404761Y-118480952D01*
X60452380Y-118576190D01*
X60452380Y-118861905D01*
X60404761Y-118957143D01*
X60357142Y-119004762D01*
X60261904Y-119052381D01*
X60071427Y-119052381D01*
X59976189Y-119004762D01*
X61261904Y-119004762D02*
X61166666Y-119052381D01*
X60976189Y-119052381D01*
X60880951Y-119004762D01*
X60833332Y-118909524D01*
X60833332Y-118528571D01*
X60880951Y-118433333D01*
X60976189Y-118385714D01*
X61166666Y-118385714D01*
X61261904Y-118433333D01*
X61309523Y-118528571D01*
X61309523Y-118623810D01*
X60833332Y-118719048D01*
X62166666Y-119052381D02*
X62166666Y-118052381D01*
X62166666Y-119004762D02*
X62071428Y-119052381D01*
X61880951Y-119052381D01*
X61785713Y-119004762D01*
X61738094Y-118957143D01*
X61690475Y-118861905D01*
X61690475Y-118576190D01*
X61738094Y-118480952D01*
X61785713Y-118433333D01*
X61880951Y-118385714D01*
X62071428Y-118385714D01*
X62166666Y-118433333D01*
X63023809Y-119004762D02*
X62928571Y-119052381D01*
X62738094Y-119052381D01*
X62642856Y-119004762D01*
X62595237Y-118909524D01*
X62595237Y-118528571D01*
X62642856Y-118433333D01*
X62738094Y-118385714D01*
X62928571Y-118385714D01*
X63023809Y-118433333D01*
X63071428Y-118528571D01*
X63071428Y-118623810D01*
X62595237Y-118719048D01*
X63499999Y-118385714D02*
X63499999Y-119052381D01*
X63499999Y-118480952D02*
X63547618Y-118433333D01*
X63642856Y-118385714D01*
X63785714Y-118385714D01*
X63880952Y-118433333D01*
X63928571Y-118528571D01*
X63928571Y-119052381D01*
X64833333Y-119004762D02*
X64738095Y-119052381D01*
X64547618Y-119052381D01*
X64452380Y-119004762D01*
X64404761Y-118957143D01*
X64357142Y-118861905D01*
X64357142Y-118576190D01*
X64404761Y-118480952D01*
X64452380Y-118433333D01*
X64547618Y-118385714D01*
X64738095Y-118385714D01*
X64833333Y-118433333D01*
X65642857Y-119004762D02*
X65547619Y-119052381D01*
X65357142Y-119052381D01*
X65261904Y-119004762D01*
X65214285Y-118909524D01*
X65214285Y-118528571D01*
X65261904Y-118433333D01*
X65357142Y-118385714D01*
X65547619Y-118385714D01*
X65642857Y-118433333D01*
X65690476Y-118528571D01*
X65690476Y-118623810D01*
X65214285Y-118719048D01*
X67452381Y-118957143D02*
X67404762Y-119004762D01*
X67261905Y-119052381D01*
X67166667Y-119052381D01*
X67023809Y-119004762D01*
X66928571Y-118909524D01*
X66880952Y-118814286D01*
X66833333Y-118623810D01*
X66833333Y-118480952D01*
X66880952Y-118290476D01*
X66928571Y-118195238D01*
X67023809Y-118100000D01*
X67166667Y-118052381D01*
X67261905Y-118052381D01*
X67404762Y-118100000D01*
X67452381Y-118147619D01*
X68023809Y-119052381D02*
X67928571Y-119004762D01*
X67880952Y-118957143D01*
X67833333Y-118861905D01*
X67833333Y-118576190D01*
X67880952Y-118480952D01*
X67928571Y-118433333D01*
X68023809Y-118385714D01*
X68166667Y-118385714D01*
X68261905Y-118433333D01*
X68309524Y-118480952D01*
X68357143Y-118576190D01*
X68357143Y-118861905D01*
X68309524Y-118957143D01*
X68261905Y-119004762D01*
X68166667Y-119052381D01*
X68023809Y-119052381D01*
X68785714Y-118385714D02*
X68785714Y-119052381D01*
X68785714Y-118480952D02*
X68833333Y-118433333D01*
X68928571Y-118385714D01*
X69071429Y-118385714D01*
X69166667Y-118433333D01*
X69214286Y-118528571D01*
X69214286Y-119052381D01*
X69547619Y-118385714D02*
X69928571Y-118385714D01*
X69690476Y-118052381D02*
X69690476Y-118909524D01*
X69738095Y-119004762D01*
X69833333Y-119052381D01*
X69928571Y-119052381D01*
X70261905Y-119052381D02*
X70261905Y-118385714D01*
X70261905Y-118576190D02*
X70309524Y-118480952D01*
X70357143Y-118433333D01*
X70452381Y-118385714D01*
X70547620Y-118385714D01*
X71023810Y-119052381D02*
X70928572Y-119004762D01*
X70880953Y-118957143D01*
X70833334Y-118861905D01*
X70833334Y-118576190D01*
X70880953Y-118480952D01*
X70928572Y-118433333D01*
X71023810Y-118385714D01*
X71166668Y-118385714D01*
X71261906Y-118433333D01*
X71309525Y-118480952D01*
X71357144Y-118576190D01*
X71357144Y-118861905D01*
X71309525Y-118957143D01*
X71261906Y-119004762D01*
X71166668Y-119052381D01*
X71023810Y-119052381D01*
X71928572Y-119052381D02*
X71833334Y-119004762D01*
X71785715Y-118909524D01*
X71785715Y-118052381D01*
X58738095Y-120857143D02*
X58690476Y-120904762D01*
X58547619Y-120952381D01*
X58452381Y-120952381D01*
X58309523Y-120904762D01*
X58214285Y-120809524D01*
X58166666Y-120714286D01*
X58119047Y-120523810D01*
X58119047Y-120380952D01*
X58166666Y-120190476D01*
X58214285Y-120095238D01*
X58309523Y-120000000D01*
X58452381Y-119952381D01*
X58547619Y-119952381D01*
X58690476Y-120000000D01*
X58738095Y-120047619D01*
X59309523Y-120952381D02*
X59214285Y-120904762D01*
X59166666Y-120857143D01*
X59119047Y-120761905D01*
X59119047Y-120476190D01*
X59166666Y-120380952D01*
X59214285Y-120333333D01*
X59309523Y-120285714D01*
X59452381Y-120285714D01*
X59547619Y-120333333D01*
X59595238Y-120380952D01*
X59642857Y-120476190D01*
X59642857Y-120761905D01*
X59595238Y-120857143D01*
X59547619Y-120904762D01*
X59452381Y-120952381D01*
X59309523Y-120952381D01*
X60071428Y-120285714D02*
X60071428Y-121285714D01*
X60071428Y-120333333D02*
X60166666Y-120285714D01*
X60357143Y-120285714D01*
X60452381Y-120333333D01*
X60500000Y-120380952D01*
X60547619Y-120476190D01*
X60547619Y-120761905D01*
X60500000Y-120857143D01*
X60452381Y-120904762D01*
X60357143Y-120952381D01*
X60166666Y-120952381D01*
X60071428Y-120904762D01*
X60976190Y-120285714D02*
X60976190Y-121285714D01*
X60976190Y-120333333D02*
X61071428Y-120285714D01*
X61261905Y-120285714D01*
X61357143Y-120333333D01*
X61404762Y-120380952D01*
X61452381Y-120476190D01*
X61452381Y-120761905D01*
X61404762Y-120857143D01*
X61357143Y-120904762D01*
X61261905Y-120952381D01*
X61071428Y-120952381D01*
X60976190Y-120904762D01*
X62261905Y-120904762D02*
X62166667Y-120952381D01*
X61976190Y-120952381D01*
X61880952Y-120904762D01*
X61833333Y-120809524D01*
X61833333Y-120428571D01*
X61880952Y-120333333D01*
X61976190Y-120285714D01*
X62166667Y-120285714D01*
X62261905Y-120333333D01*
X62309524Y-120428571D01*
X62309524Y-120523810D01*
X61833333Y-120619048D01*
X62738095Y-120952381D02*
X62738095Y-120285714D01*
X62738095Y-120476190D02*
X62785714Y-120380952D01*
X62833333Y-120333333D01*
X62928571Y-120285714D01*
X63023810Y-120285714D01*
X63976191Y-119952381D02*
X64547620Y-119952381D01*
X64261905Y-120952381D02*
X64261905Y-119952381D01*
X64880953Y-120952381D02*
X64880953Y-119952381D01*
X65309525Y-120952381D02*
X65309525Y-120428571D01*
X65261906Y-120333333D01*
X65166668Y-120285714D01*
X65023810Y-120285714D01*
X64928572Y-120333333D01*
X64880953Y-120380952D01*
X65785715Y-120952381D02*
X65785715Y-120285714D01*
X65785715Y-119952381D02*
X65738096Y-120000000D01*
X65785715Y-120047619D01*
X65833334Y-120000000D01*
X65785715Y-119952381D01*
X65785715Y-120047619D01*
X66690477Y-120904762D02*
X66595239Y-120952381D01*
X66404762Y-120952381D01*
X66309524Y-120904762D01*
X66261905Y-120857143D01*
X66214286Y-120761905D01*
X66214286Y-120476190D01*
X66261905Y-120380952D01*
X66309524Y-120333333D01*
X66404762Y-120285714D01*
X66595239Y-120285714D01*
X66690477Y-120333333D01*
X67119048Y-120952381D02*
X67119048Y-119952381D01*
X67214286Y-120571429D02*
X67500001Y-120952381D01*
X67500001Y-120285714D02*
X67119048Y-120666667D01*
X67928572Y-120285714D02*
X67928572Y-120952381D01*
X67928572Y-120380952D02*
X67976191Y-120333333D01*
X68071429Y-120285714D01*
X68214287Y-120285714D01*
X68309525Y-120333333D01*
X68357144Y-120428571D01*
X68357144Y-120952381D01*
X69214287Y-120904762D02*
X69119049Y-120952381D01*
X68928572Y-120952381D01*
X68833334Y-120904762D01*
X68785715Y-120809524D01*
X68785715Y-120428571D01*
X68833334Y-120333333D01*
X68928572Y-120285714D01*
X69119049Y-120285714D01*
X69214287Y-120333333D01*
X69261906Y-120428571D01*
X69261906Y-120523810D01*
X68785715Y-120619048D01*
X69642858Y-120904762D02*
X69738096Y-120952381D01*
X69928572Y-120952381D01*
X70023811Y-120904762D01*
X70071430Y-120809524D01*
X70071430Y-120761905D01*
X70023811Y-120666667D01*
X69928572Y-120619048D01*
X69785715Y-120619048D01*
X69690477Y-120571429D01*
X69642858Y-120476190D01*
X69642858Y-120428571D01*
X69690477Y-120333333D01*
X69785715Y-120285714D01*
X69928572Y-120285714D01*
X70023811Y-120333333D01*
X70452382Y-120904762D02*
X70547620Y-120952381D01*
X70738096Y-120952381D01*
X70833335Y-120904762D01*
X70880954Y-120809524D01*
X70880954Y-120761905D01*
X70833335Y-120666667D01*
X70738096Y-120619048D01*
X70595239Y-120619048D01*
X70500001Y-120571429D01*
X70452382Y-120476190D01*
X70452382Y-120428571D01*
X70500001Y-120333333D01*
X70595239Y-120285714D01*
X70738096Y-120285714D01*
X70833335Y-120333333D01*
X58557144Y-122628571D02*
X58223810Y-122628571D01*
X58223810Y-123152381D02*
X58223810Y-122152381D01*
X58700001Y-122152381D01*
X59080953Y-123152381D02*
X59080953Y-122485714D01*
X59080953Y-122152381D02*
X59033334Y-122200000D01*
X59080953Y-122247619D01*
X59128572Y-122200000D01*
X59080953Y-122152381D01*
X59080953Y-122247619D01*
X59557143Y-122485714D02*
X59557143Y-123152381D01*
X59557143Y-122580952D02*
X59604762Y-122533333D01*
X59700000Y-122485714D01*
X59842858Y-122485714D01*
X59938096Y-122533333D01*
X59985715Y-122628571D01*
X59985715Y-123152381D01*
X60461905Y-123152381D02*
X60461905Y-122485714D01*
X60461905Y-122152381D02*
X60414286Y-122200000D01*
X60461905Y-122247619D01*
X60509524Y-122200000D01*
X60461905Y-122152381D01*
X60461905Y-122247619D01*
X60890476Y-123104762D02*
X60985714Y-123152381D01*
X61176190Y-123152381D01*
X61271429Y-123104762D01*
X61319048Y-123009524D01*
X61319048Y-122961905D01*
X61271429Y-122866667D01*
X61176190Y-122819048D01*
X61033333Y-122819048D01*
X60938095Y-122771429D01*
X60890476Y-122676190D01*
X60890476Y-122628571D01*
X60938095Y-122533333D01*
X61033333Y-122485714D01*
X61176190Y-122485714D01*
X61271429Y-122533333D01*
X61747619Y-123152381D02*
X61747619Y-122152381D01*
X62176191Y-123152381D02*
X62176191Y-122628571D01*
X62128572Y-122533333D01*
X62033334Y-122485714D01*
X61890476Y-122485714D01*
X61795238Y-122533333D01*
X61747619Y-122580952D01*
X58490477Y-124528571D02*
X58633334Y-124576190D01*
X58680953Y-124623810D01*
X58728572Y-124719048D01*
X58728572Y-124861905D01*
X58680953Y-124957143D01*
X58633334Y-125004762D01*
X58538096Y-125052381D01*
X58157143Y-125052381D01*
X58157143Y-124052381D01*
X58490477Y-124052381D01*
X58585715Y-124100000D01*
X58633334Y-124147619D01*
X58680953Y-124242857D01*
X58680953Y-124338095D01*
X58633334Y-124433333D01*
X58585715Y-124480952D01*
X58490477Y-124528571D01*
X58157143Y-124528571D01*
X59490477Y-124528571D02*
X59633334Y-124576190D01*
X59680953Y-124623810D01*
X59728572Y-124719048D01*
X59728572Y-124861905D01*
X59680953Y-124957143D01*
X59633334Y-125004762D01*
X59538096Y-125052381D01*
X59157143Y-125052381D01*
X59157143Y-124052381D01*
X59490477Y-124052381D01*
X59585715Y-124100000D01*
X59633334Y-124147619D01*
X59680953Y-124242857D01*
X59680953Y-124338095D01*
X59633334Y-124433333D01*
X59585715Y-124480952D01*
X59490477Y-124528571D01*
X59157143Y-124528571D01*
X60014286Y-124052381D02*
X60585715Y-124052381D01*
X60300000Y-125052381D02*
X60300000Y-124052381D01*
X58561905Y-126628571D02*
X58228571Y-126628571D01*
X58228571Y-127152381D02*
X58228571Y-126152381D01*
X58704762Y-126152381D01*
X59419048Y-126628571D02*
X59561905Y-126676190D01*
X59609524Y-126723810D01*
X59657143Y-126819048D01*
X59657143Y-126961905D01*
X59609524Y-127057143D01*
X59561905Y-127104762D01*
X59466667Y-127152381D01*
X59085714Y-127152381D01*
X59085714Y-126152381D01*
X59419048Y-126152381D01*
X59514286Y-126200000D01*
X59561905Y-126247619D01*
X59609524Y-126342857D01*
X59609524Y-126438095D01*
X59561905Y-126533333D01*
X59514286Y-126580952D01*
X59419048Y-126628571D01*
X59085714Y-126628571D01*
X59942857Y-126152381D02*
X60514286Y-126152381D01*
X60228571Y-127152381D02*
X60228571Y-126152381D01*
X58038094Y-128804762D02*
X58180951Y-128852381D01*
X58419047Y-128852381D01*
X58514285Y-128804762D01*
X58561904Y-128757143D01*
X58609523Y-128661905D01*
X58609523Y-128566667D01*
X58561904Y-128471429D01*
X58514285Y-128423810D01*
X58419047Y-128376190D01*
X58228570Y-128328571D01*
X58133332Y-128280952D01*
X58085713Y-128233333D01*
X58038094Y-128138095D01*
X58038094Y-128042857D01*
X58085713Y-127947619D01*
X58133332Y-127900000D01*
X58228570Y-127852381D01*
X58466666Y-127852381D01*
X58609523Y-127900000D01*
X59180951Y-128852381D02*
X59085713Y-128804762D01*
X59038094Y-128757143D01*
X58990475Y-128661905D01*
X58990475Y-128376190D01*
X59038094Y-128280952D01*
X59085713Y-128233333D01*
X59180951Y-128185714D01*
X59323809Y-128185714D01*
X59419047Y-128233333D01*
X59466666Y-128280952D01*
X59514285Y-128376190D01*
X59514285Y-128661905D01*
X59466666Y-128757143D01*
X59419047Y-128804762D01*
X59323809Y-128852381D01*
X59180951Y-128852381D01*
X60085713Y-128852381D02*
X59990475Y-128804762D01*
X59942856Y-128709524D01*
X59942856Y-127852381D01*
X60895238Y-128852381D02*
X60895238Y-127852381D01*
X60895238Y-128804762D02*
X60800000Y-128852381D01*
X60609523Y-128852381D01*
X60514285Y-128804762D01*
X60466666Y-128757143D01*
X60419047Y-128661905D01*
X60419047Y-128376190D01*
X60466666Y-128280952D01*
X60514285Y-128233333D01*
X60609523Y-128185714D01*
X60800000Y-128185714D01*
X60895238Y-128233333D01*
X61752381Y-128804762D02*
X61657143Y-128852381D01*
X61466666Y-128852381D01*
X61371428Y-128804762D01*
X61323809Y-128709524D01*
X61323809Y-128328571D01*
X61371428Y-128233333D01*
X61466666Y-128185714D01*
X61657143Y-128185714D01*
X61752381Y-128233333D01*
X61800000Y-128328571D01*
X61800000Y-128423810D01*
X61323809Y-128519048D01*
X62228571Y-128852381D02*
X62228571Y-128185714D01*
X62228571Y-128376190D02*
X62276190Y-128280952D01*
X62323809Y-128233333D01*
X62419047Y-128185714D01*
X62514286Y-128185714D01*
X63609524Y-128852381D02*
X63609524Y-127852381D01*
X63942858Y-128566667D01*
X64276191Y-127852381D01*
X64276191Y-128852381D01*
X65180953Y-128852381D02*
X65180953Y-128328571D01*
X65133334Y-128233333D01*
X65038096Y-128185714D01*
X64847619Y-128185714D01*
X64752381Y-128233333D01*
X65180953Y-128804762D02*
X65085715Y-128852381D01*
X64847619Y-128852381D01*
X64752381Y-128804762D01*
X64704762Y-128709524D01*
X64704762Y-128614286D01*
X64752381Y-128519048D01*
X64847619Y-128471429D01*
X65085715Y-128471429D01*
X65180953Y-128423810D01*
X65609524Y-128804762D02*
X65704762Y-128852381D01*
X65895238Y-128852381D01*
X65990477Y-128804762D01*
X66038096Y-128709524D01*
X66038096Y-128661905D01*
X65990477Y-128566667D01*
X65895238Y-128519048D01*
X65752381Y-128519048D01*
X65657143Y-128471429D01*
X65609524Y-128376190D01*
X65609524Y-128328571D01*
X65657143Y-128233333D01*
X65752381Y-128185714D01*
X65895238Y-128185714D01*
X65990477Y-128233333D01*
X66466667Y-128852381D02*
X66466667Y-127852381D01*
X66561905Y-128471429D02*
X66847620Y-128852381D01*
X66847620Y-128185714D02*
X66466667Y-128566667D01*
X68609525Y-128757143D02*
X68561906Y-128804762D01*
X68419049Y-128852381D01*
X68323811Y-128852381D01*
X68180953Y-128804762D01*
X68085715Y-128709524D01*
X68038096Y-128614286D01*
X67990477Y-128423810D01*
X67990477Y-128280952D01*
X68038096Y-128090476D01*
X68085715Y-127995238D01*
X68180953Y-127900000D01*
X68323811Y-127852381D01*
X68419049Y-127852381D01*
X68561906Y-127900000D01*
X68609525Y-127947619D01*
X69180953Y-128852381D02*
X69085715Y-128804762D01*
X69038096Y-128757143D01*
X68990477Y-128661905D01*
X68990477Y-128376190D01*
X69038096Y-128280952D01*
X69085715Y-128233333D01*
X69180953Y-128185714D01*
X69323811Y-128185714D01*
X69419049Y-128233333D01*
X69466668Y-128280952D01*
X69514287Y-128376190D01*
X69514287Y-128661905D01*
X69466668Y-128757143D01*
X69419049Y-128804762D01*
X69323811Y-128852381D01*
X69180953Y-128852381D01*
X70085715Y-128852381D02*
X69990477Y-128804762D01*
X69942858Y-128709524D01*
X69942858Y-127852381D01*
X70609525Y-128852381D02*
X70514287Y-128804762D01*
X70466668Y-128757143D01*
X70419049Y-128661905D01*
X70419049Y-128376190D01*
X70466668Y-128280952D01*
X70514287Y-128233333D01*
X70609525Y-128185714D01*
X70752383Y-128185714D01*
X70847621Y-128233333D01*
X70895240Y-128280952D01*
X70942859Y-128376190D01*
X70942859Y-128661905D01*
X70895240Y-128757143D01*
X70847621Y-128804762D01*
X70752383Y-128852381D01*
X70609525Y-128852381D01*
X71371430Y-128852381D02*
X71371430Y-128185714D01*
X71371430Y-128376190D02*
X71419049Y-128280952D01*
X71466668Y-128233333D01*
X71561906Y-128185714D01*
X71657145Y-128185714D01*
X78688571Y-92295714D02*
X78688571Y-92962381D01*
X78450475Y-91914762D02*
X78212380Y-92629048D01*
X78831428Y-92629048D01*
X80450476Y-92962381D02*
X79974285Y-92962381D01*
X79974285Y-91962381D01*
X81212381Y-92962381D02*
X81212381Y-92438571D01*
X81164762Y-92343333D01*
X81069524Y-92295714D01*
X80879047Y-92295714D01*
X80783809Y-92343333D01*
X81212381Y-92914762D02*
X81117143Y-92962381D01*
X80879047Y-92962381D01*
X80783809Y-92914762D01*
X80736190Y-92819524D01*
X80736190Y-92724286D01*
X80783809Y-92629048D01*
X80879047Y-92581429D01*
X81117143Y-92581429D01*
X81212381Y-92533810D01*
X81593333Y-92295714D02*
X81831428Y-92962381D01*
X82069524Y-92295714D02*
X81831428Y-92962381D01*
X81736190Y-93200476D01*
X81688571Y-93248095D01*
X81593333Y-93295714D01*
X82831429Y-92914762D02*
X82736191Y-92962381D01*
X82545714Y-92962381D01*
X82450476Y-92914762D01*
X82402857Y-92819524D01*
X82402857Y-92438571D01*
X82450476Y-92343333D01*
X82545714Y-92295714D01*
X82736191Y-92295714D01*
X82831429Y-92343333D01*
X82879048Y-92438571D01*
X82879048Y-92533810D01*
X82402857Y-92629048D01*
X83307619Y-92962381D02*
X83307619Y-92295714D01*
X83307619Y-92486190D02*
X83355238Y-92390952D01*
X83402857Y-92343333D01*
X83498095Y-92295714D01*
X83593334Y-92295714D01*
X83879048Y-92914762D02*
X83974286Y-92962381D01*
X84164762Y-92962381D01*
X84260001Y-92914762D01*
X84307620Y-92819524D01*
X84307620Y-92771905D01*
X84260001Y-92676667D01*
X84164762Y-92629048D01*
X84021905Y-92629048D01*
X83926667Y-92581429D01*
X83879048Y-92486190D01*
X83879048Y-92438571D01*
X83926667Y-92343333D01*
X84021905Y-92295714D01*
X84164762Y-92295714D01*
X84260001Y-92343333D01*
X78652381Y-94480952D02*
X78557143Y-94433333D01*
X78509524Y-94385714D01*
X78461905Y-94290476D01*
X78461905Y-94242857D01*
X78509524Y-94147619D01*
X78557143Y-94100000D01*
X78652381Y-94052381D01*
X78842858Y-94052381D01*
X78938096Y-94100000D01*
X78985715Y-94147619D01*
X79033334Y-94242857D01*
X79033334Y-94290476D01*
X78985715Y-94385714D01*
X78938096Y-94433333D01*
X78842858Y-94480952D01*
X78652381Y-94480952D01*
X78557143Y-94528571D01*
X78509524Y-94576190D01*
X78461905Y-94671429D01*
X78461905Y-94861905D01*
X78509524Y-94957143D01*
X78557143Y-95004762D01*
X78652381Y-95052381D01*
X78842858Y-95052381D01*
X78938096Y-95004762D01*
X78985715Y-94957143D01*
X79033334Y-94861905D01*
X79033334Y-94671429D01*
X78985715Y-94576190D01*
X78938096Y-94528571D01*
X78842858Y-94480952D01*
X80223810Y-95052381D02*
X80223810Y-94385714D01*
X80223810Y-94480952D02*
X80271429Y-94433333D01*
X80366667Y-94385714D01*
X80509525Y-94385714D01*
X80604763Y-94433333D01*
X80652382Y-94528571D01*
X80652382Y-95052381D01*
X80652382Y-94528571D02*
X80700001Y-94433333D01*
X80795239Y-94385714D01*
X80938096Y-94385714D01*
X81033334Y-94433333D01*
X81080953Y-94528571D01*
X81080953Y-95052381D01*
X81557143Y-95052381D02*
X81557143Y-94385714D01*
X81557143Y-94052381D02*
X81509524Y-94100000D01*
X81557143Y-94147619D01*
X81604762Y-94100000D01*
X81557143Y-94052381D01*
X81557143Y-94147619D01*
X82176190Y-95052381D02*
X82080952Y-95004762D01*
X82033333Y-94909524D01*
X82033333Y-94052381D01*
X82509524Y-95004762D02*
X82604762Y-95052381D01*
X82795238Y-95052381D01*
X82890477Y-95004762D01*
X82938096Y-94909524D01*
X82938096Y-94861905D01*
X82890477Y-94766667D01*
X82795238Y-94719048D01*
X82652381Y-94719048D01*
X82557143Y-94671429D01*
X82509524Y-94576190D01*
X82509524Y-94528571D01*
X82557143Y-94433333D01*
X82652381Y-94385714D01*
X82795238Y-94385714D01*
X82890477Y-94433333D01*
X78652381Y-96480952D02*
X78557143Y-96433333D01*
X78509524Y-96385714D01*
X78461905Y-96290476D01*
X78461905Y-96242857D01*
X78509524Y-96147619D01*
X78557143Y-96100000D01*
X78652381Y-96052381D01*
X78842858Y-96052381D01*
X78938096Y-96100000D01*
X78985715Y-96147619D01*
X79033334Y-96242857D01*
X79033334Y-96290476D01*
X78985715Y-96385714D01*
X78938096Y-96433333D01*
X78842858Y-96480952D01*
X78652381Y-96480952D01*
X78557143Y-96528571D01*
X78509524Y-96576190D01*
X78461905Y-96671429D01*
X78461905Y-96861905D01*
X78509524Y-96957143D01*
X78557143Y-97004762D01*
X78652381Y-97052381D01*
X78842858Y-97052381D01*
X78938096Y-97004762D01*
X78985715Y-96957143D01*
X79033334Y-96861905D01*
X79033334Y-96671429D01*
X78985715Y-96576190D01*
X78938096Y-96528571D01*
X78842858Y-96480952D01*
X80223810Y-97052381D02*
X80223810Y-96385714D01*
X80223810Y-96480952D02*
X80271429Y-96433333D01*
X80366667Y-96385714D01*
X80509525Y-96385714D01*
X80604763Y-96433333D01*
X80652382Y-96528571D01*
X80652382Y-97052381D01*
X80652382Y-96528571D02*
X80700001Y-96433333D01*
X80795239Y-96385714D01*
X80938096Y-96385714D01*
X81033334Y-96433333D01*
X81080953Y-96528571D01*
X81080953Y-97052381D01*
X81557143Y-97052381D02*
X81557143Y-96385714D01*
X81557143Y-96052381D02*
X81509524Y-96100000D01*
X81557143Y-96147619D01*
X81604762Y-96100000D01*
X81557143Y-96052381D01*
X81557143Y-96147619D01*
X82176190Y-97052381D02*
X82080952Y-97004762D01*
X82033333Y-96909524D01*
X82033333Y-96052381D01*
X82509524Y-97004762D02*
X82604762Y-97052381D01*
X82795238Y-97052381D01*
X82890477Y-97004762D01*
X82938096Y-96909524D01*
X82938096Y-96861905D01*
X82890477Y-96766667D01*
X82795238Y-96719048D01*
X82652381Y-96719048D01*
X82557143Y-96671429D01*
X82509524Y-96576190D01*
X82509524Y-96528571D01*
X82557143Y-96433333D01*
X82652381Y-96385714D01*
X82795238Y-96385714D01*
X82890477Y-96433333D01*
X78866666Y-98576190D02*
X78866666Y-99052381D01*
X78533333Y-98052381D02*
X78866666Y-98576190D01*
X79200000Y-98052381D01*
X79914286Y-99004762D02*
X79819048Y-99052381D01*
X79628571Y-99052381D01*
X79533333Y-99004762D01*
X79485714Y-98909524D01*
X79485714Y-98528571D01*
X79533333Y-98433333D01*
X79628571Y-98385714D01*
X79819048Y-98385714D01*
X79914286Y-98433333D01*
X79961905Y-98528571D01*
X79961905Y-98623810D01*
X79485714Y-98719048D01*
X80342857Y-99004762D02*
X80438095Y-99052381D01*
X80628571Y-99052381D01*
X80723810Y-99004762D01*
X80771429Y-98909524D01*
X80771429Y-98861905D01*
X80723810Y-98766667D01*
X80628571Y-98719048D01*
X80485714Y-98719048D01*
X80390476Y-98671429D01*
X80342857Y-98576190D01*
X80342857Y-98528571D01*
X80390476Y-98433333D01*
X80485714Y-98385714D01*
X80628571Y-98385714D01*
X80723810Y-98433333D01*
X78866666Y-100576190D02*
X78866666Y-101052381D01*
X78533333Y-100052381D02*
X78866666Y-100576190D01*
X79200000Y-100052381D01*
X79914286Y-101004762D02*
X79819048Y-101052381D01*
X79628571Y-101052381D01*
X79533333Y-101004762D01*
X79485714Y-100909524D01*
X79485714Y-100528571D01*
X79533333Y-100433333D01*
X79628571Y-100385714D01*
X79819048Y-100385714D01*
X79914286Y-100433333D01*
X79961905Y-100528571D01*
X79961905Y-100623810D01*
X79485714Y-100719048D01*
X80342857Y-101004762D02*
X80438095Y-101052381D01*
X80628571Y-101052381D01*
X80723810Y-101004762D01*
X80771429Y-100909524D01*
X80771429Y-100861905D01*
X80723810Y-100766667D01*
X80628571Y-100719048D01*
X80485714Y-100719048D01*
X80390476Y-100671429D01*
X80342857Y-100576190D01*
X80342857Y-100528571D01*
X80390476Y-100433333D01*
X80485714Y-100385714D01*
X80628571Y-100385714D01*
X80723810Y-100433333D01*
X78866666Y-102576190D02*
X78866666Y-103052381D01*
X78533333Y-102052381D02*
X78866666Y-102576190D01*
X79200000Y-102052381D01*
X79914286Y-103004762D02*
X79819048Y-103052381D01*
X79628571Y-103052381D01*
X79533333Y-103004762D01*
X79485714Y-102909524D01*
X79485714Y-102528571D01*
X79533333Y-102433333D01*
X79628571Y-102385714D01*
X79819048Y-102385714D01*
X79914286Y-102433333D01*
X79961905Y-102528571D01*
X79961905Y-102623810D01*
X79485714Y-102719048D01*
X80342857Y-103004762D02*
X80438095Y-103052381D01*
X80628571Y-103052381D01*
X80723810Y-103004762D01*
X80771429Y-102909524D01*
X80771429Y-102861905D01*
X80723810Y-102766667D01*
X80628571Y-102719048D01*
X80485714Y-102719048D01*
X80390476Y-102671429D01*
X80342857Y-102576190D01*
X80342857Y-102528571D01*
X80390476Y-102433333D01*
X80485714Y-102385714D01*
X80628571Y-102385714D01*
X80723810Y-102433333D01*
X78961905Y-105052381D02*
X78961905Y-104052381D01*
X79533334Y-105052381D01*
X79533334Y-104052381D01*
X80152381Y-105052381D02*
X80057143Y-105004762D01*
X80009524Y-104957143D01*
X79961905Y-104861905D01*
X79961905Y-104576190D01*
X80009524Y-104480952D01*
X80057143Y-104433333D01*
X80152381Y-104385714D01*
X80295239Y-104385714D01*
X80390477Y-104433333D01*
X80438096Y-104480952D01*
X80485715Y-104576190D01*
X80485715Y-104861905D01*
X80438096Y-104957143D01*
X80390477Y-105004762D01*
X80295239Y-105052381D01*
X80152381Y-105052381D01*
X78938096Y-106052381D02*
X78747619Y-106052381D01*
X78652381Y-106100000D01*
X78604762Y-106147619D01*
X78509524Y-106290476D01*
X78461905Y-106480952D01*
X78461905Y-106861905D01*
X78509524Y-106957143D01*
X78557143Y-107004762D01*
X78652381Y-107052381D01*
X78842858Y-107052381D01*
X78938096Y-107004762D01*
X78985715Y-106957143D01*
X79033334Y-106861905D01*
X79033334Y-106623810D01*
X78985715Y-106528571D01*
X78938096Y-106480952D01*
X78842858Y-106433333D01*
X78652381Y-106433333D01*
X78557143Y-106480952D01*
X78509524Y-106528571D01*
X78461905Y-106623810D01*
X80223810Y-107052381D02*
X80223810Y-106385714D01*
X80223810Y-106480952D02*
X80271429Y-106433333D01*
X80366667Y-106385714D01*
X80509525Y-106385714D01*
X80604763Y-106433333D01*
X80652382Y-106528571D01*
X80652382Y-107052381D01*
X80652382Y-106528571D02*
X80700001Y-106433333D01*
X80795239Y-106385714D01*
X80938096Y-106385714D01*
X81033334Y-106433333D01*
X81080953Y-106528571D01*
X81080953Y-107052381D01*
X81557143Y-107052381D02*
X81557143Y-106385714D01*
X81557143Y-106052381D02*
X81509524Y-106100000D01*
X81557143Y-106147619D01*
X81604762Y-106100000D01*
X81557143Y-106052381D01*
X81557143Y-106147619D01*
X82176190Y-107052381D02*
X82080952Y-107004762D01*
X82033333Y-106909524D01*
X82033333Y-106052381D01*
X82509524Y-107004762D02*
X82604762Y-107052381D01*
X82795238Y-107052381D01*
X82890477Y-107004762D01*
X82938096Y-106909524D01*
X82938096Y-106861905D01*
X82890477Y-106766667D01*
X82795238Y-106719048D01*
X82652381Y-106719048D01*
X82557143Y-106671429D01*
X82509524Y-106576190D01*
X82509524Y-106528571D01*
X82557143Y-106433333D01*
X82652381Y-106385714D01*
X82795238Y-106385714D01*
X82890477Y-106433333D01*
X78961905Y-109052381D02*
X78961905Y-108052381D01*
X79533334Y-109052381D01*
X79533334Y-108052381D01*
X80152381Y-109052381D02*
X80057143Y-109004762D01*
X80009524Y-108957143D01*
X79961905Y-108861905D01*
X79961905Y-108576190D01*
X80009524Y-108480952D01*
X80057143Y-108433333D01*
X80152381Y-108385714D01*
X80295239Y-108385714D01*
X80390477Y-108433333D01*
X80438096Y-108480952D01*
X80485715Y-108576190D01*
X80485715Y-108861905D01*
X80438096Y-108957143D01*
X80390477Y-109004762D01*
X80295239Y-109052381D01*
X80152381Y-109052381D01*
X78700000Y-110147619D02*
X78747619Y-110100000D01*
X78842857Y-110052381D01*
X79080953Y-110052381D01*
X79176191Y-110100000D01*
X79223810Y-110147619D01*
X79271429Y-110242857D01*
X79271429Y-110338095D01*
X79223810Y-110480952D01*
X78652381Y-111052381D01*
X79271429Y-111052381D01*
X80461905Y-111052381D02*
X80461905Y-110385714D01*
X80461905Y-110480952D02*
X80509524Y-110433333D01*
X80604762Y-110385714D01*
X80747620Y-110385714D01*
X80842858Y-110433333D01*
X80890477Y-110528571D01*
X80890477Y-111052381D01*
X80890477Y-110528571D02*
X80938096Y-110433333D01*
X81033334Y-110385714D01*
X81176191Y-110385714D01*
X81271429Y-110433333D01*
X81319048Y-110528571D01*
X81319048Y-111052381D01*
X81795238Y-111052381D02*
X81795238Y-110385714D01*
X81795238Y-110480952D02*
X81842857Y-110433333D01*
X81938095Y-110385714D01*
X82080953Y-110385714D01*
X82176191Y-110433333D01*
X82223810Y-110528571D01*
X82223810Y-111052381D01*
X82223810Y-110528571D02*
X82271429Y-110433333D01*
X82366667Y-110385714D01*
X82509524Y-110385714D01*
X82604762Y-110433333D01*
X82652381Y-110528571D01*
X82652381Y-111052381D01*
X78866667Y-112528571D02*
X78533333Y-112528571D01*
X78533333Y-113052381D02*
X78533333Y-112052381D01*
X79009524Y-112052381D01*
X79961905Y-113052381D02*
X79628571Y-112576190D01*
X79390476Y-113052381D02*
X79390476Y-112052381D01*
X79771429Y-112052381D01*
X79866667Y-112100000D01*
X79914286Y-112147619D01*
X79961905Y-112242857D01*
X79961905Y-112385714D01*
X79914286Y-112480952D01*
X79866667Y-112528571D01*
X79771429Y-112576190D01*
X79390476Y-112576190D01*
X80819048Y-112385714D02*
X80819048Y-113052381D01*
X80580952Y-112004762D02*
X80342857Y-112719048D01*
X80961905Y-112719048D01*
X78666666Y-114576190D02*
X78666666Y-115052381D01*
X78333333Y-114052381D02*
X78666666Y-114576190D01*
X79000000Y-114052381D01*
X79714286Y-115004762D02*
X79619048Y-115052381D01*
X79428571Y-115052381D01*
X79333333Y-115004762D01*
X79285714Y-114909524D01*
X79285714Y-114528571D01*
X79333333Y-114433333D01*
X79428571Y-114385714D01*
X79619048Y-114385714D01*
X79714286Y-114433333D01*
X79761905Y-114528571D01*
X79761905Y-114623810D01*
X79285714Y-114719048D01*
X80142857Y-115004762D02*
X80238095Y-115052381D01*
X80428571Y-115052381D01*
X80523810Y-115004762D01*
X80571429Y-114909524D01*
X80571429Y-114861905D01*
X80523810Y-114766667D01*
X80428571Y-114719048D01*
X80285714Y-114719048D01*
X80190476Y-114671429D01*
X80142857Y-114576190D01*
X80142857Y-114528571D01*
X80190476Y-114433333D01*
X80285714Y-114385714D01*
X80428571Y-114385714D01*
X80523810Y-114433333D01*
X78866666Y-116576190D02*
X78866666Y-117052381D01*
X78533333Y-116052381D02*
X78866666Y-116576190D01*
X79200000Y-116052381D01*
X79914286Y-117004762D02*
X79819048Y-117052381D01*
X79628571Y-117052381D01*
X79533333Y-117004762D01*
X79485714Y-116909524D01*
X79485714Y-116528571D01*
X79533333Y-116433333D01*
X79628571Y-116385714D01*
X79819048Y-116385714D01*
X79914286Y-116433333D01*
X79961905Y-116528571D01*
X79961905Y-116623810D01*
X79485714Y-116719048D01*
X80342857Y-117004762D02*
X80438095Y-117052381D01*
X80628571Y-117052381D01*
X80723810Y-117004762D01*
X80771429Y-116909524D01*
X80771429Y-116861905D01*
X80723810Y-116766667D01*
X80628571Y-116719048D01*
X80485714Y-116719048D01*
X80390476Y-116671429D01*
X80342857Y-116576190D01*
X80342857Y-116528571D01*
X80390476Y-116433333D01*
X80485714Y-116385714D01*
X80628571Y-116385714D01*
X80723810Y-116433333D01*
X78961905Y-119052381D02*
X78961905Y-118052381D01*
X79533334Y-119052381D01*
X79533334Y-118052381D01*
X80152381Y-119052381D02*
X80057143Y-119004762D01*
X80009524Y-118957143D01*
X79961905Y-118861905D01*
X79961905Y-118576190D01*
X80009524Y-118480952D01*
X80057143Y-118433333D01*
X80152381Y-118385714D01*
X80295239Y-118385714D01*
X80390477Y-118433333D01*
X80438096Y-118480952D01*
X80485715Y-118576190D01*
X80485715Y-118861905D01*
X80438096Y-118957143D01*
X80390477Y-119004762D01*
X80295239Y-119052381D01*
X80152381Y-119052381D01*
X78652381Y-120052381D02*
X79271429Y-120052381D01*
X78938095Y-120433333D01*
X79080953Y-120433333D01*
X79176191Y-120480952D01*
X79223810Y-120528571D01*
X79271429Y-120623810D01*
X79271429Y-120861905D01*
X79223810Y-120957143D01*
X79176191Y-121004762D01*
X79080953Y-121052381D01*
X78795238Y-121052381D01*
X78700000Y-121004762D01*
X78652381Y-120957143D01*
X79890476Y-120052381D02*
X79985715Y-120052381D01*
X80080953Y-120100000D01*
X80128572Y-120147619D01*
X80176191Y-120242857D01*
X80223810Y-120433333D01*
X80223810Y-120671429D01*
X80176191Y-120861905D01*
X80128572Y-120957143D01*
X80080953Y-121004762D01*
X79985715Y-121052381D01*
X79890476Y-121052381D01*
X79795238Y-121004762D01*
X79747619Y-120957143D01*
X79700000Y-120861905D01*
X79652381Y-120671429D01*
X79652381Y-120433333D01*
X79700000Y-120242857D01*
X79747619Y-120147619D01*
X79795238Y-120100000D01*
X79890476Y-120052381D01*
X81414286Y-121052381D02*
X81414286Y-120052381D01*
X81747620Y-120766667D01*
X82080953Y-120052381D01*
X82080953Y-121052381D01*
X82557143Y-121052381D02*
X82557143Y-120385714D01*
X82557143Y-120052381D02*
X82509524Y-120100000D01*
X82557143Y-120147619D01*
X82604762Y-120100000D01*
X82557143Y-120052381D01*
X82557143Y-120147619D01*
X83461905Y-121004762D02*
X83366667Y-121052381D01*
X83176190Y-121052381D01*
X83080952Y-121004762D01*
X83033333Y-120957143D01*
X82985714Y-120861905D01*
X82985714Y-120576190D01*
X83033333Y-120480952D01*
X83080952Y-120433333D01*
X83176190Y-120385714D01*
X83366667Y-120385714D01*
X83461905Y-120433333D01*
X84033333Y-121052381D02*
X83938095Y-121004762D01*
X83890476Y-120957143D01*
X83842857Y-120861905D01*
X83842857Y-120576190D01*
X83890476Y-120480952D01*
X83938095Y-120433333D01*
X84033333Y-120385714D01*
X84176191Y-120385714D01*
X84271429Y-120433333D01*
X84319048Y-120480952D01*
X84366667Y-120576190D01*
X84366667Y-120861905D01*
X84319048Y-120957143D01*
X84271429Y-121004762D01*
X84176191Y-121052381D01*
X84033333Y-121052381D01*
X84795238Y-121052381D02*
X84795238Y-120385714D01*
X84795238Y-120576190D02*
X84842857Y-120480952D01*
X84890476Y-120433333D01*
X84985714Y-120385714D01*
X85080953Y-120385714D01*
X85414286Y-120385714D02*
X85414286Y-121052381D01*
X85414286Y-120480952D02*
X85461905Y-120433333D01*
X85557143Y-120385714D01*
X85700001Y-120385714D01*
X85795239Y-120433333D01*
X85842858Y-120528571D01*
X85842858Y-121052381D01*
X86271429Y-121004762D02*
X86366667Y-121052381D01*
X86557143Y-121052381D01*
X86652382Y-121004762D01*
X86700001Y-120909524D01*
X86700001Y-120861905D01*
X86652382Y-120766667D01*
X86557143Y-120719048D01*
X86414286Y-120719048D01*
X86319048Y-120671429D01*
X86271429Y-120576190D01*
X86271429Y-120528571D01*
X86319048Y-120433333D01*
X86414286Y-120385714D01*
X86557143Y-120385714D01*
X86652382Y-120433333D01*
X78509524Y-123052381D02*
X78509524Y-122052381D01*
X78509524Y-122528571D02*
X79080953Y-122528571D01*
X79080953Y-123052381D02*
X79080953Y-122052381D01*
X79509524Y-122766667D02*
X79985715Y-122766667D01*
X79414286Y-123052381D02*
X79747619Y-122052381D01*
X80080953Y-123052381D01*
X80366667Y-123004762D02*
X80509524Y-123052381D01*
X80747620Y-123052381D01*
X80842858Y-123004762D01*
X80890477Y-122957143D01*
X80938096Y-122861905D01*
X80938096Y-122766667D01*
X80890477Y-122671429D01*
X80842858Y-122623810D01*
X80747620Y-122576190D01*
X80557143Y-122528571D01*
X80461905Y-122480952D01*
X80414286Y-122433333D01*
X80366667Y-122338095D01*
X80366667Y-122242857D01*
X80414286Y-122147619D01*
X80461905Y-122100000D01*
X80557143Y-122052381D01*
X80795239Y-122052381D01*
X80938096Y-122100000D01*
X81842858Y-123052381D02*
X81366667Y-123052381D01*
X81366667Y-122052381D01*
X83271430Y-122528571D02*
X82938096Y-122528571D01*
X82938096Y-123052381D02*
X82938096Y-122052381D01*
X83414287Y-122052381D01*
X83795239Y-123052381D02*
X83795239Y-122385714D01*
X83795239Y-122052381D02*
X83747620Y-122100000D01*
X83795239Y-122147619D01*
X83842858Y-122100000D01*
X83795239Y-122052381D01*
X83795239Y-122147619D01*
X84271429Y-122385714D02*
X84271429Y-123052381D01*
X84271429Y-122480952D02*
X84319048Y-122433333D01*
X84414286Y-122385714D01*
X84557144Y-122385714D01*
X84652382Y-122433333D01*
X84700001Y-122528571D01*
X84700001Y-123052381D01*
X85176191Y-123052381D02*
X85176191Y-122385714D01*
X85176191Y-122052381D02*
X85128572Y-122100000D01*
X85176191Y-122147619D01*
X85223810Y-122100000D01*
X85176191Y-122052381D01*
X85176191Y-122147619D01*
X85604762Y-123004762D02*
X85700000Y-123052381D01*
X85890476Y-123052381D01*
X85985715Y-123004762D01*
X86033334Y-122909524D01*
X86033334Y-122861905D01*
X85985715Y-122766667D01*
X85890476Y-122719048D01*
X85747619Y-122719048D01*
X85652381Y-122671429D01*
X85604762Y-122576190D01*
X85604762Y-122528571D01*
X85652381Y-122433333D01*
X85747619Y-122385714D01*
X85890476Y-122385714D01*
X85985715Y-122433333D01*
X86461905Y-123052381D02*
X86461905Y-122052381D01*
X86890477Y-123052381D02*
X86890477Y-122528571D01*
X86842858Y-122433333D01*
X86747620Y-122385714D01*
X86604762Y-122385714D01*
X86509524Y-122433333D01*
X86461905Y-122480952D01*
X78866666Y-124576190D02*
X78866666Y-125052381D01*
X78533333Y-124052381D02*
X78866666Y-124576190D01*
X79200000Y-124052381D01*
X79914286Y-125004762D02*
X79819048Y-125052381D01*
X79628571Y-125052381D01*
X79533333Y-125004762D01*
X79485714Y-124909524D01*
X79485714Y-124528571D01*
X79533333Y-124433333D01*
X79628571Y-124385714D01*
X79819048Y-124385714D01*
X79914286Y-124433333D01*
X79961905Y-124528571D01*
X79961905Y-124623810D01*
X79485714Y-124719048D01*
X80342857Y-125004762D02*
X80438095Y-125052381D01*
X80628571Y-125052381D01*
X80723810Y-125004762D01*
X80771429Y-124909524D01*
X80771429Y-124861905D01*
X80723810Y-124766667D01*
X80628571Y-124719048D01*
X80485714Y-124719048D01*
X80390476Y-124671429D01*
X80342857Y-124576190D01*
X80342857Y-124528571D01*
X80390476Y-124433333D01*
X80485714Y-124385714D01*
X80628571Y-124385714D01*
X80723810Y-124433333D01*
X78866666Y-126576190D02*
X78866666Y-127052381D01*
X78533333Y-126052381D02*
X78866666Y-126576190D01*
X79200000Y-126052381D01*
X79914286Y-127004762D02*
X79819048Y-127052381D01*
X79628571Y-127052381D01*
X79533333Y-127004762D01*
X79485714Y-126909524D01*
X79485714Y-126528571D01*
X79533333Y-126433333D01*
X79628571Y-126385714D01*
X79819048Y-126385714D01*
X79914286Y-126433333D01*
X79961905Y-126528571D01*
X79961905Y-126623810D01*
X79485714Y-126719048D01*
X80342857Y-127004762D02*
X80438095Y-127052381D01*
X80628571Y-127052381D01*
X80723810Y-127004762D01*
X80771429Y-126909524D01*
X80771429Y-126861905D01*
X80723810Y-126766667D01*
X80628571Y-126719048D01*
X80485714Y-126719048D01*
X80390476Y-126671429D01*
X80342857Y-126576190D01*
X80342857Y-126528571D01*
X80390476Y-126433333D01*
X80485714Y-126385714D01*
X80628571Y-126385714D01*
X80723810Y-126433333D01*
X78790477Y-128728571D02*
X78933334Y-128776190D01*
X78980953Y-128823810D01*
X79028572Y-128919048D01*
X79028572Y-129061905D01*
X78980953Y-129157143D01*
X78933334Y-129204762D01*
X78838096Y-129252381D01*
X78457143Y-129252381D01*
X78457143Y-128252381D01*
X78790477Y-128252381D01*
X78885715Y-128300000D01*
X78933334Y-128347619D01*
X78980953Y-128442857D01*
X78980953Y-128538095D01*
X78933334Y-128633333D01*
X78885715Y-128680952D01*
X78790477Y-128728571D01*
X78457143Y-128728571D01*
X79933334Y-129252381D02*
X79457143Y-129252381D01*
X79457143Y-128252381D01*
X80266667Y-128252381D02*
X80266667Y-129061905D01*
X80314286Y-129157143D01*
X80361905Y-129204762D01*
X80457143Y-129252381D01*
X80647620Y-129252381D01*
X80742858Y-129204762D01*
X80790477Y-129157143D01*
X80838096Y-129061905D01*
X80838096Y-128252381D01*
X81314286Y-128728571D02*
X81647620Y-128728571D01*
X81790477Y-129252381D02*
X81314286Y-129252381D01*
X81314286Y-128252381D01*
X81790477Y-128252381D01*
M02*
