G04 #@! TF.FileFunction,Soldermask,Bot*
%FSLAX46Y46*%
G04 Gerber Fmt 4.6, Leading zero omitted, Abs format (unit mm)*
G04 Created by KiCad (PCBNEW 4.0.4-stable) date 02/18/17 15:09:56*
%MOMM*%
%LPD*%
G01*
G04 APERTURE LIST*
%ADD10C,0.100000*%
%ADD11R,1.900000X1.650000*%
%ADD12R,1.650000X1.900000*%
%ADD13R,2.100000X2.100000*%
%ADD14O,2.100000X2.100000*%
%ADD15R,1.900000X1.700000*%
%ADD16R,2.000000X2.400000*%
%ADD17R,2.900000X3.725000*%
G04 APERTURE END LIST*
D10*
D11*
X117640000Y-91690000D03*
X115140000Y-91690000D03*
X118850000Y-106860000D03*
X121350000Y-106860000D03*
X113850000Y-100170000D03*
X116350000Y-100170000D03*
X113870000Y-102110000D03*
X116370000Y-102110000D03*
X158810000Y-95170000D03*
X156310000Y-95170000D03*
D12*
X127670000Y-101870000D03*
X127670000Y-99370000D03*
X127670000Y-94630000D03*
X127670000Y-97130000D03*
D11*
X160870000Y-95180000D03*
X163370000Y-95180000D03*
D13*
X163490000Y-88570000D03*
D14*
X160950000Y-88570000D03*
X158410000Y-88570000D03*
X155870000Y-88570000D03*
X153330000Y-88570000D03*
X150790000Y-88570000D03*
X148250000Y-88570000D03*
X145710000Y-88570000D03*
X143170000Y-88570000D03*
X140630000Y-88570000D03*
X138090000Y-88570000D03*
X135550000Y-88570000D03*
X133010000Y-88570000D03*
X130470000Y-88570000D03*
X127930000Y-88570000D03*
X125390000Y-88570000D03*
X122850000Y-88570000D03*
X120310000Y-88570000D03*
X117770000Y-88570000D03*
X115230000Y-88570000D03*
D13*
X163490000Y-111430000D03*
D14*
X160950000Y-111430000D03*
X158410000Y-111430000D03*
X155870000Y-111430000D03*
X153330000Y-111430000D03*
X150790000Y-111430000D03*
X148250000Y-111430000D03*
X145710000Y-111430000D03*
X143170000Y-111430000D03*
X140630000Y-111430000D03*
X138090000Y-111430000D03*
X135550000Y-111430000D03*
X133010000Y-111430000D03*
X130470000Y-111430000D03*
X127930000Y-111430000D03*
X125390000Y-111430000D03*
X122850000Y-111430000D03*
X120310000Y-111430000D03*
X117770000Y-111430000D03*
X115230000Y-111430000D03*
D15*
X162300000Y-93330000D03*
X159600000Y-93330000D03*
X148230000Y-105720000D03*
X150930000Y-105720000D03*
X154130000Y-95470000D03*
X151430000Y-95470000D03*
X151000000Y-93680000D03*
X148300000Y-93680000D03*
D16*
X160920000Y-97350000D03*
X160920000Y-101350000D03*
D17*
X130680000Y-101252500D03*
X130680000Y-95427500D03*
M02*
