G04 #@! TF.FileFunction,Drawing*
%FSLAX46Y46*%
G04 Gerber Fmt 4.6, Leading zero omitted, Abs format (unit mm)*
G04 Created by KiCad (PCBNEW 4.0.4-stable) date 02/23/17 18:40:15*
%MOMM*%
%LPD*%
G01*
G04 APERTURE LIST*
%ADD10C,0.100000*%
%ADD11C,0.200000*%
%ADD12C,0.150000*%
%ADD13C,0.300000*%
G04 APERTURE END LIST*
D10*
D11*
X94036868Y-103570338D02*
X94034507Y-104141762D01*
X94035688Y-103856050D02*
X93035696Y-103851918D01*
X93178158Y-103947746D01*
X93273002Y-104043376D01*
X93320227Y-104138810D01*
X93133688Y-103185650D02*
X93086266Y-103137835D01*
X93039041Y-103042401D01*
X93040025Y-102804307D01*
X93088037Y-102709267D01*
X93135853Y-102661845D01*
X93231287Y-102614620D01*
X93326524Y-102615013D01*
X93469183Y-102663222D01*
X94038246Y-103237008D01*
X94040804Y-102617965D01*
X93947337Y-102189004D02*
X93995153Y-102141582D01*
X94042575Y-102189398D01*
X93994759Y-102236819D01*
X93947337Y-102189004D01*
X94042575Y-102189398D01*
X93045338Y-101518605D02*
X93045732Y-101423367D01*
X93093744Y-101328327D01*
X93141559Y-101280905D01*
X93236993Y-101233680D01*
X93427664Y-101186848D01*
X93665758Y-101187832D01*
X93856036Y-101236238D01*
X93951076Y-101284250D01*
X93998498Y-101332065D01*
X94045723Y-101427499D01*
X94045329Y-101522737D01*
X93997317Y-101617778D01*
X93949502Y-101665200D01*
X93854068Y-101712425D01*
X93663397Y-101759256D01*
X93425303Y-101758272D01*
X93235025Y-101709867D01*
X93139985Y-101661854D01*
X93092563Y-101614039D01*
X93045338Y-101518605D01*
X93049273Y-100566232D02*
X93049667Y-100470994D01*
X93097679Y-100375954D01*
X93145494Y-100328532D01*
X93240928Y-100281307D01*
X93431600Y-100234475D01*
X93669694Y-100235459D01*
X93859971Y-100283865D01*
X93955012Y-100331877D01*
X94002433Y-100379692D01*
X94049658Y-100475126D01*
X94049265Y-100570364D01*
X94001253Y-100665405D01*
X93953437Y-100712827D01*
X93858003Y-100760052D01*
X93667332Y-100806883D01*
X93429238Y-100805899D01*
X93238961Y-100757494D01*
X93143920Y-100709482D01*
X93096498Y-100661666D01*
X93049273Y-100566232D01*
X93053209Y-99613859D02*
X93053602Y-99518621D01*
X93101615Y-99423581D01*
X93149430Y-99376159D01*
X93244864Y-99328934D01*
X93435535Y-99282102D01*
X93673629Y-99283086D01*
X93863907Y-99331492D01*
X93958947Y-99379504D01*
X94006369Y-99427319D01*
X94053594Y-99522753D01*
X94053200Y-99617992D01*
X94005188Y-99713032D01*
X93957373Y-99760454D01*
X93861939Y-99807679D01*
X93671268Y-99854510D01*
X93433174Y-99853527D01*
X93242896Y-99805121D01*
X93147856Y-99757109D01*
X93100434Y-99709293D01*
X93053209Y-99613859D01*
X94059497Y-98094195D02*
X93392836Y-98091440D01*
X93488073Y-98091833D02*
X93440651Y-98044018D01*
X93393426Y-97948584D01*
X93394016Y-97805727D01*
X93442028Y-97710687D01*
X93537462Y-97663462D01*
X94061268Y-97665626D01*
X93537462Y-97663462D02*
X93442422Y-97615450D01*
X93395197Y-97520016D01*
X93395787Y-97377160D01*
X93443799Y-97282119D01*
X93539233Y-97234894D01*
X94063039Y-97237059D01*
X94065007Y-96760873D02*
X93398345Y-96758118D01*
X93493582Y-96758512D02*
X93446161Y-96710696D01*
X93398936Y-96615262D01*
X93399526Y-96472406D01*
X93447538Y-96377365D01*
X93542972Y-96330140D01*
X94066778Y-96332305D01*
X93542972Y-96330140D02*
X93447932Y-96282128D01*
X93400707Y-96186694D01*
X93401297Y-96043838D01*
X93449309Y-95948798D01*
X93544743Y-95901573D01*
X94068548Y-95903737D01*
X94924238Y-106052650D02*
X94974238Y-93952650D01*
X97962161Y-106065203D02*
X92224261Y-106041493D01*
X98012161Y-93965203D02*
X92274261Y-93941493D01*
X94974238Y-93952650D02*
X95555999Y-95081567D01*
X94974238Y-93952650D02*
X94383167Y-95076721D01*
X94924238Y-106052650D02*
X95515309Y-104928579D01*
X94924238Y-106052650D02*
X94342477Y-104923733D01*
D12*
X76886667Y-90062381D02*
X76696190Y-90062381D01*
X76600952Y-90110000D01*
X76553333Y-90157619D01*
X76458095Y-90300476D01*
X76410476Y-90490952D01*
X76410476Y-90871905D01*
X76458095Y-90967143D01*
X76505714Y-91014762D01*
X76600952Y-91062381D01*
X76791429Y-91062381D01*
X76886667Y-91014762D01*
X76934286Y-90967143D01*
X76981905Y-90871905D01*
X76981905Y-90633810D01*
X76934286Y-90538571D01*
X76886667Y-90490952D01*
X76791429Y-90443333D01*
X76600952Y-90443333D01*
X76505714Y-90490952D01*
X76458095Y-90538571D01*
X76410476Y-90633810D01*
X77315238Y-90062381D02*
X77981905Y-90062381D01*
X77553333Y-91062381D01*
X79029524Y-91062381D02*
X79553334Y-90395714D01*
X79029524Y-90395714D02*
X79553334Y-91062381D01*
X80648572Y-90157619D02*
X80696191Y-90110000D01*
X80791429Y-90062381D01*
X81029525Y-90062381D01*
X81124763Y-90110000D01*
X81172382Y-90157619D01*
X81220001Y-90252857D01*
X81220001Y-90348095D01*
X81172382Y-90490952D01*
X80600953Y-91062381D01*
X81220001Y-91062381D01*
X82124763Y-90062381D02*
X81648572Y-90062381D01*
X81600953Y-90538571D01*
X81648572Y-90490952D01*
X81743810Y-90443333D01*
X81981906Y-90443333D01*
X82077144Y-90490952D01*
X82124763Y-90538571D01*
X82172382Y-90633810D01*
X82172382Y-90871905D01*
X82124763Y-90967143D01*
X82077144Y-91014762D01*
X81981906Y-91062381D01*
X81743810Y-91062381D01*
X81648572Y-91014762D01*
X81600953Y-90967143D01*
X82600953Y-90967143D02*
X82648572Y-91014762D01*
X82600953Y-91062381D01*
X82553334Y-91014762D01*
X82600953Y-90967143D01*
X82600953Y-91062381D01*
X83220000Y-90490952D02*
X83124762Y-90443333D01*
X83077143Y-90395714D01*
X83029524Y-90300476D01*
X83029524Y-90252857D01*
X83077143Y-90157619D01*
X83124762Y-90110000D01*
X83220000Y-90062381D01*
X83410477Y-90062381D01*
X83505715Y-90110000D01*
X83553334Y-90157619D01*
X83600953Y-90252857D01*
X83600953Y-90300476D01*
X83553334Y-90395714D01*
X83505715Y-90443333D01*
X83410477Y-90490952D01*
X83220000Y-90490952D01*
X83124762Y-90538571D01*
X83077143Y-90586190D01*
X83029524Y-90681429D01*
X83029524Y-90871905D01*
X83077143Y-90967143D01*
X83124762Y-91014762D01*
X83220000Y-91062381D01*
X83410477Y-91062381D01*
X83505715Y-91014762D01*
X83553334Y-90967143D01*
X83600953Y-90871905D01*
X83600953Y-90681429D01*
X83553334Y-90586190D01*
X83505715Y-90538571D01*
X83410477Y-90490952D01*
X84791429Y-91062381D02*
X84791429Y-90395714D01*
X84791429Y-90490952D02*
X84839048Y-90443333D01*
X84934286Y-90395714D01*
X85077144Y-90395714D01*
X85172382Y-90443333D01*
X85220001Y-90538571D01*
X85220001Y-91062381D01*
X85220001Y-90538571D02*
X85267620Y-90443333D01*
X85362858Y-90395714D01*
X85505715Y-90395714D01*
X85600953Y-90443333D01*
X85648572Y-90538571D01*
X85648572Y-91062381D01*
X86124762Y-91062381D02*
X86124762Y-90395714D01*
X86124762Y-90490952D02*
X86172381Y-90443333D01*
X86267619Y-90395714D01*
X86410477Y-90395714D01*
X86505715Y-90443333D01*
X86553334Y-90538571D01*
X86553334Y-91062381D01*
X86553334Y-90538571D02*
X86600953Y-90443333D01*
X86696191Y-90395714D01*
X86839048Y-90395714D01*
X86934286Y-90443333D01*
X86981905Y-90538571D01*
X86981905Y-91062381D01*
D13*
X99642858Y-112228571D02*
X98785715Y-112228571D01*
X99214287Y-112228571D02*
X99214287Y-110728571D01*
X99071430Y-110942857D01*
X98928572Y-111085714D01*
X98785715Y-111157143D01*
X100928572Y-111228571D02*
X100928572Y-112228571D01*
X100571429Y-110657143D02*
X100214286Y-111728571D01*
X101142858Y-111728571D01*
X101714286Y-112085714D02*
X101785714Y-112157143D01*
X101714286Y-112228571D01*
X101642857Y-112157143D01*
X101714286Y-112085714D01*
X101714286Y-112228571D01*
X102714286Y-110728571D02*
X102857143Y-110728571D01*
X103000000Y-110800000D01*
X103071429Y-110871429D01*
X103142858Y-111014286D01*
X103214286Y-111300000D01*
X103214286Y-111657143D01*
X103142858Y-111942857D01*
X103071429Y-112085714D01*
X103000000Y-112157143D01*
X102857143Y-112228571D01*
X102714286Y-112228571D01*
X102571429Y-112157143D01*
X102500000Y-112085714D01*
X102428572Y-111942857D01*
X102357143Y-111657143D01*
X102357143Y-111300000D01*
X102428572Y-111014286D01*
X102500000Y-110871429D01*
X102571429Y-110800000D01*
X102714286Y-110728571D01*
X104142857Y-110728571D02*
X104285714Y-110728571D01*
X104428571Y-110800000D01*
X104500000Y-110871429D01*
X104571429Y-111014286D01*
X104642857Y-111300000D01*
X104642857Y-111657143D01*
X104571429Y-111942857D01*
X104500000Y-112085714D01*
X104428571Y-112157143D01*
X104285714Y-112228571D01*
X104142857Y-112228571D01*
X104000000Y-112157143D01*
X103928571Y-112085714D01*
X103857143Y-111942857D01*
X103785714Y-111657143D01*
X103785714Y-111300000D01*
X103857143Y-111014286D01*
X103928571Y-110871429D01*
X104000000Y-110800000D01*
X104142857Y-110728571D01*
X105571428Y-110728571D02*
X105714285Y-110728571D01*
X105857142Y-110800000D01*
X105928571Y-110871429D01*
X106000000Y-111014286D01*
X106071428Y-111300000D01*
X106071428Y-111657143D01*
X106000000Y-111942857D01*
X105928571Y-112085714D01*
X105857142Y-112157143D01*
X105714285Y-112228571D01*
X105571428Y-112228571D01*
X105428571Y-112157143D01*
X105357142Y-112085714D01*
X105285714Y-111942857D01*
X105214285Y-111657143D01*
X105214285Y-111300000D01*
X105285714Y-111014286D01*
X105357142Y-110871429D01*
X105428571Y-110800000D01*
X105571428Y-110728571D01*
X107857142Y-112228571D02*
X107857142Y-111228571D01*
X107857142Y-111371429D02*
X107928570Y-111300000D01*
X108071428Y-111228571D01*
X108285713Y-111228571D01*
X108428570Y-111300000D01*
X108499999Y-111442857D01*
X108499999Y-112228571D01*
X108499999Y-111442857D02*
X108571428Y-111300000D01*
X108714285Y-111228571D01*
X108928570Y-111228571D01*
X109071428Y-111300000D01*
X109142856Y-111442857D01*
X109142856Y-112228571D01*
X109857142Y-112228571D02*
X109857142Y-111228571D01*
X109857142Y-111371429D02*
X109928570Y-111300000D01*
X110071428Y-111228571D01*
X110285713Y-111228571D01*
X110428570Y-111300000D01*
X110499999Y-111442857D01*
X110499999Y-112228571D01*
X110499999Y-111442857D02*
X110571428Y-111300000D01*
X110714285Y-111228571D01*
X110928570Y-111228571D01*
X111071428Y-111300000D01*
X111142856Y-111442857D01*
X111142856Y-112228571D01*
X112000000Y-110200000D02*
X98000000Y-110200000D01*
X112000000Y-106000000D02*
X112000000Y-112900000D01*
X98000000Y-106000000D02*
X98000000Y-112900000D01*
X98000000Y-110200000D02*
X99126504Y-109613579D01*
X98000000Y-110200000D02*
X99126504Y-110786421D01*
X112000000Y-110200000D02*
X110873496Y-109613579D01*
X112000000Y-110200000D02*
X110873496Y-110786421D01*
X180471429Y-106214285D02*
X180400000Y-106142856D01*
X180328571Y-105999999D01*
X180328571Y-105642856D01*
X180400000Y-105499999D01*
X180471429Y-105428570D01*
X180614286Y-105357142D01*
X180757143Y-105357142D01*
X180971429Y-105428570D01*
X181828571Y-106285713D01*
X181828571Y-105357142D01*
X180328571Y-103999999D02*
X180328571Y-104714285D01*
X181042857Y-104785714D01*
X180971429Y-104714285D01*
X180900000Y-104571428D01*
X180900000Y-104214285D01*
X180971429Y-104071428D01*
X181042857Y-103999999D01*
X181185714Y-103928571D01*
X181542857Y-103928571D01*
X181685714Y-103999999D01*
X181757143Y-104071428D01*
X181828571Y-104214285D01*
X181828571Y-104571428D01*
X181757143Y-104714285D01*
X181685714Y-104785714D01*
X181685714Y-103285714D02*
X181757143Y-103214286D01*
X181828571Y-103285714D01*
X181757143Y-103357143D01*
X181685714Y-103285714D01*
X181828571Y-103285714D01*
X180971429Y-102357142D02*
X180900000Y-102500000D01*
X180828571Y-102571428D01*
X180685714Y-102642857D01*
X180614286Y-102642857D01*
X180471429Y-102571428D01*
X180400000Y-102500000D01*
X180328571Y-102357142D01*
X180328571Y-102071428D01*
X180400000Y-101928571D01*
X180471429Y-101857142D01*
X180614286Y-101785714D01*
X180685714Y-101785714D01*
X180828571Y-101857142D01*
X180900000Y-101928571D01*
X180971429Y-102071428D01*
X180971429Y-102357142D01*
X181042857Y-102500000D01*
X181114286Y-102571428D01*
X181257143Y-102642857D01*
X181542857Y-102642857D01*
X181685714Y-102571428D01*
X181757143Y-102500000D01*
X181828571Y-102357142D01*
X181828571Y-102071428D01*
X181757143Y-101928571D01*
X181685714Y-101857142D01*
X181542857Y-101785714D01*
X181257143Y-101785714D01*
X181114286Y-101857142D01*
X181042857Y-101928571D01*
X180971429Y-102071428D01*
X180328571Y-100857143D02*
X180328571Y-100714286D01*
X180400000Y-100571429D01*
X180471429Y-100500000D01*
X180614286Y-100428571D01*
X180900000Y-100357143D01*
X181257143Y-100357143D01*
X181542857Y-100428571D01*
X181685714Y-100500000D01*
X181757143Y-100571429D01*
X181828571Y-100714286D01*
X181828571Y-100857143D01*
X181757143Y-101000000D01*
X181685714Y-101071429D01*
X181542857Y-101142857D01*
X181257143Y-101214286D01*
X180900000Y-101214286D01*
X180614286Y-101142857D01*
X180471429Y-101071429D01*
X180400000Y-101000000D01*
X180328571Y-100857143D01*
X180328571Y-99428572D02*
X180328571Y-99285715D01*
X180400000Y-99142858D01*
X180471429Y-99071429D01*
X180614286Y-99000000D01*
X180900000Y-98928572D01*
X181257143Y-98928572D01*
X181542857Y-99000000D01*
X181685714Y-99071429D01*
X181757143Y-99142858D01*
X181828571Y-99285715D01*
X181828571Y-99428572D01*
X181757143Y-99571429D01*
X181685714Y-99642858D01*
X181542857Y-99714286D01*
X181257143Y-99785715D01*
X180900000Y-99785715D01*
X180614286Y-99714286D01*
X180471429Y-99642858D01*
X180400000Y-99571429D01*
X180328571Y-99428572D01*
X181828571Y-97142858D02*
X180828571Y-97142858D01*
X180971429Y-97142858D02*
X180900000Y-97071430D01*
X180828571Y-96928572D01*
X180828571Y-96714287D01*
X180900000Y-96571430D01*
X181042857Y-96500001D01*
X181828571Y-96500001D01*
X181042857Y-96500001D02*
X180900000Y-96428572D01*
X180828571Y-96285715D01*
X180828571Y-96071430D01*
X180900000Y-95928572D01*
X181042857Y-95857144D01*
X181828571Y-95857144D01*
X181828571Y-95142858D02*
X180828571Y-95142858D01*
X180971429Y-95142858D02*
X180900000Y-95071430D01*
X180828571Y-94928572D01*
X180828571Y-94714287D01*
X180900000Y-94571430D01*
X181042857Y-94500001D01*
X181828571Y-94500001D01*
X181042857Y-94500001D02*
X180900000Y-94428572D01*
X180828571Y-94285715D01*
X180828571Y-94071430D01*
X180900000Y-93928572D01*
X181042857Y-93857144D01*
X181828571Y-93857144D01*
X179800000Y-112900000D02*
X179800000Y-87100000D01*
X165000000Y-112900000D02*
X182500000Y-112900000D01*
X165000000Y-87100000D02*
X182500000Y-87100000D01*
X179800000Y-87100000D02*
X180386421Y-88226504D01*
X179800000Y-87100000D02*
X179213579Y-88226504D01*
X179800000Y-112900000D02*
X180386421Y-111773496D01*
X179800000Y-112900000D02*
X179213579Y-111773496D01*
X133071430Y-120828571D02*
X132357144Y-120828571D01*
X132285715Y-121542857D01*
X132357144Y-121471429D01*
X132500001Y-121400000D01*
X132857144Y-121400000D01*
X133000001Y-121471429D01*
X133071430Y-121542857D01*
X133142858Y-121685714D01*
X133142858Y-122042857D01*
X133071430Y-122185714D01*
X133000001Y-122257143D01*
X132857144Y-122328571D01*
X132500001Y-122328571D01*
X132357144Y-122257143D01*
X132285715Y-122185714D01*
X133642858Y-120828571D02*
X134571429Y-120828571D01*
X134071429Y-121400000D01*
X134285715Y-121400000D01*
X134428572Y-121471429D01*
X134500001Y-121542857D01*
X134571429Y-121685714D01*
X134571429Y-122042857D01*
X134500001Y-122185714D01*
X134428572Y-122257143D01*
X134285715Y-122328571D01*
X133857143Y-122328571D01*
X133714286Y-122257143D01*
X133642858Y-122185714D01*
X135214286Y-122185714D02*
X135285714Y-122257143D01*
X135214286Y-122328571D01*
X135142857Y-122257143D01*
X135214286Y-122185714D01*
X135214286Y-122328571D01*
X136214286Y-120828571D02*
X136357143Y-120828571D01*
X136500000Y-120900000D01*
X136571429Y-120971429D01*
X136642858Y-121114286D01*
X136714286Y-121400000D01*
X136714286Y-121757143D01*
X136642858Y-122042857D01*
X136571429Y-122185714D01*
X136500000Y-122257143D01*
X136357143Y-122328571D01*
X136214286Y-122328571D01*
X136071429Y-122257143D01*
X136000000Y-122185714D01*
X135928572Y-122042857D01*
X135857143Y-121757143D01*
X135857143Y-121400000D01*
X135928572Y-121114286D01*
X136000000Y-120971429D01*
X136071429Y-120900000D01*
X136214286Y-120828571D01*
X137642857Y-120828571D02*
X137785714Y-120828571D01*
X137928571Y-120900000D01*
X138000000Y-120971429D01*
X138071429Y-121114286D01*
X138142857Y-121400000D01*
X138142857Y-121757143D01*
X138071429Y-122042857D01*
X138000000Y-122185714D01*
X137928571Y-122257143D01*
X137785714Y-122328571D01*
X137642857Y-122328571D01*
X137500000Y-122257143D01*
X137428571Y-122185714D01*
X137357143Y-122042857D01*
X137285714Y-121757143D01*
X137285714Y-121400000D01*
X137357143Y-121114286D01*
X137428571Y-120971429D01*
X137500000Y-120900000D01*
X137642857Y-120828571D01*
X139071428Y-120828571D02*
X139214285Y-120828571D01*
X139357142Y-120900000D01*
X139428571Y-120971429D01*
X139500000Y-121114286D01*
X139571428Y-121400000D01*
X139571428Y-121757143D01*
X139500000Y-122042857D01*
X139428571Y-122185714D01*
X139357142Y-122257143D01*
X139214285Y-122328571D01*
X139071428Y-122328571D01*
X138928571Y-122257143D01*
X138857142Y-122185714D01*
X138785714Y-122042857D01*
X138714285Y-121757143D01*
X138714285Y-121400000D01*
X138785714Y-121114286D01*
X138857142Y-120971429D01*
X138928571Y-120900000D01*
X139071428Y-120828571D01*
X141357142Y-122328571D02*
X141357142Y-121328571D01*
X141357142Y-121471429D02*
X141428570Y-121400000D01*
X141571428Y-121328571D01*
X141785713Y-121328571D01*
X141928570Y-121400000D01*
X141999999Y-121542857D01*
X141999999Y-122328571D01*
X141999999Y-121542857D02*
X142071428Y-121400000D01*
X142214285Y-121328571D01*
X142428570Y-121328571D01*
X142571428Y-121400000D01*
X142642856Y-121542857D01*
X142642856Y-122328571D01*
X143357142Y-122328571D02*
X143357142Y-121328571D01*
X143357142Y-121471429D02*
X143428570Y-121400000D01*
X143571428Y-121328571D01*
X143785713Y-121328571D01*
X143928570Y-121400000D01*
X143999999Y-121542857D01*
X143999999Y-122328571D01*
X143999999Y-121542857D02*
X144071428Y-121400000D01*
X144214285Y-121328571D01*
X144428570Y-121328571D01*
X144571428Y-121400000D01*
X144642856Y-121542857D01*
X144642856Y-122328571D01*
X112000000Y-120300000D02*
X165000000Y-120300000D01*
X112000000Y-112900000D02*
X112000000Y-123000000D01*
X165000000Y-112900000D02*
X165000000Y-123000000D01*
X165000000Y-120300000D02*
X163873496Y-120886421D01*
X165000000Y-120300000D02*
X163873496Y-119713579D01*
X112000000Y-120300000D02*
X113126504Y-120886421D01*
X112000000Y-120300000D02*
X113126504Y-119713579D01*
D12*
X98000000Y-106030000D02*
X110000000Y-106030000D01*
X98000000Y-106030000D02*
X98000000Y-93970000D01*
X98000000Y-93970000D02*
X110000000Y-93970000D01*
D10*
X57570000Y-86690000D02*
X57570000Y-129690000D01*
X57570000Y-127690000D02*
X87570000Y-127690000D01*
X87570000Y-86690000D02*
X87570000Y-129690000D01*
X57570000Y-89690000D02*
X87570000Y-89690000D01*
X57570000Y-86690000D02*
X87570000Y-86690000D01*
X57570000Y-91690000D02*
X87570000Y-91690000D01*
X57570000Y-93690000D02*
X87570000Y-93690000D01*
X57570000Y-95690000D02*
X87570000Y-95690000D01*
X57570000Y-99690000D02*
X87570000Y-99690000D01*
X57570000Y-97690000D02*
X87570000Y-97690000D01*
X57570000Y-101690000D02*
X87570000Y-101690000D01*
X57570000Y-103690000D02*
X87570000Y-103690000D01*
X57570000Y-105690000D02*
X87570000Y-105690000D01*
X57570000Y-107690000D02*
X87570000Y-107690000D01*
X57570000Y-109690000D02*
X87570000Y-109690000D01*
X57570000Y-111690000D02*
X87570000Y-111690000D01*
X57570000Y-113690000D02*
X87570000Y-113690000D01*
X57570000Y-115690000D02*
X87570000Y-115690000D01*
X57570000Y-117690000D02*
X87570000Y-117690000D01*
X57570000Y-119690000D02*
X87570000Y-119690000D01*
X57570000Y-121690000D02*
X87570000Y-121690000D01*
X57570000Y-123690000D02*
X87570000Y-123690000D01*
X57570000Y-125690000D02*
X87570000Y-125690000D01*
X75570000Y-129690000D02*
X75570000Y-89690000D01*
X57570000Y-129690000D02*
X87570000Y-129690000D01*
D12*
X57998571Y-91142381D02*
X57998571Y-90142381D01*
X58379524Y-90142381D01*
X58474762Y-90190000D01*
X58522381Y-90237619D01*
X58570000Y-90332857D01*
X58570000Y-90475714D01*
X58522381Y-90570952D01*
X58474762Y-90618571D01*
X58379524Y-90666190D01*
X57998571Y-90666190D01*
X59570000Y-91047143D02*
X59522381Y-91094762D01*
X59379524Y-91142381D01*
X59284286Y-91142381D01*
X59141428Y-91094762D01*
X59046190Y-90999524D01*
X58998571Y-90904286D01*
X58950952Y-90713810D01*
X58950952Y-90570952D01*
X58998571Y-90380476D01*
X59046190Y-90285238D01*
X59141428Y-90190000D01*
X59284286Y-90142381D01*
X59379524Y-90142381D01*
X59522381Y-90190000D01*
X59570000Y-90237619D01*
X60331905Y-90618571D02*
X60474762Y-90666190D01*
X60522381Y-90713810D01*
X60570000Y-90809048D01*
X60570000Y-90951905D01*
X60522381Y-91047143D01*
X60474762Y-91094762D01*
X60379524Y-91142381D01*
X59998571Y-91142381D01*
X59998571Y-90142381D01*
X60331905Y-90142381D01*
X60427143Y-90190000D01*
X60474762Y-90237619D01*
X60522381Y-90332857D01*
X60522381Y-90428095D01*
X60474762Y-90523333D01*
X60427143Y-90570952D01*
X60331905Y-90618571D01*
X59998571Y-90618571D01*
X61712857Y-91094762D02*
X61855714Y-91142381D01*
X62093810Y-91142381D01*
X62189048Y-91094762D01*
X62236667Y-91047143D01*
X62284286Y-90951905D01*
X62284286Y-90856667D01*
X62236667Y-90761429D01*
X62189048Y-90713810D01*
X62093810Y-90666190D01*
X61903333Y-90618571D01*
X61808095Y-90570952D01*
X61760476Y-90523333D01*
X61712857Y-90428095D01*
X61712857Y-90332857D01*
X61760476Y-90237619D01*
X61808095Y-90190000D01*
X61903333Y-90142381D01*
X62141429Y-90142381D01*
X62284286Y-90190000D01*
X62712857Y-91142381D02*
X62712857Y-90475714D01*
X62712857Y-90142381D02*
X62665238Y-90190000D01*
X62712857Y-90237619D01*
X62760476Y-90190000D01*
X62712857Y-90142381D01*
X62712857Y-90237619D01*
X63093809Y-90475714D02*
X63617619Y-90475714D01*
X63093809Y-91142381D01*
X63617619Y-91142381D01*
X64379524Y-91094762D02*
X64284286Y-91142381D01*
X64093809Y-91142381D01*
X63998571Y-91094762D01*
X63950952Y-90999524D01*
X63950952Y-90618571D01*
X63998571Y-90523333D01*
X64093809Y-90475714D01*
X64284286Y-90475714D01*
X64379524Y-90523333D01*
X64427143Y-90618571D01*
X64427143Y-90713810D01*
X63950952Y-90809048D01*
X65903334Y-91523333D02*
X65855714Y-91475714D01*
X65760476Y-91332857D01*
X65712857Y-91237619D01*
X65665238Y-91094762D01*
X65617619Y-90856667D01*
X65617619Y-90666190D01*
X65665238Y-90428095D01*
X65712857Y-90285238D01*
X65760476Y-90190000D01*
X65855714Y-90047143D01*
X65903334Y-89999524D01*
X66284286Y-91142381D02*
X66284286Y-90475714D01*
X66284286Y-90570952D02*
X66331905Y-90523333D01*
X66427143Y-90475714D01*
X66570001Y-90475714D01*
X66665239Y-90523333D01*
X66712858Y-90618571D01*
X66712858Y-91142381D01*
X66712858Y-90618571D02*
X66760477Y-90523333D01*
X66855715Y-90475714D01*
X66998572Y-90475714D01*
X67093810Y-90523333D01*
X67141429Y-90618571D01*
X67141429Y-91142381D01*
X67617619Y-91142381D02*
X67617619Y-90475714D01*
X67617619Y-90570952D02*
X67665238Y-90523333D01*
X67760476Y-90475714D01*
X67903334Y-90475714D01*
X67998572Y-90523333D01*
X68046191Y-90618571D01*
X68046191Y-91142381D01*
X68046191Y-90618571D02*
X68093810Y-90523333D01*
X68189048Y-90475714D01*
X68331905Y-90475714D01*
X68427143Y-90523333D01*
X68474762Y-90618571D01*
X68474762Y-91142381D01*
X68855714Y-91523333D02*
X68903333Y-91475714D01*
X68998571Y-91332857D01*
X69046190Y-91237619D01*
X69093809Y-91094762D01*
X69141428Y-90856667D01*
X69141428Y-90666190D01*
X69093809Y-90428095D01*
X69046190Y-90285238D01*
X68998571Y-90190000D01*
X68903333Y-90047143D01*
X68855714Y-89999524D01*
X58684287Y-88604286D02*
X58284287Y-88604286D01*
X58284287Y-89232857D02*
X58284287Y-88032857D01*
X58855716Y-88032857D01*
X59827144Y-89232857D02*
X59827144Y-88604286D01*
X59770001Y-88490000D01*
X59655715Y-88432857D01*
X59427144Y-88432857D01*
X59312858Y-88490000D01*
X59827144Y-89175714D02*
X59712858Y-89232857D01*
X59427144Y-89232857D01*
X59312858Y-89175714D01*
X59255715Y-89061429D01*
X59255715Y-88947143D01*
X59312858Y-88832857D01*
X59427144Y-88775714D01*
X59712858Y-88775714D01*
X59827144Y-88718571D01*
X60398572Y-89232857D02*
X60398572Y-88032857D01*
X60398572Y-88490000D02*
X60512858Y-88432857D01*
X60741429Y-88432857D01*
X60855715Y-88490000D01*
X60912858Y-88547143D01*
X60970001Y-88661429D01*
X60970001Y-89004286D01*
X60912858Y-89118571D01*
X60855715Y-89175714D01*
X60741429Y-89232857D01*
X60512858Y-89232857D01*
X60398572Y-89175714D01*
X61484286Y-89232857D02*
X61484286Y-88432857D01*
X61484286Y-88661429D02*
X61541429Y-88547143D01*
X61598572Y-88490000D01*
X61712858Y-88432857D01*
X61827143Y-88432857D01*
X62227143Y-89232857D02*
X62227143Y-88432857D01*
X62227143Y-88032857D02*
X62170000Y-88090000D01*
X62227143Y-88147143D01*
X62284286Y-88090000D01*
X62227143Y-88032857D01*
X62227143Y-88147143D01*
X63312858Y-89175714D02*
X63198572Y-89232857D01*
X62970001Y-89232857D01*
X62855715Y-89175714D01*
X62798572Y-89118571D01*
X62741429Y-89004286D01*
X62741429Y-88661429D01*
X62798572Y-88547143D01*
X62855715Y-88490000D01*
X62970001Y-88432857D01*
X63198572Y-88432857D01*
X63312858Y-88490000D01*
X64341429Y-89232857D02*
X64341429Y-88604286D01*
X64284286Y-88490000D01*
X64170000Y-88432857D01*
X63941429Y-88432857D01*
X63827143Y-88490000D01*
X64341429Y-89175714D02*
X64227143Y-89232857D01*
X63941429Y-89232857D01*
X63827143Y-89175714D01*
X63770000Y-89061429D01*
X63770000Y-88947143D01*
X63827143Y-88832857D01*
X63941429Y-88775714D01*
X64227143Y-88775714D01*
X64341429Y-88718571D01*
X64741429Y-88432857D02*
X65198572Y-88432857D01*
X64912857Y-88032857D02*
X64912857Y-89061429D01*
X64970000Y-89175714D01*
X65084286Y-89232857D01*
X65198572Y-89232857D01*
X65598571Y-89232857D02*
X65598571Y-88432857D01*
X65598571Y-88032857D02*
X65541428Y-88090000D01*
X65598571Y-88147143D01*
X65655714Y-88090000D01*
X65598571Y-88032857D01*
X65598571Y-88147143D01*
X66341429Y-89232857D02*
X66227143Y-89175714D01*
X66170000Y-89118571D01*
X66112857Y-89004286D01*
X66112857Y-88661429D01*
X66170000Y-88547143D01*
X66227143Y-88490000D01*
X66341429Y-88432857D01*
X66512857Y-88432857D01*
X66627143Y-88490000D01*
X66684286Y-88547143D01*
X66741429Y-88661429D01*
X66741429Y-89004286D01*
X66684286Y-89118571D01*
X66627143Y-89175714D01*
X66512857Y-89232857D01*
X66341429Y-89232857D01*
X67255714Y-88432857D02*
X67255714Y-89232857D01*
X67255714Y-88547143D02*
X67312857Y-88490000D01*
X67427143Y-88432857D01*
X67598571Y-88432857D01*
X67712857Y-88490000D01*
X67770000Y-88604286D01*
X67770000Y-89232857D01*
X69255714Y-89232857D02*
X69255714Y-88032857D01*
X69541429Y-88032857D01*
X69712857Y-88090000D01*
X69827143Y-88204286D01*
X69884286Y-88318571D01*
X69941429Y-88547143D01*
X69941429Y-88718571D01*
X69884286Y-88947143D01*
X69827143Y-89061429D01*
X69712857Y-89175714D01*
X69541429Y-89232857D01*
X69255714Y-89232857D01*
X70912857Y-89175714D02*
X70798571Y-89232857D01*
X70570000Y-89232857D01*
X70455714Y-89175714D01*
X70398571Y-89061429D01*
X70398571Y-88604286D01*
X70455714Y-88490000D01*
X70570000Y-88432857D01*
X70798571Y-88432857D01*
X70912857Y-88490000D01*
X70970000Y-88604286D01*
X70970000Y-88718571D01*
X70398571Y-88832857D01*
X71312857Y-88432857D02*
X71770000Y-88432857D01*
X71484285Y-88032857D02*
X71484285Y-89061429D01*
X71541428Y-89175714D01*
X71655714Y-89232857D01*
X71770000Y-89232857D01*
X72684285Y-89232857D02*
X72684285Y-88604286D01*
X72627142Y-88490000D01*
X72512856Y-88432857D01*
X72284285Y-88432857D01*
X72169999Y-88490000D01*
X72684285Y-89175714D02*
X72569999Y-89232857D01*
X72284285Y-89232857D01*
X72169999Y-89175714D01*
X72112856Y-89061429D01*
X72112856Y-88947143D01*
X72169999Y-88832857D01*
X72284285Y-88775714D01*
X72569999Y-88775714D01*
X72684285Y-88718571D01*
X73255713Y-89232857D02*
X73255713Y-88432857D01*
X73255713Y-88032857D02*
X73198570Y-88090000D01*
X73255713Y-88147143D01*
X73312856Y-88090000D01*
X73255713Y-88032857D01*
X73255713Y-88147143D01*
X73998571Y-89232857D02*
X73884285Y-89175714D01*
X73827142Y-89061429D01*
X73827142Y-88032857D01*
X74398570Y-89175714D02*
X74512856Y-89232857D01*
X74741428Y-89232857D01*
X74855713Y-89175714D01*
X74912856Y-89061429D01*
X74912856Y-89004286D01*
X74855713Y-88890000D01*
X74741428Y-88832857D01*
X74569999Y-88832857D01*
X74455713Y-88775714D01*
X74398570Y-88661429D01*
X74398570Y-88604286D01*
X74455713Y-88490000D01*
X74569999Y-88432857D01*
X74741428Y-88432857D01*
X74855713Y-88490000D01*
X58250951Y-93142381D02*
X58250951Y-92142381D01*
X58822380Y-93142381D01*
X58822380Y-92142381D01*
X59441427Y-93142381D02*
X59346189Y-93094762D01*
X59298570Y-93047143D01*
X59250951Y-92951905D01*
X59250951Y-92666190D01*
X59298570Y-92570952D01*
X59346189Y-92523333D01*
X59441427Y-92475714D01*
X59584285Y-92475714D01*
X59679523Y-92523333D01*
X59727142Y-92570952D01*
X59774761Y-92666190D01*
X59774761Y-92951905D01*
X59727142Y-93047143D01*
X59679523Y-93094762D01*
X59584285Y-93142381D01*
X59441427Y-93142381D01*
X61108094Y-93142381D02*
X61012856Y-93094762D01*
X60965237Y-93047143D01*
X60917618Y-92951905D01*
X60917618Y-92666190D01*
X60965237Y-92570952D01*
X61012856Y-92523333D01*
X61108094Y-92475714D01*
X61250952Y-92475714D01*
X61346190Y-92523333D01*
X61393809Y-92570952D01*
X61441428Y-92666190D01*
X61441428Y-92951905D01*
X61393809Y-93047143D01*
X61346190Y-93094762D01*
X61250952Y-93142381D01*
X61108094Y-93142381D01*
X61727142Y-92475714D02*
X62108094Y-92475714D01*
X61869999Y-93142381D02*
X61869999Y-92285238D01*
X61917618Y-92190000D01*
X62012856Y-92142381D01*
X62108094Y-92142381D01*
X63679524Y-93142381D02*
X63203333Y-93142381D01*
X63203333Y-92142381D01*
X64441429Y-93142381D02*
X64441429Y-92618571D01*
X64393810Y-92523333D01*
X64298572Y-92475714D01*
X64108095Y-92475714D01*
X64012857Y-92523333D01*
X64441429Y-93094762D02*
X64346191Y-93142381D01*
X64108095Y-93142381D01*
X64012857Y-93094762D01*
X63965238Y-92999524D01*
X63965238Y-92904286D01*
X64012857Y-92809048D01*
X64108095Y-92761429D01*
X64346191Y-92761429D01*
X64441429Y-92713810D01*
X64822381Y-92475714D02*
X65060476Y-93142381D01*
X65298572Y-92475714D02*
X65060476Y-93142381D01*
X64965238Y-93380476D01*
X64917619Y-93428095D01*
X64822381Y-93475714D01*
X66060477Y-93094762D02*
X65965239Y-93142381D01*
X65774762Y-93142381D01*
X65679524Y-93094762D01*
X65631905Y-92999524D01*
X65631905Y-92618571D01*
X65679524Y-92523333D01*
X65774762Y-92475714D01*
X65965239Y-92475714D01*
X66060477Y-92523333D01*
X66108096Y-92618571D01*
X66108096Y-92713810D01*
X65631905Y-92809048D01*
X66536667Y-93142381D02*
X66536667Y-92475714D01*
X66536667Y-92666190D02*
X66584286Y-92570952D01*
X66631905Y-92523333D01*
X66727143Y-92475714D01*
X66822382Y-92475714D01*
X67108096Y-93094762D02*
X67203334Y-93142381D01*
X67393810Y-93142381D01*
X67489049Y-93094762D01*
X67536668Y-92999524D01*
X67536668Y-92951905D01*
X67489049Y-92856667D01*
X67393810Y-92809048D01*
X67250953Y-92809048D01*
X67155715Y-92761429D01*
X67108096Y-92666190D01*
X67108096Y-92618571D01*
X67155715Y-92523333D01*
X67250953Y-92475714D01*
X67393810Y-92475714D01*
X67489049Y-92523333D01*
X58260476Y-95142381D02*
X58260476Y-94142381D01*
X58593810Y-94856667D01*
X58927143Y-94142381D01*
X58927143Y-95142381D01*
X59403333Y-95142381D02*
X59403333Y-94475714D01*
X59403333Y-94142381D02*
X59355714Y-94190000D01*
X59403333Y-94237619D01*
X59450952Y-94190000D01*
X59403333Y-94142381D01*
X59403333Y-94237619D01*
X59879523Y-94475714D02*
X59879523Y-95142381D01*
X59879523Y-94570952D02*
X59927142Y-94523333D01*
X60022380Y-94475714D01*
X60165238Y-94475714D01*
X60260476Y-94523333D01*
X60308095Y-94618571D01*
X60308095Y-95142381D01*
X62022381Y-95142381D02*
X61546190Y-95142381D01*
X61546190Y-94142381D01*
X62355714Y-95142381D02*
X62355714Y-94475714D01*
X62355714Y-94142381D02*
X62308095Y-94190000D01*
X62355714Y-94237619D01*
X62403333Y-94190000D01*
X62355714Y-94142381D01*
X62355714Y-94237619D01*
X62831904Y-94475714D02*
X62831904Y-95142381D01*
X62831904Y-94570952D02*
X62879523Y-94523333D01*
X62974761Y-94475714D01*
X63117619Y-94475714D01*
X63212857Y-94523333D01*
X63260476Y-94618571D01*
X63260476Y-95142381D01*
X64117619Y-95094762D02*
X64022381Y-95142381D01*
X63831904Y-95142381D01*
X63736666Y-95094762D01*
X63689047Y-94999524D01*
X63689047Y-94618571D01*
X63736666Y-94523333D01*
X63831904Y-94475714D01*
X64022381Y-94475714D01*
X64117619Y-94523333D01*
X64165238Y-94618571D01*
X64165238Y-94713810D01*
X63689047Y-94809048D01*
X65260476Y-94142381D02*
X65498571Y-95142381D01*
X65689048Y-94428095D01*
X65879524Y-95142381D01*
X66117619Y-94142381D01*
X66498571Y-95142381D02*
X66498571Y-94475714D01*
X66498571Y-94142381D02*
X66450952Y-94190000D01*
X66498571Y-94237619D01*
X66546190Y-94190000D01*
X66498571Y-94142381D01*
X66498571Y-94237619D01*
X67403333Y-95142381D02*
X67403333Y-94142381D01*
X67403333Y-95094762D02*
X67308095Y-95142381D01*
X67117618Y-95142381D01*
X67022380Y-95094762D01*
X66974761Y-95047143D01*
X66927142Y-94951905D01*
X66927142Y-94666190D01*
X66974761Y-94570952D01*
X67022380Y-94523333D01*
X67117618Y-94475714D01*
X67308095Y-94475714D01*
X67403333Y-94523333D01*
X67736666Y-94475714D02*
X68117618Y-94475714D01*
X67879523Y-94142381D02*
X67879523Y-94999524D01*
X67927142Y-95094762D01*
X68022380Y-95142381D01*
X68117618Y-95142381D01*
X68450952Y-95142381D02*
X68450952Y-94142381D01*
X68879524Y-95142381D02*
X68879524Y-94618571D01*
X68831905Y-94523333D01*
X68736667Y-94475714D01*
X68593809Y-94475714D01*
X68498571Y-94523333D01*
X68450952Y-94570952D01*
X58312857Y-97142381D02*
X58312857Y-96142381D01*
X58646191Y-96856667D01*
X58979524Y-96142381D01*
X58979524Y-97142381D01*
X59455714Y-97142381D02*
X59455714Y-96475714D01*
X59455714Y-96142381D02*
X59408095Y-96190000D01*
X59455714Y-96237619D01*
X59503333Y-96190000D01*
X59455714Y-96142381D01*
X59455714Y-96237619D01*
X59931904Y-96475714D02*
X59931904Y-97142381D01*
X59931904Y-96570952D02*
X59979523Y-96523333D01*
X60074761Y-96475714D01*
X60217619Y-96475714D01*
X60312857Y-96523333D01*
X60360476Y-96618571D01*
X60360476Y-97142381D01*
X61550952Y-97094762D02*
X61693809Y-97142381D01*
X61931905Y-97142381D01*
X62027143Y-97094762D01*
X62074762Y-97047143D01*
X62122381Y-96951905D01*
X62122381Y-96856667D01*
X62074762Y-96761429D01*
X62027143Y-96713810D01*
X61931905Y-96666190D01*
X61741428Y-96618571D01*
X61646190Y-96570952D01*
X61598571Y-96523333D01*
X61550952Y-96428095D01*
X61550952Y-96332857D01*
X61598571Y-96237619D01*
X61646190Y-96190000D01*
X61741428Y-96142381D01*
X61979524Y-96142381D01*
X62122381Y-96190000D01*
X62550952Y-96475714D02*
X62550952Y-97475714D01*
X62550952Y-96523333D02*
X62646190Y-96475714D01*
X62836667Y-96475714D01*
X62931905Y-96523333D01*
X62979524Y-96570952D01*
X63027143Y-96666190D01*
X63027143Y-96951905D01*
X62979524Y-97047143D01*
X62931905Y-97094762D01*
X62836667Y-97142381D01*
X62646190Y-97142381D01*
X62550952Y-97094762D01*
X63884286Y-97142381D02*
X63884286Y-96618571D01*
X63836667Y-96523333D01*
X63741429Y-96475714D01*
X63550952Y-96475714D01*
X63455714Y-96523333D01*
X63884286Y-97094762D02*
X63789048Y-97142381D01*
X63550952Y-97142381D01*
X63455714Y-97094762D01*
X63408095Y-96999524D01*
X63408095Y-96904286D01*
X63455714Y-96809048D01*
X63550952Y-96761429D01*
X63789048Y-96761429D01*
X63884286Y-96713810D01*
X64789048Y-97094762D02*
X64693810Y-97142381D01*
X64503333Y-97142381D01*
X64408095Y-97094762D01*
X64360476Y-97047143D01*
X64312857Y-96951905D01*
X64312857Y-96666190D01*
X64360476Y-96570952D01*
X64408095Y-96523333D01*
X64503333Y-96475714D01*
X64693810Y-96475714D01*
X64789048Y-96523333D01*
X65217619Y-97142381D02*
X65217619Y-96475714D01*
X65217619Y-96142381D02*
X65170000Y-96190000D01*
X65217619Y-96237619D01*
X65265238Y-96190000D01*
X65217619Y-96142381D01*
X65217619Y-96237619D01*
X65693809Y-96475714D02*
X65693809Y-97142381D01*
X65693809Y-96570952D02*
X65741428Y-96523333D01*
X65836666Y-96475714D01*
X65979524Y-96475714D01*
X66074762Y-96523333D01*
X66122381Y-96618571D01*
X66122381Y-97142381D01*
X67027143Y-96475714D02*
X67027143Y-97285238D01*
X66979524Y-97380476D01*
X66931905Y-97428095D01*
X66836666Y-97475714D01*
X66693809Y-97475714D01*
X66598571Y-97428095D01*
X67027143Y-97094762D02*
X66931905Y-97142381D01*
X66741428Y-97142381D01*
X66646190Y-97094762D01*
X66598571Y-97047143D01*
X66550952Y-96951905D01*
X66550952Y-96666190D01*
X66598571Y-96570952D01*
X66646190Y-96523333D01*
X66741428Y-96475714D01*
X66931905Y-96475714D01*
X67027143Y-96523333D01*
X58193808Y-98894762D02*
X58336665Y-98942381D01*
X58574761Y-98942381D01*
X58669999Y-98894762D01*
X58717618Y-98847143D01*
X58765237Y-98751905D01*
X58765237Y-98656667D01*
X58717618Y-98561429D01*
X58669999Y-98513810D01*
X58574761Y-98466190D01*
X58384284Y-98418571D01*
X58289046Y-98370952D01*
X58241427Y-98323333D01*
X58193808Y-98228095D01*
X58193808Y-98132857D01*
X58241427Y-98037619D01*
X58289046Y-97990000D01*
X58384284Y-97942381D01*
X58622380Y-97942381D01*
X58765237Y-97990000D01*
X59336665Y-98942381D02*
X59241427Y-98894762D01*
X59193808Y-98799524D01*
X59193808Y-97942381D01*
X59860475Y-98942381D02*
X59765237Y-98894762D01*
X59717618Y-98847143D01*
X59669999Y-98751905D01*
X59669999Y-98466190D01*
X59717618Y-98370952D01*
X59765237Y-98323333D01*
X59860475Y-98275714D01*
X60003333Y-98275714D01*
X60098571Y-98323333D01*
X60146190Y-98370952D01*
X60193809Y-98466190D01*
X60193809Y-98751905D01*
X60146190Y-98847143D01*
X60098571Y-98894762D01*
X60003333Y-98942381D01*
X59860475Y-98942381D01*
X60479523Y-98275714D02*
X60860475Y-98275714D01*
X60622380Y-97942381D02*
X60622380Y-98799524D01*
X60669999Y-98894762D01*
X60765237Y-98942381D01*
X60860475Y-98942381D01*
X61955714Y-98942381D02*
X61955714Y-97942381D01*
X62336667Y-97942381D01*
X62431905Y-97990000D01*
X62479524Y-98037619D01*
X62527143Y-98132857D01*
X62527143Y-98275714D01*
X62479524Y-98370952D01*
X62431905Y-98418571D01*
X62336667Y-98466190D01*
X61955714Y-98466190D01*
X62955714Y-98942381D02*
X62955714Y-98275714D01*
X62955714Y-98466190D02*
X63003333Y-98370952D01*
X63050952Y-98323333D01*
X63146190Y-98275714D01*
X63241429Y-98275714D01*
X63955715Y-98894762D02*
X63860477Y-98942381D01*
X63670000Y-98942381D01*
X63574762Y-98894762D01*
X63527143Y-98799524D01*
X63527143Y-98418571D01*
X63574762Y-98323333D01*
X63670000Y-98275714D01*
X63860477Y-98275714D01*
X63955715Y-98323333D01*
X64003334Y-98418571D01*
X64003334Y-98513810D01*
X63527143Y-98609048D01*
X64384286Y-98894762D02*
X64479524Y-98942381D01*
X64670000Y-98942381D01*
X64765239Y-98894762D01*
X64812858Y-98799524D01*
X64812858Y-98751905D01*
X64765239Y-98656667D01*
X64670000Y-98609048D01*
X64527143Y-98609048D01*
X64431905Y-98561429D01*
X64384286Y-98466190D01*
X64384286Y-98418571D01*
X64431905Y-98323333D01*
X64527143Y-98275714D01*
X64670000Y-98275714D01*
X64765239Y-98323333D01*
X65622382Y-98894762D02*
X65527144Y-98942381D01*
X65336667Y-98942381D01*
X65241429Y-98894762D01*
X65193810Y-98799524D01*
X65193810Y-98418571D01*
X65241429Y-98323333D01*
X65336667Y-98275714D01*
X65527144Y-98275714D01*
X65622382Y-98323333D01*
X65670001Y-98418571D01*
X65670001Y-98513810D01*
X65193810Y-98609048D01*
X66098572Y-98275714D02*
X66098572Y-98942381D01*
X66098572Y-98370952D02*
X66146191Y-98323333D01*
X66241429Y-98275714D01*
X66384287Y-98275714D01*
X66479525Y-98323333D01*
X66527144Y-98418571D01*
X66527144Y-98942381D01*
X66860477Y-98275714D02*
X67241429Y-98275714D01*
X67003334Y-97942381D02*
X67003334Y-98799524D01*
X67050953Y-98894762D01*
X67146191Y-98942381D01*
X67241429Y-98942381D01*
X58122380Y-101094762D02*
X58265237Y-101142381D01*
X58503333Y-101142381D01*
X58598571Y-101094762D01*
X58646190Y-101047143D01*
X58693809Y-100951905D01*
X58693809Y-100856667D01*
X58646190Y-100761429D01*
X58598571Y-100713810D01*
X58503333Y-100666190D01*
X58312856Y-100618571D01*
X58217618Y-100570952D01*
X58169999Y-100523333D01*
X58122380Y-100428095D01*
X58122380Y-100332857D01*
X58169999Y-100237619D01*
X58217618Y-100190000D01*
X58312856Y-100142381D01*
X58550952Y-100142381D01*
X58693809Y-100190000D01*
X59122380Y-101142381D02*
X59122380Y-100142381D01*
X59455714Y-100856667D01*
X59789047Y-100142381D01*
X59789047Y-101142381D01*
X60265237Y-101142381D02*
X60265237Y-100142381D01*
X60503332Y-100142381D01*
X60646190Y-100190000D01*
X60741428Y-100285238D01*
X60789047Y-100380476D01*
X60836666Y-100570952D01*
X60836666Y-100713810D01*
X60789047Y-100904286D01*
X60741428Y-100999524D01*
X60646190Y-101094762D01*
X60503332Y-101142381D01*
X60265237Y-101142381D01*
X62027142Y-101142381D02*
X62027142Y-100142381D01*
X62408095Y-100142381D01*
X62503333Y-100190000D01*
X62550952Y-100237619D01*
X62598571Y-100332857D01*
X62598571Y-100475714D01*
X62550952Y-100570952D01*
X62503333Y-100618571D01*
X62408095Y-100666190D01*
X62027142Y-100666190D01*
X63027142Y-101142381D02*
X63027142Y-100475714D01*
X63027142Y-100666190D02*
X63074761Y-100570952D01*
X63122380Y-100523333D01*
X63217618Y-100475714D01*
X63312857Y-100475714D01*
X64027143Y-101094762D02*
X63931905Y-101142381D01*
X63741428Y-101142381D01*
X63646190Y-101094762D01*
X63598571Y-100999524D01*
X63598571Y-100618571D01*
X63646190Y-100523333D01*
X63741428Y-100475714D01*
X63931905Y-100475714D01*
X64027143Y-100523333D01*
X64074762Y-100618571D01*
X64074762Y-100713810D01*
X63598571Y-100809048D01*
X64455714Y-101094762D02*
X64550952Y-101142381D01*
X64741428Y-101142381D01*
X64836667Y-101094762D01*
X64884286Y-100999524D01*
X64884286Y-100951905D01*
X64836667Y-100856667D01*
X64741428Y-100809048D01*
X64598571Y-100809048D01*
X64503333Y-100761429D01*
X64455714Y-100666190D01*
X64455714Y-100618571D01*
X64503333Y-100523333D01*
X64598571Y-100475714D01*
X64741428Y-100475714D01*
X64836667Y-100523333D01*
X65693810Y-101094762D02*
X65598572Y-101142381D01*
X65408095Y-101142381D01*
X65312857Y-101094762D01*
X65265238Y-100999524D01*
X65265238Y-100618571D01*
X65312857Y-100523333D01*
X65408095Y-100475714D01*
X65598572Y-100475714D01*
X65693810Y-100523333D01*
X65741429Y-100618571D01*
X65741429Y-100713810D01*
X65265238Y-100809048D01*
X66170000Y-100475714D02*
X66170000Y-101142381D01*
X66170000Y-100570952D02*
X66217619Y-100523333D01*
X66312857Y-100475714D01*
X66455715Y-100475714D01*
X66550953Y-100523333D01*
X66598572Y-100618571D01*
X66598572Y-101142381D01*
X66931905Y-100475714D02*
X67312857Y-100475714D01*
X67074762Y-100142381D02*
X67074762Y-100999524D01*
X67122381Y-101094762D01*
X67217619Y-101142381D01*
X67312857Y-101142381D01*
X58127142Y-103142381D02*
X58127142Y-102142381D01*
X58460476Y-102856667D01*
X58793809Y-102142381D01*
X58793809Y-103142381D01*
X59698571Y-103142381D02*
X59698571Y-102618571D01*
X59650952Y-102523333D01*
X59555714Y-102475714D01*
X59365237Y-102475714D01*
X59269999Y-102523333D01*
X59698571Y-103094762D02*
X59603333Y-103142381D01*
X59365237Y-103142381D01*
X59269999Y-103094762D01*
X59222380Y-102999524D01*
X59222380Y-102904286D01*
X59269999Y-102809048D01*
X59365237Y-102761429D01*
X59603333Y-102761429D01*
X59698571Y-102713810D01*
X60127142Y-103094762D02*
X60222380Y-103142381D01*
X60412856Y-103142381D01*
X60508095Y-103094762D01*
X60555714Y-102999524D01*
X60555714Y-102951905D01*
X60508095Y-102856667D01*
X60412856Y-102809048D01*
X60269999Y-102809048D01*
X60174761Y-102761429D01*
X60127142Y-102666190D01*
X60127142Y-102618571D01*
X60174761Y-102523333D01*
X60269999Y-102475714D01*
X60412856Y-102475714D01*
X60508095Y-102523333D01*
X60984285Y-103142381D02*
X60984285Y-102142381D01*
X61079523Y-102761429D02*
X61365238Y-103142381D01*
X61365238Y-102475714D02*
X60984285Y-102856667D01*
X63127143Y-103047143D02*
X63079524Y-103094762D01*
X62936667Y-103142381D01*
X62841429Y-103142381D01*
X62698571Y-103094762D01*
X62603333Y-102999524D01*
X62555714Y-102904286D01*
X62508095Y-102713810D01*
X62508095Y-102570952D01*
X62555714Y-102380476D01*
X62603333Y-102285238D01*
X62698571Y-102190000D01*
X62841429Y-102142381D01*
X62936667Y-102142381D01*
X63079524Y-102190000D01*
X63127143Y-102237619D01*
X63698571Y-103142381D02*
X63603333Y-103094762D01*
X63555714Y-103047143D01*
X63508095Y-102951905D01*
X63508095Y-102666190D01*
X63555714Y-102570952D01*
X63603333Y-102523333D01*
X63698571Y-102475714D01*
X63841429Y-102475714D01*
X63936667Y-102523333D01*
X63984286Y-102570952D01*
X64031905Y-102666190D01*
X64031905Y-102951905D01*
X63984286Y-103047143D01*
X63936667Y-103094762D01*
X63841429Y-103142381D01*
X63698571Y-103142381D01*
X64365238Y-102475714D02*
X64603333Y-103142381D01*
X64841429Y-102475714D01*
X65603334Y-103094762D02*
X65508096Y-103142381D01*
X65317619Y-103142381D01*
X65222381Y-103094762D01*
X65174762Y-102999524D01*
X65174762Y-102618571D01*
X65222381Y-102523333D01*
X65317619Y-102475714D01*
X65508096Y-102475714D01*
X65603334Y-102523333D01*
X65650953Y-102618571D01*
X65650953Y-102713810D01*
X65174762Y-102809048D01*
X66079524Y-103142381D02*
X66079524Y-102475714D01*
X66079524Y-102666190D02*
X66127143Y-102570952D01*
X66174762Y-102523333D01*
X66270000Y-102475714D01*
X66365239Y-102475714D01*
X66698572Y-103142381D02*
X66698572Y-102475714D01*
X66698572Y-102142381D02*
X66650953Y-102190000D01*
X66698572Y-102237619D01*
X66746191Y-102190000D01*
X66698572Y-102142381D01*
X66698572Y-102237619D01*
X67174762Y-102475714D02*
X67174762Y-103142381D01*
X67174762Y-102570952D02*
X67222381Y-102523333D01*
X67317619Y-102475714D01*
X67460477Y-102475714D01*
X67555715Y-102523333D01*
X67603334Y-102618571D01*
X67603334Y-103142381D01*
X68508096Y-102475714D02*
X68508096Y-103285238D01*
X68460477Y-103380476D01*
X68412858Y-103428095D01*
X68317619Y-103475714D01*
X68174762Y-103475714D01*
X68079524Y-103428095D01*
X68508096Y-103094762D02*
X68412858Y-103142381D01*
X68222381Y-103142381D01*
X68127143Y-103094762D01*
X68079524Y-103047143D01*
X68031905Y-102951905D01*
X68031905Y-102666190D01*
X68079524Y-102570952D01*
X68127143Y-102523333D01*
X68222381Y-102475714D01*
X68412858Y-102475714D01*
X68508096Y-102523333D01*
X69603334Y-102142381D02*
X69936667Y-103142381D01*
X70270001Y-102142381D01*
X70603334Y-103142381D02*
X70603334Y-102142381D01*
X71031905Y-102856667D02*
X71508096Y-102856667D01*
X70936667Y-103142381D02*
X71270000Y-102142381D01*
X71603334Y-103142381D01*
X71889048Y-103094762D02*
X72031905Y-103142381D01*
X72270001Y-103142381D01*
X72365239Y-103094762D01*
X72412858Y-103047143D01*
X72460477Y-102951905D01*
X72460477Y-102856667D01*
X72412858Y-102761429D01*
X72365239Y-102713810D01*
X72270001Y-102666190D01*
X72079524Y-102618571D01*
X71984286Y-102570952D01*
X71936667Y-102523333D01*
X71889048Y-102428095D01*
X71889048Y-102332857D01*
X71936667Y-102237619D01*
X71984286Y-102190000D01*
X72079524Y-102142381D01*
X72317620Y-102142381D01*
X72460477Y-102190000D01*
X58050951Y-104142381D02*
X58050951Y-104951905D01*
X58098570Y-105047143D01*
X58146189Y-105094762D01*
X58241427Y-105142381D01*
X58431904Y-105142381D01*
X58527142Y-105094762D01*
X58574761Y-105047143D01*
X58622380Y-104951905D01*
X58622380Y-104142381D01*
X59098570Y-104475714D02*
X59098570Y-105142381D01*
X59098570Y-104570952D02*
X59146189Y-104523333D01*
X59241427Y-104475714D01*
X59384285Y-104475714D01*
X59479523Y-104523333D01*
X59527142Y-104618571D01*
X59527142Y-105142381D01*
X59860475Y-104475714D02*
X60241427Y-104475714D01*
X60003332Y-104142381D02*
X60003332Y-104999524D01*
X60050951Y-105094762D01*
X60146189Y-105142381D01*
X60241427Y-105142381D01*
X60955714Y-105094762D02*
X60860476Y-105142381D01*
X60669999Y-105142381D01*
X60574761Y-105094762D01*
X60527142Y-104999524D01*
X60527142Y-104618571D01*
X60574761Y-104523333D01*
X60669999Y-104475714D01*
X60860476Y-104475714D01*
X60955714Y-104523333D01*
X61003333Y-104618571D01*
X61003333Y-104713810D01*
X60527142Y-104809048D01*
X61431904Y-105142381D02*
X61431904Y-104475714D01*
X61431904Y-104666190D02*
X61479523Y-104570952D01*
X61527142Y-104523333D01*
X61622380Y-104475714D01*
X61717619Y-104475714D01*
X62050952Y-105142381D02*
X62050952Y-104475714D01*
X62050952Y-104570952D02*
X62098571Y-104523333D01*
X62193809Y-104475714D01*
X62336667Y-104475714D01*
X62431905Y-104523333D01*
X62479524Y-104618571D01*
X62479524Y-105142381D01*
X62479524Y-104618571D02*
X62527143Y-104523333D01*
X62622381Y-104475714D01*
X62765238Y-104475714D01*
X62860476Y-104523333D01*
X62908095Y-104618571D01*
X62908095Y-105142381D01*
X63384285Y-105142381D02*
X63384285Y-104475714D01*
X63384285Y-104142381D02*
X63336666Y-104190000D01*
X63384285Y-104237619D01*
X63431904Y-104190000D01*
X63384285Y-104142381D01*
X63384285Y-104237619D01*
X63860475Y-104475714D02*
X63860475Y-105142381D01*
X63860475Y-104570952D02*
X63908094Y-104523333D01*
X64003332Y-104475714D01*
X64146190Y-104475714D01*
X64241428Y-104523333D01*
X64289047Y-104618571D01*
X64289047Y-105142381D01*
X65193809Y-105142381D02*
X65193809Y-104618571D01*
X65146190Y-104523333D01*
X65050952Y-104475714D01*
X64860475Y-104475714D01*
X64765237Y-104523333D01*
X65193809Y-105094762D02*
X65098571Y-105142381D01*
X64860475Y-105142381D01*
X64765237Y-105094762D01*
X64717618Y-104999524D01*
X64717618Y-104904286D01*
X64765237Y-104809048D01*
X64860475Y-104761429D01*
X65098571Y-104761429D01*
X65193809Y-104713810D01*
X65527142Y-104475714D02*
X65908094Y-104475714D01*
X65669999Y-104142381D02*
X65669999Y-104999524D01*
X65717618Y-105094762D01*
X65812856Y-105142381D01*
X65908094Y-105142381D01*
X66622381Y-105094762D02*
X66527143Y-105142381D01*
X66336666Y-105142381D01*
X66241428Y-105094762D01*
X66193809Y-104999524D01*
X66193809Y-104618571D01*
X66241428Y-104523333D01*
X66336666Y-104475714D01*
X66527143Y-104475714D01*
X66622381Y-104523333D01*
X66670000Y-104618571D01*
X66670000Y-104713810D01*
X66193809Y-104809048D01*
X67527143Y-105142381D02*
X67527143Y-104142381D01*
X67527143Y-105094762D02*
X67431905Y-105142381D01*
X67241428Y-105142381D01*
X67146190Y-105094762D01*
X67098571Y-105047143D01*
X67050952Y-104951905D01*
X67050952Y-104666190D01*
X67098571Y-104570952D01*
X67146190Y-104523333D01*
X67241428Y-104475714D01*
X67431905Y-104475714D01*
X67527143Y-104523333D01*
X68622381Y-104142381D02*
X69193810Y-104142381D01*
X68908095Y-105142381D02*
X68908095Y-104142381D01*
X69527143Y-105142381D02*
X69527143Y-104475714D01*
X69527143Y-104666190D02*
X69574762Y-104570952D01*
X69622381Y-104523333D01*
X69717619Y-104475714D01*
X69812858Y-104475714D01*
X70574763Y-105142381D02*
X70574763Y-104618571D01*
X70527144Y-104523333D01*
X70431906Y-104475714D01*
X70241429Y-104475714D01*
X70146191Y-104523333D01*
X70574763Y-105094762D02*
X70479525Y-105142381D01*
X70241429Y-105142381D01*
X70146191Y-105094762D01*
X70098572Y-104999524D01*
X70098572Y-104904286D01*
X70146191Y-104809048D01*
X70241429Y-104761429D01*
X70479525Y-104761429D01*
X70574763Y-104713810D01*
X71479525Y-105094762D02*
X71384287Y-105142381D01*
X71193810Y-105142381D01*
X71098572Y-105094762D01*
X71050953Y-105047143D01*
X71003334Y-104951905D01*
X71003334Y-104666190D01*
X71050953Y-104570952D01*
X71098572Y-104523333D01*
X71193810Y-104475714D01*
X71384287Y-104475714D01*
X71479525Y-104523333D01*
X72289049Y-105094762D02*
X72193811Y-105142381D01*
X72003334Y-105142381D01*
X71908096Y-105094762D01*
X71860477Y-104999524D01*
X71860477Y-104618571D01*
X71908096Y-104523333D01*
X72003334Y-104475714D01*
X72193811Y-104475714D01*
X72289049Y-104523333D01*
X72336668Y-104618571D01*
X72336668Y-104713810D01*
X71860477Y-104809048D01*
X58003332Y-107142381D02*
X58003332Y-106142381D01*
X58336666Y-106856667D01*
X58669999Y-106142381D01*
X58669999Y-107142381D01*
X59574761Y-107142381D02*
X59574761Y-106618571D01*
X59527142Y-106523333D01*
X59431904Y-106475714D01*
X59241427Y-106475714D01*
X59146189Y-106523333D01*
X59574761Y-107094762D02*
X59479523Y-107142381D01*
X59241427Y-107142381D01*
X59146189Y-107094762D01*
X59098570Y-106999524D01*
X59098570Y-106904286D01*
X59146189Y-106809048D01*
X59241427Y-106761429D01*
X59479523Y-106761429D01*
X59574761Y-106713810D01*
X60003332Y-107094762D02*
X60098570Y-107142381D01*
X60289046Y-107142381D01*
X60384285Y-107094762D01*
X60431904Y-106999524D01*
X60431904Y-106951905D01*
X60384285Y-106856667D01*
X60289046Y-106809048D01*
X60146189Y-106809048D01*
X60050951Y-106761429D01*
X60003332Y-106666190D01*
X60003332Y-106618571D01*
X60050951Y-106523333D01*
X60146189Y-106475714D01*
X60289046Y-106475714D01*
X60384285Y-106523333D01*
X60860475Y-107142381D02*
X60860475Y-106142381D01*
X60955713Y-106761429D02*
X61241428Y-107142381D01*
X61241428Y-106475714D02*
X60860475Y-106856667D01*
X63003333Y-107047143D02*
X62955714Y-107094762D01*
X62812857Y-107142381D01*
X62717619Y-107142381D01*
X62574761Y-107094762D01*
X62479523Y-106999524D01*
X62431904Y-106904286D01*
X62384285Y-106713810D01*
X62384285Y-106570952D01*
X62431904Y-106380476D01*
X62479523Y-106285238D01*
X62574761Y-106190000D01*
X62717619Y-106142381D01*
X62812857Y-106142381D01*
X62955714Y-106190000D01*
X63003333Y-106237619D01*
X63574761Y-107142381D02*
X63479523Y-107094762D01*
X63431904Y-106999524D01*
X63431904Y-106142381D01*
X64336667Y-107094762D02*
X64241429Y-107142381D01*
X64050952Y-107142381D01*
X63955714Y-107094762D01*
X63908095Y-106999524D01*
X63908095Y-106618571D01*
X63955714Y-106523333D01*
X64050952Y-106475714D01*
X64241429Y-106475714D01*
X64336667Y-106523333D01*
X64384286Y-106618571D01*
X64384286Y-106713810D01*
X63908095Y-106809048D01*
X65241429Y-107142381D02*
X65241429Y-106618571D01*
X65193810Y-106523333D01*
X65098572Y-106475714D01*
X64908095Y-106475714D01*
X64812857Y-106523333D01*
X65241429Y-107094762D02*
X65146191Y-107142381D01*
X64908095Y-107142381D01*
X64812857Y-107094762D01*
X64765238Y-106999524D01*
X64765238Y-106904286D01*
X64812857Y-106809048D01*
X64908095Y-106761429D01*
X65146191Y-106761429D01*
X65241429Y-106713810D01*
X65717619Y-107142381D02*
X65717619Y-106475714D01*
X65717619Y-106666190D02*
X65765238Y-106570952D01*
X65812857Y-106523333D01*
X65908095Y-106475714D01*
X66003334Y-106475714D01*
X66717620Y-107094762D02*
X66622382Y-107142381D01*
X66431905Y-107142381D01*
X66336667Y-107094762D01*
X66289048Y-106999524D01*
X66289048Y-106618571D01*
X66336667Y-106523333D01*
X66431905Y-106475714D01*
X66622382Y-106475714D01*
X66717620Y-106523333D01*
X66765239Y-106618571D01*
X66765239Y-106713810D01*
X66289048Y-106809048D01*
X67193810Y-106475714D02*
X67193810Y-107142381D01*
X67193810Y-106570952D02*
X67241429Y-106523333D01*
X67336667Y-106475714D01*
X67479525Y-106475714D01*
X67574763Y-106523333D01*
X67622382Y-106618571D01*
X67622382Y-107142381D01*
X68527144Y-107094762D02*
X68431906Y-107142381D01*
X68241429Y-107142381D01*
X68146191Y-107094762D01*
X68098572Y-107047143D01*
X68050953Y-106951905D01*
X68050953Y-106666190D01*
X68098572Y-106570952D01*
X68146191Y-106523333D01*
X68241429Y-106475714D01*
X68431906Y-106475714D01*
X68527144Y-106523333D01*
X69336668Y-107094762D02*
X69241430Y-107142381D01*
X69050953Y-107142381D01*
X68955715Y-107094762D01*
X68908096Y-106999524D01*
X68908096Y-106618571D01*
X68955715Y-106523333D01*
X69050953Y-106475714D01*
X69241430Y-106475714D01*
X69336668Y-106523333D01*
X69384287Y-106618571D01*
X69384287Y-106713810D01*
X68908096Y-106809048D01*
X58489047Y-109142381D02*
X58012856Y-109142381D01*
X58012856Y-108142381D01*
X59203333Y-109094762D02*
X59108095Y-109142381D01*
X58917618Y-109142381D01*
X58822380Y-109094762D01*
X58774761Y-108999524D01*
X58774761Y-108618571D01*
X58822380Y-108523333D01*
X58917618Y-108475714D01*
X59108095Y-108475714D01*
X59203333Y-108523333D01*
X59250952Y-108618571D01*
X59250952Y-108713810D01*
X58774761Y-108809048D01*
X60108095Y-108475714D02*
X60108095Y-109285238D01*
X60060476Y-109380476D01*
X60012857Y-109428095D01*
X59917618Y-109475714D01*
X59774761Y-109475714D01*
X59679523Y-109428095D01*
X60108095Y-109094762D02*
X60012857Y-109142381D01*
X59822380Y-109142381D01*
X59727142Y-109094762D01*
X59679523Y-109047143D01*
X59631904Y-108951905D01*
X59631904Y-108666190D01*
X59679523Y-108570952D01*
X59727142Y-108523333D01*
X59822380Y-108475714D01*
X60012857Y-108475714D01*
X60108095Y-108523333D01*
X60965238Y-109094762D02*
X60870000Y-109142381D01*
X60679523Y-109142381D01*
X60584285Y-109094762D01*
X60536666Y-108999524D01*
X60536666Y-108618571D01*
X60584285Y-108523333D01*
X60679523Y-108475714D01*
X60870000Y-108475714D01*
X60965238Y-108523333D01*
X61012857Y-108618571D01*
X61012857Y-108713810D01*
X60536666Y-108809048D01*
X61441428Y-108475714D02*
X61441428Y-109142381D01*
X61441428Y-108570952D02*
X61489047Y-108523333D01*
X61584285Y-108475714D01*
X61727143Y-108475714D01*
X61822381Y-108523333D01*
X61870000Y-108618571D01*
X61870000Y-109142381D01*
X62774762Y-109142381D02*
X62774762Y-108142381D01*
X62774762Y-109094762D02*
X62679524Y-109142381D01*
X62489047Y-109142381D01*
X62393809Y-109094762D01*
X62346190Y-109047143D01*
X62298571Y-108951905D01*
X62298571Y-108666190D01*
X62346190Y-108570952D01*
X62393809Y-108523333D01*
X62489047Y-108475714D01*
X62679524Y-108475714D01*
X62774762Y-108523333D01*
X64155714Y-109142381D02*
X64060476Y-109094762D01*
X64012857Y-109047143D01*
X63965238Y-108951905D01*
X63965238Y-108666190D01*
X64012857Y-108570952D01*
X64060476Y-108523333D01*
X64155714Y-108475714D01*
X64298572Y-108475714D01*
X64393810Y-108523333D01*
X64441429Y-108570952D01*
X64489048Y-108666190D01*
X64489048Y-108951905D01*
X64441429Y-109047143D01*
X64393810Y-109094762D01*
X64298572Y-109142381D01*
X64155714Y-109142381D01*
X64917619Y-108475714D02*
X64917619Y-109142381D01*
X64917619Y-108570952D02*
X64965238Y-108523333D01*
X65060476Y-108475714D01*
X65203334Y-108475714D01*
X65298572Y-108523333D01*
X65346191Y-108618571D01*
X65346191Y-109142381D01*
X66584286Y-109142381D02*
X66584286Y-108142381D01*
X66965239Y-108142381D01*
X67060477Y-108190000D01*
X67108096Y-108237619D01*
X67155715Y-108332857D01*
X67155715Y-108475714D01*
X67108096Y-108570952D01*
X67060477Y-108618571D01*
X66965239Y-108666190D01*
X66584286Y-108666190D01*
X68012858Y-109142381D02*
X68012858Y-108618571D01*
X67965239Y-108523333D01*
X67870001Y-108475714D01*
X67679524Y-108475714D01*
X67584286Y-108523333D01*
X68012858Y-109094762D02*
X67917620Y-109142381D01*
X67679524Y-109142381D01*
X67584286Y-109094762D01*
X67536667Y-108999524D01*
X67536667Y-108904286D01*
X67584286Y-108809048D01*
X67679524Y-108761429D01*
X67917620Y-108761429D01*
X68012858Y-108713810D01*
X68917620Y-109142381D02*
X68917620Y-108142381D01*
X68917620Y-109094762D02*
X68822382Y-109142381D01*
X68631905Y-109142381D01*
X68536667Y-109094762D01*
X68489048Y-109047143D01*
X68441429Y-108951905D01*
X68441429Y-108666190D01*
X68489048Y-108570952D01*
X68536667Y-108523333D01*
X68631905Y-108475714D01*
X68822382Y-108475714D01*
X68917620Y-108523333D01*
X69346191Y-109094762D02*
X69441429Y-109142381D01*
X69631905Y-109142381D01*
X69727144Y-109094762D01*
X69774763Y-108999524D01*
X69774763Y-108951905D01*
X69727144Y-108856667D01*
X69631905Y-108809048D01*
X69489048Y-108809048D01*
X69393810Y-108761429D01*
X69346191Y-108666190D01*
X69346191Y-108618571D01*
X69393810Y-108523333D01*
X69489048Y-108475714D01*
X69631905Y-108475714D01*
X69727144Y-108523333D01*
X58298571Y-110618571D02*
X58441428Y-110666190D01*
X58489047Y-110713810D01*
X58536666Y-110809048D01*
X58536666Y-110951905D01*
X58489047Y-111047143D01*
X58441428Y-111094762D01*
X58346190Y-111142381D01*
X57965237Y-111142381D01*
X57965237Y-110142381D01*
X58298571Y-110142381D01*
X58393809Y-110190000D01*
X58441428Y-110237619D01*
X58489047Y-110332857D01*
X58489047Y-110428095D01*
X58441428Y-110523333D01*
X58393809Y-110570952D01*
X58298571Y-110618571D01*
X57965237Y-110618571D01*
X59108094Y-111142381D02*
X59012856Y-111094762D01*
X58965237Y-111047143D01*
X58917618Y-110951905D01*
X58917618Y-110666190D01*
X58965237Y-110570952D01*
X59012856Y-110523333D01*
X59108094Y-110475714D01*
X59250952Y-110475714D01*
X59346190Y-110523333D01*
X59393809Y-110570952D01*
X59441428Y-110666190D01*
X59441428Y-110951905D01*
X59393809Y-111047143D01*
X59346190Y-111094762D01*
X59250952Y-111142381D01*
X59108094Y-111142381D01*
X60298571Y-111142381D02*
X60298571Y-110618571D01*
X60250952Y-110523333D01*
X60155714Y-110475714D01*
X59965237Y-110475714D01*
X59869999Y-110523333D01*
X60298571Y-111094762D02*
X60203333Y-111142381D01*
X59965237Y-111142381D01*
X59869999Y-111094762D01*
X59822380Y-110999524D01*
X59822380Y-110904286D01*
X59869999Y-110809048D01*
X59965237Y-110761429D01*
X60203333Y-110761429D01*
X60298571Y-110713810D01*
X60774761Y-111142381D02*
X60774761Y-110475714D01*
X60774761Y-110666190D02*
X60822380Y-110570952D01*
X60869999Y-110523333D01*
X60965237Y-110475714D01*
X61060476Y-110475714D01*
X61822381Y-111142381D02*
X61822381Y-110142381D01*
X61822381Y-111094762D02*
X61727143Y-111142381D01*
X61536666Y-111142381D01*
X61441428Y-111094762D01*
X61393809Y-111047143D01*
X61346190Y-110951905D01*
X61346190Y-110666190D01*
X61393809Y-110570952D01*
X61441428Y-110523333D01*
X61536666Y-110475714D01*
X61727143Y-110475714D01*
X61822381Y-110523333D01*
X62917619Y-110142381D02*
X63489048Y-110142381D01*
X63203333Y-111142381D02*
X63203333Y-110142381D01*
X63822381Y-111142381D02*
X63822381Y-110142381D01*
X64250953Y-111142381D02*
X64250953Y-110618571D01*
X64203334Y-110523333D01*
X64108096Y-110475714D01*
X63965238Y-110475714D01*
X63870000Y-110523333D01*
X63822381Y-110570952D01*
X64727143Y-111142381D02*
X64727143Y-110475714D01*
X64727143Y-110142381D02*
X64679524Y-110190000D01*
X64727143Y-110237619D01*
X64774762Y-110190000D01*
X64727143Y-110142381D01*
X64727143Y-110237619D01*
X65631905Y-111094762D02*
X65536667Y-111142381D01*
X65346190Y-111142381D01*
X65250952Y-111094762D01*
X65203333Y-111047143D01*
X65155714Y-110951905D01*
X65155714Y-110666190D01*
X65203333Y-110570952D01*
X65250952Y-110523333D01*
X65346190Y-110475714D01*
X65536667Y-110475714D01*
X65631905Y-110523333D01*
X66060476Y-111142381D02*
X66060476Y-110142381D01*
X66155714Y-110761429D02*
X66441429Y-111142381D01*
X66441429Y-110475714D02*
X66060476Y-110856667D01*
X66870000Y-110475714D02*
X66870000Y-111142381D01*
X66870000Y-110570952D02*
X66917619Y-110523333D01*
X67012857Y-110475714D01*
X67155715Y-110475714D01*
X67250953Y-110523333D01*
X67298572Y-110618571D01*
X67298572Y-111142381D01*
X68155715Y-111094762D02*
X68060477Y-111142381D01*
X67870000Y-111142381D01*
X67774762Y-111094762D01*
X67727143Y-110999524D01*
X67727143Y-110618571D01*
X67774762Y-110523333D01*
X67870000Y-110475714D01*
X68060477Y-110475714D01*
X68155715Y-110523333D01*
X68203334Y-110618571D01*
X68203334Y-110713810D01*
X67727143Y-110809048D01*
X68584286Y-111094762D02*
X68679524Y-111142381D01*
X68870000Y-111142381D01*
X68965239Y-111094762D01*
X69012858Y-110999524D01*
X69012858Y-110951905D01*
X68965239Y-110856667D01*
X68870000Y-110809048D01*
X68727143Y-110809048D01*
X68631905Y-110761429D01*
X68584286Y-110666190D01*
X68584286Y-110618571D01*
X68631905Y-110523333D01*
X68727143Y-110475714D01*
X68870000Y-110475714D01*
X68965239Y-110523333D01*
X69393810Y-111094762D02*
X69489048Y-111142381D01*
X69679524Y-111142381D01*
X69774763Y-111094762D01*
X69822382Y-110999524D01*
X69822382Y-110951905D01*
X69774763Y-110856667D01*
X69679524Y-110809048D01*
X69536667Y-110809048D01*
X69441429Y-110761429D01*
X69393810Y-110666190D01*
X69393810Y-110618571D01*
X69441429Y-110523333D01*
X69536667Y-110475714D01*
X69679524Y-110475714D01*
X69774763Y-110523333D01*
X58008095Y-113342381D02*
X58008095Y-112342381D01*
X58341429Y-113056667D01*
X58674762Y-112342381D01*
X58674762Y-113342381D01*
X59579524Y-113342381D02*
X59579524Y-112818571D01*
X59531905Y-112723333D01*
X59436667Y-112675714D01*
X59246190Y-112675714D01*
X59150952Y-112723333D01*
X59579524Y-113294762D02*
X59484286Y-113342381D01*
X59246190Y-113342381D01*
X59150952Y-113294762D01*
X59103333Y-113199524D01*
X59103333Y-113104286D01*
X59150952Y-113009048D01*
X59246190Y-112961429D01*
X59484286Y-112961429D01*
X59579524Y-112913810D01*
X59912857Y-112675714D02*
X60293809Y-112675714D01*
X60055714Y-112342381D02*
X60055714Y-113199524D01*
X60103333Y-113294762D01*
X60198571Y-113342381D01*
X60293809Y-113342381D01*
X61008096Y-113294762D02*
X60912858Y-113342381D01*
X60722381Y-113342381D01*
X60627143Y-113294762D01*
X60579524Y-113199524D01*
X60579524Y-112818571D01*
X60627143Y-112723333D01*
X60722381Y-112675714D01*
X60912858Y-112675714D01*
X61008096Y-112723333D01*
X61055715Y-112818571D01*
X61055715Y-112913810D01*
X60579524Y-113009048D01*
X61484286Y-113342381D02*
X61484286Y-112675714D01*
X61484286Y-112866190D02*
X61531905Y-112770952D01*
X61579524Y-112723333D01*
X61674762Y-112675714D01*
X61770001Y-112675714D01*
X62103334Y-113342381D02*
X62103334Y-112675714D01*
X62103334Y-112342381D02*
X62055715Y-112390000D01*
X62103334Y-112437619D01*
X62150953Y-112390000D01*
X62103334Y-112342381D01*
X62103334Y-112437619D01*
X63008096Y-113342381D02*
X63008096Y-112818571D01*
X62960477Y-112723333D01*
X62865239Y-112675714D01*
X62674762Y-112675714D01*
X62579524Y-112723333D01*
X63008096Y-113294762D02*
X62912858Y-113342381D01*
X62674762Y-113342381D01*
X62579524Y-113294762D01*
X62531905Y-113199524D01*
X62531905Y-113104286D01*
X62579524Y-113009048D01*
X62674762Y-112961429D01*
X62912858Y-112961429D01*
X63008096Y-112913810D01*
X63627143Y-113342381D02*
X63531905Y-113294762D01*
X63484286Y-113199524D01*
X63484286Y-112342381D01*
X58527142Y-115242381D02*
X58050951Y-115242381D01*
X58050951Y-114242381D01*
X59241428Y-115194762D02*
X59146190Y-115242381D01*
X58955713Y-115242381D01*
X58860475Y-115194762D01*
X58812856Y-115099524D01*
X58812856Y-114718571D01*
X58860475Y-114623333D01*
X58955713Y-114575714D01*
X59146190Y-114575714D01*
X59241428Y-114623333D01*
X59289047Y-114718571D01*
X59289047Y-114813810D01*
X58812856Y-114909048D01*
X60146190Y-114575714D02*
X60146190Y-115385238D01*
X60098571Y-115480476D01*
X60050952Y-115528095D01*
X59955713Y-115575714D01*
X59812856Y-115575714D01*
X59717618Y-115528095D01*
X60146190Y-115194762D02*
X60050952Y-115242381D01*
X59860475Y-115242381D01*
X59765237Y-115194762D01*
X59717618Y-115147143D01*
X59669999Y-115051905D01*
X59669999Y-114766190D01*
X59717618Y-114670952D01*
X59765237Y-114623333D01*
X59860475Y-114575714D01*
X60050952Y-114575714D01*
X60146190Y-114623333D01*
X61003333Y-115194762D02*
X60908095Y-115242381D01*
X60717618Y-115242381D01*
X60622380Y-115194762D01*
X60574761Y-115099524D01*
X60574761Y-114718571D01*
X60622380Y-114623333D01*
X60717618Y-114575714D01*
X60908095Y-114575714D01*
X61003333Y-114623333D01*
X61050952Y-114718571D01*
X61050952Y-114813810D01*
X60574761Y-114909048D01*
X61479523Y-114575714D02*
X61479523Y-115242381D01*
X61479523Y-114670952D02*
X61527142Y-114623333D01*
X61622380Y-114575714D01*
X61765238Y-114575714D01*
X61860476Y-114623333D01*
X61908095Y-114718571D01*
X61908095Y-115242381D01*
X62812857Y-115242381D02*
X62812857Y-114242381D01*
X62812857Y-115194762D02*
X62717619Y-115242381D01*
X62527142Y-115242381D01*
X62431904Y-115194762D01*
X62384285Y-115147143D01*
X62336666Y-115051905D01*
X62336666Y-114766190D01*
X62384285Y-114670952D01*
X62431904Y-114623333D01*
X62527142Y-114575714D01*
X62717619Y-114575714D01*
X62812857Y-114623333D01*
X64193809Y-115242381D02*
X64098571Y-115194762D01*
X64050952Y-115147143D01*
X64003333Y-115051905D01*
X64003333Y-114766190D01*
X64050952Y-114670952D01*
X64098571Y-114623333D01*
X64193809Y-114575714D01*
X64336667Y-114575714D01*
X64431905Y-114623333D01*
X64479524Y-114670952D01*
X64527143Y-114766190D01*
X64527143Y-115051905D01*
X64479524Y-115147143D01*
X64431905Y-115194762D01*
X64336667Y-115242381D01*
X64193809Y-115242381D01*
X64955714Y-114575714D02*
X64955714Y-115242381D01*
X64955714Y-114670952D02*
X65003333Y-114623333D01*
X65098571Y-114575714D01*
X65241429Y-114575714D01*
X65336667Y-114623333D01*
X65384286Y-114718571D01*
X65384286Y-115242381D01*
X66955715Y-114718571D02*
X67098572Y-114766190D01*
X67146191Y-114813810D01*
X67193810Y-114909048D01*
X67193810Y-115051905D01*
X67146191Y-115147143D01*
X67098572Y-115194762D01*
X67003334Y-115242381D01*
X66622381Y-115242381D01*
X66622381Y-114242381D01*
X66955715Y-114242381D01*
X67050953Y-114290000D01*
X67098572Y-114337619D01*
X67146191Y-114432857D01*
X67146191Y-114528095D01*
X67098572Y-114623333D01*
X67050953Y-114670952D01*
X66955715Y-114718571D01*
X66622381Y-114718571D01*
X67765238Y-115242381D02*
X67670000Y-115194762D01*
X67622381Y-115147143D01*
X67574762Y-115051905D01*
X67574762Y-114766190D01*
X67622381Y-114670952D01*
X67670000Y-114623333D01*
X67765238Y-114575714D01*
X67908096Y-114575714D01*
X68003334Y-114623333D01*
X68050953Y-114670952D01*
X68098572Y-114766190D01*
X68098572Y-115051905D01*
X68050953Y-115147143D01*
X68003334Y-115194762D01*
X67908096Y-115242381D01*
X67765238Y-115242381D01*
X68384286Y-114575714D02*
X68765238Y-114575714D01*
X68527143Y-114242381D02*
X68527143Y-115099524D01*
X68574762Y-115194762D01*
X68670000Y-115242381D01*
X68765238Y-115242381D01*
X69098572Y-115242381D02*
X69098572Y-114242381D01*
X69527144Y-115242381D02*
X69527144Y-114718571D01*
X69479525Y-114623333D01*
X69384287Y-114575714D01*
X69241429Y-114575714D01*
X69146191Y-114623333D01*
X69098572Y-114670952D01*
X70717620Y-115194762D02*
X70860477Y-115242381D01*
X71098573Y-115242381D01*
X71193811Y-115194762D01*
X71241430Y-115147143D01*
X71289049Y-115051905D01*
X71289049Y-114956667D01*
X71241430Y-114861429D01*
X71193811Y-114813810D01*
X71098573Y-114766190D01*
X70908096Y-114718571D01*
X70812858Y-114670952D01*
X70765239Y-114623333D01*
X70717620Y-114528095D01*
X70717620Y-114432857D01*
X70765239Y-114337619D01*
X70812858Y-114290000D01*
X70908096Y-114242381D01*
X71146192Y-114242381D01*
X71289049Y-114290000D01*
X71717620Y-115242381D02*
X71717620Y-114575714D01*
X71717620Y-114242381D02*
X71670001Y-114290000D01*
X71717620Y-114337619D01*
X71765239Y-114290000D01*
X71717620Y-114242381D01*
X71717620Y-114337619D01*
X72622382Y-115242381D02*
X72622382Y-114242381D01*
X72622382Y-115194762D02*
X72527144Y-115242381D01*
X72336667Y-115242381D01*
X72241429Y-115194762D01*
X72193810Y-115147143D01*
X72146191Y-115051905D01*
X72146191Y-114766190D01*
X72193810Y-114670952D01*
X72241429Y-114623333D01*
X72336667Y-114575714D01*
X72527144Y-114575714D01*
X72622382Y-114623333D01*
X73479525Y-115194762D02*
X73384287Y-115242381D01*
X73193810Y-115242381D01*
X73098572Y-115194762D01*
X73050953Y-115099524D01*
X73050953Y-114718571D01*
X73098572Y-114623333D01*
X73193810Y-114575714D01*
X73384287Y-114575714D01*
X73479525Y-114623333D01*
X73527144Y-114718571D01*
X73527144Y-114813810D01*
X73050953Y-114909048D01*
X73908096Y-115194762D02*
X74003334Y-115242381D01*
X74193810Y-115242381D01*
X74289049Y-115194762D01*
X74336668Y-115099524D01*
X74336668Y-115051905D01*
X74289049Y-114956667D01*
X74193810Y-114909048D01*
X74050953Y-114909048D01*
X73955715Y-114861429D01*
X73908096Y-114766190D01*
X73908096Y-114718571D01*
X73955715Y-114623333D01*
X74050953Y-114575714D01*
X74193810Y-114575714D01*
X74289049Y-114623333D01*
X58036666Y-117242381D02*
X58036666Y-116242381D01*
X58370000Y-116956667D01*
X58703333Y-116242381D01*
X58703333Y-117242381D01*
X59608095Y-117242381D02*
X59608095Y-116718571D01*
X59560476Y-116623333D01*
X59465238Y-116575714D01*
X59274761Y-116575714D01*
X59179523Y-116623333D01*
X59608095Y-117194762D02*
X59512857Y-117242381D01*
X59274761Y-117242381D01*
X59179523Y-117194762D01*
X59131904Y-117099524D01*
X59131904Y-117004286D01*
X59179523Y-116909048D01*
X59274761Y-116861429D01*
X59512857Y-116861429D01*
X59608095Y-116813810D01*
X60036666Y-117194762D02*
X60131904Y-117242381D01*
X60322380Y-117242381D01*
X60417619Y-117194762D01*
X60465238Y-117099524D01*
X60465238Y-117051905D01*
X60417619Y-116956667D01*
X60322380Y-116909048D01*
X60179523Y-116909048D01*
X60084285Y-116861429D01*
X60036666Y-116766190D01*
X60036666Y-116718571D01*
X60084285Y-116623333D01*
X60179523Y-116575714D01*
X60322380Y-116575714D01*
X60417619Y-116623333D01*
X60893809Y-117242381D02*
X60893809Y-116242381D01*
X60989047Y-116861429D02*
X61274762Y-117242381D01*
X61274762Y-116575714D02*
X60893809Y-116956667D01*
X62608095Y-117242381D02*
X62512857Y-117194762D01*
X62465238Y-117147143D01*
X62417619Y-117051905D01*
X62417619Y-116766190D01*
X62465238Y-116670952D01*
X62512857Y-116623333D01*
X62608095Y-116575714D01*
X62750953Y-116575714D01*
X62846191Y-116623333D01*
X62893810Y-116670952D01*
X62941429Y-116766190D01*
X62941429Y-117051905D01*
X62893810Y-117147143D01*
X62846191Y-117194762D01*
X62750953Y-117242381D01*
X62608095Y-117242381D01*
X63370000Y-116575714D02*
X63370000Y-117242381D01*
X63370000Y-116670952D02*
X63417619Y-116623333D01*
X63512857Y-116575714D01*
X63655715Y-116575714D01*
X63750953Y-116623333D01*
X63798572Y-116718571D01*
X63798572Y-117242381D01*
X65370001Y-116718571D02*
X65512858Y-116766190D01*
X65560477Y-116813810D01*
X65608096Y-116909048D01*
X65608096Y-117051905D01*
X65560477Y-117147143D01*
X65512858Y-117194762D01*
X65417620Y-117242381D01*
X65036667Y-117242381D01*
X65036667Y-116242381D01*
X65370001Y-116242381D01*
X65465239Y-116290000D01*
X65512858Y-116337619D01*
X65560477Y-116432857D01*
X65560477Y-116528095D01*
X65512858Y-116623333D01*
X65465239Y-116670952D01*
X65370001Y-116718571D01*
X65036667Y-116718571D01*
X66179524Y-117242381D02*
X66084286Y-117194762D01*
X66036667Y-117147143D01*
X65989048Y-117051905D01*
X65989048Y-116766190D01*
X66036667Y-116670952D01*
X66084286Y-116623333D01*
X66179524Y-116575714D01*
X66322382Y-116575714D01*
X66417620Y-116623333D01*
X66465239Y-116670952D01*
X66512858Y-116766190D01*
X66512858Y-117051905D01*
X66465239Y-117147143D01*
X66417620Y-117194762D01*
X66322382Y-117242381D01*
X66179524Y-117242381D01*
X66798572Y-116575714D02*
X67179524Y-116575714D01*
X66941429Y-116242381D02*
X66941429Y-117099524D01*
X66989048Y-117194762D01*
X67084286Y-117242381D01*
X67179524Y-117242381D01*
X67512858Y-117242381D02*
X67512858Y-116242381D01*
X67941430Y-117242381D02*
X67941430Y-116718571D01*
X67893811Y-116623333D01*
X67798573Y-116575714D01*
X67655715Y-116575714D01*
X67560477Y-116623333D01*
X67512858Y-116670952D01*
X69131906Y-117194762D02*
X69274763Y-117242381D01*
X69512859Y-117242381D01*
X69608097Y-117194762D01*
X69655716Y-117147143D01*
X69703335Y-117051905D01*
X69703335Y-116956667D01*
X69655716Y-116861429D01*
X69608097Y-116813810D01*
X69512859Y-116766190D01*
X69322382Y-116718571D01*
X69227144Y-116670952D01*
X69179525Y-116623333D01*
X69131906Y-116528095D01*
X69131906Y-116432857D01*
X69179525Y-116337619D01*
X69227144Y-116290000D01*
X69322382Y-116242381D01*
X69560478Y-116242381D01*
X69703335Y-116290000D01*
X70131906Y-117242381D02*
X70131906Y-116575714D01*
X70131906Y-116242381D02*
X70084287Y-116290000D01*
X70131906Y-116337619D01*
X70179525Y-116290000D01*
X70131906Y-116242381D01*
X70131906Y-116337619D01*
X71036668Y-117242381D02*
X71036668Y-116242381D01*
X71036668Y-117194762D02*
X70941430Y-117242381D01*
X70750953Y-117242381D01*
X70655715Y-117194762D01*
X70608096Y-117147143D01*
X70560477Y-117051905D01*
X70560477Y-116766190D01*
X70608096Y-116670952D01*
X70655715Y-116623333D01*
X70750953Y-116575714D01*
X70941430Y-116575714D01*
X71036668Y-116623333D01*
X71893811Y-117194762D02*
X71798573Y-117242381D01*
X71608096Y-117242381D01*
X71512858Y-117194762D01*
X71465239Y-117099524D01*
X71465239Y-116718571D01*
X71512858Y-116623333D01*
X71608096Y-116575714D01*
X71798573Y-116575714D01*
X71893811Y-116623333D01*
X71941430Y-116718571D01*
X71941430Y-116813810D01*
X71465239Y-116909048D01*
X72322382Y-117194762D02*
X72417620Y-117242381D01*
X72608096Y-117242381D01*
X72703335Y-117194762D01*
X72750954Y-117099524D01*
X72750954Y-117051905D01*
X72703335Y-116956667D01*
X72608096Y-116909048D01*
X72465239Y-116909048D01*
X72370001Y-116861429D01*
X72322382Y-116766190D01*
X72322382Y-116718571D01*
X72370001Y-116623333D01*
X72465239Y-116575714D01*
X72608096Y-116575714D01*
X72703335Y-116623333D01*
X58036666Y-119142381D02*
X58036666Y-118142381D01*
X58512856Y-119142381D02*
X58512856Y-118475714D01*
X58512856Y-118570952D02*
X58560475Y-118523333D01*
X58655713Y-118475714D01*
X58798571Y-118475714D01*
X58893809Y-118523333D01*
X58941428Y-118618571D01*
X58941428Y-119142381D01*
X58941428Y-118618571D02*
X58989047Y-118523333D01*
X59084285Y-118475714D01*
X59227142Y-118475714D01*
X59322380Y-118523333D01*
X59369999Y-118618571D01*
X59369999Y-119142381D01*
X59846189Y-118475714D02*
X59846189Y-119475714D01*
X59846189Y-118523333D02*
X59941427Y-118475714D01*
X60131904Y-118475714D01*
X60227142Y-118523333D01*
X60274761Y-118570952D01*
X60322380Y-118666190D01*
X60322380Y-118951905D01*
X60274761Y-119047143D01*
X60227142Y-119094762D01*
X60131904Y-119142381D01*
X59941427Y-119142381D01*
X59846189Y-119094762D01*
X61131904Y-119094762D02*
X61036666Y-119142381D01*
X60846189Y-119142381D01*
X60750951Y-119094762D01*
X60703332Y-118999524D01*
X60703332Y-118618571D01*
X60750951Y-118523333D01*
X60846189Y-118475714D01*
X61036666Y-118475714D01*
X61131904Y-118523333D01*
X61179523Y-118618571D01*
X61179523Y-118713810D01*
X60703332Y-118809048D01*
X62036666Y-119142381D02*
X62036666Y-118142381D01*
X62036666Y-119094762D02*
X61941428Y-119142381D01*
X61750951Y-119142381D01*
X61655713Y-119094762D01*
X61608094Y-119047143D01*
X61560475Y-118951905D01*
X61560475Y-118666190D01*
X61608094Y-118570952D01*
X61655713Y-118523333D01*
X61750951Y-118475714D01*
X61941428Y-118475714D01*
X62036666Y-118523333D01*
X62893809Y-119094762D02*
X62798571Y-119142381D01*
X62608094Y-119142381D01*
X62512856Y-119094762D01*
X62465237Y-118999524D01*
X62465237Y-118618571D01*
X62512856Y-118523333D01*
X62608094Y-118475714D01*
X62798571Y-118475714D01*
X62893809Y-118523333D01*
X62941428Y-118618571D01*
X62941428Y-118713810D01*
X62465237Y-118809048D01*
X63369999Y-118475714D02*
X63369999Y-119142381D01*
X63369999Y-118570952D02*
X63417618Y-118523333D01*
X63512856Y-118475714D01*
X63655714Y-118475714D01*
X63750952Y-118523333D01*
X63798571Y-118618571D01*
X63798571Y-119142381D01*
X64703333Y-119094762D02*
X64608095Y-119142381D01*
X64417618Y-119142381D01*
X64322380Y-119094762D01*
X64274761Y-119047143D01*
X64227142Y-118951905D01*
X64227142Y-118666190D01*
X64274761Y-118570952D01*
X64322380Y-118523333D01*
X64417618Y-118475714D01*
X64608095Y-118475714D01*
X64703333Y-118523333D01*
X65512857Y-119094762D02*
X65417619Y-119142381D01*
X65227142Y-119142381D01*
X65131904Y-119094762D01*
X65084285Y-118999524D01*
X65084285Y-118618571D01*
X65131904Y-118523333D01*
X65227142Y-118475714D01*
X65417619Y-118475714D01*
X65512857Y-118523333D01*
X65560476Y-118618571D01*
X65560476Y-118713810D01*
X65084285Y-118809048D01*
X67322381Y-119047143D02*
X67274762Y-119094762D01*
X67131905Y-119142381D01*
X67036667Y-119142381D01*
X66893809Y-119094762D01*
X66798571Y-118999524D01*
X66750952Y-118904286D01*
X66703333Y-118713810D01*
X66703333Y-118570952D01*
X66750952Y-118380476D01*
X66798571Y-118285238D01*
X66893809Y-118190000D01*
X67036667Y-118142381D01*
X67131905Y-118142381D01*
X67274762Y-118190000D01*
X67322381Y-118237619D01*
X67893809Y-119142381D02*
X67798571Y-119094762D01*
X67750952Y-119047143D01*
X67703333Y-118951905D01*
X67703333Y-118666190D01*
X67750952Y-118570952D01*
X67798571Y-118523333D01*
X67893809Y-118475714D01*
X68036667Y-118475714D01*
X68131905Y-118523333D01*
X68179524Y-118570952D01*
X68227143Y-118666190D01*
X68227143Y-118951905D01*
X68179524Y-119047143D01*
X68131905Y-119094762D01*
X68036667Y-119142381D01*
X67893809Y-119142381D01*
X68655714Y-118475714D02*
X68655714Y-119142381D01*
X68655714Y-118570952D02*
X68703333Y-118523333D01*
X68798571Y-118475714D01*
X68941429Y-118475714D01*
X69036667Y-118523333D01*
X69084286Y-118618571D01*
X69084286Y-119142381D01*
X69417619Y-118475714D02*
X69798571Y-118475714D01*
X69560476Y-118142381D02*
X69560476Y-118999524D01*
X69608095Y-119094762D01*
X69703333Y-119142381D01*
X69798571Y-119142381D01*
X70131905Y-119142381D02*
X70131905Y-118475714D01*
X70131905Y-118666190D02*
X70179524Y-118570952D01*
X70227143Y-118523333D01*
X70322381Y-118475714D01*
X70417620Y-118475714D01*
X70893810Y-119142381D02*
X70798572Y-119094762D01*
X70750953Y-119047143D01*
X70703334Y-118951905D01*
X70703334Y-118666190D01*
X70750953Y-118570952D01*
X70798572Y-118523333D01*
X70893810Y-118475714D01*
X71036668Y-118475714D01*
X71131906Y-118523333D01*
X71179525Y-118570952D01*
X71227144Y-118666190D01*
X71227144Y-118951905D01*
X71179525Y-119047143D01*
X71131906Y-119094762D01*
X71036668Y-119142381D01*
X70893810Y-119142381D01*
X71798572Y-119142381D02*
X71703334Y-119094762D01*
X71655715Y-118999524D01*
X71655715Y-118142381D01*
X58608095Y-120947143D02*
X58560476Y-120994762D01*
X58417619Y-121042381D01*
X58322381Y-121042381D01*
X58179523Y-120994762D01*
X58084285Y-120899524D01*
X58036666Y-120804286D01*
X57989047Y-120613810D01*
X57989047Y-120470952D01*
X58036666Y-120280476D01*
X58084285Y-120185238D01*
X58179523Y-120090000D01*
X58322381Y-120042381D01*
X58417619Y-120042381D01*
X58560476Y-120090000D01*
X58608095Y-120137619D01*
X59179523Y-121042381D02*
X59084285Y-120994762D01*
X59036666Y-120947143D01*
X58989047Y-120851905D01*
X58989047Y-120566190D01*
X59036666Y-120470952D01*
X59084285Y-120423333D01*
X59179523Y-120375714D01*
X59322381Y-120375714D01*
X59417619Y-120423333D01*
X59465238Y-120470952D01*
X59512857Y-120566190D01*
X59512857Y-120851905D01*
X59465238Y-120947143D01*
X59417619Y-120994762D01*
X59322381Y-121042381D01*
X59179523Y-121042381D01*
X59941428Y-120375714D02*
X59941428Y-121375714D01*
X59941428Y-120423333D02*
X60036666Y-120375714D01*
X60227143Y-120375714D01*
X60322381Y-120423333D01*
X60370000Y-120470952D01*
X60417619Y-120566190D01*
X60417619Y-120851905D01*
X60370000Y-120947143D01*
X60322381Y-120994762D01*
X60227143Y-121042381D01*
X60036666Y-121042381D01*
X59941428Y-120994762D01*
X60846190Y-120375714D02*
X60846190Y-121375714D01*
X60846190Y-120423333D02*
X60941428Y-120375714D01*
X61131905Y-120375714D01*
X61227143Y-120423333D01*
X61274762Y-120470952D01*
X61322381Y-120566190D01*
X61322381Y-120851905D01*
X61274762Y-120947143D01*
X61227143Y-120994762D01*
X61131905Y-121042381D01*
X60941428Y-121042381D01*
X60846190Y-120994762D01*
X62131905Y-120994762D02*
X62036667Y-121042381D01*
X61846190Y-121042381D01*
X61750952Y-120994762D01*
X61703333Y-120899524D01*
X61703333Y-120518571D01*
X61750952Y-120423333D01*
X61846190Y-120375714D01*
X62036667Y-120375714D01*
X62131905Y-120423333D01*
X62179524Y-120518571D01*
X62179524Y-120613810D01*
X61703333Y-120709048D01*
X62608095Y-121042381D02*
X62608095Y-120375714D01*
X62608095Y-120566190D02*
X62655714Y-120470952D01*
X62703333Y-120423333D01*
X62798571Y-120375714D01*
X62893810Y-120375714D01*
X63846191Y-120042381D02*
X64417620Y-120042381D01*
X64131905Y-121042381D02*
X64131905Y-120042381D01*
X64750953Y-121042381D02*
X64750953Y-120042381D01*
X65179525Y-121042381D02*
X65179525Y-120518571D01*
X65131906Y-120423333D01*
X65036668Y-120375714D01*
X64893810Y-120375714D01*
X64798572Y-120423333D01*
X64750953Y-120470952D01*
X65655715Y-121042381D02*
X65655715Y-120375714D01*
X65655715Y-120042381D02*
X65608096Y-120090000D01*
X65655715Y-120137619D01*
X65703334Y-120090000D01*
X65655715Y-120042381D01*
X65655715Y-120137619D01*
X66560477Y-120994762D02*
X66465239Y-121042381D01*
X66274762Y-121042381D01*
X66179524Y-120994762D01*
X66131905Y-120947143D01*
X66084286Y-120851905D01*
X66084286Y-120566190D01*
X66131905Y-120470952D01*
X66179524Y-120423333D01*
X66274762Y-120375714D01*
X66465239Y-120375714D01*
X66560477Y-120423333D01*
X66989048Y-121042381D02*
X66989048Y-120042381D01*
X67084286Y-120661429D02*
X67370001Y-121042381D01*
X67370001Y-120375714D02*
X66989048Y-120756667D01*
X67798572Y-120375714D02*
X67798572Y-121042381D01*
X67798572Y-120470952D02*
X67846191Y-120423333D01*
X67941429Y-120375714D01*
X68084287Y-120375714D01*
X68179525Y-120423333D01*
X68227144Y-120518571D01*
X68227144Y-121042381D01*
X69084287Y-120994762D02*
X68989049Y-121042381D01*
X68798572Y-121042381D01*
X68703334Y-120994762D01*
X68655715Y-120899524D01*
X68655715Y-120518571D01*
X68703334Y-120423333D01*
X68798572Y-120375714D01*
X68989049Y-120375714D01*
X69084287Y-120423333D01*
X69131906Y-120518571D01*
X69131906Y-120613810D01*
X68655715Y-120709048D01*
X69512858Y-120994762D02*
X69608096Y-121042381D01*
X69798572Y-121042381D01*
X69893811Y-120994762D01*
X69941430Y-120899524D01*
X69941430Y-120851905D01*
X69893811Y-120756667D01*
X69798572Y-120709048D01*
X69655715Y-120709048D01*
X69560477Y-120661429D01*
X69512858Y-120566190D01*
X69512858Y-120518571D01*
X69560477Y-120423333D01*
X69655715Y-120375714D01*
X69798572Y-120375714D01*
X69893811Y-120423333D01*
X70322382Y-120994762D02*
X70417620Y-121042381D01*
X70608096Y-121042381D01*
X70703335Y-120994762D01*
X70750954Y-120899524D01*
X70750954Y-120851905D01*
X70703335Y-120756667D01*
X70608096Y-120709048D01*
X70465239Y-120709048D01*
X70370001Y-120661429D01*
X70322382Y-120566190D01*
X70322382Y-120518571D01*
X70370001Y-120423333D01*
X70465239Y-120375714D01*
X70608096Y-120375714D01*
X70703335Y-120423333D01*
X58427144Y-122718571D02*
X58093810Y-122718571D01*
X58093810Y-123242381D02*
X58093810Y-122242381D01*
X58570001Y-122242381D01*
X58950953Y-123242381D02*
X58950953Y-122575714D01*
X58950953Y-122242381D02*
X58903334Y-122290000D01*
X58950953Y-122337619D01*
X58998572Y-122290000D01*
X58950953Y-122242381D01*
X58950953Y-122337619D01*
X59427143Y-122575714D02*
X59427143Y-123242381D01*
X59427143Y-122670952D02*
X59474762Y-122623333D01*
X59570000Y-122575714D01*
X59712858Y-122575714D01*
X59808096Y-122623333D01*
X59855715Y-122718571D01*
X59855715Y-123242381D01*
X60331905Y-123242381D02*
X60331905Y-122575714D01*
X60331905Y-122242381D02*
X60284286Y-122290000D01*
X60331905Y-122337619D01*
X60379524Y-122290000D01*
X60331905Y-122242381D01*
X60331905Y-122337619D01*
X60760476Y-123194762D02*
X60855714Y-123242381D01*
X61046190Y-123242381D01*
X61141429Y-123194762D01*
X61189048Y-123099524D01*
X61189048Y-123051905D01*
X61141429Y-122956667D01*
X61046190Y-122909048D01*
X60903333Y-122909048D01*
X60808095Y-122861429D01*
X60760476Y-122766190D01*
X60760476Y-122718571D01*
X60808095Y-122623333D01*
X60903333Y-122575714D01*
X61046190Y-122575714D01*
X61141429Y-122623333D01*
X61617619Y-123242381D02*
X61617619Y-122242381D01*
X62046191Y-123242381D02*
X62046191Y-122718571D01*
X61998572Y-122623333D01*
X61903334Y-122575714D01*
X61760476Y-122575714D01*
X61665238Y-122623333D01*
X61617619Y-122670952D01*
X58360477Y-124618571D02*
X58503334Y-124666190D01*
X58550953Y-124713810D01*
X58598572Y-124809048D01*
X58598572Y-124951905D01*
X58550953Y-125047143D01*
X58503334Y-125094762D01*
X58408096Y-125142381D01*
X58027143Y-125142381D01*
X58027143Y-124142381D01*
X58360477Y-124142381D01*
X58455715Y-124190000D01*
X58503334Y-124237619D01*
X58550953Y-124332857D01*
X58550953Y-124428095D01*
X58503334Y-124523333D01*
X58455715Y-124570952D01*
X58360477Y-124618571D01*
X58027143Y-124618571D01*
X59360477Y-124618571D02*
X59503334Y-124666190D01*
X59550953Y-124713810D01*
X59598572Y-124809048D01*
X59598572Y-124951905D01*
X59550953Y-125047143D01*
X59503334Y-125094762D01*
X59408096Y-125142381D01*
X59027143Y-125142381D01*
X59027143Y-124142381D01*
X59360477Y-124142381D01*
X59455715Y-124190000D01*
X59503334Y-124237619D01*
X59550953Y-124332857D01*
X59550953Y-124428095D01*
X59503334Y-124523333D01*
X59455715Y-124570952D01*
X59360477Y-124618571D01*
X59027143Y-124618571D01*
X59884286Y-124142381D02*
X60455715Y-124142381D01*
X60170000Y-125142381D02*
X60170000Y-124142381D01*
X58431905Y-126718571D02*
X58098571Y-126718571D01*
X58098571Y-127242381D02*
X58098571Y-126242381D01*
X58574762Y-126242381D01*
X59289048Y-126718571D02*
X59431905Y-126766190D01*
X59479524Y-126813810D01*
X59527143Y-126909048D01*
X59527143Y-127051905D01*
X59479524Y-127147143D01*
X59431905Y-127194762D01*
X59336667Y-127242381D01*
X58955714Y-127242381D01*
X58955714Y-126242381D01*
X59289048Y-126242381D01*
X59384286Y-126290000D01*
X59431905Y-126337619D01*
X59479524Y-126432857D01*
X59479524Y-126528095D01*
X59431905Y-126623333D01*
X59384286Y-126670952D01*
X59289048Y-126718571D01*
X58955714Y-126718571D01*
X59812857Y-126242381D02*
X60384286Y-126242381D01*
X60098571Y-127242381D02*
X60098571Y-126242381D01*
X57908094Y-128894762D02*
X58050951Y-128942381D01*
X58289047Y-128942381D01*
X58384285Y-128894762D01*
X58431904Y-128847143D01*
X58479523Y-128751905D01*
X58479523Y-128656667D01*
X58431904Y-128561429D01*
X58384285Y-128513810D01*
X58289047Y-128466190D01*
X58098570Y-128418571D01*
X58003332Y-128370952D01*
X57955713Y-128323333D01*
X57908094Y-128228095D01*
X57908094Y-128132857D01*
X57955713Y-128037619D01*
X58003332Y-127990000D01*
X58098570Y-127942381D01*
X58336666Y-127942381D01*
X58479523Y-127990000D01*
X59050951Y-128942381D02*
X58955713Y-128894762D01*
X58908094Y-128847143D01*
X58860475Y-128751905D01*
X58860475Y-128466190D01*
X58908094Y-128370952D01*
X58955713Y-128323333D01*
X59050951Y-128275714D01*
X59193809Y-128275714D01*
X59289047Y-128323333D01*
X59336666Y-128370952D01*
X59384285Y-128466190D01*
X59384285Y-128751905D01*
X59336666Y-128847143D01*
X59289047Y-128894762D01*
X59193809Y-128942381D01*
X59050951Y-128942381D01*
X59955713Y-128942381D02*
X59860475Y-128894762D01*
X59812856Y-128799524D01*
X59812856Y-127942381D01*
X60765238Y-128942381D02*
X60765238Y-127942381D01*
X60765238Y-128894762D02*
X60670000Y-128942381D01*
X60479523Y-128942381D01*
X60384285Y-128894762D01*
X60336666Y-128847143D01*
X60289047Y-128751905D01*
X60289047Y-128466190D01*
X60336666Y-128370952D01*
X60384285Y-128323333D01*
X60479523Y-128275714D01*
X60670000Y-128275714D01*
X60765238Y-128323333D01*
X61622381Y-128894762D02*
X61527143Y-128942381D01*
X61336666Y-128942381D01*
X61241428Y-128894762D01*
X61193809Y-128799524D01*
X61193809Y-128418571D01*
X61241428Y-128323333D01*
X61336666Y-128275714D01*
X61527143Y-128275714D01*
X61622381Y-128323333D01*
X61670000Y-128418571D01*
X61670000Y-128513810D01*
X61193809Y-128609048D01*
X62098571Y-128942381D02*
X62098571Y-128275714D01*
X62098571Y-128466190D02*
X62146190Y-128370952D01*
X62193809Y-128323333D01*
X62289047Y-128275714D01*
X62384286Y-128275714D01*
X63479524Y-128942381D02*
X63479524Y-127942381D01*
X63812858Y-128656667D01*
X64146191Y-127942381D01*
X64146191Y-128942381D01*
X65050953Y-128942381D02*
X65050953Y-128418571D01*
X65003334Y-128323333D01*
X64908096Y-128275714D01*
X64717619Y-128275714D01*
X64622381Y-128323333D01*
X65050953Y-128894762D02*
X64955715Y-128942381D01*
X64717619Y-128942381D01*
X64622381Y-128894762D01*
X64574762Y-128799524D01*
X64574762Y-128704286D01*
X64622381Y-128609048D01*
X64717619Y-128561429D01*
X64955715Y-128561429D01*
X65050953Y-128513810D01*
X65479524Y-128894762D02*
X65574762Y-128942381D01*
X65765238Y-128942381D01*
X65860477Y-128894762D01*
X65908096Y-128799524D01*
X65908096Y-128751905D01*
X65860477Y-128656667D01*
X65765238Y-128609048D01*
X65622381Y-128609048D01*
X65527143Y-128561429D01*
X65479524Y-128466190D01*
X65479524Y-128418571D01*
X65527143Y-128323333D01*
X65622381Y-128275714D01*
X65765238Y-128275714D01*
X65860477Y-128323333D01*
X66336667Y-128942381D02*
X66336667Y-127942381D01*
X66431905Y-128561429D02*
X66717620Y-128942381D01*
X66717620Y-128275714D02*
X66336667Y-128656667D01*
X68479525Y-128847143D02*
X68431906Y-128894762D01*
X68289049Y-128942381D01*
X68193811Y-128942381D01*
X68050953Y-128894762D01*
X67955715Y-128799524D01*
X67908096Y-128704286D01*
X67860477Y-128513810D01*
X67860477Y-128370952D01*
X67908096Y-128180476D01*
X67955715Y-128085238D01*
X68050953Y-127990000D01*
X68193811Y-127942381D01*
X68289049Y-127942381D01*
X68431906Y-127990000D01*
X68479525Y-128037619D01*
X69050953Y-128942381D02*
X68955715Y-128894762D01*
X68908096Y-128847143D01*
X68860477Y-128751905D01*
X68860477Y-128466190D01*
X68908096Y-128370952D01*
X68955715Y-128323333D01*
X69050953Y-128275714D01*
X69193811Y-128275714D01*
X69289049Y-128323333D01*
X69336668Y-128370952D01*
X69384287Y-128466190D01*
X69384287Y-128751905D01*
X69336668Y-128847143D01*
X69289049Y-128894762D01*
X69193811Y-128942381D01*
X69050953Y-128942381D01*
X69955715Y-128942381D02*
X69860477Y-128894762D01*
X69812858Y-128799524D01*
X69812858Y-127942381D01*
X70479525Y-128942381D02*
X70384287Y-128894762D01*
X70336668Y-128847143D01*
X70289049Y-128751905D01*
X70289049Y-128466190D01*
X70336668Y-128370952D01*
X70384287Y-128323333D01*
X70479525Y-128275714D01*
X70622383Y-128275714D01*
X70717621Y-128323333D01*
X70765240Y-128370952D01*
X70812859Y-128466190D01*
X70812859Y-128751905D01*
X70765240Y-128847143D01*
X70717621Y-128894762D01*
X70622383Y-128942381D01*
X70479525Y-128942381D01*
X71241430Y-128942381D02*
X71241430Y-128275714D01*
X71241430Y-128466190D02*
X71289049Y-128370952D01*
X71336668Y-128323333D01*
X71431906Y-128275714D01*
X71527145Y-128275714D01*
X78558571Y-92385714D02*
X78558571Y-93052381D01*
X78320475Y-92004762D02*
X78082380Y-92719048D01*
X78701428Y-92719048D01*
X80320476Y-93052381D02*
X79844285Y-93052381D01*
X79844285Y-92052381D01*
X81082381Y-93052381D02*
X81082381Y-92528571D01*
X81034762Y-92433333D01*
X80939524Y-92385714D01*
X80749047Y-92385714D01*
X80653809Y-92433333D01*
X81082381Y-93004762D02*
X80987143Y-93052381D01*
X80749047Y-93052381D01*
X80653809Y-93004762D01*
X80606190Y-92909524D01*
X80606190Y-92814286D01*
X80653809Y-92719048D01*
X80749047Y-92671429D01*
X80987143Y-92671429D01*
X81082381Y-92623810D01*
X81463333Y-92385714D02*
X81701428Y-93052381D01*
X81939524Y-92385714D02*
X81701428Y-93052381D01*
X81606190Y-93290476D01*
X81558571Y-93338095D01*
X81463333Y-93385714D01*
X82701429Y-93004762D02*
X82606191Y-93052381D01*
X82415714Y-93052381D01*
X82320476Y-93004762D01*
X82272857Y-92909524D01*
X82272857Y-92528571D01*
X82320476Y-92433333D01*
X82415714Y-92385714D01*
X82606191Y-92385714D01*
X82701429Y-92433333D01*
X82749048Y-92528571D01*
X82749048Y-92623810D01*
X82272857Y-92719048D01*
X83177619Y-93052381D02*
X83177619Y-92385714D01*
X83177619Y-92576190D02*
X83225238Y-92480952D01*
X83272857Y-92433333D01*
X83368095Y-92385714D01*
X83463334Y-92385714D01*
X83749048Y-93004762D02*
X83844286Y-93052381D01*
X84034762Y-93052381D01*
X84130001Y-93004762D01*
X84177620Y-92909524D01*
X84177620Y-92861905D01*
X84130001Y-92766667D01*
X84034762Y-92719048D01*
X83891905Y-92719048D01*
X83796667Y-92671429D01*
X83749048Y-92576190D01*
X83749048Y-92528571D01*
X83796667Y-92433333D01*
X83891905Y-92385714D01*
X84034762Y-92385714D01*
X84130001Y-92433333D01*
X78522381Y-94570952D02*
X78427143Y-94523333D01*
X78379524Y-94475714D01*
X78331905Y-94380476D01*
X78331905Y-94332857D01*
X78379524Y-94237619D01*
X78427143Y-94190000D01*
X78522381Y-94142381D01*
X78712858Y-94142381D01*
X78808096Y-94190000D01*
X78855715Y-94237619D01*
X78903334Y-94332857D01*
X78903334Y-94380476D01*
X78855715Y-94475714D01*
X78808096Y-94523333D01*
X78712858Y-94570952D01*
X78522381Y-94570952D01*
X78427143Y-94618571D01*
X78379524Y-94666190D01*
X78331905Y-94761429D01*
X78331905Y-94951905D01*
X78379524Y-95047143D01*
X78427143Y-95094762D01*
X78522381Y-95142381D01*
X78712858Y-95142381D01*
X78808096Y-95094762D01*
X78855715Y-95047143D01*
X78903334Y-94951905D01*
X78903334Y-94761429D01*
X78855715Y-94666190D01*
X78808096Y-94618571D01*
X78712858Y-94570952D01*
X80093810Y-95142381D02*
X80093810Y-94475714D01*
X80093810Y-94570952D02*
X80141429Y-94523333D01*
X80236667Y-94475714D01*
X80379525Y-94475714D01*
X80474763Y-94523333D01*
X80522382Y-94618571D01*
X80522382Y-95142381D01*
X80522382Y-94618571D02*
X80570001Y-94523333D01*
X80665239Y-94475714D01*
X80808096Y-94475714D01*
X80903334Y-94523333D01*
X80950953Y-94618571D01*
X80950953Y-95142381D01*
X81427143Y-95142381D02*
X81427143Y-94475714D01*
X81427143Y-94142381D02*
X81379524Y-94190000D01*
X81427143Y-94237619D01*
X81474762Y-94190000D01*
X81427143Y-94142381D01*
X81427143Y-94237619D01*
X82046190Y-95142381D02*
X81950952Y-95094762D01*
X81903333Y-94999524D01*
X81903333Y-94142381D01*
X82379524Y-95094762D02*
X82474762Y-95142381D01*
X82665238Y-95142381D01*
X82760477Y-95094762D01*
X82808096Y-94999524D01*
X82808096Y-94951905D01*
X82760477Y-94856667D01*
X82665238Y-94809048D01*
X82522381Y-94809048D01*
X82427143Y-94761429D01*
X82379524Y-94666190D01*
X82379524Y-94618571D01*
X82427143Y-94523333D01*
X82522381Y-94475714D01*
X82665238Y-94475714D01*
X82760477Y-94523333D01*
X78522381Y-96570952D02*
X78427143Y-96523333D01*
X78379524Y-96475714D01*
X78331905Y-96380476D01*
X78331905Y-96332857D01*
X78379524Y-96237619D01*
X78427143Y-96190000D01*
X78522381Y-96142381D01*
X78712858Y-96142381D01*
X78808096Y-96190000D01*
X78855715Y-96237619D01*
X78903334Y-96332857D01*
X78903334Y-96380476D01*
X78855715Y-96475714D01*
X78808096Y-96523333D01*
X78712858Y-96570952D01*
X78522381Y-96570952D01*
X78427143Y-96618571D01*
X78379524Y-96666190D01*
X78331905Y-96761429D01*
X78331905Y-96951905D01*
X78379524Y-97047143D01*
X78427143Y-97094762D01*
X78522381Y-97142381D01*
X78712858Y-97142381D01*
X78808096Y-97094762D01*
X78855715Y-97047143D01*
X78903334Y-96951905D01*
X78903334Y-96761429D01*
X78855715Y-96666190D01*
X78808096Y-96618571D01*
X78712858Y-96570952D01*
X80093810Y-97142381D02*
X80093810Y-96475714D01*
X80093810Y-96570952D02*
X80141429Y-96523333D01*
X80236667Y-96475714D01*
X80379525Y-96475714D01*
X80474763Y-96523333D01*
X80522382Y-96618571D01*
X80522382Y-97142381D01*
X80522382Y-96618571D02*
X80570001Y-96523333D01*
X80665239Y-96475714D01*
X80808096Y-96475714D01*
X80903334Y-96523333D01*
X80950953Y-96618571D01*
X80950953Y-97142381D01*
X81427143Y-97142381D02*
X81427143Y-96475714D01*
X81427143Y-96142381D02*
X81379524Y-96190000D01*
X81427143Y-96237619D01*
X81474762Y-96190000D01*
X81427143Y-96142381D01*
X81427143Y-96237619D01*
X82046190Y-97142381D02*
X81950952Y-97094762D01*
X81903333Y-96999524D01*
X81903333Y-96142381D01*
X82379524Y-97094762D02*
X82474762Y-97142381D01*
X82665238Y-97142381D01*
X82760477Y-97094762D01*
X82808096Y-96999524D01*
X82808096Y-96951905D01*
X82760477Y-96856667D01*
X82665238Y-96809048D01*
X82522381Y-96809048D01*
X82427143Y-96761429D01*
X82379524Y-96666190D01*
X82379524Y-96618571D01*
X82427143Y-96523333D01*
X82522381Y-96475714D01*
X82665238Y-96475714D01*
X82760477Y-96523333D01*
X78831905Y-99142381D02*
X78831905Y-98142381D01*
X79403334Y-99142381D01*
X79403334Y-98142381D01*
X80022381Y-99142381D02*
X79927143Y-99094762D01*
X79879524Y-99047143D01*
X79831905Y-98951905D01*
X79831905Y-98666190D01*
X79879524Y-98570952D01*
X79927143Y-98523333D01*
X80022381Y-98475714D01*
X80165239Y-98475714D01*
X80260477Y-98523333D01*
X80308096Y-98570952D01*
X80355715Y-98666190D01*
X80355715Y-98951905D01*
X80308096Y-99047143D01*
X80260477Y-99094762D01*
X80165239Y-99142381D01*
X80022381Y-99142381D01*
X78736666Y-100666190D02*
X78736666Y-101142381D01*
X78403333Y-100142381D02*
X78736666Y-100666190D01*
X79070000Y-100142381D01*
X79784286Y-101094762D02*
X79689048Y-101142381D01*
X79498571Y-101142381D01*
X79403333Y-101094762D01*
X79355714Y-100999524D01*
X79355714Y-100618571D01*
X79403333Y-100523333D01*
X79498571Y-100475714D01*
X79689048Y-100475714D01*
X79784286Y-100523333D01*
X79831905Y-100618571D01*
X79831905Y-100713810D01*
X79355714Y-100809048D01*
X80212857Y-101094762D02*
X80308095Y-101142381D01*
X80498571Y-101142381D01*
X80593810Y-101094762D01*
X80641429Y-100999524D01*
X80641429Y-100951905D01*
X80593810Y-100856667D01*
X80498571Y-100809048D01*
X80355714Y-100809048D01*
X80260476Y-100761429D01*
X80212857Y-100666190D01*
X80212857Y-100618571D01*
X80260476Y-100523333D01*
X80355714Y-100475714D01*
X80498571Y-100475714D01*
X80593810Y-100523333D01*
X78736666Y-102666190D02*
X78736666Y-103142381D01*
X78403333Y-102142381D02*
X78736666Y-102666190D01*
X79070000Y-102142381D01*
X79784286Y-103094762D02*
X79689048Y-103142381D01*
X79498571Y-103142381D01*
X79403333Y-103094762D01*
X79355714Y-102999524D01*
X79355714Y-102618571D01*
X79403333Y-102523333D01*
X79498571Y-102475714D01*
X79689048Y-102475714D01*
X79784286Y-102523333D01*
X79831905Y-102618571D01*
X79831905Y-102713810D01*
X79355714Y-102809048D01*
X80212857Y-103094762D02*
X80308095Y-103142381D01*
X80498571Y-103142381D01*
X80593810Y-103094762D01*
X80641429Y-102999524D01*
X80641429Y-102951905D01*
X80593810Y-102856667D01*
X80498571Y-102809048D01*
X80355714Y-102809048D01*
X80260476Y-102761429D01*
X80212857Y-102666190D01*
X80212857Y-102618571D01*
X80260476Y-102523333D01*
X80355714Y-102475714D01*
X80498571Y-102475714D01*
X80593810Y-102523333D01*
X78831905Y-105142381D02*
X78831905Y-104142381D01*
X79403334Y-105142381D01*
X79403334Y-104142381D01*
X80022381Y-105142381D02*
X79927143Y-105094762D01*
X79879524Y-105047143D01*
X79831905Y-104951905D01*
X79831905Y-104666190D01*
X79879524Y-104570952D01*
X79927143Y-104523333D01*
X80022381Y-104475714D01*
X80165239Y-104475714D01*
X80260477Y-104523333D01*
X80308096Y-104570952D01*
X80355715Y-104666190D01*
X80355715Y-104951905D01*
X80308096Y-105047143D01*
X80260477Y-105094762D01*
X80165239Y-105142381D01*
X80022381Y-105142381D01*
X78808096Y-106142381D02*
X78617619Y-106142381D01*
X78522381Y-106190000D01*
X78474762Y-106237619D01*
X78379524Y-106380476D01*
X78331905Y-106570952D01*
X78331905Y-106951905D01*
X78379524Y-107047143D01*
X78427143Y-107094762D01*
X78522381Y-107142381D01*
X78712858Y-107142381D01*
X78808096Y-107094762D01*
X78855715Y-107047143D01*
X78903334Y-106951905D01*
X78903334Y-106713810D01*
X78855715Y-106618571D01*
X78808096Y-106570952D01*
X78712858Y-106523333D01*
X78522381Y-106523333D01*
X78427143Y-106570952D01*
X78379524Y-106618571D01*
X78331905Y-106713810D01*
X80093810Y-107142381D02*
X80093810Y-106475714D01*
X80093810Y-106570952D02*
X80141429Y-106523333D01*
X80236667Y-106475714D01*
X80379525Y-106475714D01*
X80474763Y-106523333D01*
X80522382Y-106618571D01*
X80522382Y-107142381D01*
X80522382Y-106618571D02*
X80570001Y-106523333D01*
X80665239Y-106475714D01*
X80808096Y-106475714D01*
X80903334Y-106523333D01*
X80950953Y-106618571D01*
X80950953Y-107142381D01*
X81427143Y-107142381D02*
X81427143Y-106475714D01*
X81427143Y-106142381D02*
X81379524Y-106190000D01*
X81427143Y-106237619D01*
X81474762Y-106190000D01*
X81427143Y-106142381D01*
X81427143Y-106237619D01*
X82046190Y-107142381D02*
X81950952Y-107094762D01*
X81903333Y-106999524D01*
X81903333Y-106142381D01*
X82379524Y-107094762D02*
X82474762Y-107142381D01*
X82665238Y-107142381D01*
X82760477Y-107094762D01*
X82808096Y-106999524D01*
X82808096Y-106951905D01*
X82760477Y-106856667D01*
X82665238Y-106809048D01*
X82522381Y-106809048D01*
X82427143Y-106761429D01*
X82379524Y-106666190D01*
X82379524Y-106618571D01*
X82427143Y-106523333D01*
X82522381Y-106475714D01*
X82665238Y-106475714D01*
X82760477Y-106523333D01*
X78831905Y-109142381D02*
X78831905Y-108142381D01*
X79403334Y-109142381D01*
X79403334Y-108142381D01*
X80022381Y-109142381D02*
X79927143Y-109094762D01*
X79879524Y-109047143D01*
X79831905Y-108951905D01*
X79831905Y-108666190D01*
X79879524Y-108570952D01*
X79927143Y-108523333D01*
X80022381Y-108475714D01*
X80165239Y-108475714D01*
X80260477Y-108523333D01*
X80308096Y-108570952D01*
X80355715Y-108666190D01*
X80355715Y-108951905D01*
X80308096Y-109047143D01*
X80260477Y-109094762D01*
X80165239Y-109142381D01*
X80022381Y-109142381D01*
X77855715Y-110237619D02*
X77903334Y-110190000D01*
X77998572Y-110142381D01*
X78236668Y-110142381D01*
X78331906Y-110190000D01*
X78379525Y-110237619D01*
X78427144Y-110332857D01*
X78427144Y-110428095D01*
X78379525Y-110570952D01*
X77808096Y-111142381D01*
X78427144Y-111142381D01*
X78855715Y-111047143D02*
X78903334Y-111094762D01*
X78855715Y-111142381D01*
X78808096Y-111094762D01*
X78855715Y-111047143D01*
X78855715Y-111142381D01*
X79522381Y-110142381D02*
X79617620Y-110142381D01*
X79712858Y-110190000D01*
X79760477Y-110237619D01*
X79808096Y-110332857D01*
X79855715Y-110523333D01*
X79855715Y-110761429D01*
X79808096Y-110951905D01*
X79760477Y-111047143D01*
X79712858Y-111094762D01*
X79617620Y-111142381D01*
X79522381Y-111142381D01*
X79427143Y-111094762D01*
X79379524Y-111047143D01*
X79331905Y-110951905D01*
X79284286Y-110761429D01*
X79284286Y-110523333D01*
X79331905Y-110332857D01*
X79379524Y-110237619D01*
X79427143Y-110190000D01*
X79522381Y-110142381D01*
X81046191Y-111142381D02*
X81046191Y-110475714D01*
X81046191Y-110570952D02*
X81093810Y-110523333D01*
X81189048Y-110475714D01*
X81331906Y-110475714D01*
X81427144Y-110523333D01*
X81474763Y-110618571D01*
X81474763Y-111142381D01*
X81474763Y-110618571D02*
X81522382Y-110523333D01*
X81617620Y-110475714D01*
X81760477Y-110475714D01*
X81855715Y-110523333D01*
X81903334Y-110618571D01*
X81903334Y-111142381D01*
X82379524Y-111142381D02*
X82379524Y-110475714D01*
X82379524Y-110570952D02*
X82427143Y-110523333D01*
X82522381Y-110475714D01*
X82665239Y-110475714D01*
X82760477Y-110523333D01*
X82808096Y-110618571D01*
X82808096Y-111142381D01*
X82808096Y-110618571D02*
X82855715Y-110523333D01*
X82950953Y-110475714D01*
X83093810Y-110475714D01*
X83189048Y-110523333D01*
X83236667Y-110618571D01*
X83236667Y-111142381D01*
X78736667Y-112618571D02*
X78403333Y-112618571D01*
X78403333Y-113142381D02*
X78403333Y-112142381D01*
X78879524Y-112142381D01*
X79831905Y-113142381D02*
X79498571Y-112666190D01*
X79260476Y-113142381D02*
X79260476Y-112142381D01*
X79641429Y-112142381D01*
X79736667Y-112190000D01*
X79784286Y-112237619D01*
X79831905Y-112332857D01*
X79831905Y-112475714D01*
X79784286Y-112570952D01*
X79736667Y-112618571D01*
X79641429Y-112666190D01*
X79260476Y-112666190D01*
X80689048Y-112475714D02*
X80689048Y-113142381D01*
X80450952Y-112094762D02*
X80212857Y-112809048D01*
X80831905Y-112809048D01*
X78566666Y-114636190D02*
X78566666Y-115112381D01*
X78233333Y-114112381D02*
X78566666Y-114636190D01*
X78900000Y-114112381D01*
X79614286Y-115064762D02*
X79519048Y-115112381D01*
X79328571Y-115112381D01*
X79233333Y-115064762D01*
X79185714Y-114969524D01*
X79185714Y-114588571D01*
X79233333Y-114493333D01*
X79328571Y-114445714D01*
X79519048Y-114445714D01*
X79614286Y-114493333D01*
X79661905Y-114588571D01*
X79661905Y-114683810D01*
X79185714Y-114779048D01*
X80042857Y-115064762D02*
X80138095Y-115112381D01*
X80328571Y-115112381D01*
X80423810Y-115064762D01*
X80471429Y-114969524D01*
X80471429Y-114921905D01*
X80423810Y-114826667D01*
X80328571Y-114779048D01*
X80185714Y-114779048D01*
X80090476Y-114731429D01*
X80042857Y-114636190D01*
X80042857Y-114588571D01*
X80090476Y-114493333D01*
X80185714Y-114445714D01*
X80328571Y-114445714D01*
X80423810Y-114493333D01*
X78736666Y-116666190D02*
X78736666Y-117142381D01*
X78403333Y-116142381D02*
X78736666Y-116666190D01*
X79070000Y-116142381D01*
X79784286Y-117094762D02*
X79689048Y-117142381D01*
X79498571Y-117142381D01*
X79403333Y-117094762D01*
X79355714Y-116999524D01*
X79355714Y-116618571D01*
X79403333Y-116523333D01*
X79498571Y-116475714D01*
X79689048Y-116475714D01*
X79784286Y-116523333D01*
X79831905Y-116618571D01*
X79831905Y-116713810D01*
X79355714Y-116809048D01*
X80212857Y-117094762D02*
X80308095Y-117142381D01*
X80498571Y-117142381D01*
X80593810Y-117094762D01*
X80641429Y-116999524D01*
X80641429Y-116951905D01*
X80593810Y-116856667D01*
X80498571Y-116809048D01*
X80355714Y-116809048D01*
X80260476Y-116761429D01*
X80212857Y-116666190D01*
X80212857Y-116618571D01*
X80260476Y-116523333D01*
X80355714Y-116475714D01*
X80498571Y-116475714D01*
X80593810Y-116523333D01*
X78831905Y-119142381D02*
X78831905Y-118142381D01*
X79403334Y-119142381D01*
X79403334Y-118142381D01*
X80022381Y-119142381D02*
X79927143Y-119094762D01*
X79879524Y-119047143D01*
X79831905Y-118951905D01*
X79831905Y-118666190D01*
X79879524Y-118570952D01*
X79927143Y-118523333D01*
X80022381Y-118475714D01*
X80165239Y-118475714D01*
X80260477Y-118523333D01*
X80308096Y-118570952D01*
X80355715Y-118666190D01*
X80355715Y-118951905D01*
X80308096Y-119047143D01*
X80260477Y-119094762D01*
X80165239Y-119142381D01*
X80022381Y-119142381D01*
X79186191Y-121062381D02*
X78614762Y-121062381D01*
X78900476Y-121062381D02*
X78900476Y-120062381D01*
X78805238Y-120205238D01*
X78710000Y-120300476D01*
X78614762Y-120348095D01*
X80567143Y-120062381D02*
X80757620Y-120062381D01*
X80852858Y-120110000D01*
X80948096Y-120205238D01*
X80995715Y-120395714D01*
X80995715Y-120729048D01*
X80948096Y-120919524D01*
X80852858Y-121014762D01*
X80757620Y-121062381D01*
X80567143Y-121062381D01*
X80471905Y-121014762D01*
X80376667Y-120919524D01*
X80329048Y-120729048D01*
X80329048Y-120395714D01*
X80376667Y-120205238D01*
X80471905Y-120110000D01*
X80567143Y-120062381D01*
X81329048Y-120395714D02*
X81852858Y-120395714D01*
X81329048Y-121062381D01*
X81852858Y-121062381D01*
X78379524Y-123142381D02*
X78379524Y-122142381D01*
X78379524Y-122618571D02*
X78950953Y-122618571D01*
X78950953Y-123142381D02*
X78950953Y-122142381D01*
X79379524Y-122856667D02*
X79855715Y-122856667D01*
X79284286Y-123142381D02*
X79617619Y-122142381D01*
X79950953Y-123142381D01*
X80236667Y-123094762D02*
X80379524Y-123142381D01*
X80617620Y-123142381D01*
X80712858Y-123094762D01*
X80760477Y-123047143D01*
X80808096Y-122951905D01*
X80808096Y-122856667D01*
X80760477Y-122761429D01*
X80712858Y-122713810D01*
X80617620Y-122666190D01*
X80427143Y-122618571D01*
X80331905Y-122570952D01*
X80284286Y-122523333D01*
X80236667Y-122428095D01*
X80236667Y-122332857D01*
X80284286Y-122237619D01*
X80331905Y-122190000D01*
X80427143Y-122142381D01*
X80665239Y-122142381D01*
X80808096Y-122190000D01*
X81712858Y-123142381D02*
X81236667Y-123142381D01*
X81236667Y-122142381D01*
X83141430Y-122618571D02*
X82808096Y-122618571D01*
X82808096Y-123142381D02*
X82808096Y-122142381D01*
X83284287Y-122142381D01*
X83665239Y-123142381D02*
X83665239Y-122475714D01*
X83665239Y-122142381D02*
X83617620Y-122190000D01*
X83665239Y-122237619D01*
X83712858Y-122190000D01*
X83665239Y-122142381D01*
X83665239Y-122237619D01*
X84141429Y-122475714D02*
X84141429Y-123142381D01*
X84141429Y-122570952D02*
X84189048Y-122523333D01*
X84284286Y-122475714D01*
X84427144Y-122475714D01*
X84522382Y-122523333D01*
X84570001Y-122618571D01*
X84570001Y-123142381D01*
X85046191Y-123142381D02*
X85046191Y-122475714D01*
X85046191Y-122142381D02*
X84998572Y-122190000D01*
X85046191Y-122237619D01*
X85093810Y-122190000D01*
X85046191Y-122142381D01*
X85046191Y-122237619D01*
X85474762Y-123094762D02*
X85570000Y-123142381D01*
X85760476Y-123142381D01*
X85855715Y-123094762D01*
X85903334Y-122999524D01*
X85903334Y-122951905D01*
X85855715Y-122856667D01*
X85760476Y-122809048D01*
X85617619Y-122809048D01*
X85522381Y-122761429D01*
X85474762Y-122666190D01*
X85474762Y-122618571D01*
X85522381Y-122523333D01*
X85617619Y-122475714D01*
X85760476Y-122475714D01*
X85855715Y-122523333D01*
X86331905Y-123142381D02*
X86331905Y-122142381D01*
X86760477Y-123142381D02*
X86760477Y-122618571D01*
X86712858Y-122523333D01*
X86617620Y-122475714D01*
X86474762Y-122475714D01*
X86379524Y-122523333D01*
X86331905Y-122570952D01*
X78736666Y-124666190D02*
X78736666Y-125142381D01*
X78403333Y-124142381D02*
X78736666Y-124666190D01*
X79070000Y-124142381D01*
X79784286Y-125094762D02*
X79689048Y-125142381D01*
X79498571Y-125142381D01*
X79403333Y-125094762D01*
X79355714Y-124999524D01*
X79355714Y-124618571D01*
X79403333Y-124523333D01*
X79498571Y-124475714D01*
X79689048Y-124475714D01*
X79784286Y-124523333D01*
X79831905Y-124618571D01*
X79831905Y-124713810D01*
X79355714Y-124809048D01*
X80212857Y-125094762D02*
X80308095Y-125142381D01*
X80498571Y-125142381D01*
X80593810Y-125094762D01*
X80641429Y-124999524D01*
X80641429Y-124951905D01*
X80593810Y-124856667D01*
X80498571Y-124809048D01*
X80355714Y-124809048D01*
X80260476Y-124761429D01*
X80212857Y-124666190D01*
X80212857Y-124618571D01*
X80260476Y-124523333D01*
X80355714Y-124475714D01*
X80498571Y-124475714D01*
X80593810Y-124523333D01*
X78736666Y-126666190D02*
X78736666Y-127142381D01*
X78403333Y-126142381D02*
X78736666Y-126666190D01*
X79070000Y-126142381D01*
X79784286Y-127094762D02*
X79689048Y-127142381D01*
X79498571Y-127142381D01*
X79403333Y-127094762D01*
X79355714Y-126999524D01*
X79355714Y-126618571D01*
X79403333Y-126523333D01*
X79498571Y-126475714D01*
X79689048Y-126475714D01*
X79784286Y-126523333D01*
X79831905Y-126618571D01*
X79831905Y-126713810D01*
X79355714Y-126809048D01*
X80212857Y-127094762D02*
X80308095Y-127142381D01*
X80498571Y-127142381D01*
X80593810Y-127094762D01*
X80641429Y-126999524D01*
X80641429Y-126951905D01*
X80593810Y-126856667D01*
X80498571Y-126809048D01*
X80355714Y-126809048D01*
X80260476Y-126761429D01*
X80212857Y-126666190D01*
X80212857Y-126618571D01*
X80260476Y-126523333D01*
X80355714Y-126475714D01*
X80498571Y-126475714D01*
X80593810Y-126523333D01*
X78868572Y-128638571D02*
X79011429Y-128686190D01*
X79059048Y-128733810D01*
X79106667Y-128829048D01*
X79106667Y-128971905D01*
X79059048Y-129067143D01*
X79011429Y-129114762D01*
X78916191Y-129162381D01*
X78535238Y-129162381D01*
X78535238Y-128162381D01*
X78868572Y-128162381D01*
X78963810Y-128210000D01*
X79011429Y-128257619D01*
X79059048Y-128352857D01*
X79059048Y-128448095D01*
X79011429Y-128543333D01*
X78963810Y-128590952D01*
X78868572Y-128638571D01*
X78535238Y-128638571D01*
X79678095Y-129162381D02*
X79582857Y-129114762D01*
X79535238Y-129019524D01*
X79535238Y-128162381D01*
X80487620Y-128495714D02*
X80487620Y-129162381D01*
X80059048Y-128495714D02*
X80059048Y-129019524D01*
X80106667Y-129114762D01*
X80201905Y-129162381D01*
X80344763Y-129162381D01*
X80440001Y-129114762D01*
X80487620Y-129067143D01*
X81344763Y-129114762D02*
X81249525Y-129162381D01*
X81059048Y-129162381D01*
X80963810Y-129114762D01*
X80916191Y-129019524D01*
X80916191Y-128638571D01*
X80963810Y-128543333D01*
X81059048Y-128495714D01*
X81249525Y-128495714D01*
X81344763Y-128543333D01*
X81392382Y-128638571D01*
X81392382Y-128733810D01*
X80916191Y-128829048D01*
M02*
